<?xml version="1.0" encoding="utf-8"?>
<!-- Generator: Adobe Illustrator 16.0.0, SVG Export Plug-In . SVG Version: 6.00 Build 0)  -->
<!DOCTYPE svg PUBLIC "-//W3C//DTD SVG 1.1//EN" "http://www.w3.org/Graphics/SVG/1.1/DTD/svg11.dtd">
<svg version="1.1" xmlns="http://www.w3.org/2000/svg" xmlns:xlink="http://www.w3.org/1999/xlink" x="0px" y="0px" width="48px"
	 height="48px" viewBox="0 0 48 48" enable-background="new 0 0 48 48" xml:space="preserve">
<g id="Layer_2" display="none">
	<g display="inline" opacity="0.5">
		<polygon fill="#00B7E8" points="49,-3 49,47 -253,47 -253,98 251,98 251,57.5 251,51.5 251,-3 		"/>
		<polygon fill="#E27600" points="-255,-52 -255,-3.087 -255,47 49,47 49,-2 251,-2 251,-52 		"/>
	</g>
</g>
<g id="Layer_1">
	<g>
		<circle fill="none" cx="19.738" cy="20.087" r="1.242"/>
		<circle fill="none" cx="16.531" cy="24.65" r="1.322"/>
		<circle fill="none" cx="25.965" cy="26.627" r="1.689"/>
		<circle fill="none" cx="35.39" cy="24.65" r="1.322"/>
		<circle fill="none" cx="32.183" cy="20.087" r="1.242"/>
		<path d="M36.546,18.116c-0.792-2.025-2.152-3.772-3.88-5.048c-1.039,2.689-3.652,4.604-6.704,4.604
			c-3.066,0-5.688-1.929-6.719-4.637c-1.735,1.278-3.094,3.037-3.894,5.081c-3.46,0.773-6.037,3.861-6.037,7.555
			c0,4.276,3.471,7.742,7.746,7.742c1.336,0,2.599-0.354,3.696-0.95c1.554,0.813,3.327,1.284,5.192,1.284h0.058
			c1.866,0,3.621-0.471,5.175-1.284c1.098,0.597,2.349,0.942,3.685,0.942c4.276,0,7.734-3.462,7.734-7.738
			C42.599,21.975,40.006,18.89,36.546,18.116z M16.531,25.972c-0.729,0-1.321-0.591-1.321-1.321s0.593-1.322,1.321-1.322
			c0.731,0,1.322,0.592,1.322,1.322S17.263,25.972,16.531,25.972z M19.738,21.329c-0.687,0-1.242-0.557-1.242-1.242
			c0-0.687,0.556-1.241,1.242-1.241c0.686,0,1.242,0.555,1.242,1.241C20.98,20.772,20.424,21.329,19.738,21.329z M25.965,28.316
			c-0.933,0-1.688-0.756-1.688-1.689c0-0.933,0.756-1.688,1.688-1.688c0.934,0,1.69,0.756,1.69,1.688
			C27.655,27.561,26.898,28.316,25.965,28.316z M32.183,21.329c-0.687,0-1.241-0.557-1.241-1.242c0-0.687,0.555-1.241,1.241-1.241
			c0.685,0,1.241,0.555,1.241,1.241C33.424,20.772,32.867,21.329,32.183,21.329z M35.39,25.972c-0.731,0-1.324-0.591-1.324-1.321
			s0.593-1.322,1.324-1.322c0.729,0,1.321,0.592,1.321,1.322S36.119,25.972,35.39,25.972z"/>
		<path d="M31.171,34.958c-1.605,0.675-3.365,1.055-5.211,1.068c-1.845-0.014-3.604-0.394-5.21-1.068
			c-1.142,0.454-2.386,0.705-3.688,0.705c-1.028,0-2.021-0.156-2.955-0.446l2.296,7.022c0.905,2.766,3.484,4.624,6.395,4.624h6.325
			c2.91,0,5.489-1.858,6.393-4.624l2.298-7.022c-0.935,0.29-1.927,0.446-2.955,0.446C33.556,35.663,32.313,35.412,31.171,34.958z"/>
		<path d="M25.847,9.354c-0.931,0-1.688-0.756-1.688-1.687c0-0.63-0.113-1.176-0.297-1.645c-1.675,0.789-2.835,2.491-2.835,4.466
			c0,2.725,2.209,4.934,4.935,4.934s4.933-2.209,4.933-4.934c0-2.256-1.514-4.157-3.579-4.745c0.14,0.585,0.22,1.224,0.22,1.924
			C27.535,8.598,26.778,9.354,25.847,9.354z"/>
		<path d="M21.093,2.242c0.041,0.011,4.192,1.135,4.192,5.425c0,0.311,0.252,0.563,0.562,0.563c0.312,0,0.563-0.252,0.563-0.563
			c0-5.151-4.985-6.501-5.034-6.514c-0.307-0.077-0.607,0.104-0.687,0.403C20.61,1.856,20.792,2.164,21.093,2.242z"/>
	</g>
</g>
</svg>
