<?xml version="1.0" encoding="utf-8"?>
<!-- Generator: Adobe Illustrator 16.0.0, SVG Export Plug-In . SVG Version: 6.00 Build 0)  -->
<!DOCTYPE svg PUBLIC "-//W3C//DTD SVG 1.1//EN" "http://www.w3.org/Graphics/SVG/1.1/DTD/svg11.dtd">
<svg version="1.1" id="Layer_1" xmlns="http://www.w3.org/2000/svg" xmlns:xlink="http://www.w3.org/1999/xlink" x="0px" y="0px"
	 width="48px" height="48px" viewBox="0 0 48 48" enable-background="new 0 0 48 48" xml:space="preserve">
<path d="M44.267,9.579c-0.54-3.952-3.736-7.162-7.687-7.713c-5.222-0.729-9.756,3.02-10.314,7.956H21.55l-1.421-7.113
	c-0.192-0.963-1.038-1.656-2.02-1.656H5.839c-1.081,0-2.069,0.774-2.182,1.85c-0.129,1.239,0.84,2.295,2.054,2.295H16.41
	l0.927,4.625h-1.999c-1.408,0-2.523,1.188-2.436,2.592l1.946,31.145C14.97,45.493,16.574,47,18.512,47h12.476
	c1.938,0,3.542-1.507,3.663-3.441l1.479-23.678C41.144,19.413,44.987,14.85,44.267,9.579z M17.991,27.66l-0.854-13.694h1.023
	l2.724,13.694H17.991z M36.306,4.963C37.207,5.117,38,5.464,38.703,5.959l-2.397,2.396V4.963z M34.204,4.963v3.393l-2.397-2.397
	C32.509,5.464,33.362,5.117,34.204,4.963z M30.392,7.425l2.397,2.397h-3.393C29.55,8.921,29.896,8.128,30.392,7.425z M31.509,27.66
	h-6.411l-2.724-13.694h9.988L31.509,27.66z M36.328,16.729l0.198-3.169l2.177,2.178C38.005,16.229,37.219,16.573,36.328,16.729z
	 M40.171,14.26l-2.396-2.396h3.391C41.013,12.765,40.666,13.557,40.171,14.26z M37.774,9.822l2.397-2.397
	c0.494,0.703,0.841,1.496,0.995,2.397H37.774z"/>
</svg>
