<?xml version="1.0" encoding="utf-8"?>
<!-- Generator: Adobe Illustrator 16.0.0, SVG Export Plug-In . SVG Version: 6.00 Build 0)  -->
<!DOCTYPE svg PUBLIC "-//W3C//DTD SVG 1.1//EN" "http://www.w3.org/Graphics/SVG/1.1/DTD/svg11.dtd">
<svg version="1.1" xmlns="http://www.w3.org/2000/svg" xmlns:xlink="http://www.w3.org/1999/xlink" x="0px" y="0px" width="48px"
	 height="48px" viewBox="0 0 48 48" enable-background="new 0 0 48 48" xml:space="preserve">
<g id="Layer_2" display="none">
	<g display="inline" opacity="0.5">
		<polygon fill="#00B7E8" points="149,-3 149,47 -153,47 -153,98 351,98 351,57.5 351,51.5 351,-3 		"/>
		<polygon fill="#E27600" points="-155,-52 -155,-3.087 -155,47 149,47 149,-2 351,-2 351,-52 		"/>
	</g>
</g>
<g id="Layer_1">
	<g>
		<path d="M6.041,34.752c0.754,0,1.467-0.182,2.098-0.499c1.143,3.367,4.341,5.791,8.096,5.791c4.714,0,8.545-3.821,8.545-8.536
			v-5.149c0-1.421-1.173-2.602-2.594-2.602H10.261c-1.204,0-2.214,0.842-2.495,1.958c-0.535-0.213-1.116-0.323-1.726-0.323
			c-2.578,0-4.676,2.1-4.676,4.68C1.365,32.649,3.463,34.752,6.041,34.752z M6.04,28.327c0.759,0,1.401,0.488,1.645,1.167v1.162
			c-0.244,0.679-0.886,1.166-1.645,1.166c-0.964,0-1.747-0.783-1.747-1.747S5.076,28.327,6.04,28.327z"/>
		<path d="M42.615,11.187c2.339-0.361,4.126-2.38,4.126-4.819c0-2.696-2.19-4.878-4.886-4.878H12.569
			c-2.696,0-4.882,2.171-4.882,4.867s2.186,4.866,4.882,4.866h1.686v8.612c0,1.078,0.869,1.953,1.947,1.953
			c1.078,0,1.947-0.875,1.947-1.953v-8.612H30.9l3.87,29.447H4.506c-1.618,0-2.929,1.304-2.929,2.921s1.311,2.92,2.929,2.92h39.049
			c1.618,0,3.041-1.314,2.944-2.929C46.014,35.439,42.615,11.187,42.615,11.187z"/>
	</g>
</g>
</svg>
