<?xml version="1.0" encoding="utf-8"?>
<!-- Generator: Adobe Illustrator 16.0.0, SVG Export Plug-In . SVG Version: 6.00 Build 0)  -->
<!DOCTYPE svg PUBLIC "-//W3C//DTD SVG 1.1//EN" "http://www.w3.org/Graphics/SVG/1.1/DTD/svg11.dtd">
<svg version="1.1" xmlns="http://www.w3.org/2000/svg" xmlns:xlink="http://www.w3.org/1999/xlink" x="0px" y="0px" width="48px"
	 height="48px" viewBox="0 0 48 48" enable-background="new 0 0 48 48" xml:space="preserve">
<g id="Layer_2" display="none">
	<g display="inline" opacity="0.5">
		<polygon fill="#00B7E8" points="-1,47 -1,97 -303,97 -303,148 201,148 201,107.5 201,101.5 201,47 		"/>
		<polygon fill="#E27600" points="-305,-2 -305,46.913 -305,97 -1,97 -1,48 201,48 201,-2 		"/>
	</g>
</g>
<g id="Layer_1">
	<path d="M42.394,4.085c-5.093-4.807-13.119-4.574-17.928,0.52c-4.066,4.312-9.298,15.772-7.729,22.114l-7.07,7.492
		c-0.167-0.233-0.355-0.456-0.572-0.66c-1.813-1.711-4.671-1.628-6.383,0.185c-1.712,1.814-1.629,4.673,0.186,6.383
		c1.27,1.199,3.045,1.498,4.587,0.96c-0.448,1.57-0.047,3.326,1.222,4.523c1.815,1.712,4.674,1.629,6.385-0.184
		c1.712-1.814,1.629-4.671-0.186-6.385c-0.216-0.204-0.449-0.379-0.691-0.532l7.068-7.491c6.421,1.202,17.565-4.685,21.633-8.994
		C47.722,16.919,47.49,8.896,42.394,4.085z"/>
</g>
</svg>
