<?xml version="1.0" encoding="utf-8"?>
<!-- Generator: Adobe Illustrator 16.0.0, SVG Export Plug-In . SVG Version: 6.00 Build 0)  -->
<!DOCTYPE svg PUBLIC "-//W3C//DTD SVG 1.1//EN" "http://www.w3.org/Graphics/SVG/1.1/DTD/svg11.dtd">
<svg version="1.1" id="Layer_1" xmlns="http://www.w3.org/2000/svg" xmlns:xlink="http://www.w3.org/1999/xlink" x="0px" y="0px"
	 width="48px" height="48px" viewBox="0 0 48 48" enable-background="new 0 0 48 48" xml:space="preserve">
<path d="M43.305,12.709c1.097-1.098,1.432-2.738,0.838-4.174c-0.594-1.434-1.971-2.365-3.521-2.365h-2.648l2.509-2.482
	c0.601-0.595,0.604-1.562,0.009-2.162c-0.596-0.599-1.564-0.609-2.166-0.013L33.627,6.17H7.395c-1.551,0-2.938,0.932-3.532,2.366
	C3.27,9.971,3.58,11.608,4.678,12.705l16.749,16.769v12.434h-8.092c-1.409,0-2.552,1.137-2.552,2.546
	c0,1.41,1.143,2.547,2.552,2.547h21.346c1.409,0,2.551-1.137,2.551-2.547c0-1.409-1.142-2.546-2.551-2.546h-8.16V29.474
	L43.305,12.709z M29.512,10.244l-2.621,2.609c-1.637-0.579-3.74-0.087-5.332,1.401c-2.124,1.985-2.531,5.003-0.91,6.735
	c1.621,1.733,4.655,1.529,6.779-0.457c1.689-1.579,2.29-3.819,1.65-5.538l4.78-4.751h6.139L24.008,26.233L8.019,10.244H29.512z"/>
</svg>
