<?xml version="1.0" encoding="utf-8"?>
<!-- Generator: Adobe Illustrator 16.0.0, SVG Export Plug-In . SVG Version: 6.00 Build 0)  -->
<!DOCTYPE svg PUBLIC "-//W3C//DTD SVG 1.1//EN" "http://www.w3.org/Graphics/SVG/1.1/DTD/svg11.dtd">
<svg version="1.1" xmlns="http://www.w3.org/2000/svg" xmlns:xlink="http://www.w3.org/1999/xlink" x="0px" y="0px" width="48px"
	 height="48px" viewBox="0 0 48 48" enable-background="new 0 0 48 48" xml:space="preserve">
<g id="Layer_2" display="none">
	<g display="inline" opacity="0.5">
		<polygon fill="#00B7E8" points="-101,47 -101,97 -403,97 -403,148 101,148 101,107.5 101,101.5 101,47 		"/>
		<polygon fill="#E27600" points="-405,-2 -405,46.913 -405,97 -101,97 -101,48 101,48 101,-2 		"/>
	</g>
</g>
<g id="Layer_1">
	<g>
		<path d="M35.437,12.123l0.392-1.538c0.126-0.503,0.016-1.051-0.304-1.459c-0.319-0.41-0.807-0.663-1.326-0.663h-5.891
			c-0.215-3.854-3.438-6.981-7.385-6.981c-3.944,0-7.168,3.128-7.384,6.981H5.225c-0.613,0-1.179,0.346-1.476,0.883
			c-0.298,0.536-0.28,1.198,0.045,1.718l3.827,6.126L6.137,37.135c-0.173,2.314,0.635,4.621,2.213,6.321
			c1.58,1.701,3.816,2.68,6.138,2.68h12.997c2.32,0,4.557-0.978,6.137-2.68c1.579-1.699,2.386-4.012,2.214-6.327l-1.498-20.154
			h0.913c2.005,0,3.645,1.645,3.645,3.65v8.813c0,1.345,1.071,2.435,2.415,2.435c1.345,0,2.416-1.09,2.416-2.435v-8.813
			C43.726,16.003,40.034,12.229,35.437,12.123z M10.309,33.54l1.208-16.22h18.938l1.208,16.22H10.309z"/>
		<path d="M16.946,24.51h7.789c0.807,0,1.46-0.66,1.46-1.466c0-0.808-0.653-1.468-1.46-1.468h-7.789
			c-0.808,0-1.461,0.66-1.461,1.468C15.485,23.85,16.139,24.51,16.946,24.51z"/>
		<path d="M24.735,28.421h-7.789c-0.808,0-1.461,0.66-1.461,1.466c0,0.808,0.653,1.468,1.461,1.468h7.789
			c0.807,0,1.46-0.66,1.46-1.468C26.195,29.081,25.542,28.421,24.735,28.421z"/>
	</g>
</g>
</svg>
