<?xml version="1.0" encoding="utf-8"?>
<!-- Generator: Adobe Illustrator 16.0.0, SVG Export Plug-In . SVG Version: 6.00 Build 0)  -->
<!DOCTYPE svg PUBLIC "-//W3C//DTD SVG 1.1//EN" "http://www.w3.org/Graphics/SVG/1.1/DTD/svg11.dtd">
<svg version="1.1" id="Layer_1" xmlns="http://www.w3.org/2000/svg" xmlns:xlink="http://www.w3.org/1999/xlink" x="0px" y="0px"
	 width="48px" height="48px" viewBox="0 0 48 48" enable-background="new 0 0 48 48" xml:space="preserve">
<g>
	<path d="M8.065,24.933h29.693c0.436,0,0.842-0.228,1.082-0.591c0.239-0.364,0.28-0.829,0.107-1.229
		c-2.682-6.211-8.841-10.565-16.037-10.565c-2.043,0-4.002,0.351-5.822,0.995l-1.263-2.895c0.826-1.085,1.007-2.729,0.343-4.252
		c-0.665-1.524-1.994-2.51-3.351-2.644l-0.788-1.806c-0.33-0.757-1.21-1.102-1.965-0.772C9.31,1.505,8.964,2.386,9.293,3.141
		l0.788,1.806C9.256,6.032,9.075,7.677,9.74,9.2c0.664,1.523,1.993,2.509,3.35,2.642l1.281,2.936
		c-3.323,1.872-5.97,4.802-7.495,8.332c-0.173,0.4-0.132,0.868,0.107,1.232C7.223,24.706,7.63,24.933,8.065,24.933z M31.164,17.308
		c0.733,0,1.327,0.594,1.327,1.326c0,0.733-0.594,1.328-1.327,1.328s-1.327-0.595-1.327-1.328
		C29.837,17.901,30.431,17.308,31.164,17.308z M26.022,19.215c0.596,0,1.078,0.482,1.078,1.078s-0.482,1.078-1.078,1.078
		c-0.596,0-1.079-0.482-1.079-1.078S25.426,19.215,26.022,19.215z M22.31,14.113c0.721,0,1.307,0.585,1.307,1.307
		c0,0.723-0.585,1.307-1.307,1.307c-0.721,0-1.306-0.584-1.306-1.307C21.004,14.698,21.589,14.113,22.31,14.113z M14.793,18.731
		c1.015,0,1.838,0.823,1.838,1.839s-0.823,1.839-1.838,1.839c-1.016,0-1.839-0.823-1.839-1.839S13.778,18.731,14.793,18.731z"/>
	<path d="M37.983,34.165H7.845c-0.458,0-0.885,0.22-1.125,0.611c-0.24,0.391-0.26,0.871-0.052,1.279
		c2.871,5.657,9.606,6.935,16.246,6.935c6.638,0,13.375-1.283,16.247-6.94c0.208-0.409,0.187-0.881-0.053-1.271
		C38.867,34.388,38.442,34.165,37.983,34.165z"/>
	<path d="M5.667,32.213h34.582c1.498,0,2.713-1.214,2.713-2.713v-0.278c0-1.499-1.215-2.713-2.713-2.713H5.667
		c-1.498,0-2.713,1.214-2.713,2.713V29.5C2.955,30.999,4.169,32.213,5.667,32.213z"/>
	<path d="M42.32,43.998H3.503c-0.824,0-1.493,0.677-1.493,1.501S2.679,47,3.503,47H42.32c0.824,0,1.493-0.677,1.493-1.501
		S43.144,43.998,42.32,43.998z"/>
</g>
</svg>
