<?xml version="1.0" encoding="utf-8"?>
<!-- Generator: Adobe Illustrator 16.0.0, SVG Export Plug-In . SVG Version: 6.00 Build 0)  -->
<!DOCTYPE svg PUBLIC "-//W3C//DTD SVG 1.1//EN" "http://www.w3.org/Graphics/SVG/1.1/DTD/svg11.dtd">
<svg version="1.1" xmlns="http://www.w3.org/2000/svg" xmlns:xlink="http://www.w3.org/1999/xlink" x="0px" y="0px" width="48px"
	 height="48px" viewBox="0 0 48 48" enable-background="new 0 0 48 48" xml:space="preserve">
<g id="Layer_2" display="none">
	<g display="inline" opacity="0.5">
		<polygon fill="#00B7E8" points="149,47 149,97 -153,97 -153,148 351,148 351,107.5 351,101.5 351,47 		"/>
		<polygon fill="#E27600" points="-155,-2 -155,46.913 -155,97 149,97 149,48 351,48 351,-2 		"/>
	</g>
</g>
<g id="Layer_1">
	<g>
		<path d="M15.436,23.199h-3.557c-1.37,0-2.48,1.103-2.48,2.473s1.11,2.474,2.48,2.474h25.277c1.37,0,2.48-1.104,2.48-2.474
			s-1.11-2.473-2.48-2.473h-3.557c5.254-3.092,8.812-8.831,8.812-15.378c0-0.001,0-0.001,0-0.001
			c-0.068-2.103-1.738-3.787-3.841-3.787H10.465c-2.103,0-3.776,1.686-3.776,3.787v0.001C6.689,14.368,10.182,20.107,15.436,23.199z
			"/>
		<path d="M45.943,36.692c-0.561-0.545-1.317-0.84-2.099-0.817l-22.908,0.654c-1.465-2.366-5.186-4.047-9.545-4.047
			c-5.64,0-10.211,2.813-10.211,6.284c0,3.47,4.572,6.283,10.211,6.283c4.359,0,8.08-1.681,9.545-4.046l22.908,0.654
			c0.781,0.022,1.538-0.272,2.099-0.817s0.876-1.293,0.876-2.074C46.82,37.984,46.504,37.236,45.943,36.692z"/>
	</g>
</g>
</svg>
