<?xml version="1.0" encoding="utf-8"?>
<!-- Generator: Adobe Illustrator 16.0.0, SVG Export Plug-In . SVG Version: 6.00 Build 0)  -->
<!DOCTYPE svg PUBLIC "-//W3C//DTD SVG 1.1//EN" "http://www.w3.org/Graphics/SVG/1.1/DTD/svg11.dtd">
<svg version="1.1" xmlns="http://www.w3.org/2000/svg" xmlns:xlink="http://www.w3.org/1999/xlink" x="0px" y="0px" width="48px"
	 height="48px" viewBox="0 0 48 48" enable-background="new 0 0 48 48" xml:space="preserve">
<g id="Layer_2" display="none">
	<g display="inline" opacity="0.5">
		<polygon fill="#00B7E8" points="-51,47 -51,97 -353,97 -353,148 151,148 151,107.5 151,101.5 151,47 		"/>
		<polygon fill="#E27600" points="-355,-2 -355,46.913 -355,97 -51,97 -51,48 151,48 151,-2 		"/>
	</g>
</g>
<g id="Layer_1">
	<g>
		<path d="M30.223,31.878c-1.539,0.873-3.285,1.335-5.048,1.335c-3.682,0-7.097-1.986-8.914-5.187
			c-2.787-4.91-1.061-11.175,3.851-13.964c0.73-0.414,1.612-0.788,2.572-1.118c-1.317-0.663-2.509-1.182-3.485-1.507
			c-7.245-2.413-15.075,1.564-17.487,8.811C-0.269,26.193,2.019,32,6.902,36h34.562c0,0,0.895-0.629,1.384-2.055
			c0.968-2.819-1.356-6.531-4.934-10.103C35.933,27.3,32.671,30.487,30.223,31.878z"/>
		<path d="M46.47,13.403C45.996,12.567,45.124,12,44.227,12c-0.025,0-0.052,0-0.078,0c0.498-1,0.558-1.705,0.07-2.564
			c-0.475-0.838-1.348-1.258-2.246-1.258c-0.432,0-0.869,0.133-1.271,0.36c-1.238,0.702-1.672,2.289-0.969,3.528
			c0.085,0.147,0.181,0.29,0.286,0.413l-5.11,2.906c-1.091-0.572-2.593-0.808-4.221-0.808c-3.303,0-7.125,0.974-9.097,2.093
			c-3.479,1.976-4.697,6.395-2.722,9.875c1.334,2.349,3.783,3.667,6.305,3.667c1.211,0,2.438-0.304,3.567-0.944
			c2.942-1.672,7.723-7.052,7.928-10.775l5.112-2.901c0.053,0.152,0.12,0.306,0.203,0.454c0.476,0.836,1.348,1.305,2.246,1.305
			c0.431,0,0.868-0.157,1.271-0.384C46.739,16.264,47.174,14.64,46.47,13.403z"/>
		<path d="M38.938,39H9.063c-1.381,0-2.5,1.119-2.5,2.5s1.119,2.5,2.5,2.5h29.875c1.381,0,2.5-1.119,2.5-2.5S40.318,39,38.938,39z"
			/>
	</g>
</g>
</svg>
