<?xml version="1.0" encoding="utf-8"?>
<!-- Generator: Adobe Illustrator 16.0.0, SVG Export Plug-In . SVG Version: 6.00 Build 0)  -->
<!DOCTYPE svg PUBLIC "-//W3C//DTD SVG 1.1//EN" "http://www.w3.org/Graphics/SVG/1.1/DTD/svg11.dtd">
<svg version="1.1" id="Layer_1" xmlns="http://www.w3.org/2000/svg" xmlns:xlink="http://www.w3.org/1999/xlink" x="0px" y="0px"
	 width="48px" height="48px" viewBox="0 0 48 48" enable-background="new 0 0 48 48" xml:space="preserve">
<g>
	<path d="M6.201,35.051c0.325,2.272,2.302,3.973,4.599,3.973h18.629c2.296,0,4.273-1.708,4.598-3.98l0.645-4.505h2.37
		c4.252,0,7.746-3.443,7.746-7.696v-5.464c0-4.048-3.15-7.375-7.118-7.688l0.225-1.637c0.248-1.731-0.272-3.474-1.419-4.799
		c-1.147-1.321-2.814-2.069-4.563-2.069H8.316c-1.75,0-3.411,0.748-4.56,2.07C2.61,4.58,2.094,6.318,2.342,8.052L6.201,35.051z
		 M40.895,17.378v5.464c0,2.109-1.745,3.803-3.854,3.803h-1.707l1.887-13.101C39.254,13.631,40.895,15.325,40.895,17.378z
		 M6.692,5.807c0.409-0.471,1.001-0.729,1.625-0.729h23.595c0.624,0,1.215,0.258,1.624,0.727c0.408,0.472,0.592,1.089,0.504,1.706
		L30.18,34.5c-0.053,0.372-0.376,0.631-0.751,0.631H10.8c-0.376,0-0.699-0.263-0.752-0.635L6.189,7.502
		C6.101,6.884,6.285,6.276,6.692,5.807z"/>
	<path d="M12.062,32.474c0.078,0.462,0.479,0.789,0.948,0.789h14.209c0.469,0,0.87-0.327,0.948-0.789l2.651-15.71
		c0.128-0.756-0.084-1.532-0.579-2.117c-0.496-0.586-1.224-0.926-1.99-0.926H11.979c-0.767,0-1.494,0.344-1.989,0.929
		c-0.495,0.586-0.708,1.356-0.58,2.112L12.062,32.474z"/>
	<path d="M44.402,41.982H3.598c-1.073,0-1.943,0.873-1.943,1.946s0.87,1.946,1.943,1.946h40.804c1.073,0,1.943-0.873,1.943-1.946
		S45.475,41.982,44.402,41.982z"/>
</g>
</svg>
