<?xml version="1.0" encoding="utf-8"?>
<!-- Generator: Adobe Illustrator 16.0.0, SVG Export Plug-In . SVG Version: 6.00 Build 0)  -->
<!DOCTYPE svg PUBLIC "-//W3C//DTD SVG 1.1//EN" "http://www.w3.org/Graphics/SVG/1.1/DTD/svg11.dtd">
<svg version="1.1" xmlns="http://www.w3.org/2000/svg" xmlns:xlink="http://www.w3.org/1999/xlink" x="0px" y="0px" width="48px"
	 height="48px" viewBox="0 0 48 48" enable-background="new 0 0 48 48" xml:space="preserve">
<g id="Layer_2" display="none">
	<g display="inline" opacity="0.5">
		<polygon fill="#00B7E8" points="199,-3 199,47 -103,47 -103,98 401,98 401,57.5 401,51.5 401,-3 		"/>
		<polygon fill="#E27600" points="-105,-52 -105,-3.087 -105,47 199,47 199,-2 401,-2 401,-52 		"/>
	</g>
</g>
<g id="Layer_1">
	<g>
		<path d="M33.207,41.937h-2.264V25.014H6.084v16.923H3.342c-1.375,0-2.489,1.104-2.489,2.48c0,1.374,1.114,2.479,2.489,2.479
			h29.865c1.375,0,2.489-1.105,2.489-2.479C35.695,43.041,34.581,41.937,33.207,41.937z"/>
		<path d="M42.354,1.15c-2.194,0-3.974,1.788-3.974,3.98c0,0.011,0-0.015,0.001,0.04H21.818c-2.949,0-5.372,2.382-5.372,5.33v2.149
			c-3.583,0.525-6.675,2.553-8.671,5.364h-4.35c-1.374,0-2.488,1.133-2.488,2.508c0,1.374,1.114,2.508,2.488,2.508H33.29
			c1.375,0,2.489-1.134,2.489-2.508c0-1.375-1.114-2.508-2.489-2.508h-4.35c-1.958-2.757-4.997-4.761-8.47-5.333v-2.181
			c0-0.753,0.595-1.361,1.348-1.361c0,0,15.4,0,20.534,0c1.757,0,3.974-1.828,3.974-4.022C46.326,2.924,44.547,1.15,42.354,1.15z"/>
	</g>
</g>
</svg>
