<?xml version="1.0" encoding="utf-8"?>
<!-- Generator: Adobe Illustrator 16.0.0, SVG Export Plug-In . SVG Version: 6.00 Build 0)  -->
<!DOCTYPE svg PUBLIC "-//W3C//DTD SVG 1.1//EN" "http://www.w3.org/Graphics/SVG/1.1/DTD/svg11.dtd">
<svg version="1.1" xmlns="http://www.w3.org/2000/svg" xmlns:xlink="http://www.w3.org/1999/xlink" x="0px" y="0px" width="48px"
	 height="48px" viewBox="0 0 48 48" enable-background="new 0 0 48 48" xml:space="preserve">
<g id="Layer_2" display="none">
	<g display="inline" opacity="0.5">
		<polygon fill="#00B7E8" points="-151,47 -151,97 -453,97 -453,148 51,148 51,107.5 51,101.5 51,47 		"/>
		<polygon fill="#E27600" points="-455,-2 -455,46.913 -455,97 -151,97 -151,48 51,48 51,-2 		"/>
	</g>
</g>
<g id="Layer_1">
	<path d="M33.394,17.446c-0.749-0.838-1.645-1.522-2.607-2.034V11.93c0-0.893-0.741-1.632-1.634-1.632H26.81V7.104
		c0-0.446-0.182-0.872-0.51-1.178l-4.086-3.823c-0.47-0.439-1.153-0.558-1.743-0.302C19.881,2.057,19.5,2.64,19.5,3.282v7.016
		h-2.341c-0.891,0-1.595,0.739-1.595,1.632v3.482c-1.004,0.512-1.877,1.196-2.627,2.034c-1.758,1.963-2.604,4.591-2.312,7.211
		l1.947,17.549c0.271,2.438,2.325,4.277,4.778,4.277h11.61c2.453,0,4.509-1.839,4.781-4.279l1.954-17.547
		C35.989,22.037,35.151,19.409,33.394,17.446z M15.843,20.055c0.939-1.051,2.252-1.687,3.657-1.777v8.446h7.31v-8.446
		c1.406,0.091,2.719,0.727,3.66,1.777c1.017,1.136,1.504,2.657,1.336,4.172l-1.169,10.529H15.676l-1.169-10.529
		C14.338,22.712,14.826,21.19,15.843,20.055z"/>
</g>
</svg>
