<?xml version="1.0" encoding="utf-8"?>
<!-- Generator: Adobe Illustrator 16.0.0, SVG Export Plug-In . SVG Version: 6.00 Build 0)  -->
<!DOCTYPE svg PUBLIC "-//W3C//DTD SVG 1.1//EN" "http://www.w3.org/Graphics/SVG/1.1/DTD/svg11.dtd">
<svg version="1.1" id="Layer_1" xmlns="http://www.w3.org/2000/svg" xmlns:xlink="http://www.w3.org/1999/xlink" x="0px" y="0px"
	 width="48px" height="48px" viewBox="0 0 48 48" enable-background="new 0 0 48 48" xml:space="preserve">
<g>
	<path d="M22.949,45.999c0.201,0.514,0.695,0.852,1.246,0.851c0.552-0.002,1.044-0.344,1.24-0.861l3.232-8.522l-6.734,5.912
		L22.949,45.999z"/>
	<path d="M26.082,24.461c-0.46-0.152-0.903-0.34-1.324-0.567l-7.74,6.796l1.164,3.006l9.872-8.668
		C27.375,24.905,26.717,24.715,26.082,24.461z"/>
	<path d="M17.473,25.199c-0.941,0-1.854-0.125-2.722-0.359l1.107,2.859l2.944-2.584C18.365,25.17,17.92,25.199,17.473,25.199z"/>
	<path d="M19.341,36.686l1.434,3.699l10.171-8.929l2.619-6.903c-0.213,0.077-0.428,0.148-0.646,0.214L19.341,36.686z"/>
	<path d="M32.972,7.786c-0.83-0.301-1.486-0.957-1.79-1.786c-1.041-2.864-3.78-4.905-7.001-4.905c-3.222,0-5.961,2.043-7.002,4.905
		c-0.303,0.831-0.958,1.485-1.788,1.786c-2.861,1.042-4.905,3.78-4.905,7.005c0,4.119,3.341,7.46,7.462,7.46
		c1.667,0,3.204-0.547,4.446-1.471c0.53-0.396,1.16-0.593,1.789-0.593c0.628,0,1.256,0.197,1.786,0.591
		c1.241,0.926,2.779,1.473,4.447,1.473c4.121,0,7.461-3.341,7.461-7.46C37.876,11.566,35.833,8.828,32.972,7.786z"/>
</g>
</svg>
