<?xml version="1.0" encoding="utf-8"?>
<!-- Generator: Adobe Illustrator 16.0.0, SVG Export Plug-In . SVG Version: 6.00 Build 0)  -->
<!DOCTYPE svg PUBLIC "-//W3C//DTD SVG 1.1//EN" "http://www.w3.org/Graphics/SVG/1.1/DTD/svg11.dtd">
<svg version="1.1" xmlns="http://www.w3.org/2000/svg" xmlns:xlink="http://www.w3.org/1999/xlink" x="0px" y="0px" width="48px"
	 height="48px" viewBox="0 0 48 48" enable-background="new 0 0 48 48" xml:space="preserve">
<g id="Layer_2" display="none">
	<g display="inline" opacity="0.5">
		<polygon fill="#00B7E8" points="49,47 49,97 -253,97 -253,148 251,148 251,107.5 251,101.5 251,47 		"/>
		<polygon fill="#E27600" points="-255,-2 -255,46.913 -255,97 49,97 49,48 251,48 251,-2 		"/>
	</g>
</g>
<g id="Layer_1">
	<g>
		<path d="M40.617,1.554H20.221c-3.313,0-6.002,2.683-6.002,5.996c0,0.335,0.028,0.714,0.082,0.979h13.085
			c4.947,0,8.969,4.037,8.969,8.983c0,2.949-1.429,5.65-3.754,7.311v11.546h7.993c1.256,0,2.306-1.019,2.306-2.275V13.135
			c2.126-0.891,3.734-3.055,3.734-5.573C46.634,4.249,43.933,1.554,40.617,1.554z"/>
		<path d="M33.386,17.525c0-5.33-5.017-6.006-6-6.006H6.988c-1.17,0-6.001,1.015-6.001,6.006c0,4.234,2.777,5.179,3.774,5.563
			l0.018,20.606c0.001,1.458,1.184,2.64,2.642,2.64h19.561c0.701,0,1.373-0.278,1.868-0.774c0.496-0.496,0.774-1.168,0.773-1.869
			L29.61,23.089C30.674,22.678,33.386,20.946,33.386,17.525z M28.527,20.339l-1.84,0.751v1.999v20.257H7.685V23.089V21.09
			l-1.841-0.754c-1.151-0.469-1.89-1.566-1.89-2.805c0-1.669,1.364-3.021,3.034-3.021h20.397c1.67,0,3.028,1.353,3.028,3.021
			C30.414,18.749,29.663,19.876,28.527,20.339z"/>
		<circle cx="13.754" cy="20.63" r="1.662"/>
		<circle cx="19.001" cy="23.447" r="1.814"/>
		<circle cx="14.165" cy="28.891" r="2.073"/>
		<circle cx="20.75" cy="32.713" r="1.75"/>
		<circle cx="17.396" cy="38.134" r="1.772"/>
		<circle cx="12.381" cy="36.018" r="1.037"/>
		<circle cx="22.829" cy="18.354" r="1.257"/>
	</g>
</g>
</svg>
