<?xml version="1.0" encoding="utf-8"?>
<!-- Generator: Adobe Illustrator 16.0.0, SVG Export Plug-In . SVG Version: 6.00 Build 0)  -->
<!DOCTYPE svg PUBLIC "-//W3C//DTD SVG 1.1//EN" "http://www.w3.org/Graphics/SVG/1.1/DTD/svg11.dtd">
<svg version="1.1" xmlns="http://www.w3.org/2000/svg" xmlns:xlink="http://www.w3.org/1999/xlink" x="0px" y="0px" width="48px"
	 height="48px" viewBox="0 0 48 48" enable-background="new 0 0 48 48" xml:space="preserve">
<g id="Layer_2" display="none">
	<g display="inline" opacity="0.5">
		<polygon fill="#00B7E8" points="299,47 299,97 -3,97 -3,148 501,148 501,107.5 501,101.5 501,47 		"/>
		<polygon fill="#E27600" points="-5,-2 -5,46.913 -5,97 299,97 299,48 501,48 501,-2 		"/>
	</g>
</g>
<g id="Layer_1">
	<g>
		<path d="M22.013,39.891c0.608,0.069,1.226,0.105,1.852,0.105c0.702,0,1.395-0.044,2.074-0.132l0.306-9.782
			c-0.625-0.266-1.195-0.661-1.665-1.165c-0.924-0.993-1.399-2.337-1.302-3.687l0.481-6.734c-0.57,0.819-1.395,1.448-2.358,1.771
			L22.013,39.891z"/>
		<path d="M36.295,5.011v4.268c4.115,3.511,6.678,8.714,6.678,14.511c0,5.798-2.563,11.002-6.678,14.513v4.268
			c6.135-4.036,10.078-10.939,10.078-18.78C46.373,15.949,42.43,9.046,36.295,5.011z"/>
		<path d="M24.623,3.536v1.136c0.075,0.006,0.25,0.012,0.382,0.02c0.446-1.267,1.242-2.365,2.275-3.178
			c-1.111-0.168-2.253-0.256-3.412-0.256c-0.15,0-0.288,0.003-0.437,0.006C24.145,1.768,24.623,2.598,24.623,3.536z"/>
		<path d="M36.295,13.432v1.813v13.282v5.622c2.395-2.811,3.751-6.423,3.751-10.359C40.046,19.854,38.689,16.242,36.295,13.432z"/>
		<path d="M9.525,16.246c-1.19,2.255-1.866,4.821-1.866,7.543c0,4.306,1.687,8.223,4.434,11.128l0.459-14.704
			C10.901,19.594,9.69,18.069,9.525,16.246z"/>
		<path d="M25.837,43.146l0.01-0.326c-0.652,0.068-1.313,0.104-1.981,0.104c-0.593,0-1.18-0.029-1.76-0.082l0.011,0.349
			c0.034,1.083-0.358,2.151-1.079,2.955c0.926,0.116,1.87,0.177,2.828,0.177c1.033,0,2.05-0.071,3.046-0.206
			C26.192,45.304,25.802,44.231,25.837,43.146z"/>
		<path d="M4.734,23.789c0-4.835,1.782-9.256,4.774-12.627V6.425c-5.013,4.133-8.174,10.377-8.174,17.364
			c0,8.026,4.195,15.07,10.512,19.063l0.128-4.084C7.566,35.258,4.734,29.848,4.734,23.789z"/>
		<path d="M31.569,1.999L31.569,1.999c-2.633,0-4.819,2.016-5.006,4.644l-1.339,18.734c-0.059,0.814,0.225,1.632,0.783,2.231
			s1.34,0.952,2.158,0.952h0.08l-0.458,14.664c-0.02,0.629,0.216,1.237,0.653,1.69c0.438,0.451,1.039,0.704,1.667,0.704h1.924
			c1.282,0,2.319-1.056,2.319-2.338V28.526V15.244v-10.5C34.35,3.207,33.106,1.999,31.569,1.999z"/>
		<path d="M19.395,18.534h0.519c1.511,0,2.763-1.201,2.763-2.712V3.536c0-0.461-0.401-0.863-0.862-0.863h-0.194
			c-0.462,0-0.814,0.402-0.814,0.863v8.123c0,0.72-0.605,1.339-1.324,1.339h-0.194c-0.719,0-1.325-0.619-1.325-1.339V3.536
			c0-0.461-0.352-0.863-0.813-0.863h-0.194c-0.461,0-0.864,0.402-0.864,0.863v8.123c0,0.72-0.554,1.339-1.274,1.339h-0.193
			c-0.72,0-1.301-0.619-1.301-1.339V3.536c0-0.461-0.375-0.863-0.837-0.863h-0.194c-0.461,0-0.839,0.402-0.839,0.863v12.286
			c0,1.511,1.229,2.712,2.74,2.712h0.362l-0.772,24.707c-0.019,0.616,0.212,1.228,0.643,1.673c0.43,0.442,1.021,0.705,1.639,0.705
			h1.819c0.617,0,1.208-0.263,1.639-0.707c0.43-0.443,0.662-1.055,0.642-1.672L19.395,18.534z"/>
	</g>
</g>
</svg>
