<?xml version="1.0" encoding="utf-8"?>
<!-- Generator: Adobe Illustrator 16.0.0, SVG Export Plug-In . SVG Version: 6.00 Build 0)  -->
<!DOCTYPE svg PUBLIC "-//W3C//DTD SVG 1.1//EN" "http://www.w3.org/Graphics/SVG/1.1/DTD/svg11.dtd">
<svg version="1.1" xmlns="http://www.w3.org/2000/svg" xmlns:xlink="http://www.w3.org/1999/xlink" x="0px" y="0px" width="48px"
	 height="48px" viewBox="0 0 48 48" enable-background="new 0 0 48 48" xml:space="preserve">
<g id="Layer_2" display="none">
	<g display="inline" opacity="0.5">
		<polygon fill="#00B7E8" points="249,-3 249,47 -53,47 -53,98 451,98 451,57.5 451,51.5 451,-3 		"/>
		<polygon fill="#E27600" points="-55,-52 -55,-3.087 -55,47 249,47 249,-2 451,-2 451,-52 		"/>
	</g>
</g>
<g id="Layer_1">
	<g>
		<path d="M24.223,38.099c-2.67,0-4.938-1.904-6.068-4.745h-4.65l0.591,10.06c0.126,2.146,1.903,3.827,4.051,3.827h12.15
			c2.149,0,3.925-1.682,4.051-3.827l0.591-10.06h-4.648C29.16,36.194,26.893,38.099,24.223,38.099z"/>
		<path d="M33.044,4.65V3.969c0-1.505-1.236-2.754-2.741-2.754H18.141c-1.505,0-2.717,1.249-2.717,2.754V4.65
			C12.163,5.337,9.69,8.228,9.69,11.678v1.769c0,0.82,0.69,1.497,1.51,1.497h1.22l0.56,9.521h5.409
			c1.194-2.525,3.337-4.199,5.833-4.199c2.496,0,4.64,1.674,5.833,4.199h5.409l0.56-9.521h1.219c0.82,0,1.482-0.677,1.482-1.497
			v-1.769C38.726,8.228,36.306,5.337,33.044,4.65z M35.78,11.945H12.689v-0.268c0-2.322,1.881-4.211,4.203-4.211
			c0.82,0,1.477-0.665,1.477-1.485V4.213h11.678v1.769c0,0.82,0.683,1.485,1.503,1.485c2.323,0,4.23,1.889,4.23,4.211V11.945z"/>
		<ellipse cx="24.223" cy="29.19" rx="3.87" ry="5.959"/>
	</g>
</g>
</svg>
