<?xml version="1.0" encoding="utf-8"?>
<!-- Generator: Adobe Illustrator 16.0.0, SVG Export Plug-In . SVG Version: 6.00 Build 0)  -->
<!DOCTYPE svg PUBLIC "-//W3C//DTD SVG 1.1//EN" "http://www.w3.org/Graphics/SVG/1.1/DTD/svg11.dtd">
<svg version="1.1" xmlns="http://www.w3.org/2000/svg" xmlns:xlink="http://www.w3.org/1999/xlink" x="0px" y="0px" width="48px"
	 height="48px" viewBox="0 0 48 48" enable-background="new 0 0 48 48" xml:space="preserve">
<g id="Layer_2" display="none">
	<g display="inline" opacity="0.5">
		<polygon fill="#00B7E8" points="199,47 199,97 -103,97 -103,148 401,148 401,107.5 401,101.5 401,47 		"/>
		<polygon fill="#E27600" points="-105,-2 -105,46.913 -105,97 199,97 199,48 401,48 401,-2 		"/>
	</g>
</g>
<g id="Layer_1">
	<g>
		<path d="M29.014,11.638c0.068-0.324,0.104-0.654,0.104-0.999c0-2.701-2.198-4.896-4.899-4.896c-2.702,0-4.9,2.199-4.9,4.9
			c0,0.345,0.036,0.67,0.104,0.994c-6.577,0.625-11.355,2.534-11.378,4.712h32.347C40.37,14.171,35.59,12.263,29.014,11.638z
			 M25.919,11.454c-0.559-0.019-1.126-0.027-1.701-0.027c-0.575,0-1.142,0.009-1.701,0.027c-0.117-0.245-0.183-0.52-0.183-0.81
			c0-1.038,0.845-1.884,1.884-1.884c1.039,0,1.884,0.846,1.884,1.884C26.103,10.935,26.037,11.209,25.919,11.454z"/>
		<path d="M45.09,20.873h-4.717v-2.119H8.068v2.119H3.347c-1.388,0-2.513,1.132-2.513,2.521c0,1.388,1.125,2.52,2.513,2.52h4.721
			v14.784c0,2.278,1.822,4.118,4.1,4.118h24.102c2.278,0,4.104-1.84,4.104-4.118V25.913h4.717c1.388,0,2.513-1.132,2.513-2.52
			C47.603,22.005,46.478,20.873,45.09,20.873z M14.426,39.796c0,0.833-0.685,1.509-1.518,1.509s-1.518-0.676-1.518-1.509V22.708
			c0-0.832,0.685-1.508,1.518-1.508s1.518,0.676,1.518,1.508V39.796z"/>
	</g>
</g>
</svg>
