<?xml version="1.0" encoding="utf-8"?>
<!-- Generator: Adobe Illustrator 16.0.0, SVG Export Plug-In . SVG Version: 6.00 Build 0)  -->
<!DOCTYPE svg PUBLIC "-//W3C//DTD SVG 1.1//EN" "http://www.w3.org/Graphics/SVG/1.1/DTD/svg11.dtd">
<svg version="1.1" id="Layer_1" xmlns="http://www.w3.org/2000/svg" xmlns:xlink="http://www.w3.org/1999/xlink" x="0px" y="0px"
	 width="48px" height="48px" viewBox="0 0 48 48" enable-background="new 0 0 48 48" xml:space="preserve">
<g>
	<path d="M32.982,1.156c-2.738,0-5.019,2.117-5.213,4.847l-1.396,19.492c-0.061,0.85,0.232,1.692,0.813,2.316
		c0.581,0.623,1.393,0.984,2.244,0.984h0.082l-0.478,15.262c-0.021,0.653,0.225,1.267,0.68,1.735
		c0.454,0.47,1.079,0.715,1.733,0.715h2.001c1.333,0,2.443-1.049,2.443-2.383V4.05C35.892,2.452,34.58,1.156,32.982,1.156z"/>
	<path d="M21.468,1.188h-0.204c-0.487,0-0.861,0.365-0.861,0.854v8.59c0,0.762-0.639,1.385-1.4,1.385h-0.205
		c-0.761,0-1.406-0.623-1.406-1.385v-8.59c0-0.488-0.367-0.854-0.855-0.854H16.33c-0.488,0-0.876,0.365-0.876,0.854v8.59
		c0,0.762-0.624,1.385-1.386,1.385h-0.204c-0.761,0-1.351-0.623-1.351-1.385v-8.59c0-0.488-0.423-0.854-0.911-0.854h-0.205
		c-0.487,0-0.892,0.365-0.892,0.854v12.993c0,1.598,1.303,2.862,2.901,2.862h0.386L12.976,44.05
		c-0.021,0.653,0.224,1.271,0.679,1.74c0.454,0.469,1.08,0.718,1.734,0.718h1.924c0.652,0,1.278-0.249,1.733-0.718
		c0.455-0.47,0.699-1.095,0.68-1.748l-0.817-26.146h0.55c1.599,0,2.88-1.265,2.88-2.862V2.041
		C22.338,1.553,21.957,1.188,21.468,1.188z"/>
</g>
</svg>
