<?xml version="1.0" encoding="utf-8"?>
<!-- Generator: Adobe Illustrator 16.0.0, SVG Export Plug-In . SVG Version: 6.00 Build 0)  -->
<!DOCTYPE svg PUBLIC "-//W3C//DTD SVG 1.1//EN" "http://www.w3.org/Graphics/SVG/1.1/DTD/svg11.dtd">
<svg version="1.1" xmlns="http://www.w3.org/2000/svg" xmlns:xlink="http://www.w3.org/1999/xlink" x="0px" y="0px" width="48px"
	 height="48px" viewBox="0 0 48 48" enable-background="new 0 0 48 48" xml:space="preserve">
<g id="Layer_2" display="none">
	<g display="inline" opacity="0.5">
		<polygon fill="#00B7E8" points="99,47 99,97 -203,97 -203,148 301,148 301,107.5 301,101.5 301,47 		"/>
		<polygon fill="#E27600" points="-205,-2 -205,46.913 -205,97 99,97 99,48 301,48 301,-2 		"/>
	</g>
</g>
<g id="Layer_1">
	<path d="M42.885,2.104c-0.314-0.427-0.786-0.711-1.311-0.791c-0.524-0.075-1.059,0.053-1.486,0.367L12.917,21.696
		c-0.89,0.655-1.079,1.907-0.424,2.797l1.38,1.873L3.81,33.776c-3.062,2.255-3.658,6.644-1.403,9.706
		c2.255,3.061,6.623,3.794,9.686,1.538l10.061-7.412l1.381,1.875c0.392,0.532,0.998,0.813,1.612,0.813
		c0.412,0,0.828-0.127,1.185-0.39l12.181-8.973C47.666,24.191,49.627,11.258,42.885,2.104z M36.14,27.714L25.569,35.5l-8.67-11.77
		L40.754,6.157C44.834,13.367,42.973,22.681,36.14,27.714z"/>
</g>
</svg>
