<?xml version="1.0" encoding="utf-8"?>
<!-- Generator: Adobe Illustrator 16.0.0, SVG Export Plug-In . SVG Version: 6.00 Build 0)  -->
<!DOCTYPE svg PUBLIC "-//W3C//DTD SVG 1.1//EN" "http://www.w3.org/Graphics/SVG/1.1/DTD/svg11.dtd">
<svg version="1.1" xmlns="http://www.w3.org/2000/svg" xmlns:xlink="http://www.w3.org/1999/xlink" x="0px" y="0px" width="48px"
	 height="48px" viewBox="0 0 48 48" enable-background="new 0 0 48 48" xml:space="preserve">
<g id="Layer_2" display="none">
	<g display="inline" opacity="0.5">
		<polygon fill="#00B7E8" points="299,-3 299,47 -3,47 -3,98 501,98 501,57.5 501,51.5 501,-3 		"/>
		<polygon fill="#E27600" points="-5,-52 -5,-3.087 -5,47 299,47 299,-2 501,-2 501,-52 		"/>
	</g>
</g>
<g id="Layer_1">
	<g>
		<path d="M37.626,30.697c-2.944,4.458-7.999,7.406-13.729,7.406c-5.731,0-10.786-2.948-13.73-7.406C4.601,31.85,1,33.684,1,35.751
			c0,3.487,10.251,6.315,22.897,6.315c12.645,0,22.896-2.828,22.896-6.315C46.793,33.684,43.192,31.85,37.626,30.697z"/>
		<path d="M23.895,35.132c6.038,0,11.163-3.974,12.88-9.447c0.959,0.489,2.044,0.765,3.193,0.765c3.888,0,7.05-3.162,7.05-7.05
			s-3.162-7.051-7.05-7.051c-0.932,0-1.822,0.184-2.637,0.513c-0.324-1.92-2.01-3.377-4.023-3.377H14.486
			c-2.243,0-4.085,1.807-4.085,4.05v8.128C10.401,29.102,16.455,35.132,23.895,35.132z M39.967,16.312
			c1.703,0,3.087,1.386,3.087,3.088s-1.385,3.088-3.087,3.088c-1.078,0-2.028-0.556-2.58-1.396v-3.386
			C37.939,16.867,38.89,16.312,39.967,16.312z"/>
	</g>
</g>
</svg>
