<?xml version="1.0" encoding="utf-8"?>
<!-- Generator: Adobe Illustrator 16.0.0, SVG Export Plug-In . SVG Version: 6.00 Build 0)  -->
<!DOCTYPE svg PUBLIC "-//W3C//DTD SVG 1.1//EN" "http://www.w3.org/Graphics/SVG/1.1/DTD/svg11.dtd">
<svg version="1.1" xmlns="http://www.w3.org/2000/svg" xmlns:xlink="http://www.w3.org/1999/xlink" x="0px" y="0px" width="48px"
	 height="48px" viewBox="0 0 48 48" enable-background="new 0 0 48 48" xml:space="preserve">
<g id="Layer_2" display="none">
	<g display="inline" opacity="0.5">
		<polygon fill="#00B7E8" points="249,47 249,97 -53,97 -53,148 451,148 451,107.5 451,101.5 451,47 		"/>
		<polygon fill="#E27600" points="-55,-2 -55,46.913 -55,97 249,97 249,48 451,48 451,-2 		"/>
	</g>
</g>
<g id="Layer_1">
	<g>
		<path d="M45.943,38.151L33.151,25.279C32.701,25.586,32.213,25.826,31.7,26c-0.62,0.211-1.275,0.326-1.95,0.326
			c-0.797,0-1.572-0.153-2.289-0.445l-4.078,4.342c0.546,0.409,1.208,0.648,1.903,0.675c0.935,0.032,1.841-0.324,2.503-0.985
			l0.063-0.063L40.58,43.396c0.492,0.523,1.173,0.825,1.892,0.837s1.409-0.27,1.917-0.777l1.555-1.554
			c0.497-0.497,0.777-1.172,0.777-1.876S46.44,38.648,45.943,38.151z"/>
		<path d="M15.537,21.285l3.837-3.604c-0.247-0.665-0.375-1.376-0.375-2.107c0-1.212,0.376-2.402,1.05-3.399l-8.038-8.297
			c-1.242-1.24-3.255-1.24-4.497,0c-2.127,2.128-2.25,5.537-0.28,7.811L15.537,21.285z"/>
		<path d="M27.501,22.523c0.622,0.621,1.436,0.931,2.249,0.931c0.814,0,1.628-0.31,2.249-0.931L42.093,12.43
			c0.379-0.379,0.379-0.994,0-1.374l-0.159-0.159c-0.182-0.182-0.429-0.283-0.687-0.283c-0.257,0-0.504,0.102-0.687,0.283
			l-6.674,6.675c-0.284,0.282-0.669,0.442-1.07,0.442c-0.402,0-0.787-0.16-1.071-0.444l-0.159-0.159
			c-0.591-0.59-0.591-1.549,0.001-2.14l6.674-6.673c0.379-0.38,0.379-0.995,0-1.374l-0.159-0.16
			c-0.183-0.182-0.43-0.284-0.687-0.284c-0.258,0-0.505,0.103-0.687,0.284l-6.674,6.676c-0.283,0.284-0.668,0.442-1.069,0.442
			c-0.402,0-0.787-0.158-1.071-0.442l-0.16-0.161c-0.284-0.283-0.444-0.669-0.444-1.07c0-0.4,0.16-0.785,0.444-1.069l6.674-6.674
			c0.183-0.184,0.285-0.429,0.285-0.688c0-0.258-0.102-0.505-0.285-0.688L34.27,3.232c-0.189-0.189-0.438-0.285-0.687-0.285
			s-0.497,0.096-0.688,0.285L22.802,13.325c-0.597,0.597-0.932,1.406-0.932,2.249s0.335,1.652,0.931,2.249l0.298,0.299L2.172,37.78
			c-0.523,0.491-0.825,1.175-0.836,1.891c-0.011,0.718,0.269,1.409,0.776,1.917l1.496,1.683c0.498,0.497,1.172,0.963,1.875,0.963
			c0.014,0,0.027,0,0.042,0c0.717,0,1.401-0.499,1.892-1.022l19.659-21.115L27.501,22.523z"/>
	</g>
</g>
</svg>
