<?xml version="1.0" encoding="utf-8"?>
<!-- Generator: Adobe Illustrator 16.0.0, SVG Export Plug-In . SVG Version: 6.00 Build 0)  -->
<!DOCTYPE svg PUBLIC "-//W3C//DTD SVG 1.1//EN" "http://www.w3.org/Graphics/SVG/1.1/DTD/svg11.dtd">
<svg version="1.1" xmlns="http://www.w3.org/2000/svg" xmlns:xlink="http://www.w3.org/1999/xlink" x="0px" y="0px" width="48px"
	 height="48px" viewBox="0 0 48 48" enable-background="new 0 0 48 48" xml:space="preserve">
<g id="Layer_2" display="none">
	<g display="inline" opacity="0.5">
		<polygon fill="#00B7E8" points="99,-3 99,47 -203,47 -203,98 301,98 301,57.5 301,51.5 301,-3 		"/>
		<polygon fill="#E27600" points="-205,-52 -205,-3.087 -205,47 99,47 99,-2 301,-2 301,-52 		"/>
	</g>
</g>
<g id="Layer_1">
	<g>
		<path d="M17.837,19.439c2.43-3.937,5.833-6.909,9.64-8.504C24.14,4.684,18.188,0.92,12.479,1.38
			c2.574,2.925,4.848,7.852,5.221,16.169C17.729,18.2,17.778,18.827,17.837,19.439z"/>
		<path d="M12.705,17.771C12.295,8.627,9.39,4.825,7.083,3.243C1.506,6.941-0.642,15.351,2.335,23.411
			c2.278,6.168,6.971,10.535,12.025,11.887c-0.326-2.366-0.284-4.868,0.194-7.397C13.559,25.05,12.881,21.709,12.705,17.771z"/>
		<path d="M40.107,14.538c-2.307,1.582-5.212,5.384-5.622,14.528c-0.373,8.313-2.949,14.012-6.131,17.909
			c0.4,0.041,0.802,0.068,1.204,0.068c6.208,0,12.531-4.851,15.296-12.338C47.832,26.646,45.684,18.236,40.107,14.538z"/>
		<path d="M34.72,12.665c-0.317-0.026-0.635-0.041-0.953-0.041c-6.208,0-12.53,4.85-15.295,12.337
			c-2.982,8.074-0.821,16.496,4.775,20.186c3.113-3.16,5.881-8.224,6.243-16.303C29.864,20.517,32.143,15.588,34.72,12.665z"/>
	</g>
</g>
</svg>
