<?xml version="1.0" encoding="utf-8"?>
<!-- Generator: Adobe Illustrator 16.0.0, SVG Export Plug-In . SVG Version: 6.00 Build 0)  -->
<!DOCTYPE svg PUBLIC "-//W3C//DTD SVG 1.1//EN" "http://www.w3.org/Graphics/SVG/1.1/DTD/svg11.dtd">
<svg version="1.1" xmlns="http://www.w3.org/2000/svg" xmlns:xlink="http://www.w3.org/1999/xlink" x="0px" y="0px" width="48px"
	 height="48px" viewBox="0 0 48 48" enable-background="new 0 0 48 48" xml:space="preserve">
<g id="Layer_2" display="none">
	<g display="inline" opacity="0.5">
		<polygon fill="#EA00D9" points="51,1 -252,1 -252,51 -457,51 -457,99 51.216,97.784 		"/>
		<polygon fill="#EDE600" points="51,-51 -300,-51 -300,-1 -457,-1 -457,51 -252,51 -252,1 51,1 		"/>
		<polygon fill="#D80000" points="51,-100 -455,-100 -455,-49.5 -455,-48.5 -455,1 -301,1 -301,-48 51,-48 		"/>
	</g>
</g>
<g id="Layer_1">
	<g>
		<path d="M44.328,7.396L4.703,2.146c-1.364-0.175-2.625,0.781-2.807,2.15c-0.182,1.368,0.781,2.625,2.15,2.807L17.153,8.84
			l-0.822,1.744c0.807,0.207,1.6,0.477,2.368,0.839c0.773,0.365,1.49,0.801,2.156,1.288l1.5-3.182l0.014,0.002l1.468,3.161
			c0.658-0.479,1.366-0.91,2.13-1.271c0.778-0.367,1.582-0.64,2.399-0.847l0.701-0.156c0.821-0.16,1.656-0.256,2.506-0.256
			c2.036,0,4.005,0.484,5.777,1.353l6.321,0.838c0.111,0.015,0.222,0.021,0.331,0.021c1.235,0,2.309-0.914,2.476-2.172
			C46.66,8.835,45.697,7.578,44.328,7.396z"/>
		<path d="M10.817,28.138c-1.284-0.604-2.653-0.961-3.978-1.305c-1.258-0.327-2.534-0.665-3.631-1.238l-1.433,3.762
			c-1.378,3.618,0.264,7.688,3.766,9.34l0.485,0.229c3.503,1.651,7.686,0.328,9.602-3.037l1.988-3.493
			c-1.121-0.471-2.174-1.229-3.263-2.019C13.247,29.573,12.102,28.743,10.817,28.138z"/>
		<path d="M17.419,14.136c-1.4-0.66-2.875-0.973-4.327-0.973c-3.812,0-7.465,2.154-9.199,5.83c-2.394,5.077,3.127,4.037,8.204,6.432
			c3.469,1.636,5.832,4.45,7.745,4.45c0.105,0,0.209-0.01,0.312-0.027c-0.167-0.282-0.326-0.584-0.478-0.905
			c-1.983-4.203-1.529-8.933,0.771-12.608C19.604,15.446,18.594,14.689,17.419,14.136z"/>
		<path d="M41.456,25.595c-1.097,0.573-2.373,0.911-3.631,1.238c-1.324,0.344-2.693,0.7-3.978,1.306
			c-1.284,0.604-2.43,1.435-3.537,2.237c-1.089,0.789-2.142,1.548-3.262,2.019l1.987,3.493c1.916,3.365,6.099,4.688,9.602,3.037
			l0.485-0.229c3.502-1.651,5.143-5.722,3.766-9.34L41.456,25.595z"/>
		<path d="M40.772,18.993c-1.734-3.676-5.388-5.83-9.199-5.83c-1.452,0-2.927,0.313-4.327,0.973
			c-5.076,2.395-7.252,8.45-4.857,13.526c0.758,1.608,1.548,2.213,2.435,2.213c1.913,0,4.276-2.814,7.745-4.45
			C37.646,23.03,43.166,24.07,40.772,18.993z"/>
	</g>
</g>
</svg>
