<?xml version="1.0" encoding="utf-8"?>
<!-- Generator: Adobe Illustrator 16.0.0, SVG Export Plug-In . SVG Version: 6.00 Build 0)  -->
<!DOCTYPE svg PUBLIC "-//W3C//DTD SVG 1.1//EN" "http://www.w3.org/Graphics/SVG/1.1/DTD/svg11.dtd">
<svg version="1.1" xmlns="http://www.w3.org/2000/svg" xmlns:xlink="http://www.w3.org/1999/xlink" x="0px" y="0px" width="48px"
	 height="48px" viewBox="0 0 48 48" enable-background="new 0 0 48 48" xml:space="preserve">
<g id="Layer_2" display="none">
	<g display="inline" opacity="0.5">
		<polygon fill="#EA00D9" points="151,1 -152,1 -152,51 -357,51 -357,99 151.216,97.784 		"/>
		<polygon fill="#EDE600" points="151,-51 -200,-51 -200,-1 -357,-1 -357,51 -152,51 -152,1 151,1 		"/>
		<polygon fill="#D80000" points="151,-100 -355,-100 -355,-49.5 -355,-48.5 -355,1 -201,1 -201,-48 151,-48 		"/>
	</g>
</g>
<g id="Layer_1">
	<g>
		<path d="M36.853,36.69c-1.41,0-2.851,0.438-4.174,0.887l-0.302,4.376c-0.086,1.24,0.348,2.46,1.195,3.369
			c0.849,0.909,2.036,1.425,3.28,1.425s2.432-0.516,3.28-1.425c0.848-0.909,1.281-2.13,1.195-3.37l-0.302-4.375
			C39.703,37.129,38.263,36.69,36.853,36.69z"/>
		<path d="M23.479,32.93c0-2.57,0.741-4.966,2.004-7.007c-1.585-0.392-3.228-0.663-4.901-0.663c-2.658,0-5.242,0.678-7.634,1.452
			l-0.762,11.046c-0.16,2.326,0.652,4.615,2.243,6.319c1.591,1.705,3.818,2.673,6.152,2.673c2.332,0,4.56-0.968,6.151-2.673
			c1.393-1.492,2.188-3.433,2.258-5.453c-0.274,0.036-0.549,0.065-0.822,0.065C27.068,38.689,23.479,38.274,23.479,32.93z"/>
		<path d="M27.525,23.365c2.411-2.353,5.7-3.809,9.327-3.809c1.084,0,2.132,0.144,3.142,0.388
			C39.527,9.613,31.028,1.375,20.582,1.375c-10.746,0-19.457,8.711-19.457,19.457c0,3.931,1.165,5.177,3.169,5.177
			c3.475,0,9.473-3.749,16.288-3.749C23.029,22.26,25.368,22.745,27.525,23.365z"/>
		<path d="M36.853,22.557c-5.729,0-10.373,4.645-10.373,10.373c0,2.096,0.621,2.76,1.689,2.76c1.853,0,5.05-1.999,8.684-1.999
			c3.635,0,6.831,1.999,8.684,1.999c1.068,0,1.689-0.665,1.689-2.76C47.226,27.201,42.582,22.557,36.853,22.557z"/>
	</g>
</g>
</svg>
