<?xml version="1.0" encoding="utf-8"?>
<!-- Generator: Adobe Illustrator 16.0.0, SVG Export Plug-In . SVG Version: 6.00 Build 0)  -->
<!DOCTYPE svg PUBLIC "-//W3C//DTD SVG 1.1//EN" "http://www.w3.org/Graphics/SVG/1.1/DTD/svg11.dtd">
<svg version="1.1" xmlns="http://www.w3.org/2000/svg" xmlns:xlink="http://www.w3.org/1999/xlink" x="0px" y="0px" width="48px"
	 height="48px" viewBox="0 0 48 48" enable-background="new 0 0 48 48" xml:space="preserve">
<g id="Layer_2" display="none">
	<g display="inline" opacity="0.5">
		<polygon fill="#E27600" points="-155,48 -155,96.913 -155,147 149,147 149,98 351,98 351,48 		"/>
		<polygon fill="#EA00D9" points="351,-49 48,-49 48,1 -157,1 -157,49 351.216,47.784 		"/>
		<polygon fill="#EDE600" points="351,-101 0,-101 0,-51 -157,-51 -157,1 48,1 48,-49 351,-49 		"/>
	</g>
</g>
<g id="Layer_1">
	<g>
		<path d="M23.508,6.504l13.754,13.754c0.377,0.377,0.871,0.565,1.364,0.565c0.494,0,0.988-0.188,1.364-0.565
			c0.753-0.753,0.753-1.974,0-2.728L26.236,3.776C25.461,3,24.387,2.556,23.292,2.556c-1.112,0-2.158,0.433-2.945,1.221L6.592,17.53
			c-0.753,0.754-0.753,1.975,0,2.728c0.753,0.754,1.975,0.754,2.728,0L23.073,6.505C23.189,6.388,23.393,6.389,23.508,6.504z"/>
		<path d="M19.883,37.128c0-1.88,1.529-3.408,3.408-3.408h9.866V19.68c0-0.134-0.059-0.263-0.156-0.355l-9.368-8.978
			c-0.19-0.182-0.492-0.182-0.683,0l-9.359,8.978c-0.097,0.093-0.145,0.222-0.145,0.355v25.032c0,0.985,0.785,1.788,1.771,1.788
			h16.147c0.985,0,1.792-0.803,1.792-1.788v-4.176h-9.866C21.412,40.536,19.883,39.007,19.883,37.128z M23.292,20.373
			c2.45,0,4.436,1.986,4.436,4.437s-1.986,4.436-4.436,4.436c-2.45,0-4.436-1.985-4.436-4.436S20.841,20.373,23.292,20.373z"/>
		<path d="M40.049,35.65H23.292c-0.817,0-1.479,0.66-1.479,1.478c0,0.816,0.662,1.477,1.479,1.477h16.758
			c0.817,0,1.479-0.66,1.479-1.477C41.528,36.311,40.867,35.65,40.049,35.65z"/>
	</g>
</g>
</svg>
