<?xml version="1.0" encoding="utf-8"?>
<!-- Generator: Adobe Illustrator 16.0.0, SVG Export Plug-In . SVG Version: 6.00 Build 0)  -->
<!DOCTYPE svg PUBLIC "-//W3C//DTD SVG 1.1//EN" "http://www.w3.org/Graphics/SVG/1.1/DTD/svg11.dtd">
<svg version="1.1" xmlns="http://www.w3.org/2000/svg" xmlns:xlink="http://www.w3.org/1999/xlink" x="0px" y="0px" width="48px"
	 height="48px" viewBox="0 0 48 48" enable-background="new 0 0 48 48" xml:space="preserve">
<g id="Layer_2" display="none">
	<g display="inline" opacity="0.5">
		<polygon fill="#EA00D9" points="251,1 -52,1 -52,51 -257,51 -257,99 251.216,97.784 		"/>
		<polygon fill="#EDE600" points="251,-51 -100,-51 -100,-1 -257,-1 -257,51 -52,51 -52,1 251,1 		"/>
		<polygon fill="#D80000" points="251,-100 -255,-100 -255,-49.5 -255,-48.5 -255,1 -101,1 -101,-48 251,-48 		"/>
	</g>
</g>
<g id="Layer_1">
	<path d="M37.901,17.745c0.014-0.195,0.021-0.39,0.021-0.585c0-3.378-1.948-6.419-4.94-7.855c-0.363-4.474-4.12-8.003-8.686-8.003
		c-4.564,0-8.321,3.529-8.685,8.003c-2.992,1.436-4.94,4.478-4.94,7.855c0,0.195,0.007,0.39,0.021,0.585
		c-2.473,2.047-3.927,5.106-3.927,8.344c0,5.972,4.858,10.83,10.829,10.83c0.94,0,1.862-0.118,2.747-0.348v7.752
		c0,0.815,0.677,1.468,1.493,1.468h4.925c0.816,0,1.47-0.652,1.47-1.468v-7.759c0.893,0.234,1.82,0.354,2.769,0.354
		c5.973,0,10.831-4.858,10.831-10.83C41.828,22.852,40.375,19.794,37.901,17.745z M30.997,34.01c-2.026,0-3.875-0.763-5.275-2.016
		l0.039-10.258c0.039-0.026,0.077-0.053,0.115-0.082l4.898-3.941c0.627-0.504,0.726-1.42,0.222-2.046
		c-0.506-0.627-1.42-0.725-2.046-0.223l-3.175,2.555l0.029-7.734c0.003-0.804-0.646-1.412-1.449-1.477c-0.002,0-0.004,0-0.006,0
		c-0.802,0-1.453,0.663-1.455,1.465l-0.061,15.766l-4.766-4.009c-0.614-0.519-1.533-0.436-2.05,0.178
		c-0.518,0.614-0.438,1.533,0.176,2.051l6.625,5.58l-0.008,2.229c-1.394,1.222-3.219,1.962-5.218,1.962
		c-4.373,0-7.919-3.546-7.919-7.921c0-2.686,1.337-5.058,3.38-6.49c0.468-0.328,0.706-0.896,0.608-1.46
		c-0.054-0.318-0.082-0.646-0.082-0.979c0-2.545,1.639-4.707,3.918-5.49c0.615-0.211,1.02-0.798,0.997-1.449
		c-0.003-0.066-0.004-0.136-0.004-0.204c0-3.206,2.599-5.805,5.804-5.805s5.805,2.599,5.805,5.805c0,0.068-0.002,0.137-0.004,0.204
		c-0.022,0.65,0.382,1.239,0.997,1.449c2.28,0.784,3.918,2.945,3.918,5.49c0,0.333-0.028,0.661-0.082,0.979
		c-0.098,0.563,0.141,1.132,0.607,1.46c2.044,1.433,3.381,3.805,3.381,6.49C38.918,30.464,35.372,34.01,30.997,34.01z"/>
</g>
</svg>
