<?xml version="1.0" encoding="utf-8"?>
<!-- Generator: Adobe Illustrator 16.0.0, SVG Export Plug-In . SVG Version: 6.00 Build 0)  -->
<!DOCTYPE svg PUBLIC "-//W3C//DTD SVG 1.1//EN" "http://www.w3.org/Graphics/SVG/1.1/DTD/svg11.dtd">
<svg version="1.1" id="Layer_1" xmlns="http://www.w3.org/2000/svg" xmlns:xlink="http://www.w3.org/1999/xlink" x="0px" y="0px"
	 width="48px" height="48px" viewBox="0 0 48 48" enable-background="new 0 0 48 48" xml:space="preserve">
<g>
	<path d="M11.67,18.501c-1.247-0.311-2.59-0.667-2.594-0.668c-0.549-0.156-2.206,0.761-3.489,2.457
		c-1.347-0.335-2.292-0.571-2.294-0.572c-0.349-0.099-1.71,0.783-2.129,2.257c-0.418,1.474,0.265,2.983,0.611,3.082
		c0.002,0,0.896,0.286,2.179,0.696c0.146,2.249,1.104,4.063,1.672,4.225c0.005,0.001,0.997,0.279,2.416,0.734
		c-0.706-2.06-0.437-4.384,0.256-6.817C8.897,21.78,9.876,20.16,11.67,18.501z"/>
	<path d="M45.713,16.311c-0.026-0.008-13.036-3.125-20.625-5.015c-1.549,1.112-2.706,2.722-3.471,5.417
		c-0.461,1.625-0.646,3.042-0.657,4.184c-0.998-0.243-1.985-0.485-2.938-0.72c-0.024-1.381,0.242-2.841,0.667-4.342
		c0.602-2.114,1.579-3.734,3.374-5.392c-1.249-0.311-2.59-0.667-2.595-0.669c-0.548-0.157-2.206,0.761-3.488,2.456
		c-1.349-0.335-2.292-0.57-2.296-0.571c-0.348-0.099-1.71,0.783-2.127,2.256c-0.42,1.474,0.263,2.982,0.609,3.082
		c0.004,0.001,0.897,0.286,2.18,0.696c0.04,0.612,0.141,1.191,0.275,1.714c-1.512,1.111-2.645,2.712-3.397,5.364
		c-1.008,3.548-0.701,6.116-0.131,6.953c7.555,2.414,20.269,6.478,20.294,6.484c1.373,0.391,3.366-2.391,4.452-6.212
		c0.355-1.253,0.57-2.464,0.648-3.537c3.095,0.989,5.282,1.688,5.293,1.69c1.372,0.391,3.366-2.392,4.449-6.212
		C47.318,20.118,47.086,16.7,45.713,16.311z M33.97,31.464c-0.824,2.895-2.313,5.006-3.33,4.717
		c-1.015-0.288-1.173-2.868-0.351-5.762c0.821-2.896,2.313-5.006,3.329-4.718C34.635,25.989,34.792,28.57,33.97,31.464z
		 M44.362,23.406c-0.823,2.895-2.314,5.006-3.329,4.717c-1.016-0.288-1.174-2.868-0.352-5.762c0.822-2.896,2.313-5.007,3.329-4.718
		C45.026,17.93,45.185,20.51,44.362,23.406z"/>
</g>
</svg>
