<?xml version="1.0" encoding="utf-8"?>
<!-- Generator: Adobe Illustrator 16.0.0, SVG Export Plug-In . SVG Version: 6.00 Build 0)  -->
<!DOCTYPE svg PUBLIC "-//W3C//DTD SVG 1.1//EN" "http://www.w3.org/Graphics/SVG/1.1/DTD/svg11.dtd">
<svg version="1.1" xmlns="http://www.w3.org/2000/svg" xmlns:xlink="http://www.w3.org/1999/xlink" x="0px" y="0px" width="48px"
	 height="48px" viewBox="0 0 48 48" enable-background="new 0 0 48 48" xml:space="preserve">
<g id="Layer_2" display="none">
	<g display="inline" opacity="0.5">
		<polygon fill="#E27600" points="-405,48 -405,96.913 -405,147 -101,147 -101,98 101,98 101,48 		"/>
		<polygon fill="#EA00D9" points="101,-49 -202,-49 -202,1 -407,1 -407,49 101.216,47.784 		"/>
		<polygon fill="#EDE600" points="101,-101 -250,-101 -250,-51 -407,-51 -407,1 -202,1 -202,-49 101,-49 		"/>
	</g>
</g>
<g id="Layer_1">
	<path d="M43.41,28.591C43.332,28.489,22.07,1.752,22.07,1.752c-0.688-0.862-1.941-1.003-2.803-0.317
		c-3.125,2.489-5.093,6.046-5.54,10.016c-0.45,3.969,0.675,7.883,3.163,11.006l2.913,3.662h-9.712c-5.231,0-9.473,4.249-9.473,9.48
		s4.241,9.479,9.473,9.479h26.923c5.231,0,9.473-4.255,9.473-9.485C46.487,32.826,44.97,30.627,43.41,28.591z M9.404,39.629
		c-2.237,0-4.051-1.813-4.051-4.051c0-2.236,1.813-4.051,4.051-4.051s4.052,1.814,4.052,4.051
		C13.456,37.815,11.642,39.629,9.404,39.629z M20.01,19.973c-1.824-2.292-2.648-5.16-2.319-8.071
		c0.254-2.238,1.165-4.294,2.615-5.956l16.072,20.173H24.903L20.01,19.973z M37.701,39.629c-2.236,0-4.051-1.813-4.051-4.051
		c0-2.236,1.814-4.051,4.051-4.051c2.238,0,4.051,1.814,4.051,4.051C41.752,37.815,39.939,39.629,37.701,39.629z"/>
</g>
</svg>
