<?xml version="1.0" encoding="utf-8"?>
<!-- Generator: Adobe Illustrator 16.0.0, SVG Export Plug-In . SVG Version: 6.00 Build 0)  -->
<!DOCTYPE svg PUBLIC "-//W3C//DTD SVG 1.1//EN" "http://www.w3.org/Graphics/SVG/1.1/DTD/svg11.dtd">
<svg version="1.1" xmlns="http://www.w3.org/2000/svg" xmlns:xlink="http://www.w3.org/1999/xlink" x="0px" y="0px" width="48px"
	 height="48px" viewBox="0 0 48 48" enable-background="new 0 0 48 48" xml:space="preserve">
<g id="Layer_2" display="none">
	<g display="inline" opacity="0.5">
		<polygon fill="#EA00D9" points="101,1 -202,1 -202,51 -407,51 -407,99 101.216,97.784 		"/>
		<polygon fill="#EDE600" points="101,-51 -250,-51 -250,-1 -407,-1 -407,51 -202,51 -202,1 101,1 		"/>
		<polygon fill="#D80000" points="101,-100 -405,-100 -405,-49.5 -405,-48.5 -405,1 -251,1 -251,-48 101,-48 		"/>
	</g>
</g>
<g id="Layer_1">
	<g>
		<path d="M39.523,5.375c-3.46,0-6.354,2.401-7.123,5.625H15.462c-0.77-3.224-3.663-5.625-7.123-5.625
			c-4.047,0-7.328,3.282-7.328,7.328c0,2.844,1.623,5.304,3.989,6.52v7.853c0,10.157,8.84,18.393,19,18.393
			c10.159,0,19-8.235,19-18.393v-7.919c2.293-1.239,3.852-3.664,3.852-6.453C46.852,8.657,43.569,5.375,39.523,5.375z
			 M14.375,20.535c0-1.15,0.934-2.084,2.083-2.084c1.151,0,2.084,0.934,2.084,2.084c0,1.151-0.933,2.084-2.084,2.084
			C15.309,22.619,14.375,21.687,14.375,20.535z M23.931,41.876c-3.849,0-6.969-4.053-6.969-9.053c0-5.002,3.12-9.056,6.969-9.056
			c3.85,0,6.97,4.054,6.97,9.056C30.9,37.823,27.78,41.876,23.931,41.876z M31.404,22.619c-1.151,0-2.084-0.933-2.084-2.084
			c0-1.15,0.933-2.084,2.084-2.084c1.149,0,2.083,0.934,2.083,2.084C33.487,21.687,32.554,22.619,31.404,22.619z"/>
		<path d="M20.289,29c-0.615,0-1.17,0.271-1.406,0.84c-0.235,0.568-0.105,1.173,0.33,1.607l3.642,3.617
			c0.595,0.595,1.558,0.582,2.152-0.013l3.642-3.648c0.436-0.435,0.565-0.992,0.33-1.561C28.742,29.274,28.188,29,27.572,29H20.289z
			"/>
	</g>
</g>
</svg>
