<?xml version="1.0" encoding="utf-8"?>
<!-- Generator: Adobe Illustrator 16.0.0, SVG Export Plug-In . SVG Version: 6.00 Build 0)  -->
<!DOCTYPE svg PUBLIC "-//W3C//DTD SVG 1.1//EN" "http://www.w3.org/Graphics/SVG/1.1/DTD/svg11.dtd">
<svg version="1.1" xmlns="http://www.w3.org/2000/svg" xmlns:xlink="http://www.w3.org/1999/xlink" x="0px" y="0px" width="48px"
	 height="48px" viewBox="0 0 48 48" enable-background="new 0 0 48 48" xml:space="preserve">
<g id="Layer_2" display="none">
	<g display="inline" opacity="0.5">
		<polygon fill="#E27600" points="-105,48 -105,96.913 -105,147 199,147 199,98 401,98 401,48 		"/>
		<polygon fill="#EA00D9" points="401,-49 98,-49 98,1 -107,1 -107,49 401.216,47.784 		"/>
		<polygon fill="#EDE600" points="401,-101 50,-101 50,-51 -107,-51 -107,1 98,1 98,-49 401,-49 		"/>
	</g>
</g>
<g id="Layer_1">
	<path d="M45.889,39.242c0-1.291-1.077-2.321-2.368-2.321h-7.829c-0.063-2.038-1.687-3.574-3.683-3.574
		c-0.331,0-0.653,0.039-0.958,0.122c-0.119-1.929-1.72-3.457-3.678-3.457c-0.489,0-0.956,0.094-1.382,0.268
		c0-4.336-0.815-8.011-0.815-8.011c1.307-1.424,1.99-3.587,1.944-6.24c-0.046-2.7-0.83-5.604-2.176-7.482
		c-2.254-3.15-8.039-5.501-12.94-7.392C11.185,0.84,10.236,0.95,9.516,1.438C8.782,1.934,8.338,2.758,8.326,3.643
		c-0.07,5.253-0.262,11.267,2.043,14.76c1.872,2.839,6.274,5.729,10.289,5.729c0.54,0,1.052-0.055,1.538-0.162
		c0.063,0.353-0.182,5.523-0.222,6.307c-0.426-0.172-0.891-0.267-1.378-0.267c-1.958,0-3.559,1.525-3.677,3.455
		c-0.306-0.083-0.627-0.118-0.959-0.118c-1.995,0-3.62,1.536-3.682,3.574h-7.83c-1.291,0-2.337,1.03-2.337,2.321v3.765
		c0,1.291,1.046,2.333,2.337,2.333h39.072c1.292,0,2.368-1.042,2.368-2.333V39.242z M12.732,16.804
		c-1.689-2.517-1.627-6.465-1.556-12.91c6.009,2.333,9.424,3.77,11.404,6.251c1.1,1.378,1.649,3.789,1.687,5.934
		c0.023,1.37-0.2,2.545-0.633,3.418l-0.019-0.024l-0.436-0.572c-0.578-0.758-1.147-1.503-1.698-2.225
		c-1.101-1.444-2.129-2.793-3.01-3.947c-1.762-2.311-2.937-3.851-2.937-3.851c-0.253-0.329-0.72-0.424-1.081-0.202
		c-0.386,0.237-0.506,0.741-0.269,1.127c0,0,1.014,1.65,2.535,4.127c0.761,1.238,1.648,2.683,2.599,4.229
		c0.475,0.774,0.966,1.574,1.465,2.387l0.375,0.611l0.056,0.091c-0.178,0.021-0.363,0.033-0.557,0.033
		C17.771,21.279,14.157,18.926,12.732,16.804z"/>
</g>
</svg>
