<?xml version="1.0" encoding="utf-8"?>
<!-- Generator: Adobe Illustrator 16.0.0, SVG Export Plug-In . SVG Version: 6.00 Build 0)  -->
<!DOCTYPE svg PUBLIC "-//W3C//DTD SVG 1.1//EN" "http://www.w3.org/Graphics/SVG/1.1/DTD/svg11.dtd">
<svg version="1.1" id="Layer_1" xmlns="http://www.w3.org/2000/svg" xmlns:xlink="http://www.w3.org/1999/xlink" x="0px" y="0px"
	 width="48px" height="48px" viewBox="0 0 48 48" enable-background="new 0 0 48 48" xml:space="preserve">
<path d="M46.813,11.735L39.15,5.423c-0.355-0.293-0.802-0.445-1.263-0.445H23.812V2.94c0-1.096-0.913-2.001-2.009-2.001h-4.041
	c-1.097,0-2.027,0.905-2.027,2.001v2.038H4.539c-1.098,0-2.012,0.871-2.012,1.967v13.053c0,1.096,0.914,2.006,2.012,2.006h11.195
	v23.026c0,1.096,0.931,1.969,2.027,1.969h4.041c1.096,0,2.009-0.873,2.009-1.969V22.005h14.043c0.481,0,0.946-0.185,1.308-0.502
	l7.694-6.737c0.438-0.383,0.686-0.943,0.677-1.525S47.261,12.106,46.813,11.735z"/>
</svg>
