<?xml version="1.0" encoding="utf-8"?>
<!-- Generator: Adobe Illustrator 16.0.0, SVG Export Plug-In . SVG Version: 6.00 Build 0)  -->
<!DOCTYPE svg PUBLIC "-//W3C//DTD SVG 1.1//EN" "http://www.w3.org/Graphics/SVG/1.1/DTD/svg11.dtd">
<svg version="1.1" xmlns="http://www.w3.org/2000/svg" xmlns:xlink="http://www.w3.org/1999/xlink" x="0px" y="0px" width="48px"
	 height="48px" viewBox="0 0 48 48" enable-background="new 0 0 48 48" xml:space="preserve">
<g id="Layer_2" display="none">
	<g display="inline" opacity="0.5">
		<polygon fill="#E27600" points="-55,48 -55,96.913 -55,147 249,147 249,98 451,98 451,48 		"/>
		<polygon fill="#EA00D9" points="451,-49 148,-49 148,1 -57,1 -57,49 451.216,47.784 		"/>
		<polygon fill="#EDE600" points="451,-101 100,-101 100,-51 -57,-51 -57,1 148,1 148,-49 451,-49 		"/>
	</g>
</g>
<g id="Layer_1">
	<g>
		<path d="M8.607,32.677l6.912-0.922c2.126-0.283,3.706-2.097,3.706-4.241v-7.821c0-1.662-0.955-3.173-2.461-3.877l-6.302-2.939
			c-1.979-0.924-4.274-0.771-6.116,0.402c-1.843,1.172-2.938,3.205-2.938,5.388v7.677c0,1.843,0.776,3.595,2.164,4.809
			C4.957,32.364,6.78,32.919,8.607,32.677z"/>
		<path d="M18.539,34.644c-0.44-0.385-1.024-0.563-1.604-0.485l-6.108,0.813c-3.176,0.424-5.552,3.131-5.552,6.333v0.001
			c0,1.503,0.794,2.896,2.084,3.668c1.289,0.772,2.892,0.814,4.218,0.107l6.579-3.512c0.663-0.354,1.07-1.043,1.07-1.793v-3.604
			C19.225,35.587,18.98,35.029,18.539,34.644z"/>
		<path d="M23.826,16.726c-1.631,0-2.937,1.321-2.937,2.951v19.576c0,1.631,1.306,2.95,2.937,2.95s2.937-1.319,2.937-2.95V19.677
			C26.763,18.047,25.458,16.726,23.826,16.726z"/>
		<path d="M43.375,13.278c-1.842-1.173-4.162-1.326-6.142-0.402l-6.296,2.939c-1.507,0.704-2.461,2.215-2.461,3.877v7.821
			c0,2.145,1.576,3.958,3.702,4.241l6.914,0.922c1.826,0.242,3.676-0.313,5.063-1.525c1.386-1.214,2.188-2.966,2.188-4.809v-7.677
			C46.343,16.483,45.218,14.45,43.375,13.278z"/>
		<path d="M36.846,34.972l-6.098-0.813c-0.581-0.078-1.151,0.101-1.593,0.485c-0.441,0.386-0.679,0.943-0.679,1.529v3.604
			c0,0.75,0.402,1.438,1.065,1.793l6.581,3.512c1.326,0.707,2.908,0.665,4.196-0.107c1.29-0.771,2.061-2.165,2.061-3.668v-0.001
			C42.378,38.103,40.021,35.396,36.846,34.972z"/>
		<g>
			<path d="M21.855,15.02c-0.528,0-0.969-0.579-0.995-1.112c-0.014-0.296-0.419-7.317-6.315-9.233
				c-0.524-0.17-0.811-0.773-0.64-1.296c0.17-0.522,0.731-0.832,1.256-0.661c7.223,2.346,7.676,10.759,7.692,11.109
				c0.024,0.548-0.4,1.193-0.95,1.193C21.887,15.02,21.871,15.02,21.855,15.02z"/>
		</g>
		<g>
			<path d="M25.883,15.02c-0.015,0-0.031,0-0.046,0c-0.55,0-0.976-0.655-0.952-1.204c0.016-0.351,0.469-8.691,7.692-11.038
				c0.525-0.169,1.087,0.078,1.256,0.601c0.17,0.522-0.116,1.064-0.64,1.235c-5.923,1.923-6.313,9.229-6.316,9.302
				C26.854,14.449,26.413,15.02,25.883,15.02z"/>
		</g>
	</g>
</g>
</svg>
