<?xml version="1.0" encoding="utf-8"?>
<!-- Generator: Adobe Illustrator 16.0.0, SVG Export Plug-In . SVG Version: 6.00 Build 0)  -->
<!DOCTYPE svg PUBLIC "-//W3C//DTD SVG 1.1//EN" "http://www.w3.org/Graphics/SVG/1.1/DTD/svg11.dtd">
<svg version="1.1" xmlns="http://www.w3.org/2000/svg" xmlns:xlink="http://www.w3.org/1999/xlink" x="0px" y="0px" width="48px"
	 height="48px" viewBox="0 0 48 48" enable-background="new 0 0 48 48" xml:space="preserve">
<g id="Layer_2" display="none">
	<g display="inline" opacity="0.5">
		<polygon fill="#EA00D9" points="201,1 -102,1 -102,51 -307,51 -307,99 201.216,97.784 		"/>
		<polygon fill="#EDE600" points="201,-51 -150,-51 -150,-1 -307,-1 -307,51 -102,51 -102,1 201,1 		"/>
		<polygon fill="#D80000" points="201,-100 -305,-100 -305,-49.5 -305,-48.5 -305,1 -151,1 -151,-48 201,-48 		"/>
	</g>
</g>
<g id="Layer_1">
	<g>
		<path d="M45.734,29.834l-4.57-9.241c-5.915,0.61-7.931,1.793-8.563,2.71c-0.127,0.185-0.468,0.677-0.108,1.92
			c0.893,3.091,0.009,5.164-0.891,6.36c-2.239,2.979-7.159,4.306-15.952,4.306c-2.687,0-4.591,0.554-5.221,1.517
			c-0.614,0.939-0.158,2.51,0.049,2.984l-0.027,0.013H34.18c0.871,0,1.681-0.468,2.139-1.207c0.46-0.74,0.506-1.661,0.119-2.442
			l-1.614-3.262h8.653c0.871,0,1.68-0.461,2.14-1.2C46.076,31.55,46.12,30.614,45.734,29.834z"/>
		<path d="M27.733,28.676c0.142-0.189,0.521-0.692,0.11-2.11c-0.823-2.849-0.032-4.843,0.775-6.013
			c1.63-2.36,4.85-3.807,10.271-4.561l-2.345-4.741c-0.425-0.859-1.3-1.402-2.258-1.402s-1.833,0.543-2.258,1.402l-4.097,8.284
			L21.357,6.239c-0.425-0.858-1.3-1.402-2.257-1.402c-0.958,0-1.834,0.544-2.258,1.402L1.764,36.733
			c-0.387,0.78-0.342,1.722,0.118,2.462c0.459,0.739,1.269,1.207,2.14,1.207h1.431c-0.299-1.513-0.357-3.646,0.895-5.598
			c1.599-2.491,4.729-3.755,9.303-3.755C24.609,31.05,27.065,29.562,27.733,28.676z"/>
	</g>
</g>
</svg>
