<?xml version="1.0" encoding="utf-8"?>
<!-- Generator: Adobe Illustrator 16.0.0, SVG Export Plug-In . SVG Version: 6.00 Build 0)  -->
<!DOCTYPE svg PUBLIC "-//W3C//DTD SVG 1.1//EN" "http://www.w3.org/Graphics/SVG/1.1/DTD/svg11.dtd">
<svg version="1.1" xmlns="http://www.w3.org/2000/svg" xmlns:xlink="http://www.w3.org/1999/xlink" x="0px" y="0px" width="48px"
	 height="48px" viewBox="0 0 48 48" enable-background="new 0 0 48 48" xml:space="preserve">
<g id="Layer_2" display="none">
	<g display="inline" opacity="0.5">
		<polygon fill="#E27600" points="-5,48 -5,96.913 -5,147 299,147 299,98 501,98 501,48 		"/>
		<polygon fill="#EA00D9" points="501,-49 198,-49 198,1 -7,1 -7,49 501.216,47.784 		"/>
		<polygon fill="#EDE600" points="501,-101 150,-101 150,-51 -7,-51 -7,1 198,1 198,-49 501,-49 		"/>
	</g>
</g>
<g id="Layer_1">
	<g>
		<path d="M12.277,13.034h24.692c0.544,0,1.054-0.26,1.364-0.706c0.309-0.449,0.38-1.017,0.188-1.525
			c-2.115-5.618-7.541-9.613-13.898-9.613s-11.782,3.997-13.898,9.615c-0.192,0.509-0.121,1.074,0.188,1.522
			C11.223,12.774,11.733,13.034,12.277,13.034z"/>
		<path d="M46.704,43.769L35.883,25.594c1.357-1.584,2.386-3.505,2.984-5.497h0.248c1.38,0,2.499-1.155,2.499-2.535
			s-1.119-2.535-2.499-2.535H10.131c-1.38,0-2.499,1.155-2.499,2.535s1.119,2.535,2.499,2.535h0.247
			c0.598,1.992,1.627,3.913,2.985,5.497L2.541,43.779c-0.564,0.948-0.252,2.17,0.696,2.734c0.321,0.19,0.673,0.278,1.02,0.278
			c0.682,0,1.346-0.35,1.72-0.979l10.42-17.538c1.826,1.219,3.943,2.044,6.206,2.352v11.848c0,1.104,0.888,1.998,1.993,1.998
			c1.104,0,1.992-0.895,1.992-1.998V30.627c2.354-0.308,4.407-1.133,6.233-2.353L43.26,45.813c0.374,0.629,1.042,0.977,1.725,0.977
			c0.347,0,0.701-0.091,1.021-0.281C46.955,45.943,47.269,44.718,46.704,43.769z"/>
	</g>
</g>
</svg>
