<?xml version="1.0" encoding="utf-8"?>
<!-- Generator: Adobe Illustrator 16.0.0, SVG Export Plug-In . SVG Version: 6.00 Build 0)  -->
<!DOCTYPE svg PUBLIC "-//W3C//DTD SVG 1.1//EN" "http://www.w3.org/Graphics/SVG/1.1/DTD/svg11.dtd">
<svg version="1.1" xmlns="http://www.w3.org/2000/svg" xmlns:xlink="http://www.w3.org/1999/xlink" x="0px" y="0px" width="48px"
	 height="48px" viewBox="0 0 48 48" enable-background="new 0 0 48 48" xml:space="preserve">
<g id="Layer_2" display="none">
	<g display="inline" opacity="0.5">
		<polygon fill="#EA00D9" points="301,1 -2,1 -2,51 -207,51 -207,99 301.216,97.784 		"/>
		<polygon fill="#EDE600" points="301,-51 -50,-51 -50,-1 -207,-1 -207,51 -2,51 -2,1 301,1 		"/>
		<polygon fill="#D80000" points="301,-100 -205,-100 -205,-49.5 -205,-48.5 -205,1 -51,1 -51,-48 301,-48 		"/>
	</g>
</g>
<g id="Layer_1">
	<path d="M45.07,31.317l-6.013-6.106c0.425-0.405,0.769-0.905,0.998-1.479c0.638-1.595,0.246-3.389-0.999-4.572l-4.951-4.715
		c0.148-0.223,0.276-0.462,0.381-0.716c0.648-1.568,0.292-3.351-0.904-4.547L27.322,2.92c-0.789-0.788-1.836-1.223-2.95-1.223
		c-1.114,0-2.162,0.435-2.95,1.223L15.16,9.183c-1.196,1.196-1.551,2.979-0.905,4.543c0.106,0.256,0.235,0.495,0.383,0.72
		l-4.954,4.718c-1.242,1.181-1.634,2.975-0.996,4.569c0.229,0.573,0.573,1.073,0.999,1.479l-6.016,6.107
		c-1.183,1.199-1.527,2.994-0.875,4.551c0.649,1.554,2.16,2.571,3.848,2.571h10.792v3.847c0,2.301,2.068,4.181,4.368,4.181h5.347
		c2.3,0,4.156-1.88,4.156-4.181V38.44H42.1c1.686,0,3.196-1.017,3.848-2.571C46.599,34.311,46.254,32.517,45.07,31.317z
		 M17.238,11.26L23.5,4.996c0.231-0.231,0.545-0.361,0.873-0.361s0.641,0.13,0.873,0.361l6.261,6.264
		c0.353,0.353,0.458,0.887,0.268,1.349c-0.191,0.461-0.642,0.766-1.14,0.766H29.54c-0.135,0-0.257,0.078-0.307,0.203
		c-0.05,0.126-0.019,0.268,0.079,0.36c0,0,3.852,3.332,4.895,4.661c3.927,5.003-5.765,6.132-7.879,1.321
		c-1.498-3.408-2.318-2.915-5.011,1.492c-2.693,4.406-6.472,0.535-3.901-2.28c1.594-1.745,0.564-2.515-0.448-2.847l2.466-2.35
		c0.098-0.093,0.129-0.232,0.079-0.358c-0.05-0.125-0.172-0.203-0.308-0.203H18.11c-0.499,0-0.948-0.305-1.14-0.766
		C16.779,12.146,16.885,11.612,17.238,11.26z"/>
</g>
</svg>
