<?xml version="1.0" encoding="utf-8"?>
<!-- Generator: Adobe Illustrator 16.0.0, SVG Export Plug-In . SVG Version: 6.00 Build 0)  -->
<!DOCTYPE svg PUBLIC "-//W3C//DTD SVG 1.1//EN" "http://www.w3.org/Graphics/SVG/1.1/DTD/svg11.dtd">
<svg version="1.1" xmlns="http://www.w3.org/2000/svg" xmlns:xlink="http://www.w3.org/1999/xlink" x="0px" y="0px" width="48px"
	 height="48px" viewBox="0 0 48 48" enable-background="new 0 0 48 48" xml:space="preserve">
<g id="Layer_2" display="none">
	<g display="inline" opacity="0.5">
		<polygon fill="#E27600" points="-255,48 -255,96.913 -255,147 49,147 49,98 251,98 251,48 		"/>
		<polygon fill="#EA00D9" points="251,-49 -52,-49 -52,1 -257,1 -257,49 251.216,47.784 		"/>
		<polygon fill="#EDE600" points="251,-101 -100,-101 -100,-51 -257,-51 -257,1 -52,1 -52,-49 251,-49 		"/>
	</g>
</g>
<g id="Layer_1">
	<g>
		<path d="M37,39.105h-0.123V14.717H37c2.047,0,3.706-1.65,3.706-3.698c0-2.046-1.659-3.696-3.706-3.696h-6.143
			c-0.402-3.271-3.191-5.799-6.562-5.799s-6.159,2.527-6.562,5.799h-6.143c-2.047,0-3.706,1.65-3.706,3.696
			c0,2.048,1.659,3.698,3.706,3.698h0.114v24.389h-0.114c-2.047,0-3.706,1.65-3.706,3.697S9.545,46.5,11.591,46.5h25.41
			c2.046,0,3.705-1.65,3.705-3.697S39.047,39.105,37,39.105z M24.296,4.489c1.73,0,3.182,1.197,3.553,2.833h-7.105
			C21.113,5.687,22.565,4.489,24.296,4.489z M15.688,14.717h17.207v24.389H15.688V14.717z"/>
		<path d="M28.902,27.37c-0.2-0.267-0.55-0.372-0.865-0.263c-0.315,0.111-0.524,0.413-0.515,0.746
			c0.027,0.917-0.021,1.981-0.282,2.857c-0.056,0.187-0.232,0.311-0.427,0.299c-0.195-0.012-0.355-0.155-0.389-0.348
			c-0.3-1.743-0.705-5.147-0.09-8.515c0.055-0.296-0.103-0.59-0.378-0.712c-0.276-0.12-0.599-0.036-0.78,0.205
			c-1.246,1.658-2.656,3.887-2.872,5.717c-0.016,0.131-0.115,0.234-0.245,0.256s-0.258-0.046-0.314-0.165
			c-0.25-0.527-0.473-1.264-0.401-2.145c0.018-0.202-0.104-0.39-0.295-0.459s-0.404-0.001-0.521,0.165
			c-1.848,2.632-4.05,7.238-0.212,10.771c4.177,3.841,8.935,0.563,9.771-2.004C30.525,32.425,30.749,29.825,28.902,27.37z"/>
	</g>
</g>
</svg>
