<?xml version="1.0" encoding="utf-8"?>
<!-- Generator: Adobe Illustrator 16.0.0, SVG Export Plug-In . SVG Version: 6.00 Build 0)  -->
<!DOCTYPE svg PUBLIC "-//W3C//DTD SVG 1.1//EN" "http://www.w3.org/Graphics/SVG/1.1/DTD/svg11.dtd">
<svg version="1.1" id="Layer_1" xmlns="http://www.w3.org/2000/svg" xmlns:xlink="http://www.w3.org/1999/xlink" x="0px" y="0px"
	 width="48px" height="48px" viewBox="0 0 48 48" enable-background="new 0 0 48 48" xml:space="preserve">
<g>
	<path d="M15.37,28.67c-0.692-0.345-1.25-0.924-1.553-1.678c-0.494-1.233-0.191-2.621,0.771-3.538l5.558-5.293
		c-0.336-0.312-0.608-0.696-0.792-1.139c-0.501-1.211-0.225-2.592,0.701-3.517L26.25,7.22l-5.872-5.874
		c-0.452-0.452-1.186-0.452-1.636,0L12.867,7.22c-0.331,0.331-0.43,0.846-0.25,1.279c0.179,0.432,0.602,0.732,1.069,0.732h1.026
		c0.126,0,0.24,0.06,0.287,0.177c0.048,0.118,0.019,0.244-0.073,0.331l-7.242,6.894c-0.343,0.327-0.451,0.818-0.276,1.258
		c0.176,0.439,0.602,0.717,1.074,0.717h2.087c0.125,0,0.237,0.083,0.286,0.198c0.048,0.116,0.023,0.253-0.065,0.342l-8.682,8.818
		c-0.328,0.332-0.423,0.817-0.244,1.248c0.181,0.43,0.602,0.699,1.068,0.699h11.202L15.37,28.67z"/>
	<path d="M47.089,36.936l-9.214-9.355c-0.093-0.095-0.119-0.236-0.068-0.358s0.17-0.203,0.304-0.203h2.213
		c0.503,0,0.954-0.305,1.142-0.771c0.186-0.466,0.069-0.999-0.295-1.345l-7.685-7.32c-0.098-0.093-0.129-0.228-0.078-0.354
		c0.05-0.125,0.171-0.2,0.305-0.2h1.09c0.496,0,0.943-0.306,1.135-0.765c0.189-0.459,0.084-0.99-0.267-1.342l-6.232-6.234
		c-0.239-0.239-0.554-0.36-0.868-0.36s-0.629,0.12-0.868,0.358l-6.231,6.232c-0.352,0.351-0.456,0.886-0.267,1.345
		c0.189,0.46,0.638,0.765,1.135,0.765h1.088c0.134,0,0.256,0.075,0.305,0.2c0.052,0.125,0.021,0.264-0.077,0.357l-7.687,7.318
		c-0.362,0.347-0.479,0.878-0.292,1.344c0.187,0.467,0.638,0.771,1.14,0.771h2.215c0.133,0,0.253,0.08,0.304,0.203
		s0.024,0.264-0.069,0.358l-9.214,9.355c-0.347,0.353-0.448,0.88-0.258,1.336c0.191,0.457,0.638,0.753,1.133,0.753H23.34
		c0.678,0,1.189,0.55,1.189,1.228v5.548c0,0.678,0.589,1.199,1.266,1.199h5.549c0.678,0,1.248-0.521,1.248-1.199v-5.548
		c0-0.678,0.529-1.228,1.208-1.228h12.413c0.496,0,0.941-0.297,1.134-0.753C47.537,37.815,47.436,37.288,47.089,36.936z"/>
</g>
</svg>
