<?xml version="1.0" encoding="utf-8"?>
<!-- Generator: Adobe Illustrator 16.0.0, SVG Export Plug-In . SVG Version: 6.00 Build 0)  -->
<!DOCTYPE svg PUBLIC "-//W3C//DTD SVG 1.1//EN" "http://www.w3.org/Graphics/SVG/1.1/DTD/svg11.dtd">
<svg version="1.1" xmlns="http://www.w3.org/2000/svg" xmlns:xlink="http://www.w3.org/1999/xlink" x="0px" y="0px" width="48px"
	 height="48px" viewBox="0 0 48 48" enable-background="new 0 0 48 48" xml:space="preserve">
<g id="Layer_2" display="none">
	<g display="inline" opacity="0.5">
		<polygon fill="#E27600" points="-455,48 -455,96.913 -455,147 -151,147 -151,98 51,98 51,48 		"/>
		<polygon fill="#EA00D9" points="51,-49 -252,-49 -252,1 -457,1 -457,49 51.216,47.784 		"/>
		<polygon fill="#EDE600" points="51,-101 -300,-101 -300,-51 -457,-51 -457,1 -252,1 -252,-49 51,-49 		"/>
	</g>
</g>
<g id="Layer_1">
	<g>
		<path d="M25.546,9.631c-1.602,0.34-3.001,1.368-3.781,2.851l-1.676,3.19H7.567C4.493,15.672,2,18.145,2,21.219v4.529
			c0,3.075,2.493,5.578,5.567,5.578h12.521l1.677,3.177c0.779,1.481,2.18,2.501,3.781,2.838V9.631z"/>
		<path d="M27.106,9.519v27.934c4.264-0.216,7.658-3.733,7.658-8.051V17.567C34.765,13.251,31.368,9.737,27.106,9.519z"/>
		<path d="M45.55,22.021h-6.966c-0.802,0-1.451,0.654-1.451,1.455c0,0.802,0.649,1.456,1.451,1.456h6.966
			c0.802,0,1.452-0.654,1.452-1.456C47.002,22.676,46.352,22.021,45.55,22.021z"/>
		<path d="M45.968,31.771l-7.168-2.15c-0.769-0.229-1.577,0.204-1.809,0.972c-0.23,0.769,0.206,1.577,0.973,1.809l7.169,2.15
			c0.14,0.042,0.279,0.062,0.418,0.062c0.624,0,1.2-0.405,1.39-1.034C47.171,32.811,46.735,32.002,45.968,31.771z"/>
		<path d="M38.381,17.409c0.139,0,0.279-0.021,0.419-0.062l7.168-2.151c0.768-0.23,1.203-1.039,0.973-1.808
			c-0.231-0.769-1.04-1.201-1.808-0.974l-7.169,2.151c-0.767,0.23-1.203,1.04-0.973,1.809
			C37.181,17.003,37.757,17.409,38.381,17.409z"/>
		<path d="M11.678,10.732H10.71c-1.604,0-2.903,1.323-2.903,2.911h6.775C14.582,12.056,13.281,10.732,11.678,10.732z"/>
	</g>
</g>
</svg>
