<?xml version="1.0" encoding="utf-8"?>
<!-- Generator: Adobe Illustrator 16.0.0, SVG Export Plug-In . SVG Version: 6.00 Build 0)  -->
<!DOCTYPE svg PUBLIC "-//W3C//DTD SVG 1.1//EN" "http://www.w3.org/Graphics/SVG/1.1/DTD/svg11.dtd">
<svg version="1.1" id="Layer_1" xmlns="http://www.w3.org/2000/svg" xmlns:xlink="http://www.w3.org/1999/xlink" x="0px" y="0px"
	 width="48px" height="48px" viewBox="0 0 48 48" enable-background="new 0 0 48 48" xml:space="preserve">
<g>
	<path d="M33.67,40.335L20.024,9.403c-0.459-1.041-1.489-1.712-2.626-1.712s-2.167,0.671-2.626,1.712L1.125,40.335
		c-0.202,0.458-0.158,0.984,0.116,1.403c0.272,0.418,0.739,0.669,1.239,0.669h14.917h14.917c0.5,0,0.966-0.25,1.24-0.669
		C33.829,41.319,33.872,40.793,33.67,40.335z M23.133,24.513c-0.262,0.21-0.657,0.247-0.905,0.019
		c-0.704-0.65-2.339-2.553-2.858-2.553c-0.756,0-1.194,1.164-1.973,1.164c-0.49,0-1.558-1.638-1.558-1.638
		c-0.258-0.271-0.677-0.308-0.978-0.086l-1.326,0.975c-0.271,0.199-0.643,0.191-0.905-0.02c-0.262-0.21-0.351-0.571-0.215-0.879
		l4.24-9.639c0.14-0.318,0.405-0.632,0.742-0.632c0.336,0,0.603,0.314,0.742,0.632l5.209,11.779
		C23.483,23.942,23.396,24.302,23.133,24.513z"/>
	<path d="M46.801,33.214L35.255,7.041c-0.389-0.881-1.26-1.449-2.223-1.449S31.199,6.16,30.81,7.041l-4.525,10.258l7.511,17.668
		h11.86c0.423,0,0.817-0.212,1.048-0.566C46.935,34.047,46.972,33.602,46.801,33.214z M37.886,19.827
		c-0.222,0.178-0.556,0.209-0.766,0.016c-0.596-0.55-1.979-2.16-2.418-2.16c-0.64,0-1.01,0.984-1.669,0.984
		c-0.415,0-1.318-1.386-1.318-1.386c-0.218-0.229-0.572-0.26-0.827-0.073l-1.123,0.824c-0.229,0.168-0.543,0.163-0.766-0.016
		c-0.222-0.178-0.296-0.483-0.182-0.744l3.588-8.156c0.118-0.269,0.342-0.535,0.627-0.535c0.285,0,0.51,0.266,0.628,0.535
		l4.408,9.966C38.182,19.343,38.107,19.648,37.886,19.827z"/>
</g>
</svg>
