<?xml version="1.0" encoding="utf-8"?>
<!-- Generator: Adobe Illustrator 16.0.0, SVG Export Plug-In . SVG Version: 6.00 Build 0)  -->
<!DOCTYPE svg PUBLIC "-//W3C//DTD SVG 1.1//EN" "http://www.w3.org/Graphics/SVG/1.1/DTD/svg11.dtd">
<svg version="1.1" id="Layer_1" xmlns="http://www.w3.org/2000/svg" xmlns:xlink="http://www.w3.org/1999/xlink" x="0px" y="0px"
	 width="48px" height="48px" viewBox="0 0 48 48" enable-background="new 0 0 48 48" xml:space="preserve">
<g>
	<path d="M38.697,13.934c0.007,0.49-0.063,0.982-0.217,1.458c-0.27,0.832-0.606,1.628-1.002,2.383
		c3.335,1.766,5.614,5.274,5.614,9.302c0,2.144-0.646,4.141-1.75,5.804l0.332,5.479c3.292-2.66,5.402-6.729,5.402-11.282
		C47.075,21.269,43.641,16.247,38.697,13.934z"/>
	<path d="M10.597,17.774c-0.396-0.755-0.732-1.551-1.002-2.383c-0.154-0.476-0.224-0.968-0.218-1.458
		C4.433,16.247,1,21.269,1,27.076c0,4.554,2.109,8.622,5.401,11.282l0.332-5.478c-1.105-1.664-1.75-3.661-1.75-5.805
		C4.983,23.049,7.261,19.54,10.597,17.774z"/>
	<path d="M37.554,22.012c-0.022-0.37-0.264-0.689-0.614-0.812c-0.099-0.034-0.202-0.052-0.303-0.052
		c-0.255,0-0.504,0.107-0.683,0.305c-2.94,3.258-7.192,5.313-11.917,5.313c-4.725,0-8.977-2.055-11.917-5.313
		c-0.178-0.197-0.428-0.305-0.683-0.305c-0.101,0-0.204,0.018-0.303,0.052c-0.35,0.123-0.591,0.443-0.614,0.813L9.373,40.948
		c-0.071,1.165,0.343,2.303,1.143,3.152c0.799,0.849,1.915,1.327,3.082,1.327h20.88c1.167,0,2.282-0.479,3.082-1.327
		c0.8-0.85,1.213-1.989,1.143-3.155L37.554,22.012z"/>
	<path d="M12.766,13.144c-0.266,0.365-0.341,0.846-0.202,1.275c1.57,4.843,6.114,8.359,11.473,8.359
		c5.359,0,9.902-3.512,11.473-8.353c0.14-0.431,0.064-0.917-0.201-1.283c-0.267-0.367-0.691-0.598-1.144-0.598H13.91
		C13.457,12.545,13.032,12.777,12.766,13.144z"/>
	<path d="M32.489,3.708c0-0.627-0.508-1.136-1.135-1.136H16.812c-0.627,0-1.135,0.509-1.135,1.136v5.724
		c0,0.627,0.508,1.136,1.135,1.136h14.542c0.627,0,1.135-0.509,1.135-1.136V3.708z"/>
	<path d="M11.276,10.567h0.539c0.627,0,1.143-0.477,1.143-1.104V3.738c0-0.627-0.515-1.166-1.143-1.166h-0.539
		c-2.204,0-4.005,1.817-4.005,4.021v0.016C7.271,8.813,9.072,10.567,11.276,10.567z"/>
	<path d="M36.26,10.567h0.539c2.204,0,4.013-1.755,4.013-3.958V6.593c0-2.203-1.81-4.021-4.013-4.021H36.26
		c-0.627,0-1.134,0.539-1.134,1.166v5.726C35.126,10.091,35.633,10.567,36.26,10.567z"/>
</g>
</svg>
