<?xml version="1.0" encoding="utf-8"?>
<!-- Generator: Adobe Illustrator 16.0.0, SVG Export Plug-In . SVG Version: 6.00 Build 0)  -->
<!DOCTYPE svg PUBLIC "-//W3C//DTD SVG 1.1//EN" "http://www.w3.org/Graphics/SVG/1.1/DTD/svg11.dtd">
<svg version="1.1" xmlns="http://www.w3.org/2000/svg" xmlns:xlink="http://www.w3.org/1999/xlink" x="0px" y="0px" width="48px"
	 height="48px" viewBox="0 0 48 48" enable-background="new 0 0 48 48" xml:space="preserve">
<g id="Layer_2" display="none">
	<g display="inline" opacity="0.5">
		<polygon fill="#E27600" points="-205,48 -205,96.913 -205,147 99,147 99,98 301,98 301,48 		"/>
		<polygon fill="#EA00D9" points="301,-49 -2,-49 -2,1 -207,1 -207,49 301.216,47.784 		"/>
		<polygon fill="#EDE600" points="301,-101 -50,-101 -50,-51 -207,-51 -207,1 -2,1 -2,-49 301,-49 		"/>
	</g>
</g>
<g id="Layer_1">
	<g>
		<path d="M44.046,32.987h-7.159l-3.705-9.957h2.315c1.312,0,2.375-1.075,2.375-2.388c0-1.312-1.063-2.387-2.375-2.387H11.751
			c-1.312,0-2.375,1.075-2.375,2.387c0,1.313,1.063,2.388,2.375,2.388h2.315l-3.705,9.957h-7.16c-1.049,0-1.899,0.86-1.899,1.91
			c0,1.049,0.851,1.909,1.899,1.909H8.95l-2.174,5.848c-0.365,0.983,0.136,2.075,1.12,2.44c0.218,0.081,0.442,0.118,0.661,0.118
			c0.771,0,1.497-0.47,1.781-1.235l2.666-7.171h21.242l2.665,7.171c0.285,0.765,1.01,1.236,1.782,1.236
			c0.219,0,0.443-0.04,0.661-0.12c0.983-0.365,1.484-1.455,1.119-2.438l-2.173-5.849h5.748c1.049,0,1.9-0.86,1.9-1.909
			C45.946,33.848,45.096,32.987,44.046,32.987z M14.415,32.987l3.705-9.957h11.01l3.705,9.957H14.415z"/>
		<path d="M18.203,15.364c0.203,0.659,0.812,1.118,1.5,1.118h7.608c0.688,0,1.297-0.459,1.5-1.118l1.87-6.084
			c0.146-0.476,0.058-0.991-0.238-1.392s-0.764-0.636-1.262-0.636h-4.269V2.99c0-0.787-0.622-1.425-1.409-1.425
			s-1.41,0.638-1.41,1.425v4.263h-4.261c-0.498,0-0.966,0.232-1.262,0.633c-0.296,0.401-0.384,0.921-0.238,1.396L18.203,15.364z"/>
	</g>
</g>
</svg>
