<?xml version="1.0" encoding="utf-8"?>
<!-- Generator: Adobe Illustrator 16.0.0, SVG Export Plug-In . SVG Version: 6.00 Build 0)  -->
<!DOCTYPE svg PUBLIC "-//W3C//DTD SVG 1.1//EN" "http://www.w3.org/Graphics/SVG/1.1/DTD/svg11.dtd">
<svg version="1.1" id="Layer_1" xmlns="http://www.w3.org/2000/svg" xmlns:xlink="http://www.w3.org/1999/xlink" x="0px" y="0px"
	 width="48px" height="48px" viewBox="0 0 48 48" enable-background="new 0 0 48 48" xml:space="preserve">
<g>
	<path d="M37.782,11.302l-7.86,0.065c-0.889-1.42-1.902-2.801-2.683-3.865c-0.352-0.482-0.919-0.77-1.518-0.77
		s-1.166,0.287-1.517,0.769c-0.786,1.071-1.806,2.463-2.699,3.895l-7.924-0.067c-0.166-0.001-0.312,0.089-0.429,0.249
		c-0.117,0.162-0.171,0.38-0.171,0.608v0.297c0,0.957,0.427,1.809,1.083,2.122l5.458,2.619c0.397,3.07,3.025,5.45,6.202,5.45
		c3.201,0,5.846-2.417,6.212-5.521l5.38-2.575c0.656-0.313,1.104-1.166,1.104-2.122v-0.297c0-0.229-0.074-0.446-0.192-0.607
		C38.111,11.391,37.948,11.3,37.782,11.302z M29.14,17.789c-0.16,0.241-0.429,0.384-0.718,0.384h-5.4
		c-0.289,0-0.559-0.143-0.718-0.384c-0.159-0.241-0.187-0.545-0.072-0.812l0.765-1.774c0.136-0.316,0.446-0.515,0.791-0.515h3.871
		c0.344,0,0.655,0.198,0.791,0.515l0.764,1.779C29.326,17.247,29.298,17.548,29.14,17.789z"/>
	<path d="M39.06,1.377H12.302c-2.691,0-4.894,2.189-4.894,4.881v35.817c0,2.691,2.203,4.88,4.894,4.88H39.06
		c2.692,0,4.866-2.188,4.866-4.88V6.258C43.926,3.566,41.752,1.377,39.06,1.377z M40.023,42.082c0,0.536-0.435,0.971-0.971,0.971
		H12.282c-0.537,0-0.971-0.435-0.971-0.971V6.251c0-0.537,0.434-0.971,0.971-0.971h26.771c0.536,0,0.971,0.434,0.971,0.971V42.082z"
		/>
	<path d="M33.501,31.483c1.079,0,1.955-0.871,1.955-1.951c0-1.079-0.875-1.952-1.955-1.952h-15.64c-1.08,0-1.955,0.873-1.955,1.952
		c0,1.08,0.875,1.951,1.955,1.951H33.501z"/>
	<path d="M35.741,34.412h-20.12c-1.08,0-1.955,0.871-1.955,1.949c0,1.08,0.875,1.952,1.955,1.952h20.12
		c1.08,0,1.955-0.872,1.955-1.952C37.696,35.283,36.82,34.412,35.741,34.412z"/>
</g>
</svg>
