<?xml version="1.0" encoding="utf-8"?>
<!-- Generator: Adobe Illustrator 16.0.0, SVG Export Plug-In . SVG Version: 6.00 Build 0)  -->
<!DOCTYPE svg PUBLIC "-//W3C//DTD SVG 1.1//EN" "http://www.w3.org/Graphics/SVG/1.1/DTD/svg11.dtd">
<svg version="1.1" xmlns="http://www.w3.org/2000/svg" xmlns:xlink="http://www.w3.org/1999/xlink" x="0px" y="0px" width="48px"
	 height="48px" viewBox="0 0 48 48" enable-background="new 0 0 48 48" xml:space="preserve">
<g id="Layer_2" display="none">
	<g display="inline" opacity="0.5">
		<polygon fill="#0034DB" points="-102,-101 -102,-51 -306,-51 -306,1 201,1 201,-48.5 201,-51.5 201,-101 		"/>
		<polygon fill="#D80000" points="201,0 -305,0 -305,50.5 -305,51.5 -305,101 -151,101 -151,52 201,52 		"/>
	</g>
</g>
<g id="Layer_1">
	<g>
		<path d="M41.504,10.586c-0.588-0.973-1.847-1.287-2.821-0.698c-0.971,0.587-1.287,1.852-0.698,2.823
			c1.445,2.395,2.207,5.148,2.207,7.961v23.649c0,1.135,0.92,2.056,2.056,2.056s2.055-0.921,2.055-2.056V20.673
			C44.302,17.11,43.337,13.622,41.504,10.586z"/>
		<path d="M24.769,5.249c2.788,0,5.521,0.75,7.9,2.171c0.976,0.584,2.24,0.265,2.822-0.711c0.581-0.975,0.264-2.238-0.712-2.82
			C31.764,2.088,28.3,1.136,24.771,1.136C13.997,1.136,5.229,9.9,5.229,20.673v7.673c0,1.136,0.92,2.056,2.056,2.056
			s2.055-0.92,2.055-2.056v-7.673C9.339,12.168,16.263,5.249,24.769,5.249z"/>
		<path d="M35.822,33.675c-1.137,0-2.057,0.921-2.057,2.057v8.59c0,1.135,0.92,2.056,2.057,2.056c1.135,0,2.055-0.921,2.055-2.056
			v-8.59C37.877,34.596,36.957,33.675,35.822,33.675z"/>
		<path d="M15.765,33.664V27.13c0-1.136-0.92-2.057-2.056-2.057s-2.055,0.92-2.055,2.057v6.534c0,1.136,0.919,2.057,2.055,2.057
			S15.765,34.8,15.765,33.664z"/>
		<path d="M24.771,7.669c-7.228,0-13.106,5.881-13.106,13.109c0,1.135,0.921,2.056,2.058,2.056c1.135,0,2.056-0.921,2.056-2.056
			c0-4.961,4.034-8.997,8.995-8.997c4.96,0,8.993,4.036,8.993,8.997v7.567c0,1.136,0.92,2.056,2.057,2.056
			c1.135,0,2.055-0.92,2.055-2.056v-7.567C37.877,13.55,31.999,7.669,24.771,7.669z"/>
		<path d="M28.964,40.681c-1.298,0.686-2.709,1.033-4.189,1.033c-2.648,0-5.149-1.16-6.864-3.181
			c-0.733-0.867-2.031-0.973-2.898-0.239c-0.866,0.734-0.972,2.032-0.238,2.898c2.499,2.945,6.143,4.634,10.001,4.634
			c2.126,0,4.239-0.521,6.108-1.507c1.005-0.53,1.39-1.774,0.86-2.779C31.214,40.537,29.969,40.152,28.964,40.681z"/>
		<path d="M29.206,26.892c1.137,0,2.056-0.921,2.056-2.056v-3.042c0-3.583-2.91-6.499-6.493-6.499c-3.584,0-6.495,2.916-6.495,6.5
			c0,1.135,0.922,2.056,2.057,2.056c1.137,0,2.058-0.921,2.058-2.056c0-1.316,1.066-2.387,2.381-2.387
			c1.318,0,2.383,1.07,2.383,2.386v3.042C27.151,25.971,28.071,26.892,29.206,26.892z"/>
		<path d="M18.269,31.704c0,3.583,2.92,6.498,6.504,6.498c3.583,0,6.499-2.915,6.499-6.499c0-1.137-0.919-2.057-2.056-2.057
			c-1.136,0-2.057,0.92-2.057,2.057c0,1.315-1.072,2.386-2.389,2.386s-2.391-1.07-2.391-2.385v-3.043
			c0-1.136-0.92-2.057-2.056-2.057c-1.135,0-2.056,0.921-2.056,2.057V31.704z"/>
		<path d="M7.284,33.231c-1.137,0-2.056,0.92-2.056,2.057v9.254c0,1.135,0.919,2.056,2.056,2.056c1.135,0,2.055-0.921,2.055-2.056
			v-9.254C9.339,34.151,8.419,33.231,7.284,33.231z"/>
	</g>
</g>
</svg>
