<?xml version="1.0" encoding="utf-8"?>
<!-- Generator: Adobe Illustrator 16.0.0, SVG Export Plug-In . SVG Version: 6.00 Build 0)  -->
<!DOCTYPE svg PUBLIC "-//W3C//DTD SVG 1.1//EN" "http://www.w3.org/Graphics/SVG/1.1/DTD/svg11.dtd">
<svg version="1.1" xmlns="http://www.w3.org/2000/svg" xmlns:xlink="http://www.w3.org/1999/xlink" x="0px" y="0px" width="48px"
	 height="48px" viewBox="0 0 48 48" enable-background="new 0 0 48 48" xml:space="preserve">
<g id="Layer_2" display="none">
	<g display="inline" opacity="0.5">
		<polygon fill="#0034DB" points="198,-101 198,-51 -6,-51 -6,1 501,1 501,-48.5 501,-51.5 501,-101 		"/>
		<polygon fill="#D80000" points="501,0 -5,0 -5,50.5 -5,51.5 -5,101 149,101 149,52 501,52 		"/>
	</g>
</g>
<g id="Layer_1">
	<g>
		<path d="M6.529,14.627l35.85-9.155l-0.366-1.434c-0.436-1.706-2.171-2.735-3.876-2.299L8.462,9.317
			c-1.706,0.436-2.735,2.171-2.299,3.876L6.529,14.627z"/>
		<path d="M44.569,26.93c1.706-0.436,2.735-2.171,2.299-3.876l-2.923-11.446L18.918,18h16.895C39.225,18,42,20.775,42,24.187v3.399
			L44.569,26.93z"/>
		<path d="M39,24.187C39,22.427,37.573,21,35.813,21H5.187C3.427,21,2,22.427,2,24.187v19.626C2,45.573,3.427,47,5.187,47h30.626
			C37.573,47,39,45.573,39,43.813V24.187z M5.5,26.5C5.5,25.671,6.171,25,7,25h17c0.829,0,1.5,0.671,1.5,1.5S24.829,28,24,28H7
			C6.171,28,5.5,27.329,5.5,26.5z M24.777,44.112c-2.792,0-5.056-2.264-5.056-5.056S21.985,34,24.777,34s5.056,2.264,5.056,5.056
			S27.57,44.112,24.777,44.112z M35.833,39.056c0,2.792-2.264,5.056-5.056,5.056c-0.337,0-0.667-0.036-0.985-0.1
			c1.261-1.275,2.042-3.026,2.042-4.957s-0.781-3.682-2.042-4.957c0.319-0.063,0.648-0.1,0.985-0.1
			C33.57,34,35.833,36.264,35.833,39.056z"/>
	</g>
</g>
</svg>
