<?xml version="1.0" encoding="utf-8"?>
<!-- Generator: Adobe Illustrator 16.0.0, SVG Export Plug-In . SVG Version: 6.00 Build 0)  -->
<!DOCTYPE svg PUBLIC "-//W3C//DTD SVG 1.1//EN" "http://www.w3.org/Graphics/SVG/1.1/DTD/svg11.dtd">
<svg version="1.1" xmlns="http://www.w3.org/2000/svg" xmlns:xlink="http://www.w3.org/1999/xlink" x="0px" y="0px" width="48px"
	 height="48px" viewBox="0 0 48 48" enable-background="new 0 0 48 48" xml:space="preserve">
<g id="Layer_2" display="none">
	<g display="inline" opacity="0.5">
		<polygon fill="#0034DB" points="-2,-101 -2,-51 -206,-51 -206,1 301,1 301,-48.5 301,-51.5 301,-101 		"/>
		<polygon fill="#D80000" points="301,0 -205,0 -205,50.5 -205,51.5 -205,101 -51,101 -51,52 301,52 		"/>
	</g>
</g>
<g id="Layer_1">
	<g>
		<path d="M22.313,34c0.347-0.78,0.362-1.668,0.043-2.46c-0.495-1.228-1.677-1.979-2.93-1.979c-0.359,0-0.72,0.062-1.076,0.191
			l-6.327,2.302v-8.089c0-0.588-0.328-1.128-0.848-1.403c-0.232-0.123-0.488-0.184-0.742-0.184c-0.313,0-0.626,0.093-0.894,0.276
			l-6.895,4.707c-1.086,0.742-1.731,1.972-1.731,3.287v7.182c0,1.938,1.391,3.593,3.3,3.921l3.276,0.563
			c0.227,0.039,0.451,0.058,0.674,0.058c1.63,0,3.126-1.004,3.719-2.572l0.411-1.087l8.226-3.027
			C21.319,35.389,21.966,34.781,22.313,34z"/>
		<path d="M33.617,3.401c-6.001,0-11.009,4.327-12.069,10.025l-4.564-0.613c-1.173-0.157-2.252,0.667-2.409,1.84l-0.837,6.3
			c0.74,0.809,1.175,1.875,1.175,3.012v3.979l2.458-0.897c0.665-0.242,1.355-0.364,2.06-0.364c2.476,0,4.672,1.485,5.598,3.782
			c0.607,1.506,0.576,3.221-0.083,4.704c-0.658,1.484-1.911,2.657-3.433,3.217l-4.276,1.574l10.949,1.469
			c1.173,0.158,2.252-0.667,2.41-1.839l1.573-11.722c0.476,0.056,0.959,0.086,1.45,0.086c6.769,0,12.276-5.507,12.276-12.276
			S40.386,3.401,33.617,3.401z M31.758,14.796l-1.933-0.259c0.491-1.629,2.005-2.819,3.792-2.819c2.183,0,3.958,1.776,3.958,3.958
			s-1.776,3.958-3.958,3.958c-0.116,0-0.23-0.005-0.343-0.015l0.324-2.415C33.755,16.032,32.932,14.954,31.758,14.796z
			 M33.617,25.074c-0.361,0-0.717-0.021-1.067-0.061l0.34-2.537c0.239,0.025,0.481,0.039,0.727,0.039
			c3.77,0,6.837-3.067,6.837-6.837c0-3.771-3.067-6.838-6.837-6.838c-3.246,0-5.971,2.274-6.666,5.313l-2.545-0.342
			c0.869-4.29,4.668-7.53,9.211-7.53c5.182,0,9.397,4.215,9.397,9.397S38.799,25.074,33.617,25.074z"/>
	</g>
</g>
</svg>
