<?xml version="1.0" encoding="utf-8"?>
<!-- Generator: Adobe Illustrator 16.0.0, SVG Export Plug-In . SVG Version: 6.00 Build 0)  -->
<!DOCTYPE svg PUBLIC "-//W3C//DTD SVG 1.1//EN" "http://www.w3.org/Graphics/SVG/1.1/DTD/svg11.dtd">
<svg version="1.1" id="Layer_1" xmlns="http://www.w3.org/2000/svg" xmlns:xlink="http://www.w3.org/1999/xlink" x="0px" y="0px"
	 width="48px" height="48px" viewBox="0 0 48 48" enable-background="new 0 0 48 48" xml:space="preserve">
<g>
	<path d="M25.343,11.549c0.254,1.107,0.446,2.341,0.572,3.634c1.293,0.125,2.527,0.317,3.635,0.571
		c-0.24-1.135-0.602-2.191-1.062-3.144C27.536,12.15,26.479,11.788,25.343,11.549z"/>
	<path d="M25.022,27.703c-0.255,0.84-0.554,1.574-0.897,2.161c1.307-0.512,2.479-1.494,3.418-2.824
		C26.747,27.325,25.903,27.547,25.022,27.703z"/>
	<path d="M29.751,21.064c0.085-0.664,0.135-1.347,0.135-2.046c0-0.698-0.05-1.382-0.135-2.046c-1.045-0.269-2.301-0.493-3.743-0.642
		c0.059,0.885,0.09,1.787,0.09,2.688c0,0.901-0.031,1.804-0.09,2.688C27.451,21.558,28.706,21.334,29.751,21.064z"/>
	<path d="M20.383,27.875c0.534,1.547,1.161,2.395,1.696,2.395c0.534,0,1.163-0.848,1.696-2.395
		c-0.555,0.054-1.121,0.085-1.696,0.085S20.938,27.93,20.383,27.875z"/>
	<path d="M28.488,25.427c0.459-0.953,0.821-2.009,1.062-3.144c-1.108,0.255-2.341,0.446-3.635,0.571
		c-0.125,1.294-0.317,2.527-0.572,3.635C26.479,26.249,27.536,25.886,28.488,25.427z"/>
	<path d="M27.475,28.887c1.882-1.034,3.44-2.59,4.474-4.473c-0.743,0.706-1.628,1.33-2.625,1.85
		C28.805,27.26,28.181,28.145,27.475,28.887z"/>
	<path d="M18.815,11.549c-1.135,0.239-2.191,0.602-3.144,1.062c-0.459,0.952-0.822,2.008-1.061,3.144
		c1.107-0.255,2.34-0.446,3.633-0.571C18.37,13.89,18.562,12.656,18.815,11.549z"/>
	<path d="M19.392,22.948c0.148,1.442,0.373,2.697,0.641,3.742c0.665,0.085,1.348,0.135,2.046,0.135c0.699,0,1.382-0.05,2.046-0.135
		c0.269-1.045,0.494-2.3,0.642-3.742c-0.884,0.06-1.787,0.09-2.688,0.09S20.276,23.007,19.392,22.948z"/>
	<path d="M14.273,19.018c0,0.699,0.05,1.382,0.135,2.046c1.045,0.27,2.299,0.494,3.742,0.642c-0.059-0.884-0.089-1.788-0.089-2.688
		c0-0.9,0.03-1.803,0.089-2.688c-1.442,0.149-2.697,0.373-3.742,0.642C14.323,17.636,14.273,18.32,14.273,19.018z"/>
	<path d="M16.615,27.04c0.939,1.33,2.112,2.312,3.419,2.824c-0.344-0.587-0.642-1.321-0.897-2.161
		C18.255,27.547,17.412,27.325,16.615,27.04z"/>
	<path d="M30.101,24.483c1.329-0.939,2.312-2.111,2.824-3.419c-0.586,0.344-1.321,0.644-2.16,0.897
		C30.609,22.843,30.385,23.687,30.101,24.483z"/>
	<path d="M18.815,26.489c-0.253-1.108-0.445-2.341-0.571-3.635c-1.293-0.125-2.526-0.316-3.633-0.571
		c0.238,1.135,0.601,2.191,1.061,3.145C16.624,25.887,17.68,26.249,18.815,26.489z"/>
	<path d="M24.964,19.018c0-0.986-0.037-1.912-0.097-2.786c-0.875-0.061-1.801-0.098-2.787-0.098c-0.987,0-1.912,0.037-2.786,0.098
		c-0.061,0.874-0.098,1.799-0.098,2.786c0,0.988,0.037,1.913,0.098,2.788c0.874,0.061,1.799,0.097,2.786,0.097
		c0.986,0,1.912-0.037,2.787-0.097C24.927,20.931,24.964,20.006,24.964,19.018z"/>
	<path d="M16.684,28.887c-0.706-0.743-1.33-1.627-1.851-2.623c-0.996-0.521-1.88-1.145-2.623-1.851
		C13.244,26.297,14.801,27.854,16.684,28.887z"/>
	<path d="M14.058,24.483c-0.284-0.796-0.506-1.64-0.663-2.522c-0.841-0.253-1.574-0.553-2.162-0.897
		C11.746,22.372,12.728,23.543,14.058,24.483z"/>
	<path d="M16.684,9.15c-1.883,1.033-3.44,2.59-4.474,4.473c0.743-0.706,1.627-1.33,2.623-1.85
		C15.354,10.777,15.979,9.893,16.684,9.15z"/>
	<path d="M13.138,19.018c0-0.575,0.031-1.141,0.085-1.695c-1.547,0.533-2.395,1.16-2.395,1.695s0.848,1.163,2.395,1.696
		C13.169,20.159,13.138,19.594,13.138,19.018z"/>
	<path d="M40.781,6.792c0-3.059-2.501-5.526-5.559-5.526H8.92c-3.059,0-5.544,2.467-5.544,5.526v34.615
		c0,3.059,2.486,5.525,5.544,5.525h26.301c3.058,0,5.559-2.467,5.559-5.525V6.792z M22.08,6.633c6.829,0,12.385,5.556,12.385,12.385
		c0,6.831-5.556,12.386-12.385,12.386c-6.83,0-12.385-5.556-12.385-12.386C9.694,12.189,15.25,6.633,22.08,6.633z M35.967,39.258
		c0,0.67-0.573,1.234-1.243,1.234H10.179c-0.669,0-1.209-0.563-1.209-1.234v-2.778c0-0.669,0.54-1.191,1.209-1.191h24.544
		c0.67,0,1.243,0.522,1.243,1.191V39.258z"/>
	<path d="M31.021,19.018c0,0.576-0.031,1.141-0.087,1.696c1.549-0.533,2.396-1.161,2.396-1.696s-0.847-1.162-2.396-1.695
		C30.991,17.877,31.021,18.443,31.021,19.018z"/>
	<path d="M14.058,13.554c-1.33,0.939-2.312,2.112-2.824,3.419c0.587-0.343,1.32-0.643,2.162-0.896
		C13.551,15.195,13.774,14.351,14.058,13.554z"/>
	<path d="M27.544,10.998c-0.939-1.33-2.112-2.312-3.418-2.825c0.343,0.588,0.642,1.321,0.897,2.162
		C25.903,10.49,26.749,10.713,27.544,10.998z"/>
	<path d="M31.949,13.623c-1.034-1.883-2.591-3.44-4.474-4.473c0.706,0.743,1.33,1.627,1.849,2.624
		C30.32,12.293,31.206,12.917,31.949,13.623z"/>
	<path d="M30.101,13.554c0.284,0.796,0.508,1.641,0.664,2.522c0.839,0.254,1.573,0.554,2.16,0.896
		C32.413,15.667,31.43,14.494,30.101,13.554z"/>
	<path d="M19.137,10.334c0.255-0.841,0.553-1.574,0.897-2.162c-1.307,0.513-2.479,1.495-3.419,2.825
		C17.411,10.713,18.255,10.49,19.137,10.334z"/>
	<path d="M23.775,10.163c-0.533-1.548-1.162-2.396-1.696-2.396c-0.535,0-1.163,0.848-1.696,2.396
		c0.555-0.056,1.122-0.086,1.696-0.086S23.22,10.107,23.775,10.163z"/>
	<path d="M20.033,11.347c-0.269,1.044-0.493,2.3-0.641,3.742C20.276,15.03,21.179,15,22.08,15s1.804,0.03,2.688,0.09
		c-0.148-1.442-0.374-2.698-0.642-3.742c-0.664-0.085-1.347-0.135-2.046-0.135C21.381,11.212,20.698,11.262,20.033,11.347z"/>
	<path d="M40.597,1.266h-0.972c1.617,1.301,2.651,3.288,2.651,5.526v34.615c0,2.238-1.034,4.225-2.651,5.525h0.972
		c3.059,0,5.518-2.467,5.518-5.525V6.792C46.115,3.733,43.656,1.266,40.597,1.266z"/>
</g>
</svg>
