<?xml version="1.0" encoding="utf-8"?>
<!-- Generator: Adobe Illustrator 16.0.0, SVG Export Plug-In . SVG Version: 6.00 Build 0)  -->
<!DOCTYPE svg PUBLIC "-//W3C//DTD SVG 1.1//EN" "http://www.w3.org/Graphics/SVG/1.1/DTD/svg11.dtd">
<svg version="1.1" id="Layer_1" xmlns="http://www.w3.org/2000/svg" xmlns:xlink="http://www.w3.org/1999/xlink" x="0px" y="0px"
	 width="48px" height="48px" viewBox="0 0 48 48" enable-background="new 0 0 48 48" xml:space="preserve">
<g>
	<path d="M41.977,6.573H6.42c-2.794,0-5.054,2.273-5.054,5.049v24.923c0,2.776,2.26,5.02,5.054,5.02h35.557
		c2.794,0,5.065-2.244,5.065-5.02V11.622C47.042,8.846,44.771,6.573,41.977,6.573z M43.93,36.544c0,1.073-0.861,1.966-1.954,1.966
		H6.42c-1.093,0-2.001-0.893-2.001-1.966V11.622c0-1.073,0.909-1.937,2.001-1.937h35.557c1.092,0,1.954,0.864,1.954,1.937V36.544z"
		/>
	<path d="M7.765,13.663c-0.853,0-1.526,0.691-1.526,1.543V32.96c0,0.853,0.673,1.543,1.526,1.543c0.853,0,1.526-0.691,1.526-1.543
		V15.207C9.292,14.354,8.618,13.663,7.765,13.663z"/>
	<path d="M13.431,13.663c-1.421,0-2.554,1.151-2.554,2.573v9.455c0,1.421,1.133,2.573,2.554,2.573s2.554-1.152,2.554-2.573v-9.455
		C15.984,14.814,14.852,13.663,13.431,13.663z"/>
	<path d="M19.066,13.663c-0.853,0-1.555,0.691-1.555,1.543V26.72c0,0.853,0.703,1.543,1.555,1.543c0.853,0,1.556-0.691,1.556-1.543
		V15.207C20.623,14.354,19.919,13.663,19.066,13.663z"/>
	<path d="M24.732,13.662c-1.42,0-2.583,1.152-2.583,2.573v9.456c0,1.421,1.163,2.573,2.583,2.573c1.421,0,2.583-1.152,2.583-2.573
		v-9.456C27.315,14.814,26.153,13.662,24.732,13.662z"/>
	<path d="M30.368,13.663c-0.853,0-1.526,0.691-1.526,1.543V26.72c0,0.853,0.674,1.543,1.526,1.543c0.853,0,1.526-0.691,1.526-1.543
		V15.207C31.895,14.354,31.221,13.663,30.368,13.663z"/>
	<path d="M36.004,13.663c-1.421,0-2.583,1.151-2.583,2.573v9.455c0,1.421,1.163,2.573,2.583,2.573c1.421,0,2.583-1.152,2.583-2.573
		v-9.455C38.588,14.814,37.426,13.663,36.004,13.663z"/>
	<path d="M41.142,13.663c-0.568,0-1.027,0.46-1.027,1.029v18.783c0,0.568,0.459,1.029,1.027,1.029s1.027-0.461,1.027-1.029V14.692
		C42.169,14.124,41.71,13.663,41.142,13.663z"/>
	<path d="M38.588,33.043c0,0.842-0.683,1.525-1.525,1.525H12.525c-0.842,0-1.525-0.683-1.525-1.525v-1.949
		c0-0.842,0.683-1.525,1.525-1.525h24.537c0.842,0,1.525,0.683,1.525,1.525V33.043z"/>
</g>
</svg>
