<?xml version="1.0" encoding="utf-8"?>
<!-- Generator: Adobe Illustrator 16.0.0, SVG Export Plug-In . SVG Version: 6.00 Build 0)  -->
<!DOCTYPE svg PUBLIC "-//W3C//DTD SVG 1.1//EN" "http://www.w3.org/Graphics/SVG/1.1/DTD/svg11.dtd">
<svg version="1.1" xmlns="http://www.w3.org/2000/svg" xmlns:xlink="http://www.w3.org/1999/xlink" x="0px" y="0px" width="48px"
	 height="48px" viewBox="0 0 48 48" enable-background="new 0 0 48 48" xml:space="preserve">
<g id="Layer_2" display="none">
	<g display="inline" opacity="0.5">
		<polygon fill="#0034DB" points="48,-101 48,-51 -156,-51 -156,1 351,1 351,-48.5 351,-51.5 351,-101 		"/>
		<polygon fill="#D80000" points="351,0 -155,0 -155,50.5 -155,51.5 -155,101 -1,101 -1,52 351,52 		"/>
	</g>
</g>
<g id="Layer_1">
	<path d="M45.689,37.861c1.276-0.789,1.671-2.462,0.882-3.739L31.303,9.42c-0.415-0.672-1.102-1.129-1.881-1.254L18.642,6.44
		c-1.676-2.26-3.907-4.537-6.717-5.317C6.375-0.417,0.362,2.903,1.195,8.219c0.547,3.491,4.222,6.62,11.432,9.513l-0.318,1.012
		c-0.237,0.753-0.134,1.572,0.281,2.244l15.269,24.702c0.789,1.276,2.463,1.671,3.739,0.882L45.689,37.861z M4.17,7.837
		C3.641,5.532,7.304,2.903,11.042,3.99c1.896,0.552,3.519,2.076,4.821,3.734L13.53,14.86C5.865,11.748,4.467,9.128,4.17,7.837z
		 M22.607,16.272c-1.674,1.034-3.869,0.516-4.904-1.157c-0.822-1.33-0.65-2.981,0.29-4.126c0.856,1.56,1.328,2.76,1.34,2.792
		c0.298,0.772,1.162,1.156,1.938,0.861c0.772-0.297,1.159-1.164,0.862-1.937c-0.053-0.138-0.544-1.383-1.431-3.013
		c1.203-0.009,2.382,0.579,3.061,1.677C24.798,13.042,24.28,15.238,22.607,16.272z M32.712,41.18
		c-0.328,0.203-0.691,0.299-1.05,0.299c-0.67,0-1.325-0.337-1.703-0.949l-6.835-11.058c-0.581-0.94-0.29-2.172,0.649-2.753
		c0.94-0.581,2.171-0.29,2.753,0.649l6.835,11.058C33.943,39.367,33.652,40.599,32.712,41.18z M40.368,36.448
		c-0.328,0.203-0.691,0.299-1.05,0.299c-0.67,0-1.325-0.337-1.703-0.949l-9.99-16.162c-0.581-0.94-0.29-2.172,0.649-2.753
		c0.939-0.582,2.172-0.29,2.753,0.649l9.99,16.162C41.599,34.635,41.308,35.867,40.368,36.448z"/>
</g>
</svg>
