<?xml version="1.0" encoding="utf-8"?>
<!-- Generator: Adobe Illustrator 16.0.0, SVG Export Plug-In . SVG Version: 6.00 Build 0)  -->
<!DOCTYPE svg PUBLIC "-//W3C//DTD SVG 1.1//EN" "http://www.w3.org/Graphics/SVG/1.1/DTD/svg11.dtd">
<svg version="1.1" id="Layer_1" xmlns="http://www.w3.org/2000/svg" xmlns:xlink="http://www.w3.org/1999/xlink" x="0px" y="0px"
	 width="48px" height="48px" viewBox="0 0 48 48" enable-background="new 0 0 48 48" xml:space="preserve">
<g>
	<path d="M21.773,26.238v-0.431c0-5.887,4.777-10.644,10.665-10.644h11.487v-3.207c0-0.703-0.57-1.273-1.273-1.273H8.998
		c-1.267,0-2.293-1.036-2.293-2.303c0-1.266,1.027-2.302,2.293-2.302h33.713c0.67,0,1.214-0.544,1.214-1.214V3.76
		c0-0.606-0.489-1.041-1.096-1.041H5.271C2.896,2.719,1,4.586,1,6.961v34.016c0,2.374,1.896,4.304,4.271,4.304h34.357
		c2.375,0,4.297-1.93,4.297-4.304v-4.034H32.438C26.55,36.942,21.773,32.126,21.773,26.238z"/>
	<path d="M44.19,18.523H32.438c-3.998,0-7.18,3.288-7.18,7.285v0.43c0,3.998,3.182,7.219,7.18,7.219H44.19
		c1.544,0,2.846-1.232,2.846-2.775v-9.316C47.036,19.822,45.734,18.523,44.19,18.523z M33.083,29.177
		c-1.741,0-3.153-1.411-3.153-3.153c0-1.741,1.412-3.153,3.153-3.153s3.153,1.412,3.153,3.153
		C36.236,27.766,34.824,29.177,33.083,29.177z"/>
</g>
</svg>
