<?xml version="1.0" encoding="utf-8"?>
<!-- Generator: Adobe Illustrator 16.0.0, SVG Export Plug-In . SVG Version: 6.00 Build 0)  -->
<!DOCTYPE svg PUBLIC "-//W3C//DTD SVG 1.1//EN" "http://www.w3.org/Graphics/SVG/1.1/DTD/svg11.dtd">
<svg version="1.1" id="Layer_1" xmlns="http://www.w3.org/2000/svg" xmlns:xlink="http://www.w3.org/1999/xlink" x="0px" y="0px"
	 width="48px" height="48px" viewBox="0 0 48 48" enable-background="new 0 0 48 48" xml:space="preserve">
<g>
	<path d="M46.531,20.338l-0.518-2.17l0,0c-3.212,0.734-6.429-1.24-7.188-4.451c-0.759-3.21,1.229-6.47,4.438-7.202l0,0l-0.584-2.477
		c-0.479-2.025-2.509-3.282-4.535-2.803L6.103,8.812c-0.974,0.231-1.815,0.837-2.34,1.687c-0.525,0.852-0.691,1.882-0.461,2.854
		l0.551,2.337l0,0c3.031-0.733,6.063,1.011,7.036,3.854h27.216c3.102,0,5.724,2.104,6.546,4.945c0.578-0.312,1.07-0.76,1.421-1.328
		C46.596,22.311,46.763,21.31,46.531,20.338z"/>
	<path d="M38.104,22.665H5.178c-2.081,0-3.81,1.654-3.81,3.735v2.396c3.304,0,5.975,2.676,5.975,5.976
		c0,3.299-2.671,5.972-5.975,5.972v2.398c0,2.082,1.729,3.748,3.81,3.748h32.927c2.083,0,3.732-1.666,3.732-3.748V40.89
		c-3.305,0-5.976-2.676-5.976-5.974c0-3.299,2.671-5.974,5.976-5.974V26.4C41.837,24.319,40.188,22.665,38.104,22.665z"/>
</g>
</svg>
