<?xml version="1.0" encoding="utf-8"?>
<!-- Generator: Adobe Illustrator 16.0.0, SVG Export Plug-In . SVG Version: 6.00 Build 0)  -->
<!DOCTYPE svg PUBLIC "-//W3C//DTD SVG 1.1//EN" "http://www.w3.org/Graphics/SVG/1.1/DTD/svg11.dtd">
<svg version="1.1" xmlns="http://www.w3.org/2000/svg" xmlns:xlink="http://www.w3.org/1999/xlink" x="0px" y="0px" width="48px"
	 height="48px" viewBox="0 0 48 48" enable-background="new 0 0 48 48" xml:space="preserve">
<g id="Layer_2" display="none">
	<g display="inline" opacity="0.5">
		<polygon fill="#EDE600" points="451,-1 100,-1 100,49 -57,49 -57,101 148,101 148,51 451,51 		"/>
		<polygon fill="#D80000" points="451,-50 -55,-50 -55,0.5 -55,1.5 -55,51 99,51 99,2 451,2 		"/>
	</g>
</g>
<g id="Layer_1">
	<path d="M33.002,8.867c-0.839-2.098-2.316-3.574-3.852-4.558c0.619-0.328,0.926-1.064,0.694-1.749
		c-0.257-0.76-1.08-1.168-1.842-0.911L6.514,8.916c-0.398,0.135-1.206,1.006-1.206,1.9v33.833c0,1.091,0.864,1.977,1.956,1.977
		h25.67c2.52,0,4.542-2.042,4.542-4.562V13.401C37.475,10.905,35.49,8.903,33.002,8.867z M25.114,5.695
		c0.876,0.222,3.246,1.001,4.636,3.17H15.739L25.114,5.695z M31.064,40.997c-0.25,0.611-0.734,1.098-1.344,1.353l-0.001,0
		c-4.193,1.751-9.012-0.228-10.764-4.421l-6.055-14.497c-0.841-2.013-0.848-4.278-0.019-6.296c0.829-2.019,2.425-3.625,4.439-4.465
		l0.001-0.001c1.27-0.53,2.73,0.069,3.261,1.34l2.21,5.292c0.531,1.271-0.069,2.73-1.339,3.261l-1.409,0.589l4.132,9.893l1.41-0.588
		c1.271-0.531,2.731,0.069,3.262,1.339l2.21,5.293C31.313,39.699,31.315,40.385,31.064,40.997z"/>
</g>
</svg>
