<?xml version="1.0" encoding="utf-8"?>
<!-- Generator: Adobe Illustrator 16.0.0, SVG Export Plug-In . SVG Version: 6.00 Build 0)  -->
<!DOCTYPE svg PUBLIC "-//W3C//DTD SVG 1.1//EN" "http://www.w3.org/Graphics/SVG/1.1/DTD/svg11.dtd">
<svg version="1.1" id="Layer_1" xmlns="http://www.w3.org/2000/svg" xmlns:xlink="http://www.w3.org/1999/xlink" x="0px" y="0px"
	 width="48px" height="48px" viewBox="0 0 48 48" enable-background="new 0 0 48 48" xml:space="preserve">
<g>
	<path d="M38.763,8.595H9.251C4.698,8.595,1,12.304,1,16.855V33.88c0,4.552,3.698,8.26,8.251,8.26h29.512
		c4.553,0,8.251-3.708,8.251-8.26V16.855C47.014,12.304,43.315,8.595,38.763,8.595z M42.041,33.827c0,1.804-1.462,3.267-3.268,3.267
		H9.24c-1.806,0-3.268-1.463-3.268-3.267V16.835c0-1.805,1.462-3.268,3.268-3.268h29.533c1.806,0,3.268,1.463,3.268,3.268V33.827z"
		/>
	<circle cx="14.061" cy="21.544" r="4.531"/>
	<path d="M36.902,16.388H24.215c-1.103,0-1.996,0.902-1.996,2.004s0.894,2.003,1.996,2.003h12.688c1.102,0,1.996-0.901,1.996-2.003
		S38.004,16.388,36.902,16.388z"/>
	<path d="M36.902,23.364H24.215c-1.103,0-1.996,0.902-1.996,2.004s0.894,2.004,1.996,2.004h12.688c1.102,0,1.996-0.902,1.996-2.004
		S38.004,23.364,36.902,23.364z"/>
	<path d="M36.902,30.34H11.527c-1.102,0-1.996,0.901-1.996,2.003s0.895,2.004,1.996,2.004h25.375c1.102,0,1.996-0.902,1.996-2.004
		S38.004,30.34,36.902,30.34z"/>
</g>
</svg>
