<?xml version="1.0" encoding="utf-8"?>
<!-- Generator: Adobe Illustrator 16.0.0, SVG Export Plug-In . SVG Version: 6.00 Build 0)  -->
<!DOCTYPE svg PUBLIC "-//W3C//DTD SVG 1.1//EN" "http://www.w3.org/Graphics/SVG/1.1/DTD/svg11.dtd">
<svg version="1.1" id="Layer_1" xmlns="http://www.w3.org/2000/svg" xmlns:xlink="http://www.w3.org/1999/xlink" x="0px" y="0px"
	 width="48px" height="48px" viewBox="0 0 48 48" enable-background="new 0 0 48 48" xml:space="preserve">
<g>
	<path d="M21.806,35.357h-0.018c-0.089,0.393-0.178,0.812-0.275,1.157l-0.355,1.273h1.324l-0.373-1.273
		C22.001,36.16,21.895,35.75,21.806,35.357z"/>
	<path d="M34.546,1.018H13.985c-3.545,0-6.419,2.874-6.419,6.419v33.105c0,3.545,2.874,6.419,6.419,6.419h20.561
		c3.545,0,6.419-2.874,6.419-6.419V7.437C40.965,3.892,38.091,1.018,34.546,1.018z M16.739,38.231v2.144h-1.333v-5.912
		c0.392-0.07,0.99-0.124,1.817-0.124c0.835,0,1.424,0.159,1.824,0.479c0.382,0.303,0.636,0.801,0.636,1.387
		c0,0.587-0.192,1.084-0.548,1.422c-0.462,0.436-1.143,0.631-1.943,0.631C17.014,38.258,16.817,38.249,16.739,38.231z
		 M23.139,40.375l-0.462-1.567h-1.715l-0.427,1.567h-1.404l1.831-5.958h1.778l1.857,5.958H23.139z M26.421,40.462
		c-0.684,0-1.359-0.178-1.698-0.364L25,38.979c0.364,0.187,0.924,0.373,1.502,0.373c0.622,0,0.951-0.259,0.951-0.649
		c0-0.373-0.285-0.586-1.004-0.845c-0.995-0.347-1.644-0.897-1.644-1.769c0-1.021,0.853-1.804,2.266-1.804
		c0.676,0,1.173,0.143,1.529,0.303l-0.302,1.093c-0.24-0.115-0.667-0.284-1.253-0.284c-0.586,0-0.871,0.267-0.871,0.577
		c0,0.383,0.338,0.551,1.111,0.845c1.058,0.391,1.555,0.941,1.555,1.786C28.839,39.609,28.066,40.462,26.421,40.462z M30.779,40.462
		c-0.684,0-1.36-0.178-1.698-0.364l0.276-1.119c0.364,0.187,0.924,0.373,1.502,0.373c0.622,0,0.951-0.259,0.951-0.649
		c0-0.373-0.284-0.586-1.004-0.845c-0.996-0.347-1.644-0.897-1.644-1.769c0-1.021,0.853-1.804,2.266-1.804
		c0.675,0,1.173,0.143,1.529,0.303l-0.302,1.093c-0.24-0.115-0.667-0.284-1.253-0.284s-0.871,0.267-0.871,0.577
		c0,0.383,0.338,0.551,1.111,0.845c1.058,0.391,1.556,0.941,1.556,1.786C33.196,39.609,32.423,40.462,30.779,40.462z M24.287,29.071
		c-5.407,0-9.806-4.399-9.806-9.806c0-5.407,4.398-9.807,9.806-9.807s9.806,4.399,9.806,9.807
		C34.093,24.672,29.694,29.071,24.287,29.071z"/>
	<path d="M17.29,35.36c-0.275,0-0.472,0.026-0.551,0.054v1.769c0.079,0.026,0.249,0.035,0.444,0.035c0.72,0,1.164-0.364,1.164-0.978
		C18.347,35.689,17.965,35.36,17.29,35.36z"/>
	<path d="M27.863,12.984c-0.03,0.362-0.315,0.7-1.143,0.77c-0.294,0.024-0.962,0.295-1.359,0.716
		c-0.44,0.465-1.646,0.645-1.933,0.368c-0.286-0.275,1.547-1.183,0.93-2.015c-0.199-0.326-0.298-0.581-0.331-0.782
		c-1.316,0.047-2.543,0.446-3.59,1.107c0.535,0.111,0.933,0.472,0.405,1.465c-1.064,2.004-1.97,3.864-0.694,3.363
		s3.002-0.215,3.423,0.787c0.249,0.595,0.788,2.326-1.002,2.523s-2.108,1.129-2.076,1.485c0.064,0.705-1.663,0.704-1.364,1.553
		c1.313,1.338,3.14,2.169,5.157,2.169c1.058,0,2.063-0.229,2.969-0.639c-0.257-0.543,0.22-1.473-0.321-1.866
		c-0.788-0.573-1.675-0.218-2.362-1.146c-0.564-0.761,0.429-1.145,1.556-1.557s0.317-2.312,0-3.311
		c-0.391-1.232,1.736-2.517,2.667-2.576c0.737-0.048,1.332,0.107,1.805,0.35C29.958,14.598,29.009,13.639,27.863,12.984z"/>
</g>
</svg>
