<?xml version="1.0" encoding="utf-8"?>
<!-- Generator: Adobe Illustrator 16.0.0, SVG Export Plug-In . SVG Version: 6.00 Build 0)  -->
<!DOCTYPE svg PUBLIC "-//W3C//DTD SVG 1.1//EN" "http://www.w3.org/Graphics/SVG/1.1/DTD/svg11.dtd">
<svg version="1.1" xmlns="http://www.w3.org/2000/svg" xmlns:xlink="http://www.w3.org/1999/xlink" x="0px" y="0px" width="48px"
	 height="48px" viewBox="0 0 48 48" enable-background="new 0 0 48 48" xml:space="preserve">
<g id="Layer_2" display="none">
	<g display="inline" opacity="0.5">
		<polygon fill="#0034DB" points="98,-101 98,-51 -106,-51 -106,1 401,1 401,-48.5 401,-51.5 401,-101 		"/>
		<polygon fill="#D80000" points="401,0 -105,0 -105,50.5 -105,51.5 -105,101 49,101 49,52 401,52 		"/>
	</g>
</g>
<g id="Layer_1">
	<g>
		<path d="M17.796,10.825l-0.738,0.112l-0.452-2.966l1.776-0.271c0.748-2.075,2.704-3.498,4.992-3.498
			c0.268,0,0.538,0.021,0.804,0.061l2.957,0.451l-0.083-0.542c-0.193-1.267-1.376-2.137-2.643-1.944L3.293,5.45
			C2.027,5.643,1.157,6.827,1.35,8.093l0.329,2.155l2.471-0.377l0.452,2.966l-2.471,0.377l3.317,21.749l2.471-0.377l0.452,2.966
			L5.9,37.929l0.329,2.155c0.193,1.267,1.376,2.137,2.643,1.944l4.311-0.658c0.006-0.218,0.021-0.437,0.055-0.658l0.609-3.995
			l-1.324,0.202l-0.452-2.966l2.25-0.343L17.796,10.825z M8.754,12.204L8.302,9.238l4.152-0.633l0.452,2.966L8.754,12.204z"/>
		<path d="M44.841,10.45L23.726,7.229c-0.119-0.018-0.236-0.027-0.352-0.027c-1.127,0-2.116,0.823-2.291,1.971l-0.329,2.155
			l2.471,0.377l-0.452,2.966l-2.471-0.377c0,0-3.314,21.739-3.313,21.74l2.467,0.385l-0.452,2.966l-2.471-0.377v-0.003l-0.329,2.159
			c-0.193,1.267,0.677,2.45,1.944,2.643l21.116,3.221c0.119,0.018,0.236,0.027,0.352,0.027c1.127,0,2.116-0.823,2.291-1.971
			l0.329-2.155l-2.471-0.377l0.452-2.966l2.471,0.377l3.317-21.749l-2.471-0.377l0.452-2.966l2.471,0.377l0.329-2.155
			C46.978,11.827,46.108,10.643,44.841,10.45z M27.377,12.338l4.152,0.633l-0.452,2.966l-4.152-0.633L27.377,12.338z M27.308,40.652
			l-4.152-0.633l0.452-2.966l4.152,0.633L27.308,40.652z M35.612,41.918l-4.152-0.633l0.452-2.966l4.152,0.633L35.612,41.918z
			 M38.213,21.91c-0.058,0.379-0.264,0.72-0.573,0.948c-0.31,0.227-0.696,0.323-1.076,0.265l-2.681-0.409l-1.6,10.492
			c-0.144,0.944-1.026,1.593-1.971,1.449c-0.944-0.144-1.593-1.026-1.449-1.971l1.6-10.492l-2.615-0.398
			c-0.79-0.121-1.333-0.859-1.212-1.648c0.058-0.379,0.264-0.72,0.573-0.948s0.696-0.323,1.076-0.265l8.716,1.329
			C37.791,20.382,38.333,21.12,38.213,21.91z M39.381,17.204l-4.152-0.633l0.452-2.966l4.152,0.633L39.381,17.204z"/>
	</g>
</g>
</svg>
