<?xml version="1.0" encoding="utf-8"?>
<!-- Generator: Adobe Illustrator 16.0.0, SVG Export Plug-In . SVG Version: 6.00 Build 0)  -->
<!DOCTYPE svg PUBLIC "-//W3C//DTD SVG 1.1//EN" "http://www.w3.org/Graphics/SVG/1.1/DTD/svg11.dtd">
<svg version="1.1" id="Layer_1" xmlns="http://www.w3.org/2000/svg" xmlns:xlink="http://www.w3.org/1999/xlink" x="0px" y="0px"
	 width="48px" height="48px" viewBox="0 0 48 48" enable-background="new 0 0 48 48" xml:space="preserve">
<g>
	<path d="M19.116,5.731c0-1.909-1.547-3.456-3.457-3.456H5.286c-1.909,0-3.456,1.547-3.456,3.456v10.374
		c0,1.909,1.547,3.456,3.456,3.456H15.66c1.909,0,3.457-1.547,3.457-3.456V5.731z M16.012,16.046c0,0.227-0.184,0.41-0.411,0.41
		H5.275c-0.227,0-0.411-0.184-0.411-0.41V5.719c0-0.227,0.184-0.41,0.411-0.41h10.327c0.227,0,0.411,0.184,0.411,0.41V16.046z"/>
	<rect x="7.122" y="7.566" width="6.632" height="6.632"/>
	<path d="M19.116,32.753c0-1.908-1.547-3.455-3.457-3.455H5.286c-1.909,0-3.456,1.547-3.456,3.455v10.375
		c0,1.909,1.547,3.456,3.456,3.456H15.66c1.909,0,3.457-1.547,3.457-3.456V32.753z M16.012,43.123c0,0.226-0.168,0.427-0.395,0.427
		H5.271c-0.227,0-0.407-0.201-0.407-0.427V32.775c0-0.226,0.18-0.444,0.407-0.444h10.347c0.226,0,0.395,0.218,0.395,0.444V43.123z"
		/>
	<rect x="7.122" y="34.589" width="6.632" height="6.703"/>
	<path d="M45.998,5.731c0-1.909-1.547-3.456-3.456-3.456H32.168c-1.909,0-3.457,1.547-3.457,3.456v10.374
		c0,1.909,1.547,3.456,3.457,3.456h10.374c1.909,0,3.456-1.547,3.456-3.456V5.731z M42.894,16.046c0,0.227-0.184,0.41-0.411,0.41
		H32.156c-0.227,0-0.41-0.184-0.41-0.41V5.719c0-0.227,0.184-0.41,0.41-0.41h10.327c0.227,0,0.411,0.184,0.411,0.41V16.046z"/>
	<rect x="34.003" y="7.566" width="6.703" height="6.632"/>
	<path d="M5.767,21.536c-0.499,0-0.903,0.404-0.903,0.903v2.287c0,0.499,0.404,0.903,0.903,0.903h2.131v0.084
		c0,0.499,0.404,0.903,0.903,0.903h5.165v0.085c0,0.499,0.404,0.903,0.903,0.903h2.287c0.499,0,0.903-0.404,0.903-0.903v-2.216
		c0-0.499-0.404-0.903-0.903-0.903h-1.143v-1.144c0-0.499-0.404-0.903-0.903-0.903H13.88c-0.499,0-0.903,0.404-0.903,0.903v1.144
		H8.957v-1.144c0-0.499-0.404-0.903-0.903-0.903H5.767z"/>
	<path d="M22.573,17.106c0,0.499,0.404,0.903,0.903,0.903h3.274c0.499,0,0.903-0.404,0.903-0.903v-2.287
		c0-0.499-0.404-0.903-0.903-0.903h-1.143V6.86h0.155c0.499,0,0.903-0.404,0.903-0.903V4.73c0-0.499-0.404-0.903-0.903-0.903H21.43
		c-0.499,0-0.903,0.404-0.903,0.903v1.228c0,0.499,0.404,0.903,0.903,0.903h1.143v3.246H21.43c-0.499,0-0.903,0.404-0.903,0.903
		v0.17c0,0.499,0.404,0.903,0.903,0.903h1.143V17.106z"/>
	<path d="M25.184,20.393c0-0.499-0.404-0.903-0.903-0.903h-2.287c-0.499,0-0.903,0.404-0.903,0.903v2.287
		c0,0.499,0.404,0.903,0.903,0.903h2.287c0.499,0,0.903-0.404,0.903-0.903V20.393z"/>
	<path d="M41.412,30.709h-1.143c-0.499,0-0.903,0.404-0.903,0.903v4.262c0,0.499,0.404,0.903,0.903,0.903h4.333
		c0.499,0,0.903-0.404,0.903-0.903V22.439c0-0.499-0.404-0.903-0.903-0.903h-2.287c-0.499,0-0.903,0.404-0.903,0.903V30.709z"/>
	<path d="M31.182,27.393h0.155c0.499,0,0.903-0.404,0.903-0.903v-2.216c0-0.499-0.404-0.903-0.903-0.903H29.05
		c-0.499,0-0.903,0.404-0.903,0.903v1.144H23.97c-0.499,0-0.903,0.404-0.903,0.903v5.25c0,0.499,0.404,0.903,0.903,0.903h6.309
		c0.499,0,0.903-0.404,0.903-0.903V27.393z"/>
	<path d="M39.366,22.595v-1.144c0-0.499-0.404-0.903-0.903-0.903h-0.24c-0.499,0-0.903,0.404-0.903,0.903v1.144h-2.131
		c-0.499,0-0.903,0.404-0.903,0.903v3.204c0,0.499,0.404,0.903,0.903,0.903h3.274c0.499,0,0.903-0.404,0.903-0.903V22.595z"/>
	<path d="M33.298,33.742h-2.131c-0.499,0-0.903,0.404-0.903,0.903v1.229c0,0.499,0.404,0.903,0.903,0.903h2.131v7.907
		c0,0.499,0.404,0.903,0.903,0.903h2.216c0.499,0,0.903-0.404,0.903-0.903v-14.13c0-0.499-0.404-0.903-0.903-0.903h-2.216
		c-0.499,0-0.903,0.404-0.903,0.903V33.742z"/>
	<path d="M23.138,44.683c0,0.499,0.404,0.903,0.903,0.903h3.274c0.499,0,0.903-0.404,0.903-0.903v-9.05
		c0-0.499-0.404-0.903-0.903-0.903h-3.274c-0.499,0-0.903,0.404-0.903,0.903V44.683z"/>
	<path d="M38.66,44.683c0,0.499,0.404,0.903,0.903,0.903h2.993c0.499,0,0.903-0.404,0.903-0.903v-2.216
		c0-0.499-0.404-0.903-0.903-0.903h-2.993c-0.499,0-0.903,0.404-0.903,0.903V44.683z"/>
</g>
</svg>
