<?xml version="1.0" encoding="utf-8"?>
<!-- Generator: Adobe Illustrator 16.0.0, SVG Export Plug-In . SVG Version: 6.00 Build 0)  -->
<!DOCTYPE svg PUBLIC "-//W3C//DTD SVG 1.1//EN" "http://www.w3.org/Graphics/SVG/1.1/DTD/svg11.dtd">
<svg version="1.1" xmlns="http://www.w3.org/2000/svg" xmlns:xlink="http://www.w3.org/1999/xlink" x="0px" y="0px" width="48px"
	 height="48px" viewBox="0 0 48 48" enable-background="new 0 0 48 48" xml:space="preserve">
<g id="Layer_2" display="none">
	<g display="inline" opacity="0.5">
		<polygon fill="#EDE600" points="501,-1 150,-1 150,49 -7,49 -7,101 198,101 198,51 501,51 		"/>
		<polygon fill="#D80000" points="501,-50 -5,-50 -5,0.5 -5,1.5 -5,51 149,51 149,2 501,2 		"/>
	</g>
</g>
<g id="Layer_1">
	<g>
		<path d="M16.143,7H33V2.126C33,1.504,32.496,1,31.874,1H14.94c-0.401,0-0.772,0.214-0.974,0.561
			c-0.202,0.347-0.203,1.025-0.004,1.374L16.143,7z"/>
		<path d="M14.94,15h1.943c0.101,4.366,3.664,7.876,8.054,7.876s7.953-3.51,8.054-7.876H33v-5H16.143l-2.18,3.565
			c-0.199,0.349-0.198,0.527,0.004,0.874C14.168,14.786,14.539,15,14.94,15z"/>
		<path d="M33.419,26.136L17.933,47h19.941C38.496,47,39,46.496,39,45.874v-12.93C39,29.576,36.602,26.77,33.419,26.136z"/>
		<path d="M16.944,26C13.109,26,10,29.109,10,32.944v12.93C10,46.496,10.504,47,11.126,47h1.825l15.588-21H16.944z"/>
	</g>
</g>
</svg>
