<?xml version="1.0" encoding="utf-8"?>
<!-- Generator: Adobe Illustrator 16.0.0, SVG Export Plug-In . SVG Version: 6.00 Build 0)  -->
<!DOCTYPE svg PUBLIC "-//W3C//DTD SVG 1.1//EN" "http://www.w3.org/Graphics/SVG/1.1/DTD/svg11.dtd">
<svg version="1.1" id="Layer_1" xmlns="http://www.w3.org/2000/svg" xmlns:xlink="http://www.w3.org/1999/xlink" x="0px" y="0px"
	 width="48px" height="48px" viewBox="0 0 48 48" enable-background="new 0 0 48 48" xml:space="preserve">
<g>
	<path d="M10.989,1.844H3.81c-1.322,0-2.384,1.059-2.384,2.38v7.181c0,1.321,1.062,2.403,2.384,2.403h7.18
		c1.322,0,2.399-1.082,2.399-2.403V4.224C13.389,2.903,12.311,1.844,10.989,1.844z M11.229,11.365c0,0.157-0.127,0.284-0.285,0.284
		H3.778c-0.157,0-0.284-0.127-0.284-0.284V4.197c0-0.157,0.127-0.284,0.284-0.284h7.167c0.158,0,0.285,0.127,0.285,0.284V11.365z"/>
	<rect x="5.113" y="5.532" width="4.588" height="4.587"/>
	<path d="M10.989,20.554H3.81c-1.322,0-2.384,1.054-2.384,2.375v7.182c0,1.321,1.062,2.408,2.384,2.408h7.18
		c1.322,0,2.399-1.087,2.399-2.408v-7.182C13.389,21.608,12.311,20.554,10.989,20.554z M11.229,30.106
		c0,0.157-0.112,0.253-0.269,0.253H3.799c-0.157,0-0.305-0.096-0.305-0.253v-7.163c0-0.157,0.147-0.32,0.305-0.32h7.162
		c0.156,0,0.269,0.164,0.269,0.32V30.106z"/>
	<rect x="5.113" y="24.242" width="4.588" height="4.588"/>
	<path d="M22.417,13.808h7.18c1.321,0,2.412-1.082,2.412-2.403V4.224c0-1.321-1.091-2.38-2.412-2.38h-7.18
		c-1.322,0-2.372,1.059-2.372,2.38v7.181C20.045,12.726,21.095,13.808,22.417,13.808z M22.114,4.197
		c0-0.157,0.127-0.284,0.284-0.284h7.168c0.157,0,0.283,0.127,0.283,0.284v7.168c0,0.157-0.126,0.284-0.283,0.284h-7.168
		c-0.157,0-0.284-0.127-0.284-0.284V4.197z"/>
	<rect x="23.644" y="5.532" width="4.677" height="4.587"/>
	<path d="M5.725,15.157H4.142c-0.345,0-0.647,0.288-0.647,0.633v1.583c0,0.345,0.302,0.663,0.647,0.663h1.511v0.02
		c0,0.345,0.244,0.609,0.589,0.609h3.549v0.075c0,0.345,0.306,0.645,0.651,0.645h1.583c0.346,0,0.644-0.299,0.644-0.645v-1.534
		c0-0.345-0.298-0.61-0.644-0.61h-0.795V15.79c0-0.345-0.275-0.633-0.621-0.633H9.758c-0.345,0-0.597,0.288-0.597,0.633v0.807H6.372
		V15.79C6.372,15.444,6.07,15.157,5.725,15.157z"/>
	<path d="M15.817,8.59v3.508c0,0.345,0.237,0.63,0.583,0.63h2.267c0.345,0,0.659-0.285,0.659-0.63v-1.583
		c0-0.345-0.314-0.666-0.659-0.666h-0.78V4.992h0.096c0.345,0,0.624-0.266,0.624-0.611v-0.85c0-0.345-0.278-0.607-0.624-0.607
		h-2.999c-0.346,0-0.606,0.263-0.606,0.607v0.85c0,0.345,0.26,0.611,0.606,0.611h0.833v2.249h-0.833
		c-0.346,0-0.606,0.291-0.606,0.636v0.118c0,0.345,0.26,0.595,0.606,0.595H15.817z"/>
	<path d="M17.527,15.881v-1.539c0-0.345-0.28-0.625-0.625-0.625h-1.539c-0.345,0-0.625,0.28-0.625,0.625v1.539
		c0,0.345,0.28,0.625,0.625,0.625h1.539C17.247,16.506,17.527,16.227,17.527,15.881z"/>
	<path d="M20.258,16.417c-0.345,0-0.662,0.298-0.662,0.643v0.618c0.54-0.457,1.131-0.901,1.716-1.261H20.258z"/>
	<path d="M19.434,17.856h-2.692c-0.345,0-0.654,0.274-0.654,0.62v3.605c0.72-1.299,1.577-2.514,2.666-3.603
		C18.969,18.263,19.206,18.036,19.434,17.856z"/>
	<path d="M46.053,41.676l-5.887-5.886c3.094-4.955,2.503-11.611-1.812-15.927c-5.019-5.018-13.184-5.019-18.202,0
		c-5.019,5.018-5.009,13.175,0.009,18.194C24.477,42.371,31.095,43,36.096,39.86l5.886,5.887c1.13,1.13,2.951,1.139,4.081,0.01
		C47.192,44.626,47.182,42.806,46.053,41.676z M35.902,35.609c-3.665,3.666-9.629,3.666-13.294,0c-3.667-3.666-3.667-9.63,0-13.295
		c3.665-3.665,9.629-3.665,13.294,0S39.567,31.944,35.902,35.609z"/>
</g>
</svg>
