<?xml version="1.0" encoding="utf-8"?>
<!-- Generator: Adobe Illustrator 16.0.0, SVG Export Plug-In . SVG Version: 6.00 Build 0)  -->
<!DOCTYPE svg PUBLIC "-//W3C//DTD SVG 1.1//EN" "http://www.w3.org/Graphics/SVG/1.1/DTD/svg11.dtd">
<svg version="1.1" xmlns="http://www.w3.org/2000/svg" xmlns:xlink="http://www.w3.org/1999/xlink" x="0px" y="0px" width="48px"
	 height="48px" viewBox="0 0 48 48" enable-background="new 0 0 48 48" xml:space="preserve">
<g id="Layer_2" display="none">
	<g display="inline" opacity="0.5">
		<polygon fill="#0034DB" points="-202,-101 -202,-51 -406,-51 -406,1 101,1 101,-48.5 101,-51.5 101,-101 		"/>
		<polygon fill="#D80000" points="101,0 -405,0 -405,50.5 -405,51.5 -405,101 -251,101 -251,52 101,52 		"/>
	</g>
</g>
<g id="Layer_1">
	<g>
		<path d="M25.731,26.535l-3.313,0.948c-0.41-1.073-0.832-2.054-1.239-2.915h2.335c-2.02-2.114-3.438-4.854-3.983-7.83H7.479
			c-0.809,0-1.464-0.679-1.464-1.488c0-0.808,0.655-1.487,1.464-1.487h11.808c0.02-1.958,0.405-3.837,1.093-5.56H8.052
			c-2.718,0-4.956,2.206-4.956,4.926v27.229c0,2.719,2.238,4.96,4.956,4.96h20.4c2.718,0,4.945-2.241,4.945-4.96V29.38
			c-2.818-0.258-5.448-1.277-7.634-2.852C25.757,26.531,25.738,26.533,25.731,26.535z M11.04,24.568h4.283
			c-0.406,0.861-0.828,1.842-1.238,2.915l-3.312-0.948c-0.433-0.124-0.73-0.519-0.73-0.969
			C10.043,25.014,10.488,24.568,11.04,24.568z M12.414,32.505c-0.471,1.797-0.837,3.35-0.837,4.162c0,0.122,0.004,0.244,0.012,0.364
			l-4.897-2.579c-0.52-0.274-0.855-0.814-0.855-1.402v-0.378c0-0.161,0.075-0.316,0.19-0.43c0.114-0.113,0.271-0.177,0.433-0.175
			l5.955,0.055V32.505z M18.251,41.059c-2.666,0-4.828-2.162-4.828-4.828c0-1.913,2.484-9.441,3.89-11.358
			c0.218-0.3,0.567-0.477,0.938-0.477s0.722,0.177,0.941,0.477c1.403,1.917,3.888,9.445,3.888,11.358
			C23.08,38.897,20.919,41.059,18.251,41.059z M30.472,32.241c0.116,0.114,0.186,0.27,0.186,0.43v0.378
			c0,0.588-0.33,1.128-0.851,1.402l-4.891,2.579c0.008-0.121,0.008-0.242,0.008-0.364c0-0.812-0.296-2.365-0.844-4.163v-0.383
			l5.954-0.055C30.195,32.065,30.356,32.128,30.472,32.241z"/>
		<path d="M15.391,35.084c-0.134,0.203-0.156,0.465-0.061,0.688l0.64,1.503c0.112,0.265,0.374,0.447,0.66,0.447h3.241
			c0.288,0,0.549-0.179,0.662-0.444l0.64-1.497c0.096-0.223,0.073-0.493-0.061-0.695c-0.134-0.203-0.359-0.339-0.602-0.339h-4.52
			C15.75,34.747,15.523,34.882,15.391,35.084z"/>
		<path d="M34.798,1.344c-6.94,0-12.587,5.646-12.587,12.587c0,6.94,5.646,12.587,12.587,12.587c6.941,0,12.588-5.646,12.588-12.587
			C47.386,6.991,41.739,1.344,34.798,1.344z M34.798,23.592c-5.326,0-9.66-4.333-9.66-9.66c0-5.327,4.334-9.66,9.66-9.66
			c5.327,0,9.66,4.333,9.66,9.66C44.458,19.258,40.125,23.592,34.798,23.592z"/>
		<path d="M41.643,9.399c-0.605-0.606-1.511-0.73-2.239-0.372c-0.188,0.092-0.363,0.216-0.521,0.372l-6.08,6.081l-2.089-2.088
			c-0.716-0.716-1.849-0.759-2.615-0.13c-0.05,0.041-0.098,0.084-0.145,0.13c-0.762,0.762-0.762,1.998,0,2.759l0.858,0.858
			l2.61,2.611c0.381,0.381,0.88,0.571,1.38,0.571c0.499,0,0.998-0.19,1.379-0.571l7.181-7.181l0.28-0.28
			C42.405,11.396,42.405,10.161,41.643,9.399z"/>
	</g>
</g>
</svg>
