<?xml version="1.0" encoding="utf-8"?>
<!-- Generator: Adobe Illustrator 16.0.0, SVG Export Plug-In . SVG Version: 6.00 Build 0)  -->
<!DOCTYPE svg PUBLIC "-//W3C//DTD SVG 1.1//EN" "http://www.w3.org/Graphics/SVG/1.1/DTD/svg11.dtd">
<svg version="1.1" xmlns="http://www.w3.org/2000/svg" xmlns:xlink="http://www.w3.org/1999/xlink" x="0px" y="0px" width="48px"
	 height="48px" viewBox="0 0 48 48" enable-background="new 0 0 48 48" xml:space="preserve">
<g id="Layer_2" display="none">
	<g display="inline" opacity="0.5">
		<polygon fill="#0034DB" points="-52,-101 -52,-51 -256,-51 -256,1 251,1 251,-48.5 251,-51.5 251,-101 		"/>
		<polygon fill="#D80000" points="251,0 -255,0 -255,50.5 -255,51.5 -255,101 -101,101 -101,52 251,52 		"/>
	</g>
</g>
<g id="Layer_1">
	<g>
		<path d="M39.936,6.796h-9.003V1.995c0-0.691-0.563-1.25-1.253-1.25h-8.53c-0.69,0-1.229,0.558-1.229,1.25v4.801h-9.027
			c-1.178,0-2.106,0.958-2.106,2.136v35.679c0,1.178,0.929,2.118,2.106,2.118h29.042c1.178,0,2.129-0.94,2.129-2.118V8.932
			C42.064,7.754,41.113,6.796,39.936,6.796z M17.258,10.27c0-0.691,0.575-1.236,1.266-1.236h1.397v0.953
			c0,0.69,0.538,1.226,1.229,1.226h8.53c0.689,0,1.253-0.535,1.253-1.226V9.034h1.373c0.689,0,1.289,0.544,1.289,1.236v1.935
			c0,0.691-0.6,1.246-1.289,1.246H18.523c-0.69,0-1.266-0.555-1.266-1.246V10.27z M37.074,43.219h-23.32
			c-0.829,0-1.503-0.653-1.503-1.482c0-0.83,0.674-1.483,1.503-1.483h23.32c0.829,0,1.502,0.653,1.502,1.483
			C38.576,42.566,37.903,43.219,37.074,43.219z M38.736,32.406c0,1.177-0.97,2.162-2.148,2.162h-4.627V31.27
			c0-2.484-2.069-4.507-4.555-4.507h-3.983c-2.484,0-4.53,2.023-4.53,4.507v3.298h-4.651c-1.18,0-2.126-0.984-2.126-2.162V18.917
			c0-1.177,0.946-2.139,2.126-2.139h22.347c1.179,0,2.148,0.961,2.148,2.139V32.406z"/>
		<circle cx="25.421" cy="22.043" r="3.975"/>
	</g>
</g>
</svg>
