<?xml version="1.0" encoding="utf-8"?>
<!-- Generator: Adobe Illustrator 16.0.0, SVG Export Plug-In . SVG Version: 6.00 Build 0)  -->
<!DOCTYPE svg PUBLIC "-//W3C//DTD SVG 1.1//EN" "http://www.w3.org/Graphics/SVG/1.1/DTD/svg11.dtd">
<svg version="1.1" xmlns="http://www.w3.org/2000/svg" xmlns:xlink="http://www.w3.org/1999/xlink" x="0px" y="0px" width="48px"
	 height="48px" viewBox="0 0 48 48" enable-background="new 0 0 48 48" xml:space="preserve">
<g id="Layer_2" display="none">
	<g display="inline" opacity="0.5">
		<polygon fill="#0034DB" points="148,-101 148,-51 -56,-51 -56,1 451,1 451,-48.5 451,-51.5 451,-101 		"/>
		<polygon fill="#D80000" points="451,0 -55,0 -55,50.5 -55,51.5 -55,101 99,101 99,52 451,52 		"/>
	</g>
</g>
<g id="Layer_1">
	<g>
		<path d="M40.928,3.137H23.811c-2.473,0-4.477,2.004-4.477,4.477v10.82c0.017,0.164,0,0.33,0,0.497v6.171l2.83-1.02V7.592
			c0-0.931,0.755-1.686,1.686-1.686h17.1c0.931,0,1.686,0.755,1.686,1.686v32.755c0,0.932-0.755,1.687-1.686,1.687h-17.1
			c-0.931,0-1.686-0.755-1.686-1.687v-1.863l-2.83,1.042v0.861c0,2.472,2.004,4.477,4.477,4.477h17.118
			c2.473,0,4.477-2.004,4.477-4.477V7.613C45.405,5.141,43.401,3.137,40.928,3.137z"/>
		<path d="M32.501,8.917h-6.043c-0.642,0-1.163,0.521-1.163,1.163v7.911c0,0.642,0.521,1.163,1.163,1.163h6.043
			c0.643,0,1.163-0.521,1.163-1.163V10.08C33.664,9.438,33.144,8.917,32.501,8.917z"/>
		<path d="M39.826,23.548H28.124c1.447,0.509,2.684,1.5,3.498,2.83h8.204c0.771,0,1.395-0.644,1.395-1.415
			S40.596,23.548,39.826,23.548z"/>
		<path d="M39.826,29.148h-7.248c0.108,0.949,0.016,1.917-0.274,2.83h7.522c0.771,0,1.395-0.644,1.395-1.415
			C41.221,29.792,40.596,29.148,39.826,29.148z"/>
		<path d="M39.826,34.748h-9.233c-0.677,0.662-1.491,1.183-2.389,1.514l-3.395,1.25c0.043,0.004,0.088,0.006,0.133,0.006h14.885
			c0.771,0,1.395-0.614,1.395-1.385S40.596,34.748,39.826,34.748z"/>
		<path d="M29.494,31.53c0.435-0.98,0.454-2.094,0.054-3.089c-0.621-1.541-2.104-2.484-3.678-2.484c-0.45,0-0.91,0.078-1.356,0.24
			l-7.949,2.889V18.93c0-0.738-0.406-1.416-1.059-1.761c-0.292-0.154-0.61-0.231-0.929-0.231c-0.394,0-0.785,0.117-1.122,0.347
			l-8.67,5.909c-1.364,0.931-2.189,2.475-2.189,4.126v9.017c0,2.433,1.762,4.511,4.159,4.923l4.121,0.707
			c0.284,0.048,0.57,0.072,0.851,0.072c2.046,0,3.927-1.261,4.67-3.229l0.517-1.365l10.327-3.801
			C28.246,33.272,29.059,32.51,29.494,31.53z"/>
	</g>
</g>
</svg>
