<?xml version="1.0" encoding="utf-8"?>
<!-- Generator: Adobe Illustrator 16.0.0, SVG Export Plug-In . SVG Version: 6.00 Build 0)  -->
<!DOCTYPE svg PUBLIC "-//W3C//DTD SVG 1.1//EN" "http://www.w3.org/Graphics/SVG/1.1/DTD/svg11.dtd">
<svg version="1.1" xmlns="http://www.w3.org/2000/svg" xmlns:xlink="http://www.w3.org/1999/xlink" x="0px" y="0px" width="48px"
	 height="48px" viewBox="0 0 48 48" enable-background="new 0 0 48 48" xml:space="preserve">
<g id="Layer_2" display="none">
	<g display="inline" opacity="0.5">
		<polygon fill="#EDE600" points="401,-1 50,-1 50,49 -107,49 -107,101 98,101 98,51 401,51 		"/>
		<polygon fill="#D80000" points="401,-50 -105,-50 -105,0.5 -105,1.5 -105,51 49,51 49,2 401,2 		"/>
	</g>
</g>
<g id="Layer_1">
	<g>
		<path d="M40.499,8.501H7.995c-3.679,0-6.671,2.993-6.671,6.675v20.565c0,3.682,2.992,6.661,6.671,6.661h32.504
			c3.68,0,6.664-2.979,6.664-6.661V15.176C47.163,11.494,44.178,8.501,40.499,8.501z M43.184,35.742
			c0,1.479-1.206,2.681-2.685,2.681H7.995c-1.479,0-2.692-1.202-2.692-2.681V15.176c0-1.48,1.213-2.696,2.692-2.696h32.504
			c1.479,0,2.685,1.216,2.685,2.696V35.742z"/>
		<path d="M17.73,23.204c0.935-0.705,1.543-1.824,1.543-3.084c0-2.13-1.725-3.857-3.855-3.857c-2.131,0-3.857,1.727-3.857,3.857
			c0,1.234,0.573,2.333,1.475,3.04c-1.879,0.875-3.167,2.794-3.167,5.021v4.995c0,0.803,0.673,1.464,1.477,1.464h8.147
			c0.803,0,1.299-0.661,1.299-1.464V28.18C20.79,25.991,19.558,24.098,17.73,23.204z"/>
		<path d="M24.076,20.887h8.307c1.145,0,2.077-0.941,2.077-2.087c0-1.146-0.932-2.087-2.077-2.087h-8.307
			c-1.145,0-2.077,0.941-2.077,2.087C21.999,19.946,22.931,20.887,24.076,20.887z"/>
		<path d="M36.536,23.384h-12.46c-1.145,0-2.077,0.922-2.077,2.068s0.932,2.068,2.077,2.068h12.46c1.146,0,2.077-0.922,2.077-2.068
			S37.681,23.384,36.536,23.384z"/>
		<path d="M36.536,30.016h-12.46c-1.145,0-2.077,0.942-2.077,2.088s0.932,2.087,2.077,2.087h12.46c1.146,0,2.077-0.941,2.077-2.087
			S37.681,30.016,36.536,30.016z"/>
	</g>
</g>
</svg>
