<?xml version="1.0" encoding="utf-8"?>
<!-- Generator: Adobe Illustrator 16.0.0, SVG Export Plug-In . SVG Version: 6.00 Build 0)  -->
<!DOCTYPE svg PUBLIC "-//W3C//DTD SVG 1.1//EN" "http://www.w3.org/Graphics/SVG/1.1/DTD/svg11.dtd">
<svg version="1.1" xmlns="http://www.w3.org/2000/svg" xmlns:xlink="http://www.w3.org/1999/xlink" x="0px" y="0px" width="48px"
	 height="48px" viewBox="0 0 48 48" enable-background="new 0 0 48 48" xml:space="preserve">
<g id="Layer_2" display="none">
	<g display="inline" opacity="0.5">
		<polygon fill="#0034DB" points="-252,-101 -252,-51 -456,-51 -456,1 51,1 51,-48.5 51,-51.5 51,-101 		"/>
		<polygon fill="#D80000" points="51,0 -455,0 -455,50.5 -455,51.5 -455,101 -301,101 -301,52 51,52 		"/>
	</g>
</g>
<g id="Layer_1">
	<g>
		<path d="M30.828,5.572c-0.669-1.871-2.443-3.218-4.527-3.218H10.829v36.22h3.144V13.221c0-4.231,3.473-7.649,7.705-7.649H30.828z"
			/>
		<path d="M1.55,7.181v26.616c0,2.231,1.497,4.106,3.592,4.652V2.529C3.047,3.075,1.55,4.95,1.55,7.181z"/>
		<path d="M41.637,8.416H21.704c-2.658,0-4.813,2.155-4.813,4.813v26.594c0,2.658,2.155,4.813,4.813,4.813h19.933
			c2.658,0,4.813-2.155,4.813-4.813V13.229C46.45,10.571,44.295,8.416,41.637,8.416z M20.127,27.175
			c-0.157,0.002-0.319-0.06-0.431-0.171c-0.113-0.111-0.187-0.263-0.187-0.42v-0.369c0-0.575,0.329-1.103,0.837-1.371l4.783-2.521
			c-0.008,0.117-0.008,0.236-0.008,0.355c0,0.794,0.3,2.312,0.823,4.069v0.375L20.127,27.175z M24.597,34.533
			c-0.539,0-0.975-0.45-0.975-0.989c0-0.44,0.291-0.826,0.714-0.947l3.237-0.926c0.4,1.048,0.813,2.04,1.21,2.863H24.597z
			 M31.646,34.673c-0.362,0-0.704-0.173-0.918-0.466c-1.373-1.874-3.802-9.232-3.802-11.102c0-2.606,2.113-4.72,4.72-4.72
			c2.607,0,4.72,2.113,4.72,4.72c0,1.87-2.428,9.229-3.8,11.102C32.351,34.5,32.009,34.673,31.646,34.673z M38.695,34.533h-4.187
			c0.397-0.823,0.81-1.814,1.21-2.863l3.238,0.919c0.422,0.121,0.715,0.518,0.715,0.957C39.672,34.086,39.235,34.533,38.695,34.533z
			 M43.756,26.584c0,0.157-0.059,0.309-0.172,0.42c-0.113,0.11-0.276,0.172-0.434,0.17l-5.83-0.053v-0.374
			c0.524-1.757,0.834-3.275,0.834-4.069c0-0.119,0.004-0.237-0.004-0.355l4.779,2.521c0.508,0.268,0.826,0.796,0.826,1.371V26.584z"
			/>
		<path d="M33.876,22.088c-0.11-0.259-0.365-0.427-0.646-0.427h-3.168c-0.28,0-0.536,0.168-0.646,0.427l-0.626,1.459
			c-0.094,0.218-0.071,0.456,0.06,0.653c0.129,0.198,0.351,0.305,0.587,0.305h4.418c0.236,0,0.457-0.107,0.588-0.305
			c0.13-0.197,0.152-0.441,0.06-0.659L33.876,22.088z"/>
	</g>
</g>
</svg>
