<?xml version="1.0" encoding="utf-8"?>
<!-- Generator: Adobe Illustrator 16.0.0, SVG Export Plug-In . SVG Version: 6.00 Build 0)  -->
<!DOCTYPE svg PUBLIC "-//W3C//DTD SVG 1.1//EN" "http://www.w3.org/Graphics/SVG/1.1/DTD/svg11.dtd">
<svg version="1.1" id="Layer_1" xmlns="http://www.w3.org/2000/svg" xmlns:xlink="http://www.w3.org/1999/xlink" x="0px" y="0px"
	 width="48px" height="48px" viewBox="0 0 48 48" enable-background="new 0 0 48 48" xml:space="preserve">
<path d="M38.422,8.8H14.455c-0.991,0-1.754,0.796-1.754,1.786v18.857l-6.078,6.715v9.014c0,0.99,0.764,1.8,1.754,1.8h15.609v-9.875
	c0-0.302,0.222-0.581,0.522-0.581h3.855c0.303,0,0.518,0.279,0.518,0.581v9.875h9.539c0.99,0,1.83-0.81,1.83-1.8V10.586
	C40.251,9.596,39.412,8.8,38.422,8.8z M21.912,41.282c0,0.301-0.244,0.545-0.545,0.545h-3.889c-0.301,0-0.544-0.244-0.544-0.545
	v-3.89c0-0.301,0.244-0.545,0.544-0.545h3.889c0.301,0,0.545,0.244,0.545,0.545V41.282z M21.912,34.229
	c0,0.301-0.244,0.545-0.545,0.545h-3.889c-0.301,0-0.544-0.244-0.544-0.545v-3.89c0-0.301,0.244-0.545,0.544-0.545h3.889
	c0.301,0,0.545,0.244,0.545,0.545V34.229z M21.912,27.092c0,0.301-0.244,0.545-0.545,0.545h-3.889c-0.301,0-0.544-0.244-0.544-0.545
	v-3.889c0-0.301,0.244-0.545,0.544-0.545h3.889c0.301,0,0.545,0.244,0.545,0.545V27.092z M21.912,20.038
	c0,0.301-0.244,0.545-0.545,0.545h-3.889c-0.301,0-0.544-0.244-0.544-0.545v-3.889c0-0.301,0.244-0.545,0.544-0.545h3.889
	c0.301,0,0.545,0.244,0.545,0.545V20.038z M28.965,34.229c0,0.301-0.244,0.545-0.544,0.545h-3.89c-0.3,0-0.544-0.244-0.544-0.545
	V30.34c0-0.302,0.244-0.546,0.544-0.546h3.89c0.3,0,0.544,0.244,0.544,0.546V34.229z M28.965,27.092
	c0,0.301-0.244,0.545-0.544,0.545h-3.89c-0.3,0-0.544-0.244-0.544-0.545v-3.889c0-0.301,0.244-0.545,0.544-0.545h3.89
	c0.3,0,0.544,0.244,0.544,0.545V27.092z M28.965,20.038c0,0.301-0.244,0.545-0.544,0.545h-3.89c-0.3,0-0.544-0.244-0.544-0.545
	v-3.889c0-0.301,0.244-0.545,0.544-0.545h3.89c0.3,0,0.544,0.244,0.544,0.545V20.038z M36.019,41.282
	c0,0.301-0.243,0.545-0.544,0.545h-3.889c-0.301,0-0.545-0.244-0.545-0.545v-3.89c0-0.301,0.244-0.545,0.545-0.545h3.889
	c0.301,0,0.544,0.244,0.544,0.545V41.282z M36.019,34.229c0,0.301-0.243,0.545-0.544,0.545h-3.889c-0.301,0-0.545-0.244-0.545-0.545
	v-3.89c0-0.301,0.244-0.545,0.545-0.545h3.889c0.301,0,0.544,0.244,0.544,0.545V34.229z M36.019,27.092
	c0,0.301-0.243,0.545-0.544,0.545h-3.889c-0.301,0-0.545-0.244-0.545-0.545v-3.889c0-0.301,0.244-0.545,0.545-0.545h3.889
	c0.301,0,0.544,0.244,0.544,0.545V27.092z M36.019,20.038c0,0.301-0.243,0.545-0.544,0.545h-3.889c-0.301,0-0.545-0.244-0.545-0.545
	v-3.889c0-0.301,0.244-0.545,0.545-0.545h3.889c0.301,0,0.544,0.244,0.544,0.545V20.038z M18.26,6.518l1.411,1.014
	c0.144,0.104,0.338,0.103,0.48-0.002c0.143-0.105,0.202-0.289,0.146-0.457l-0.546-1.651c-0.055-0.168,0.004-0.353,0.146-0.457
	l1.401-1.03c0.143-0.105,0.202-0.289,0.146-0.457c-0.056-0.169-0.213-0.281-0.39-0.28l-1.739,0.009
	c-0.177,0.001-0.334-0.112-0.39-0.28L18.38,1.275c-0.056-0.168-0.213-0.281-0.39-0.28s-0.333,0.116-0.387,0.285l-0.528,1.655
	c-0.054,0.169-0.21,0.284-0.387,0.284l-1.738,0.01c-0.177,0.001-0.333,0.116-0.387,0.285c-0.054,0.167,0.007,0.352,0.151,0.455
	l1.411,1.015c0.144,0.103,0.205,0.287,0.151,0.456l-0.528,1.655c-0.054,0.169,0.007,0.353,0.151,0.456
	c0.144,0.104,0.338,0.102,0.481-0.003l1.4-1.028C17.922,6.415,18.116,6.414,18.26,6.518z M26.825,6.518l1.411,1.014
	c0.144,0.104,0.338,0.103,0.48-0.002c0.143-0.105,0.202-0.289,0.146-0.457l-0.546-1.651c-0.055-0.168,0.004-0.353,0.146-0.457
	l1.401-1.03c0.142-0.105,0.202-0.289,0.146-0.457c-0.056-0.169-0.213-0.281-0.39-0.28l-1.739,0.009
	c-0.177,0.001-0.334-0.112-0.39-0.28l-0.546-1.649c-0.056-0.168-0.213-0.281-0.39-0.28c-0.178,0.001-0.333,0.116-0.387,0.285
	L25.64,2.936c-0.054,0.169-0.21,0.284-0.388,0.284l-1.738,0.01c-0.177,0.001-0.333,0.116-0.387,0.285
	c-0.054,0.167,0.007,0.352,0.151,0.455l1.411,1.015c0.144,0.103,0.205,0.287,0.151,0.456l-0.528,1.655
	c-0.054,0.169,0.007,0.353,0.151,0.456c0.144,0.104,0.338,0.102,0.48-0.003l1.4-1.028C26.487,6.415,26.681,6.414,26.825,6.518z
	 M35.231,6.518l1.412,1.014c0.144,0.104,0.338,0.103,0.48-0.002c0.143-0.105,0.202-0.289,0.146-0.457l-0.546-1.651
	c-0.056-0.168,0.003-0.353,0.146-0.457l1.4-1.03c0.143-0.105,0.202-0.289,0.146-0.457c-0.056-0.169-0.213-0.281-0.39-0.28
	l-1.738,0.009c-0.177,0.001-0.334-0.112-0.39-0.28l-0.546-1.649c-0.056-0.168-0.213-0.281-0.391-0.28s-0.333,0.116-0.387,0.285
	l-0.528,1.655c-0.054,0.169-0.21,0.284-0.387,0.284l-1.738,0.01c-0.177,0.001-0.333,0.116-0.387,0.285
	c-0.054,0.167,0.007,0.352,0.151,0.455l1.412,1.015c0.144,0.103,0.205,0.287,0.151,0.456l-0.528,1.655
	c-0.054,0.169,0.007,0.353,0.151,0.456c0.144,0.104,0.337,0.102,0.48-0.003l1.4-1.028C34.894,6.415,35.088,6.414,35.231,6.518z"/>
</svg>
