<?xml version="1.0" encoding="utf-8"?>
<!-- Generator: Adobe Illustrator 16.0.0, SVG Export Plug-In . SVG Version: 6.00 Build 0)  -->
<!DOCTYPE svg PUBLIC "-//W3C//DTD SVG 1.1//EN" "http://www.w3.org/Graphics/SVG/1.1/DTD/svg11.dtd">
<svg version="1.1" id="Layer_1" xmlns="http://www.w3.org/2000/svg" xmlns:xlink="http://www.w3.org/1999/xlink" x="0px" y="0px"
	 width="48px" height="48px" viewBox="0 0 48 48" enable-background="new 0 0 48 48" xml:space="preserve">
<g>
	<path d="M23.894,26.324c1.375,0,2.492-1.114,2.492-2.488V19.37l3.832,3.353c0.035,0.031,0.073,0.059,0.109,0.087v6.998
		c0,1.375,1.117,2.488,2.492,2.488c1.374,0,2.492-1.113,2.492-2.488v-12.51c0-2.981,2.454-5.401,5.436-5.401h2.557
		c1.374,0,2.488-1.118,2.488-2.493c0-1.374-1.114-2.492-2.488-2.492h-2.557c-5.372,0-9.837,4.104-10.367,9.339l-3.994-3.495v-1.43
		c0-2.981,2.421-5.457,5.402-5.457h2.558c1.374,0,2.488-1.06,2.488-2.434C36.834,2.06,35.72,1,34.346,1h-2.558
		c-5.726,0-10.387,4.6-10.387,10.325v12.511C21.401,25.21,22.519,26.324,23.894,26.324z"/>
	<path d="M3.488,32.762H20.41c1.374,0,2.488-1.118,2.488-2.493c0-1.374-1.114-2.492-2.488-2.492H3.488
		C2.113,27.776,1,28.895,1,30.269C1,31.644,2.113,32.762,3.488,32.762z"/>
	<path d="M3.488,39.716h40.811c1.375,0,2.488-1.117,2.488-2.491c0-1.375-1.113-2.492-2.488-2.492H3.488
		C2.113,34.732,1,35.85,1,37.225C1,38.599,2.113,39.716,3.488,39.716z"/>
	<path d="M44.299,41.803H3.488C2.113,41.803,1,42.92,1,44.295s1.113,2.492,2.488,2.492h40.811c1.375,0,2.488-1.117,2.488-2.492
		S45.674,41.803,44.299,41.803z"/>
</g>
</svg>
