<?xml version="1.0" encoding="utf-8"?>
<!-- Generator: Adobe Illustrator 16.0.0, SVG Export Plug-In . SVG Version: 6.00 Build 0)  -->
<!DOCTYPE svg PUBLIC "-//W3C//DTD SVG 1.1//EN" "http://www.w3.org/Graphics/SVG/1.1/DTD/svg11.dtd">
<svg version="1.1" xmlns="http://www.w3.org/2000/svg" xmlns:xlink="http://www.w3.org/1999/xlink" x="0px" y="0px" width="48px"
	 height="48px" viewBox="0 0 48 48" enable-background="new 0 0 48 48" xml:space="preserve">
<g id="Layer_2" display="none">
	<g display="inline" opacity="0.5">
		<polygon fill="#0034DB" points="-102,-1 -102,49 -306,49 -306,101 201,101 201,51.5 201,48.5 201,-1 		"/>
		<polygon fill="#DD5E00" points="-201,-51 -201,-1 -305,-1 -305,48 -102,48 -102,-1 201,-1 201,-51 		"/>
	</g>
</g>
<g id="Layer_1">
	<g>
		<path d="M24.029,0.693c-12.828,0-23.266,10.437-23.266,23.265s10.438,23.265,23.266,23.265c12.827,0,23.265-10.437,23.265-23.265
			S36.856,0.693,24.029,0.693z M24.029,4.709c4.478,0,8.603,1.537,11.877,4.111L8.893,35.834c-2.574-3.273-4.111-7.399-4.111-11.877
			C4.781,13.344,13.416,4.709,24.029,4.709z M24.029,43.206c-4.692,0-8.996-1.688-12.34-4.488l27.1-27.099
			c2.799,3.343,4.487,7.647,4.487,12.339C43.276,34.571,34.642,43.206,24.029,43.206z"/>
		<path d="M23.039,18.848l6.829-6.829c-0.222-0.849-0.693-1.552-1.405-1.972c-1.797-1.058-4.426,0.08-5.875,2.542
			C21.187,14.968,21.402,17.712,23.039,18.848z"/>
		<ellipse transform="matrix(-0.264 0.9645 -0.9645 -0.264 32.9764 3.1367)" cx="15.292" cy="14.149" rx="5.172" ry="3.77"/>
		<ellipse transform="matrix(0.9389 -0.3441 0.3441 0.9389 -8.7497 13.6762)" cx="34.153" cy="31.487" rx="5.172" ry="3.769"/>
		<path d="M35.094,24.086c2.332-1.651,3.244-4.368,2.041-6.067c-0.267-0.377-0.616-0.671-1.021-0.885l-7.169,7.168
			C30.26,25.696,32.913,25.632,35.094,24.086z"/>
		<path d="M18.862,34.385c2.223,3.329,3.262,6.395,6.21,3.188c2.872-3.124,3.437-7.549,1.783-11.182L18.862,34.385z"/>
		<path d="M12.821,29.065l8.095-8.096c-3.743-1.308-8.071-0.366-10.927,2.739C7.218,26.724,9.674,27.444,12.821,29.065z"/>
	</g>
</g>
</svg>
