<?xml version="1.0" encoding="utf-8"?>
<!-- Generator: Adobe Illustrator 16.0.0, SVG Export Plug-In . SVG Version: 6.00 Build 0)  -->
<!DOCTYPE svg PUBLIC "-//W3C//DTD SVG 1.1//EN" "http://www.w3.org/Graphics/SVG/1.1/DTD/svg11.dtd">
<svg version="1.1" xmlns="http://www.w3.org/2000/svg" xmlns:xlink="http://www.w3.org/1999/xlink" x="0px" y="0px" width="48px"
	 height="48px" viewBox="0 0 48 48" enable-background="new 0 0 48 48" xml:space="preserve">
<g id="Layer_2" display="none">
	<g display="inline" opacity="0.5">
		<polygon fill="#0034DB" points="-2,-1 -2,49 -206,49 -206,101 301,101 301,51.5 301,48.5 301,-1 		"/>
		<polygon fill="#DD5E00" points="-101,-51 -101,-1 -205,-1 -205,48 -2,48 -2,-1 301,-1 301,-51 		"/>
	</g>
</g>
<g id="Layer_1">
	<g>
		<circle cx="19.38" cy="30.689" r="2.097"/>
		<path d="M40.228,22.187V14.11H8.501v8.077c-1.028,1.957-1.611,4.584-1.611,7.172c0,9.61,7.856,17.436,17.465,17.441
			c9.61-0.005,17.485-7.831,17.485-17.441C41.84,26.771,41.256,24.143,40.228,22.187z M24.355,42.818
			c-7.432-0.006-13.527-6.041-13.527-13.475c0-0.273,0.024-0.534,0.041-0.803c0.784,0.169,1.595,0.284,2.429,0.284
			c4.819,0,9.344-2.963,11.068-7.138c1.724,4.175,6.249,7.141,11.067,7.141c0.835,0,1.647-0.104,2.431-0.273
			c0.016,0.269,0.04,0.519,0.04,0.792C37.903,36.781,31.788,42.812,24.355,42.818z"/>
		<circle cx="29.352" cy="30.689" r="2.097"/>
		<path d="M40.228,4.455c0-1.758-1.867-3.189-3.624-3.189H12.127c-1.756,0-3.625,1.432-3.625,3.189v5.737h31.727V4.455z"/>
	</g>
</g>
</svg>
