<?xml version="1.0" encoding="utf-8"?>
<!-- Generator: Adobe Illustrator 16.0.0, SVG Export Plug-In . SVG Version: 6.00 Build 0)  -->
<!DOCTYPE svg PUBLIC "-//W3C//DTD SVG 1.1//EN" "http://www.w3.org/Graphics/SVG/1.1/DTD/svg11.dtd">
<svg version="1.1" xmlns="http://www.w3.org/2000/svg" xmlns:xlink="http://www.w3.org/1999/xlink" x="0px" y="0px" width="48px"
	 height="48px" viewBox="0 0 48 48" enable-background="new 0 0 48 48" xml:space="preserve">
<g id="Layer_2" display="none">
	<g display="inline" opacity="0.5">
		<polygon fill="#0034DB" points="-202,-1 -202,49 -406,49 -406,101 101,101 101,51.5 101,48.5 101,-1 		"/>
		<polygon fill="#DD5E00" points="-301,-51 -301,-1 -405,-1 -405,48 -202,48 -202,-1 101,-1 101,-51 		"/>
	</g>
</g>
<g id="Layer_1">
	<path d="M41.11,16.199c-1.489,0-2.855,0.53-3.923,1.412C34.232,8.029,0.889,8.487,0.889,19c0,7.684,4.836,14.327,11.649,17H4.654
		c-1.381,0-2.5,1.119-2.5,2.5s1.119,2.5,2.5,2.5h29c1.381,0,2.5-1.119,2.5-2.5s-1.119-2.5-2.5-2.5h-7.884
		c4.658-1.828,8.39-5.506,10.283-10.115c1.115,1.598,2.965,2.647,5.057,2.647c3.4,0,6.166-2.766,6.166-6.167
		S44.511,16.199,41.11,16.199z M19.155,20.75c-8.101,0-14.666-1.373-14.666-3.066c0-1.694,6.565-4.133,14.666-4.133
		c8.1,0,14.665,2.439,14.665,4.133C33.82,19.377,27.255,20.75,19.155,20.75z M41.11,25.532c-1.746,0-3.167-1.42-3.167-3.167
		s1.421-3.167,3.167-3.167s3.166,1.42,3.166,3.167S42.856,25.532,41.11,25.532z"/>
</g>
</svg>
