<?xml version="1.0" encoding="utf-8"?>
<!-- Generator: Adobe Illustrator 16.0.0, SVG Export Plug-In . SVG Version: 6.00 Build 0)  -->
<!DOCTYPE svg PUBLIC "-//W3C//DTD SVG 1.1//EN" "http://www.w3.org/Graphics/SVG/1.1/DTD/svg11.dtd">
<svg version="1.1" xmlns="http://www.w3.org/2000/svg" xmlns:xlink="http://www.w3.org/1999/xlink" x="0px" y="0px" width="48px"
	 height="48px" viewBox="0 0 48 48" enable-background="new 0 0 48 48" xml:space="preserve">
<g id="Layer_2" display="none">
	<g display="inline" opacity="0.5">
		<polygon fill="#0034DB" points="98,-51 98,-1 -106,-1 -106,51 401,51 401,1.5 401,-1.5 401,-51 		"/>
	</g>
</g>
<g id="Layer_1">
	<g>
		<path d="M7.783,12.083l-4.192,4.675c-0.689,0.769-0.624,1.948,0.145,2.638c0.357,0.32,0.803,0.476,1.247,0.476
			c0.513,0,1.024-0.211,1.394-0.623l4.192-4.675c1.24-1.384,3.017-2.173,4.875-2.173h0.754v3.203
			c-2.797,1.377-4.717,4.235-4.717,7.54V43.46c0,1.172,0.965,2.121,2.137,2.121h12.587c1.171,0,2.114-0.949,2.114-2.121V23.143
			c0-3.304-1.919-6.163-4.662-7.54V12.4h5.265V8.671H15.444C12.523,8.671,9.731,9.908,7.783,12.083z"/>
		<path d="M44.451,5.198c-0.553-0.398-1.25-0.507-1.897-0.292L31.335,8.651v3.74l11.224,3.744c0.647,0.216,1.343,0.107,1.896-0.292
			c0.553-0.398,0.865-1.039,0.865-1.721V6.919C45.32,6.237,45.004,5.597,44.451,5.198z"/>
	</g>
</g>
</svg>
