<?xml version="1.0" encoding="utf-8"?>
<!-- Generator: Adobe Illustrator 16.0.0, SVG Export Plug-In . SVG Version: 6.00 Build 0)  -->
<!DOCTYPE svg PUBLIC "-//W3C//DTD SVG 1.1//EN" "http://www.w3.org/Graphics/SVG/1.1/DTD/svg11.dtd">
<svg version="1.1" id="Layer_1" xmlns="http://www.w3.org/2000/svg" xmlns:xlink="http://www.w3.org/1999/xlink" x="0px" y="0px"
	 width="48px" height="48px" viewBox="0 0 48 48" enable-background="new 0 0 48 48" xml:space="preserve">
<g>
	<path d="M40.321,8.362h-2.76V7.606c0-3.34-2.762-6.081-6.101-6.081h-4.358c-3.339,0-6.091,2.741-6.091,6.081v0.756h-2.77
		c-2.999,0-5.454,2.399-5.454,5.398v16.268c0,2.999,2.455,5.388,5.454,5.388h22.079c2.999,0,5.465-2.389,5.465-5.388V13.761
		C45.786,10.762,43.32,8.362,40.321,8.362z M33.598,8.362h-8.722V7.606c0-1.202,1.024-2.216,2.227-2.216h4.358
		c1.201,0,2.137,1.014,2.137,2.216V8.362z"/>
	<path d="M43.021,38.884H18.269c-4.847,0-8.751-3.979-8.751-8.827V8.088c0-2.269-1.887-4.085-4.156-4.085H3.422
		C2.084,4.003,1,5.093,1,6.431s1.084,2.429,2.422,2.429h1.24v21.197c0,7.215,5.62,13.138,12.719,13.604
		c0.455,1.564,1.89,2.73,3.602,2.73c1.7,0,3.128-1.165,3.594-2.652h8.299c0.465,1.487,1.9,2.676,3.6,2.676
		c1.702,0,3.136-1.188,3.601-2.676h2.945c1.338,0,2.422-1.09,2.422-2.428C45.442,39.975,44.358,38.884,43.021,38.884z"/>
</g>
</svg>
