<?xml version="1.0" encoding="utf-8"?>
<!-- Generator: Adobe Illustrator 16.0.0, SVG Export Plug-In . SVG Version: 6.00 Build 0)  -->
<!DOCTYPE svg PUBLIC "-//W3C//DTD SVG 1.1//EN" "http://www.w3.org/Graphics/SVG/1.1/DTD/svg11.dtd">
<svg version="1.1" id="Layer_1" xmlns="http://www.w3.org/2000/svg" xmlns:xlink="http://www.w3.org/1999/xlink" x="0px" y="0px"
	 width="48px" height="48px" viewBox="0 0 48 48" enable-background="new 0 0 48 48" xml:space="preserve">
<path d="M24,18.978c-3.114-0.115-5.563-2.812-5.563-5.978c0-3.313,2.687-6,6-6c2.05,0,3.856,1.03,4.937,2.6
	c0.603,0.875,1.601,1.4,2.663,1.4h0.188c1.262,0,2.408-0.735,2.935-1.881s0.337-2.494-0.484-3.452C32.224,2.81,28.599,1,24.531,1
	C17.041,1,11,7.072,11,14.563V43.77c0,1.784,1.446,3.23,3.23,3.23h20.54c1.784,0,3.23-1.446,3.23-3.23V22.248
	c0-0.859-0.342-1.683-0.951-2.289s-1.434-0.945-2.293-0.941C31.198,19.033,25.759,19.043,24,18.978z"/>
</svg>
