<?xml version="1.0" encoding="utf-8"?>
<!-- Generator: Adobe Illustrator 16.0.0, SVG Export Plug-In . SVG Version: 6.00 Build 0)  -->
<!DOCTYPE svg PUBLIC "-//W3C//DTD SVG 1.1//EN" "http://www.w3.org/Graphics/SVG/1.1/DTD/svg11.dtd">
<svg version="1.1" xmlns="http://www.w3.org/2000/svg" xmlns:xlink="http://www.w3.org/1999/xlink" x="0px" y="0px" width="48px"
	 height="48px" viewBox="0 0 48 48" enable-background="new 0 0 48 48" xml:space="preserve">
<g id="Layer_2" display="none">
	<g display="inline" opacity="0.5">
		<polygon fill="#0034DB" points="48,-51 48,-1 -156,-1 -156,51 351,51 351,1.5 351,-1.5 351,-51 		"/>
	</g>
</g>
<g id="Layer_1">
	<g>
		<path d="M11.299,30.289h29.533c1.376,0,2.526-1.126,2.526-2.503l0,0c0-7.977-5.428-14.688-12.778-16.666
			c0.096-0.372,0.139-0.762,0.139-1.164c0-2.562-2.088-4.645-4.649-4.645c-2.561,0-4.646,2.083-4.646,4.645
			c0,0.401,0.05,0.792,0.146,1.164c-7.351,1.979-12.763,8.69-12.763,16.666l0,0C8.806,29.163,9.922,30.289,11.299,30.289z
			 M26.065,8.246c0.944,0,1.711,0.767,1.711,1.71c0,0.228-0.045,0.444-0.125,0.643c-0.522-0.047-1.05-0.073-1.584-0.073
			c-0.535,0-1.063,0.025-1.585,0.073c-0.081-0.199-0.125-0.416-0.125-0.643C24.355,9.013,25.122,8.246,26.065,8.246z M12.157,22.093
			c0.988-2.959,3.042-5.431,5.707-6.959c0.694-0.398,1.578-0.158,1.978,0.535l0,0.001c0.197,0.343,0.251,0.751,0.148,1.134
			c-0.103,0.383-0.353,0.709-0.696,0.907c-2.019,1.165-3.581,3.034-4.342,5.271c-0.129,0.378-0.403,0.683-0.763,0.856
			c-0.359,0.174-0.773,0.194-1.149,0.058l0,0C12.302,23.624,11.909,22.836,12.157,22.093z"/>
		<path d="M44.16,32.33H10.183c-2.029,0-3.69-1.651-3.69-3.68V5.601c0-1.351-1.098-2.445-2.449-2.445S1.596,4.25,1.596,5.601V28.65
			c0,4.725,3.863,8.576,8.587,8.576h1.172c-0.484,0.884-0.76,1.95-0.76,3.053c0,3.606,2.935,6.539,6.541,6.539
			s6.541-2.932,6.541-6.539c0-1.103-0.275-2.169-0.76-3.054h6.042c-0.484,0.884-0.759,1.95-0.759,3.053
			c0,3.606,2.934,6.539,6.541,6.539c3.606,0,6.541-2.932,6.541-6.539c0-1.103-0.275-2.169-0.759-3.054h3.636
			c1.351,0,2.445-1.098,2.445-2.448C46.605,33.428,45.51,32.33,44.16,32.33z M17.137,42.905c-1.449,0-2.628-1.179-2.628-2.628
			c0-1.45,1.179-2.628,2.628-2.628s2.628,1.179,2.628,2.628C19.765,41.726,18.586,42.905,17.137,42.905z M34.742,42.905
			c-1.45,0-2.628-1.179-2.628-2.628c0-1.45,1.179-2.628,2.628-2.628c1.449,0,2.628,1.179,2.628,2.628
			C37.371,41.726,36.191,42.905,34.742,42.905z"/>
	</g>
</g>
</svg>
