<?xml version="1.0" encoding="utf-8"?>
<!-- Generator: Adobe Illustrator 16.0.0, SVG Export Plug-In . SVG Version: 6.00 Build 0)  -->
<!DOCTYPE svg PUBLIC "-//W3C//DTD SVG 1.1//EN" "http://www.w3.org/Graphics/SVG/1.1/DTD/svg11.dtd">
<svg version="1.1" xmlns="http://www.w3.org/2000/svg" xmlns:xlink="http://www.w3.org/1999/xlink" x="0px" y="0px" width="48px"
	 height="48px" viewBox="0 0 48 48" enable-background="new 0 0 48 48" xml:space="preserve">
<g id="Layer_2" display="none">
	<g display="inline" opacity="0.5">
		<polygon fill="#0034DB" points="-202,-51 -202,-1 -406,-1 -406,51 101,51 101,1.5 101,-1.5 101,-51 		"/>
	</g>
</g>
<g id="Layer_1">
	<path d="M38.505,21.983l-1.027-9.239C36.745,6.148,31.17,1.175,24.535,1.175h-0.001c-6.636,0-12.21,4.974-12.942,11.569
		l-1.029,9.246c-0.069,0.63,0.132,1.249,0.555,1.721s1.025,0.732,1.658,0.732h9.259v17.669h-2.998c-1.38,0-2.498,1.14-2.498,2.519
		c0,1.38,1.118,2.52,2.498,2.52h10.995c1.38,0,2.497-1.14,2.497-2.52c0-1.379-1.117-2.519-2.497-2.519h-3.02V24.443h2.364v6.686
		c0,0.829,0.665,1.5,1.493,1.5s1.493-0.671,1.493-1.5v-6.686h3.93c0.633,0,1.235-0.264,1.659-0.736
		C38.373,23.236,38.574,22.612,38.505,21.983z"/>
</g>
</svg>
