<?xml version="1.0" encoding="utf-8"?>
<!-- Generator: Adobe Illustrator 16.0.0, SVG Export Plug-In . SVG Version: 6.00 Build 0)  -->
<!DOCTYPE svg PUBLIC "-//W3C//DTD SVG 1.1//EN" "http://www.w3.org/Graphics/SVG/1.1/DTD/svg11.dtd">
<svg version="1.1" xmlns="http://www.w3.org/2000/svg" xmlns:xlink="http://www.w3.org/1999/xlink" x="0px" y="0px" width="48px"
	 height="48px" viewBox="0 0 48 48" enable-background="new 0 0 48 48" xml:space="preserve">
<g id="Layer_2" display="none">
	<g display="inline" opacity="0.5">
		<polygon fill="#0034DB" points="198,-51 198,-1 -6,-1 -6,51 501,51 501,1.5 501,-1.5 501,-51 		"/>
	</g>
</g>
<g id="Layer_1">
	<path d="M43.553,33.645c1.714,0,3.218-1.177,3.654-2.835c0.436-1.659-0.302-3.424-1.796-4.268l-16.56-9.354
		c-1.978-1.084-3.114-1.13-3.222-1.143L25.625,15c3.177-0.689,5.565-3.523,5.565-6.905c0-3.896-3.346-7.101-7.242-7.101
		c-2.551,0-4.737,1.417-5.988,3.644c-0.404,0.721-0.148,1.634,0.572,2.038c0.721,0.406,1.633,0.148,2.038-0.572
		c0.721-1.284,2.083-2.082,3.553-2.082c2.246,0,4.074,1.827,4.074,4.073c0,2.246-1.828,4.074-4.074,4.074
		c-0.397,0-0.779,0.157-1.059,0.439c-0.281,0.281-0.438,0.652-0.437,1.05l0.009,2.373h-0.009c0,0-1.351,0.111-3.146,1.145
		c-4.122,2.371-16.561,9.36-16.561,9.36c-1.493,0.843-2.231,2.612-1.795,4.27c0.436,1.659,1.939,2.838,3.653,2.838h6.884v9.602
		c0,1.641,1.366,2.956,3.006,2.956h18.995c1.642,0,3.01-1.315,3.01-2.956v-9.602H43.553z M44.313,30.028
		c-0.091,0.344-0.403,0.583-0.76,0.583h-6.881v-0.957c0-1.641-1.368-2.928-3.01-2.928H14.667c-1.64,0-3.006,1.287-3.006,2.928v0.957
		H4.778c-0.356,0-0.668-0.239-0.759-0.583c-0.091-0.345,0.062-0.707,0.373-0.882l16.562-9.354c0.978-0.552,2.088-0.845,3.213-0.845
		c1.124,0,2.235,0.293,3.211,0.846l16.562,9.353C44.249,29.321,44.403,29.684,44.313,30.028z"/>
</g>
</svg>
