<?xml version="1.0" encoding="utf-8"?>
<!-- Generator: Adobe Illustrator 16.0.0, SVG Export Plug-In . SVG Version: 6.00 Build 0)  -->
<!DOCTYPE svg PUBLIC "-//W3C//DTD SVG 1.1//EN" "http://www.w3.org/Graphics/SVG/1.1/DTD/svg11.dtd">
<svg version="1.1" xmlns="http://www.w3.org/2000/svg" xmlns:xlink="http://www.w3.org/1999/xlink" x="0px" y="0px" width="48px"
	 height="48px" viewBox="0 0 48 48" enable-background="new 0 0 48 48" xml:space="preserve">
<g id="Layer_2" display="none">
	<g display="inline" opacity="0.5">
		<polygon fill="#0034DB" points="-152,-51 -152,-1 -356,-1 -356,51 151,51 151,1.5 151,-1.5 151,-51 		"/>
	</g>
</g>
<g id="Layer_1">
	<path d="M35.73,2.06c0,0-19.491-0.022-20.248-0.022c-4.479,0-8.099,4.936-8.895,12.101H3.809c-1.638,0-2.965,1.298-2.965,2.934
		c0,1.637,1.327,2.935,2.965,2.935h2.778c0.776,6.96,4.263,12.11,8.561,12.358l6.428-0.006l0.027,9.287
		c0.009,2.669,2.188,4.839,4.857,4.839h14.936c2.677,0,4.871-2.158,4.871-4.835V12.604C46.267,6.803,41.532,2.06,35.73,2.06z
		 M15.482,29.404c-2.473,0-5.187-3.733-5.91-9.397h4.02c1.638,0,2.964-1.298,2.964-2.935c0-1.636-1.326-2.934-2.964-2.934H9.573
		c0.723-5.665,3.437-9.137,5.909-9.137c2.882,0,6.093,4.802,6.093,12.076C21.575,24.352,18.364,29.404,15.482,29.404z M43.263,41.65
		c0,1.045-0.822,1.901-1.867,1.901H26.46c-1.043,0-1.891-0.848-1.895-1.891c0,0-0.027-24.011-0.027-24.588
		c0-4.919-1.306-9.227-3.378-12.009h14.57c4.174,0,7.532,3.37,7.532,7.542V41.65z"/>
</g>
</svg>
