<?xml version="1.0" encoding="utf-8"?>
<!-- Generator: Adobe Illustrator 16.0.0, SVG Export Plug-In . SVG Version: 6.00 Build 0)  -->
<!DOCTYPE svg PUBLIC "-//W3C//DTD SVG 1.1//EN" "http://www.w3.org/Graphics/SVG/1.1/DTD/svg11.dtd">
<svg version="1.1" id="Layer_1" xmlns="http://www.w3.org/2000/svg" xmlns:xlink="http://www.w3.org/1999/xlink" x="0px" y="0px"
	 width="48px" height="48px" viewBox="0 0 48 48" enable-background="new 0 0 48 48" xml:space="preserve">
<path d="M43.792,24.872l-1.539-1.122c-0.103-0.074-0.225-0.115-0.352-0.119l-2.889-0.071c-0.253-0.006-0.478-0.165-0.567-0.402
	l-1.066-2.833c-0.043-0.112-0.118-0.212-0.216-0.283l-2.188-1.594c-0.103-0.075-0.225-0.117-0.352-0.12l-2.888-0.068
	c-0.251-0.007-0.476-0.164-0.566-0.398l-1.105-2.87c-0.043-0.111-0.117-0.208-0.214-0.278l-3.209-2.339
	c0.429-3.73-1.238-7.557-4.615-9.717C17.302-0.366,11.023,1.013,8.001,5.735c-3.021,4.724-1.631,11.003,3.091,14.023
	c0.438,0.281,0.906,0.522,1.362,0.729v1.5h-1.764c-0.778,0-1.5,0.417-1.9,1.085l-2.03,3.396c-0.207,0.344-0.312,0.743-0.312,1.145
	v17.144C6.449,45.979,7.432,47,8.656,47h11.547c1.224,0,2.211-1.021,2.211-2.244V27.64c0-0.399-0.106-0.795-0.311-1.139
	l-2.036-3.423c-0.4-0.671-1.123-1.091-1.903-1.091h-1.757v-0.629c1.901,0.022,3.788-0.487,5.42-1.479l18.54,10.336
	c1.424,0.794,3.223,0.343,4.102-1.03l0.103-0.159C45.451,27.652,45.109,25.832,43.792,24.872z M17.339,26.312
	c0,1.613-1.303,2.92-2.915,2.92s-2.905-1.307-2.905-2.92c0-0.839,0.327-1.596,0.935-2.128v0.839c0,1.103,0.874,1.997,1.977,1.997
	c1.104,0,1.977-0.895,1.977-1.997v-0.839C17.016,24.716,17.339,25.473,17.339,26.312z M17.694,11.945
	c-0.335,0.523-0.754,0.938-1.286,1.238v-2.143c0-1.103-0.873-1.997-1.977-1.997c-1.103,0-1.977,0.895-1.977,1.997v2.142
	c-0.076-0.021-0.076-0.038-0.108-0.059c-1.809-1.158-2.342-3.561-1.185-5.368c1.157-1.811,3.553-2.337,5.362-1.18
	C18.332,7.732,18.851,10.137,17.694,11.945z"/>
</svg>
