<?xml version="1.0" encoding="utf-8"?>
<!-- Generator: Adobe Illustrator 16.0.0, SVG Export Plug-In . SVG Version: 6.00 Build 0)  -->
<!DOCTYPE svg PUBLIC "-//W3C//DTD SVG 1.1//EN" "http://www.w3.org/Graphics/SVG/1.1/DTD/svg11.dtd">
<svg version="1.1" xmlns="http://www.w3.org/2000/svg" xmlns:xlink="http://www.w3.org/1999/xlink" x="0px" y="0px" width="48px"
	 height="48px" viewBox="0 0 48 48" enable-background="new 0 0 48 48" xml:space="preserve">
<g id="Layer_2" display="none">
	<g display="inline" opacity="0.5">
		<polygon fill="#0034DB" points="-2,-51 -2,-1 -206,-1 -206,51 301,51 301,1.5 301,-1.5 301,-51 		"/>
	</g>
</g>
<g id="Layer_1">
	<g>
		<path d="M46.736,13.715c0-3.378-2.742-6.126-6.12-6.126H8.372c-3.378,0-6.108,2.748-6.108,6.126v13.864
			c0,3.378,2.73,6.127,6.108,6.127h11.753v2.917h-7.118c-0.601,0-1.095,0.472-1.095,1.073v3.627c0,0.601,0.494,1.088,1.095,1.088
			H35.98c0.601,0,1.107-0.487,1.107-1.088v-3.627c0-0.601-0.506-1.073-1.107-1.073h-7.15v-2.917h11.785
			c3.378,0,6.12-2.749,6.12-6.127V13.715z M42.876,27.589c0,1.247-1.011,2.257-2.257,2.257H8.381c-1.247,0-2.257-1.011-2.257-2.257
			V13.705c0-1.247,1.011-2.257,2.257-2.257h32.238c1.247,0,2.257,1.011,2.257,2.257V27.589z"/>
		<path d="M23.05,15.554c0-0.658-0.533-1.19-1.19-1.19h-7.254c-0.657,0-1.19,0.532-1.19,1.19c0,0.657,0.533,1.189,1.19,1.189h2.198
			v8.749c0,0.786,0.627,1.423,1.414,1.423s1.414-0.637,1.414-1.423v-8.749h2.229C22.517,16.743,23.05,16.211,23.05,15.554z"/>
		<path d="M33.61,14.379c-0.624,0-1.173,0.409-1.351,1.006l-1.299,4.342c-0.428,1.432-0.818,2.938-1.135,4.419H29.77
			c-0.297-1.525-0.688-2.987-1.116-4.475l-1.221-4.239c-0.18-0.627-0.753-1.057-1.406-1.057c-0.467,0-0.906,0.224-1.181,0.602
			s-0.354,0.864-0.211,1.309l3.092,9.655c0.188,0.583,0.73,0.987,1.343,0.987h1.269c0.605,0,1.143-0.394,1.336-0.967l3.271-9.72
			c0.146-0.431,0.074-0.906-0.19-1.275C34.49,14.599,34.064,14.379,33.61,14.379z"/>
	</g>
</g>
</svg>
