<?xml version="1.0" encoding="utf-8"?>
<!-- Generator: Adobe Illustrator 16.0.0, SVG Export Plug-In . SVG Version: 6.00 Build 0)  -->
<!DOCTYPE svg PUBLIC "-//W3C//DTD SVG 1.1//EN" "http://www.w3.org/Graphics/SVG/1.1/DTD/svg11.dtd">
<svg version="1.1" id="Layer_1" xmlns="http://www.w3.org/2000/svg" xmlns:xlink="http://www.w3.org/1999/xlink" x="0px" y="0px"
	 width="48px" height="48px" viewBox="0 0 48 48" enable-background="new 0 0 48 48" xml:space="preserve">
<path d="M38.977,10.357H35.25V9.309c0-4.534-3.77-8.256-8.303-8.256H21.03c-4.533,0-8.281,3.722-8.281,8.256v1.049H9.001
	c-4.071,0-7.417,3.234-7.417,7.307v22.085c0,4.071,3.346,7.32,7.417,7.32h29.976c4.071,0,7.439-3.249,7.439-7.32V17.664
	C46.416,13.592,43.048,10.357,38.977,10.357z M18.179,9.309c0-1.632,1.22-3.012,2.852-3.012h5.917c1.631,0,2.89,1.38,2.89,3.012
	v1.049H18.179V9.309z M17.514,32.295h-4.51c-1.013,0-1.834-0.821-1.834-1.834v-4.51c0-1.013,0.821-1.834,1.834-1.834h4.51
	c1.013,0,1.834,0.821,1.834,1.834v4.51C19.348,31.474,18.526,32.295,17.514,32.295z M30.986,39.698
	c-2.399,0-4.345-1.945-4.345-4.345s1.945-4.345,4.345-4.345c2.4,0,4.345,1.945,4.345,4.345S33.387,39.698,30.986,39.698z
	 M28.742,22.295l3.787-1.712c0.588-0.267,1.28-0.005,1.546,0.583l1.712,3.787c0.429,0.948-0.503,1.942-1.478,1.574l-5.498-2.074
	C27.837,24.086,27.794,22.724,28.742,22.295z"/>
</svg>
