<?xml version="1.0" encoding="utf-8"?>
<!-- Generator: Adobe Illustrator 16.0.0, SVG Export Plug-In . SVG Version: 6.00 Build 0)  -->
<!DOCTYPE svg PUBLIC "-//W3C//DTD SVG 1.1//EN" "http://www.w3.org/Graphics/SVG/1.1/DTD/svg11.dtd">
<svg version="1.1" id="Layer_1" xmlns="http://www.w3.org/2000/svg" xmlns:xlink="http://www.w3.org/1999/xlink" x="0px" y="0px"
	 width="48px" height="48px" viewBox="0 0 48 48" enable-background="new 0 0 48 48" xml:space="preserve">
<g>
	<path d="M23.9,20.816c-3.966,0-7.193,3.227-7.193,7.193c0,3.967,3.227,7.193,7.193,7.193s7.193-3.227,7.193-7.193
		C31.093,24.042,27.866,20.816,23.9,20.816z"/>
	<path d="M38.844,13.917h-3.913v-1.96c0-4.265-3.47-7.734-7.734-7.734h-6.603c-4.265,0-7.734,3.47-7.734,7.734v1.96H8.964
		c-4.376,0-7.932,3.522-7.932,7.899v13.251C1.032,39.444,4.587,43,8.964,43h29.88c4.377,0,7.916-3.556,7.916-7.933V21.816
		C46.76,17.439,43.221,13.917,38.844,13.917z M17.738,11.957c0-1.575,1.281-2.856,2.856-2.856h6.603
		c1.575,0,2.856,1.281,2.856,2.856v1.96H17.738V11.957z M23.9,39.176c-6.158,0-11.167-5.009-11.167-11.167
		c0-6.158,5.009-11.167,11.167-11.167s11.167,5.009,11.167,11.167C35.067,34.167,30.058,39.176,23.9,39.176z"/>
</g>
</svg>
