<?xml version="1.0" encoding="utf-8"?>
<!-- Generator: Adobe Illustrator 16.0.0, SVG Export Plug-In . SVG Version: 6.00 Build 0)  -->
<!DOCTYPE svg PUBLIC "-//W3C//DTD SVG 1.1//EN" "http://www.w3.org/Graphics/SVG/1.1/DTD/svg11.dtd">
<svg version="1.1" id="Layer_1" xmlns="http://www.w3.org/2000/svg" xmlns:xlink="http://www.w3.org/1999/xlink" x="0px" y="0px"
	 width="48px" height="48px" viewBox="0 0 48 48" enable-background="new 0 0 48 48" xml:space="preserve">
<g>
	<path d="M46.905,38.81l-1.673-6.479V10.69c0-2.9-2.374-5.284-5.276-5.284H8.407c-2.902,0-5.275,2.384-5.275,5.284v21.64
		L1.456,38.81c-0.467,1.095-0.389,2.381,0.206,3.398c0.594,1.019,1.625,1.642,2.731,1.642h39.578c1.106,0,2.135-0.623,2.729-1.642
		C47.294,41.19,47.372,39.904,46.905,38.81z M7.195,10.69c0-0.667,0.543-1.221,1.211-1.221h31.55c0.668,0,1.212,0.554,1.212,1.221
		v21.64c0,0.668-0.544,1.198-1.212,1.198H8.407c-0.668,0-1.212-0.53-1.212-1.198V10.69z"/>
	<g>
		<g>
			<path d="M19.055,20.4c-0.366,0.228-0.609,0.609-0.658,1.038c-0.05,0.429,0.099,0.856,0.403,1.162l0.125,0.124
				c0.461,0.462,1.18,0.547,1.736,0.206c2.053-1.26,4.685-1.214,6.691,0.145c0.56,0.379,1.311,0.309,1.789-0.169l0.126-0.127
				c0.298-0.297,0.447-0.712,0.408-1.131c-0.039-0.418-0.263-0.798-0.61-1.035C26.068,18.566,22.12,18.498,19.055,20.4z"/>
		</g>
		<g>
			<path d="M14.745,16.277c-0.322,0.248-0.522,0.623-0.548,1.028c-0.027,0.405,0.122,0.805,0.41,1.092l0.125,0.125
				c0.501,0.501,1.294,0.552,1.856,0.12c4.38-3.357,10.551-3.303,14.864,0.178c0.561,0.453,1.375,0.411,1.884-0.099l0.6-0.6
				c0.155-0.154,0.239-0.366,0.232-0.585s-0.103-0.425-0.266-0.57C28.494,12.143,20.414,11.918,14.745,16.277z"/>
		</g>
		<circle cx="24.035" cy="27.317" r="2.688"/>
	</g>
</g>
</svg>
