<?xml version="1.0" encoding="utf-8"?>
<!-- Generator: Adobe Illustrator 16.0.0, SVG Export Plug-In . SVG Version: 6.00 Build 0)  -->
<!DOCTYPE svg PUBLIC "-//W3C//DTD SVG 1.1//EN" "http://www.w3.org/Graphics/SVG/1.1/DTD/svg11.dtd">
<svg version="1.1" xmlns="http://www.w3.org/2000/svg" xmlns:xlink="http://www.w3.org/1999/xlink" x="0px" y="0px" width="48px"
	 height="48px" viewBox="0 0 48 48" enable-background="new 0 0 48 48" xml:space="preserve">
<g id="Layer_2" display="none">
	<g display="inline" opacity="0.5">
		<polygon fill="#0034DB" points="-152,-1 -152,49 -356,49 -356,101 151,101 151,51.5 151,48.5 151,-1 		"/>
		<polygon fill="#DD5E00" points="-251,-51 -251,-1 -355,-1 -355,48 -152,48 -152,-1 151,-1 151,-51 		"/>
	</g>
</g>
<g id="Layer_1">
	<g>
		<path d="M7.38,29.25c-0.787,0-1.438,0.638-1.438,1.425v4.141c0,0.787,0.651,1.425,1.438,1.425s1.438-0.638,1.438-1.425v-4.141
			C8.818,29.888,8.167,29.25,7.38,29.25z"/>
		<path d="M15.663,29.25c-0.787,0-1.419,0.638-1.419,1.425v4.141c0,0.787,0.632,1.425,1.419,1.425c0.786,0,1.418-0.638,1.418-1.425
			v-4.141C17.081,29.888,16.449,29.25,15.663,29.25z"/>
		<path d="M23.945,29.25c-0.786,0-1.438,0.638-1.438,1.425v4.141c0,0.787,0.652,1.425,1.438,1.425c0.787,0,1.438-0.638,1.438-1.425
			v-4.141C25.384,29.888,24.732,29.25,23.945,29.25z"/>
		<path d="M11.531,38.359c-0.786,0-1.438,0.638-1.438,1.425v4.141c0,0.787,0.652,1.425,1.438,1.425c0.787,0,1.438-0.638,1.438-1.425
			v-4.141C12.97,38.997,12.318,38.359,11.531,38.359z"/>
		<path d="M19.814,38.359c-0.787,0-1.419,0.638-1.419,1.425v4.141c0,0.787,0.632,1.425,1.419,1.425c0.786,0,1.418-0.638,1.418-1.425
			v-4.141C21.232,38.997,20.601,38.359,19.814,38.359z"/>
		<path d="M41.251,16.2c0-7.736-6.303-14.03-14.039-14.03c-6.749,0-12.397,4.791-13.729,11.149
			c-4.985,1.017-8.733,5.425-8.733,10.71v0.001c0,1.829,1.468,3.299,3.297,3.299h15.237c1.829,0,3.293-1.47,3.293-3.299V24.03
			c0-4.78-3.059-8.842-7.332-10.327c1.064-3.377,4.232-5.833,7.955-5.833c4.594,0,8.338,3.737,8.338,8.33v26.695
			c0,1.574,1.282,2.85,2.856,2.85c1.575,0,2.857-1.276,2.857-2.85V16.2z"/>
	</g>
</g>
</svg>
