<?xml version="1.0" encoding="utf-8"?>
<!-- Generator: Adobe Illustrator 16.0.0, SVG Export Plug-In . SVG Version: 6.00 Build 0)  -->
<!DOCTYPE svg PUBLIC "-//W3C//DTD SVG 1.1//EN" "http://www.w3.org/Graphics/SVG/1.1/DTD/svg11.dtd">
<svg version="1.1" id="Layer_1" xmlns="http://www.w3.org/2000/svg" xmlns:xlink="http://www.w3.org/1999/xlink" x="0px" y="0px"
	 width="48px" height="48px" viewBox="0 0 48 48" enable-background="new 0 0 48 48" xml:space="preserve">
<path d="M45.755,1h-3.454c-0.426,0-0.799,0.381-0.799,0.807v3.455c0,0.426-0.317,0.768-0.743,0.768h-4.454
	c-0.426,0-0.839-0.342-0.839-0.768V1.807C35.465,1.381,35.189,1,34.763,1h-3.454c-0.426,0-0.782,0.381-0.782,0.807v12.967
	l-5.271-4.465c-0.679-0.576-1.674-0.576-2.354,0l-5.271,4.465V1.807c0-0.426-0.31-0.807-0.736-0.807h-3.455
	c-0.426,0-0.748,0.381-0.748,0.807v3.455c0,0.426-0.368,0.768-0.793,0.768H7.447c-0.426,0-0.789-0.342-0.789-0.768V1.807
	C6.659,1.381,6.331,1,5.905,1H2.451C2.025,1,1.72,1.381,1.72,1.807v44.422c0,0.426,0.305,0.77,0.731,0.77h17.011v-8.276
	c0-2.55,2.068-4.618,4.619-4.618c2.55,0,4.618,2.068,4.618,4.618V47h17.057c0.426,0,0.685-0.344,0.685-0.77V1.807
	C46.44,1.381,46.181,1,45.755,1z"/>
</svg>
