<?xml version="1.0" encoding="utf-8"?>
<!-- Generator: Adobe Illustrator 16.0.0, SVG Export Plug-In . SVG Version: 6.00 Build 0)  -->
<!DOCTYPE svg PUBLIC "-//W3C//DTD SVG 1.1//EN" "http://www.w3.org/Graphics/SVG/1.1/DTD/svg11.dtd">
<svg version="1.1" id="Layer_1" xmlns="http://www.w3.org/2000/svg" xmlns:xlink="http://www.w3.org/1999/xlink" x="0px" y="0px"
	 width="48px" height="48px" viewBox="0 0 48 48" enable-background="new 0 0 48 48" xml:space="preserve">
<g>
	<path d="M32.388,17.778h-0.227v0.001l-2.325-6.231c-0.411-1.096-1.449-1.831-2.62-1.831h-0.061V4.914
		c0-0.134-0.057-0.262-0.152-0.356l-3.039-3.047c-0.225-0.22-0.529-0.341-0.844-0.338c-0.314,0.004-0.614,0.132-0.834,0.357
		l-3.044,3.029c-0.092,0.093-0.147,0.218-0.147,0.348v4.81h-0.053c-1.172,0-2.221,0.735-2.631,1.833l-2.324,6.228h-0.219
		c-1.552,0-2.833,1.259-2.833,2.811v12.485c0,1.551,1.281,2.774,2.833,2.774h0.221v9.967c0,0.625,0.493,1.148,1.118,1.148h15.841
		c0.625,0,1.113-0.523,1.113-1.148v-9.967h0.227c1.551,0,2.827-1.223,2.827-2.774V20.589C35.215,19.037,33.938,17.778,32.388,17.778
		z M23.128,33.704c-3.75,0-6.789-3.039-6.789-6.789c0-3.749,3.039-6.789,6.789-6.789c3.749,0,6.789,3.04,6.789,6.789
		C29.917,30.665,26.877,33.704,23.128,33.704z"/>
	<path d="M26.646,25.837h-2.461v-3.401c0-0.609-0.494-1.103-1.103-1.103c-0.609,0-1.104,0.494-1.104,1.103v4.479
		c0,0.609,0.536,1.128,1.146,1.128h3.521c0.608,0,1.102-0.494,1.102-1.103S27.255,25.837,26.646,25.837z"/>
</g>
</svg>
