<?xml version="1.0" encoding="utf-8"?>
<!-- Generator: Adobe Illustrator 16.0.0, SVG Export Plug-In . SVG Version: 6.00 Build 0)  -->
<!DOCTYPE svg PUBLIC "-//W3C//DTD SVG 1.1//EN" "http://www.w3.org/Graphics/SVG/1.1/DTD/svg11.dtd">
<svg version="1.1" id="Layer_1" xmlns="http://www.w3.org/2000/svg" xmlns:xlink="http://www.w3.org/1999/xlink" x="0px" y="0px"
	 width="48px" height="48px" viewBox="0 0 48 48" enable-background="new 0 0 48 48" xml:space="preserve">
<path d="M38.357,36.718l-3.533-6.421c-1.831-3.327-5.201-5.528-8.892-5.957v-2.722c0.852-0.5,1.328-1.385,1.328-2.396
	c0-1.01-0.477-1.896-1.328-2.395v-4.086c2.125-1.268,3.55-3.588,3.55-6.243c0-2.087-0.882-3.967-2.292-5.291
	c-0.247-0.232-0.619-0.271-0.908-0.095c-0.29,0.175-0.426,0.523-0.336,0.849c0.176,0.623,0.27,1.28,0.27,1.958
	c0,4.012-3.253,7.264-7.266,7.264c-0.094,0-0.188-0.002-0.283-0.006c-0.337-0.012-0.644,0.202-0.746,0.524
	c-0.104,0.322,0.019,0.674,0.302,0.86c1.145,0.759,2.519,1.201,3.995,1.201c0.362,0,0.719-0.028,1.066-0.078v3.143
	c-0.852,0.499-1.329,1.385-1.329,2.395c0,1.011,0.478,1.896,1.329,2.396v2.722c-3.69,0.429-7.04,2.63-8.872,5.957l-3.527,6.421
	c-0.766,1.377-1.035,2.926-1.035,4.501v3.826c0,0.963,0.521,1.744,1.483,1.744h26.612c0.964,0,1.422-0.781,1.422-1.744v-3.826
	C39.367,39.644,39.124,38.095,38.357,36.718z"/>
</svg>
