<?xml version="1.0" encoding="utf-8"?>
<!-- Generator: Adobe Illustrator 16.0.0, SVG Export Plug-In . SVG Version: 6.00 Build 0)  -->
<!DOCTYPE svg PUBLIC "-//W3C//DTD SVG 1.1//EN" "http://www.w3.org/Graphics/SVG/1.1/DTD/svg11.dtd">
<svg version="1.1" id="Layer_1" xmlns="http://www.w3.org/2000/svg" xmlns:xlink="http://www.w3.org/1999/xlink" x="0px" y="0px"
	 width="48px" height="48px" viewBox="0 0 48 48" enable-background="new 0 0 48 48" xml:space="preserve">
<path d="M45.859,35.562h-1.658c-0.638,0-1.153-0.517-1.153-1.154v-2.656c0-0.644-0.522-1.165-1.165-1.165h-1.671
	c-0.646,0-1.171-0.524-1.171-1.171v-2.668c0-0.649-0.531-1.181-1.18-1.181h-1.667c-0.641,0-1.16-0.519-1.16-1.159v-2.665
	c0-0.636-0.516-1.15-1.15-1.15H32.19c-0.643,0-1.163-0.521-1.163-1.163v-2.691c0-0.644-0.521-1.165-1.165-1.165h-1.676
	c-0.644,0-1.166-0.521-1.166-1.166v-2.683c0-0.644-0.526-1.171-1.17-1.171h-3.669c-0.635,0-1.148,0.515-1.148,1.148v2.7
	c0,0.645-0.527,1.171-1.171,1.171h-1.685c-0.636,0-1.151,0.516-1.151,1.151v2.683c0,0.652-0.533,1.186-1.186,1.186h-1.667
	c-0.638,0-1.154,0.517-1.154,1.154v2.639c0,0.65-0.531,1.182-1.182,1.182h-1.667c-0.64,0-1.157,0.519-1.157,1.158v2.69
	c0,0.645-0.527,1.171-1.172,1.171h-1.67c-0.644,0-1.165,0.521-1.165,1.165v2.669c0,0.63-0.512,1.142-1.142,1.142H2.163
	C1.521,35.562,1,36.082,1,36.725v2.699c0,0.66,0.54,1.201,1.2,1.201h15.905c0.498,0,0.902-0.404,0.902-0.902v-5.734
	c0-0.785,0.636-1.421,1.421-1.421h7.152c0.785,0,1.421,0.636,1.421,1.421v5.734c0,0.498,0.404,0.902,0.902,0.902h15.964
	c0.652,0,1.186-0.534,1.186-1.186v-2.684C47.054,36.099,46.517,35.562,45.859,35.562z M24.918,20.988h-1.826
	c-0.554,0-1.002-0.449-1.002-1.002v-1.871c0-0.554,0.448-1.002,1.002-1.002h1.826c0.554,0,1.002,0.448,1.002,1.002v1.871
	C25.92,20.539,25.472,20.988,24.918,20.988z"/>
</svg>
