<?xml version="1.0" encoding="utf-8"?>
<!-- Generator: Adobe Illustrator 16.0.0, SVG Export Plug-In . SVG Version: 6.00 Build 0)  -->
<!DOCTYPE svg PUBLIC "-//W3C//DTD SVG 1.1//EN" "http://www.w3.org/Graphics/SVG/1.1/DTD/svg11.dtd">
<svg version="1.1" id="Layer_1" xmlns="http://www.w3.org/2000/svg" xmlns:xlink="http://www.w3.org/1999/xlink" x="0px" y="0px"
	 width="48px" height="48px" viewBox="0 0 48 48" enable-background="new 0 0 48 48" xml:space="preserve">
<path d="M37.932,15.821l4.424-7.08c0.17-0.271,0.25-0.584,0.25-0.905V3.112c0-0.943-0.745-1.684-1.688-1.684h-4.495
	c-0.943,0-1.739,0.741-1.739,1.684v2.536c0,0.387-0.281,0.712-0.668,0.712h-4.532c-0.387,0-0.704-0.325-0.704-0.712V3.112
	c0-0.943-0.761-1.684-1.705-1.684h-5.483c-0.943,0-1.705,0.741-1.705,1.684v2.536c0,0.387-0.316,0.712-0.703,0.712h-4.532
	c-0.387,0-0.669-0.325-0.669-0.712V3.112c0-0.943-0.795-1.684-1.739-1.684H7.75c-0.943,0-1.688,0.741-1.688,1.684v4.724
	c0,0.32,0.08,0.634,0.25,0.905l4.423,7.08c0.17,0.271,0.259,0.584,0.259,0.904v19.307c0,0.6-0.319,1.155-0.833,1.464l-3.278,1.971
	c-0.514,0.308-0.821,0.864-0.821,1.464v4.247c0,0.944,0.744,1.685,1.688,1.685h33.167c0.943,0,1.688-0.741,1.688-1.685v-4.247
	c0-0.6-0.305-1.156-0.819-1.464L38.5,37.497c-0.514-0.309-0.828-0.864-0.828-1.464V16.725
	C37.673,16.405,37.762,16.092,37.932,15.821z M28.779,25.853c0,0.696-0.56,1.282-1.255,1.282h-6.381
	c-0.695,0-1.256-0.586-1.256-1.282v-5.483c0-2.417,1.957-4.369,4.374-4.369h0.145c2.417,0,4.373,1.952,4.373,4.369V25.853z"/>
</svg>
