<?xml version="1.0" encoding="utf-8"?>
<!-- Generator: Adobe Illustrator 16.0.0, SVG Export Plug-In . SVG Version: 6.00 Build 0)  -->
<!DOCTYPE svg PUBLIC "-//W3C//DTD SVG 1.1//EN" "http://www.w3.org/Graphics/SVG/1.1/DTD/svg11.dtd">
<svg version="1.1" id="Layer_1" xmlns="http://www.w3.org/2000/svg" xmlns:xlink="http://www.w3.org/1999/xlink" x="0px" y="0px"
	 width="48px" height="48px" viewBox="0 0 48 48" enable-background="new 0 0 48 48" xml:space="preserve">
<path d="M39.696,41.215h-2.11c3.672-2.873,5.956-6.885,5.956-11.333c0-7.791-7.006-14.262-16.21-15.537L24.655,1.799
	c-0.054-0.251-0.25-0.46-0.517-0.517c-0.363-0.078-0.721,0.154-0.798,0.517l-2.676,12.546c-9.203,1.277-16.207,7.749-16.207,15.538
	c0,4.448,2.284,8.46,5.957,11.333H8.281c-1.113,0-1.991,0.897-1.991,2.011v1.879c0,1.114,0.878,2.017,1.991,2.017h31.415
	c1.126,0,2.031-0.913,2.031-2.039v-1.834C41.728,42.123,40.822,41.215,39.696,41.215z M26.802,32.228
	c0,0.327-0.261,0.607-0.589,0.607h-4.426c-0.327,0-0.572-0.28-0.572-0.607v-4.982c0-1.549,1.244-2.806,2.794-2.806
	s2.793,1.256,2.793,2.806V32.228z"/>
</svg>
