<?xml version="1.0" encoding="utf-8"?>
<!-- Generator: Adobe Illustrator 16.0.0, SVG Export Plug-In . SVG Version: 6.00 Build 0)  -->
<!DOCTYPE svg PUBLIC "-//W3C//DTD SVG 1.1//EN" "http://www.w3.org/Graphics/SVG/1.1/DTD/svg11.dtd">
<svg version="1.1" id="Layer_1" xmlns="http://www.w3.org/2000/svg" xmlns:xlink="http://www.w3.org/1999/xlink" x="0px" y="0px"
	 width="48px" height="48px" viewBox="0 0 48 48" enable-background="new 0 0 48 48" xml:space="preserve">
<g>
	<path d="M42.227,37.641l-8.635-7.439c-0.221-0.191-0.549-0.189-0.77,0.002l-6.231,5.434l-2.823-15.23
		c-0.045-0.241-0.255-0.394-0.5-0.394H10.896c-0.245,0-0.455,0.153-0.5,0.394L5.577,46.417c-0.027,0.148,0.013,0.293,0.109,0.409
		C5.783,46.941,5.926,47,6.077,47h7.402v-5.997c0-1.994,1.626-3.61,3.62-3.61s3.62,1.616,3.62,3.61V47h18.645
		c0.28,0,0.551-0.221,0.551-0.502v-7.834h1.927c0.247,0,0.466-0.147,0.552-0.378C42.48,38.055,42.414,37.801,42.227,37.641z"/>
	<path d="M11.098,17.93h11.969c0.153,0,0.298-0.091,0.394-0.209c0.097-0.119,0.135-0.289,0.104-0.438l-1.599-7.689h0.264
		c0.427,0,0.815-0.243,0.998-0.628c0.183-0.386,0.127-0.84-0.144-1.17l-5.191-6.343c-0.21-0.257-0.526-0.405-0.858-0.404
		C16.7,1.049,16.386,1.201,16.177,1.46l-5.102,6.343c-0.267,0.331-0.319,0.783-0.135,1.166s0.571,0.624,0.996,0.624h0.264
		L10.6,17.271c-0.031,0.15,0.007,0.329,0.104,0.448C10.8,17.837,10.945,17.93,11.098,17.93z"/>
</g>
</svg>
