<?xml version="1.0" encoding="utf-8"?>
<!-- Generator: Adobe Illustrator 16.0.0, SVG Export Plug-In . SVG Version: 6.00 Build 0)  -->
<!DOCTYPE svg PUBLIC "-//W3C//DTD SVG 1.1//EN" "http://www.w3.org/Graphics/SVG/1.1/DTD/svg11.dtd">
<svg version="1.1" id="Layer_1" xmlns="http://www.w3.org/2000/svg" xmlns:xlink="http://www.w3.org/1999/xlink" x="0px" y="0px"
	 width="48px" height="48px" viewBox="0 0 48 48" enable-background="new 0 0 48 48" xml:space="preserve">
<path d="M46.927,12.988l-6.074-6.074c-0.291-0.291-0.763-0.291-1.054,0l-6.074,6.074c-0.213,0.213-0.277,0.537-0.161,0.815
	c0.115,0.278,0.387,0.463,0.688,0.463h0.985v7.896h-3.172c-0.611,0-1.108,0.52-1.108,1.131v2.199h-3.901v-2.199
	c0-0.611-0.427-1.131-1.038-1.131h-0.094h-3.705h-0.094c-0.611,0-1.063,0.52-1.063,1.131v2.199h-3.9v-2.199
	c0-0.611-0.473-1.131-1.084-1.131h-3.196v-7.896h1.01c0.301,0,0.573-0.185,0.688-0.463s0.052-0.602-0.162-0.815L8.346,6.915
	c-0.291-0.291-0.763-0.291-1.054,0l-6.074,6.074c-0.213,0.213-0.277,0.537-0.161,0.815c0.115,0.278,0.387,0.463,0.688,0.463h1.053
	v11.226v17.51c0,0.279,0.133,0.521,0.359,0.649c0.104,0.067,0.208,0.105,0.345,0.105h9.379h7.516v-7.014
	c0-2.016,1.646-3.649,3.663-3.649c2.015,0,3.662,1.633,3.662,3.649v7.014h7.54h9.379c0.138,0,0.229-0.039,0.333-0.105
	c0.227-0.127,0.347-0.37,0.347-0.649v-17.51V14.266H46.4c0.301,0,0.573-0.185,0.688-0.463C47.204,13.525,47.14,13.202,46.927,12.988
	z M9.744,21.366c0,0.298-0.209,0.511-0.508,0.511H6.402c-0.299,0-0.559-0.213-0.559-0.511v-2.816c0-1.081,0.87-1.958,1.95-1.958
	c1.081,0,1.95,0.876,1.95,1.958V21.366z M42.278,21.366c0,0.298-0.236,0.511-0.535,0.511H38.91c-0.298,0-0.531-0.213-0.531-0.511
	v-2.816c0-1.081,0.869-1.958,1.95-1.958c1.081,0,1.95,0.876,1.95,1.958V21.366z"/>
</svg>
