<?xml version="1.0" encoding="utf-8"?>
<!-- Generator: Adobe Illustrator 16.0.0, SVG Export Plug-In . SVG Version: 6.00 Build 0)  -->
<!DOCTYPE svg PUBLIC "-//W3C//DTD SVG 1.1//EN" "http://www.w3.org/Graphics/SVG/1.1/DTD/svg11.dtd">
<svg version="1.1" id="Layer_1" xmlns="http://www.w3.org/2000/svg" xmlns:xlink="http://www.w3.org/1999/xlink" x="0px" y="0px"
	 width="48px" height="48px" viewBox="0 0 48 48" enable-background="new 0 0 48 48" xml:space="preserve">
<path d="M38.725,28.77l-8.242-7.179v-6.036h0.799c0.311,0,0.601-0.179,0.72-0.466c0.119-0.287,0.061-0.609-0.159-0.829l-6.336-6.351
	V6.615h0.964c0.826,0,1.496-0.671,1.496-1.498c0-0.826-0.67-1.497-1.496-1.497h-0.964V2.332c0-0.833-0.675-1.508-1.508-1.508
	s-1.509,0.675-1.509,1.508V3.62h-0.958c-0.825,0-1.495,0.671-1.495,1.497c0,0.826,0.67,1.498,1.495,1.498h0.958v1.293l-6.333,6.35
	c-0.219,0.22-0.276,0.543-0.157,0.83c0.119,0.288,0.41,0.466,0.721,0.466h0.793v6.036L9.273,28.77
	c-0.798,0.696-1.072,1.741-0.701,2.731c0.372,0.991,1.329,1.515,2.387,1.515h0.542V46.23c0,0.425,0.409,0.77,0.833,0.77h8.086
	v-8.036c0-1.985,1.592-3.594,3.578-3.594c1.985,0,3.577,1.609,3.577,3.594V47h8.093c0.424,0,0.826-0.345,0.826-0.77V33.017h0.549
	c1.058,0,2.013-0.524,2.385-1.515C39.8,30.511,39.522,29.466,38.725,28.77z M26.057,21.416c0,0.312-0.242,0.547-0.555,0.547h-2.955
	c-0.313,0-0.587-0.235-0.587-0.547v-3.467c0-1.127,0.919-2.042,2.048-2.042c1.128,0,2.049,0.914,2.049,2.042V21.416z"/>
</svg>
