<?xml version="1.0" encoding="utf-8"?>
<!-- Generator: Adobe Illustrator 16.0.0, SVG Export Plug-In . SVG Version: 6.00 Build 0)  -->
<!DOCTYPE svg PUBLIC "-//W3C//DTD SVG 1.1//EN" "http://www.w3.org/Graphics/SVG/1.1/DTD/svg11.dtd">
<svg version="1.1" id="Layer_1" xmlns="http://www.w3.org/2000/svg" xmlns:xlink="http://www.w3.org/1999/xlink" x="0px" y="0px"
	 width="48px" height="48px" viewBox="0 0 48 48" enable-background="new 0 0 48 48" xml:space="preserve">
<path d="M46.027,21.075L31.896,8.894c-0.434-0.375-1.08-0.388-1.515-0.009L16.183,21.075c-0.803,0.7-1.104,1.726-0.729,2.723
	c0.231,0.615,0.953,1.342,1.578,1.577L1.648,25.367c-0.372,0-0.676,0.358-0.676,0.785L1,38.588c0,0.428,0.304,0.806,0.676,0.806
	h16.99h24.317c0.429,0,0.74-0.379,0.74-0.806V25.362h0.639c1.068,0,2.022-0.564,2.395-1.564
	C47.129,22.797,46.837,21.771,46.027,21.075z M15.032,33.126c0,0.295-0.239,0.505-0.534,0.505h-6.95
	c-0.296,0-0.534-0.21-0.534-0.505v-2.941c0-0.295,0.238-0.563,0.534-0.563h6.95c0.295,0,0.534,0.269,0.534,0.563V33.126z
	 M33.95,33.788c0,0.328-0.267,0.594-0.594,0.594h-4.198c-0.328,0-0.595-0.267-0.595-0.594V29.59c0-0.329,0.267-0.595,0.595-0.595
	h4.198c0.327,0,0.594,0.266,0.594,0.595V33.788z"/>
</svg>
