<?xml version="1.0" encoding="utf-8"?>
<!-- Generator: Adobe Illustrator 16.0.0, SVG Export Plug-In . SVG Version: 6.00 Build 0)  -->
<!DOCTYPE svg PUBLIC "-//W3C//DTD SVG 1.1//EN" "http://www.w3.org/Graphics/SVG/1.1/DTD/svg11.dtd">
<svg version="1.1" id="Layer_1" xmlns="http://www.w3.org/2000/svg" xmlns:xlink="http://www.w3.org/1999/xlink" x="0px" y="0px"
	 width="48px" height="48px" viewBox="0 0 48 48" enable-background="new 0 0 48 48" xml:space="preserve">
<g>
	<path d="M10.788,8.606c-1.789,0-3.246,1.457-3.246,3.248c0,1.791,1.457,3.248,3.246,3.248c1.791,0,3.25-1.457,3.25-3.248
		C14.038,10.063,12.579,8.606,10.788,8.606z"/>
	<path d="M37.099,8.606c-1.793,0-3.248,1.457-3.248,3.248c0,1.791,1.455,3.248,3.248,3.248c1.789,0,3.248-1.457,3.248-3.248
		C40.347,10.063,38.888,8.606,37.099,8.606z"/>
	<path d="M37.233,21.538c5.348,0,9.676-4.335,9.676-9.684c0-5.349-4.323-9.685-9.672-9.685c-0.021,0-0.047,0.001-0.047,0.001v0.006
		H10.843V2.171c0,0-0.036-0.001-0.057-0.001c-5.349,0-9.682,4.336-9.682,9.685c0,5.348,4.333,9.684,9.682,9.684
		c0.021,0,0.057,0,0.057,0v14.758c0,0.591-0.307,1.138-0.814,1.443l-3.225,1.942c-0.505,0.304-0.803,0.852-0.803,1.442v4.186
		c0,0.93,0.729,1.713,1.657,1.713h32.689c0.929,0,1.686-0.784,1.686-1.713v-4.186c0-0.591-0.312-1.139-0.819-1.442l-3.223-1.942
		c-0.506-0.305-0.801-0.852-0.801-1.443V21.538C37.19,21.538,37.214,21.538,37.233,21.538z M10.788,18.107
		c-3.446,0-6.25-2.806-6.25-6.253c0-3.448,2.804-6.253,6.25-6.253c3.448,0,6.254,2.805,6.254,6.253
		C17.042,15.301,14.236,18.107,10.788,18.107z M19.173,39.197c0,1.106-0.878,2.003-1.984,2.003s-1.985-0.897-1.985-2.003v-17.54
		c0-1.106,0.879-2.003,1.985-2.003s1.984,0.896,1.984,2.003V39.197z M26.051,39.197c0,1.106-0.928,2.003-2.034,2.003
		s-2.034-0.897-2.034-2.003v-17.54c0-1.106,0.928-2.003,2.034-2.003s2.034,0.896,2.034,2.003V39.197z M32.831,39.197
		c0,1.106-0.878,2.003-1.986,2.003c-1.104,0-1.984-0.897-1.984-2.003v-17.54c0-1.106,0.88-2.003,1.984-2.003
		c1.108,0,1.986,0.896,1.986,2.003V39.197z M37.099,18.107c-3.448,0-6.254-2.806-6.254-6.253c0-3.448,2.806-6.253,6.254-6.253
		c3.446,0,6.252,2.805,6.252,6.253C43.351,15.301,40.545,18.107,37.099,18.107z"/>
</g>
</svg>
