<?xml version="1.0" encoding="utf-8"?>
<!-- Generator: Adobe Illustrator 16.0.0, SVG Export Plug-In . SVG Version: 6.00 Build 0)  -->
<!DOCTYPE svg PUBLIC "-//W3C//DTD SVG 1.1//EN" "http://www.w3.org/Graphics/SVG/1.1/DTD/svg11.dtd">
<svg version="1.1" id="Layer_1" xmlns="http://www.w3.org/2000/svg" xmlns:xlink="http://www.w3.org/1999/xlink" x="0px" y="0px"
	 width="48px" height="48px" viewBox="0 0 48 48" enable-background="new 0 0 48 48" xml:space="preserve">
<path d="M35.198,23.496c-0.289-0.776-1.031-1.291-1.859-1.291h-3.208V9.444h1.163c0.235,0,0.459-0.092,0.616-0.269
	c0.156-0.176,0.23-0.407,0.202-0.641c-0.479-3.933-3.827-6.979-7.889-6.979c-4.063,0-7.414,3.049-7.89,6.981
	c-0.028,0.234,0.045,0.46,0.201,0.637s0.38,0.271,0.616,0.271h1.166v12.761h-3.211c-0.829,0-1.57,0.515-1.859,1.291L9.454,33.659
	c-0.227,0.609-0.142,1.292,0.229,1.826s0.98,0.853,1.631,0.853h2.258v10.546h6.75v-7.29c0-2.154,1.748-3.901,3.903-3.901
	c2.152,0,3.9,1.747,3.9,3.901v7.29h6.751V36.338h2.254c0.65,0,1.259-0.319,1.63-0.853s0.457-1.216,0.229-1.826L35.198,23.496z
	 M26.546,18.82c0,0.359-0.254,0.643-0.613,0.643h-3.418c-0.36,0-0.608-0.284-0.608-0.643v-4.087c0-1.276,0.991-2.336,2.268-2.336
	h0.099c1.276,0,2.273,1.06,2.273,2.336V18.82z"/>
</svg>
