<?xml version="1.0" encoding="utf-8"?>
<!-- Generator: Adobe Illustrator 16.0.0, SVG Export Plug-In . SVG Version: 6.00 Build 0)  -->
<!DOCTYPE svg PUBLIC "-//W3C//DTD SVG 1.1//EN" "http://www.w3.org/Graphics/SVG/1.1/DTD/svg11.dtd">
<svg version="1.1" id="Layer_1" xmlns="http://www.w3.org/2000/svg" xmlns:xlink="http://www.w3.org/1999/xlink" x="0px" y="0px"
	 width="48px" height="48px" viewBox="0 0 48 48" enable-background="new 0 0 48 48" xml:space="preserve">
<path d="M44.794,31.916c-3.489-0.409-6.464-2.573-7.963-5.582v-7.761c3.179-0.568,5.257-1.336,5.52-2.188h0.021v-1.76
	c0-0.682-0.48-1.258-1.157-1.349c-4.221-0.567-7.608-4.121-7.608-8.448V2.513c0-0.543-0.459-0.983-1.002-0.983
	c-0.539,0-0.996,0.437-0.996,0.976v2.163H15.396V2.506c0-0.539-0.457-0.976-0.996-0.976c-0.542,0-1.002,0.44-1.002,0.983v2.315
	c0,4.327-3.387,7.88-7.608,8.448c-0.676,0.091-1.157,0.667-1.157,1.349v1.76h0.026c0.261,0.852,2.336,1.62,5.515,2.188v7.761
	C8.675,29.343,5.7,31.507,2.21,31.916C1.524,31.997,1,32.577,1,33.267v2.327h0.078c0.374,1.227,3.874,2.279,9.096,2.962v6.749
	c0,0.752,0.613,1.37,1.365,1.37h2.171c0.753,0,1.369-0.618,1.369-1.37v-6.263c1.907,0.136,3.905,0.228,5.994,0.268v5.996
	c0,0.752,0.629,1.37,1.381,1.37h2.101c0.752,0,1.377-0.618,1.377-1.37V39.31c2.089-0.04,4.087-0.132,5.995-0.268v6.263
	c0,0.752,0.62,1.37,1.373,1.37h2.171c0.753,0,1.361-0.618,1.361-1.37v-6.749c5.222-0.683,8.726-1.736,9.101-2.962h0.073v-2.327
	C46.005,32.577,45.479,31.997,44.794,31.916z M21.073,26.194h-5.994v-6.99c1.861,0.166,3.859,0.28,5.994,0.333V26.194z
	 M31.926,26.194h-5.995v-6.657c2.135-0.052,4.133-0.167,5.995-0.333V26.194z"/>
</svg>
