<?xml version="1.0" encoding="utf-8"?>
<!-- Generator: Adobe Illustrator 16.0.0, SVG Export Plug-In . SVG Version: 6.00 Build 0)  -->
<!DOCTYPE svg PUBLIC "-//W3C//DTD SVG 1.1//EN" "http://www.w3.org/Graphics/SVG/1.1/DTD/svg11.dtd">
<svg version="1.1" id="Layer_1" xmlns="http://www.w3.org/2000/svg" xmlns:xlink="http://www.w3.org/1999/xlink" x="0px" y="0px"
	 width="48px" height="48px" viewBox="0 0 48 48" enable-background="new 0 0 48 48" xml:space="preserve">
<path d="M46.934,32.877c0-7.817-6.002-14.502-14.488-17.223c0-0.002,0-0.004,0-0.006c0-3.987-2.758-7.541-6.521-8.441V3.001
	C25.924,1.896,25.039,1,23.935,1s-1.988,0.896-1.988,2.001v4.207c-3.666,0.9-6.444,4.454-6.444,8.441l0,0
	C6.998,18.367,1,25.055,1,32.877c0,2.955,0.861,5.744,2.391,8.221c-0.171,0.327-0.27,0.7-0.27,1.095v2.208
	c0,1.309,1.065,2.372,2.374,2.372h36.918c1.323,0,2.434-1.075,2.434-2.398V42.22c0-0.402-0.118-0.782-0.295-1.115
	C46.085,38.626,46.934,35.834,46.934,32.877z M26.839,31.648c0,0.332-0.295,0.573-0.626,0.573h-4.494
	c-0.333,0-0.59-0.241-0.59-0.573v-5.14c0-1.574,1.281-2.849,2.855-2.849c1.572,0,2.854,1.275,2.854,2.849V31.648z"/>
</svg>
