<?xml version="1.0" encoding="utf-8"?>
<!-- Generator: Adobe Illustrator 16.0.0, SVG Export Plug-In . SVG Version: 6.00 Build 0)  -->
<!DOCTYPE svg PUBLIC "-//W3C//DTD SVG 1.1//EN" "http://www.w3.org/Graphics/SVG/1.1/DTD/svg11.dtd">
<svg version="1.1" id="Layer_1" xmlns="http://www.w3.org/2000/svg" xmlns:xlink="http://www.w3.org/1999/xlink" x="0px" y="0px"
	 width="48px" height="48px" viewBox="0 0 48 48" enable-background="new 0 0 48 48" xml:space="preserve">
<g>
	<path d="M45.776,19.317L25.486,1.621c-0.852-0.743-2.121-0.743-2.973,0L2.222,19.317c-0.474,0.414-0.642,1.088-0.421,1.677
		c0.221,0.589,0.784,0.99,1.413,0.99h2.45v23.458C5.664,46.276,6.293,47,7.127,47h33.744c0.834,0,1.428-0.724,1.428-1.558V21.984
		h2.485c0.629,0,1.193-0.401,1.414-0.99C46.419,20.405,46.25,19.73,45.776,19.317z M28.288,32.462c0,0.614-0.529,1.142-1.144,1.142
		h-6.289c-0.614,0-1.11-0.527-1.11-1.142v-7.109c0-2.351,1.92-4.257,4.271-4.257c2.352,0,4.272,1.906,4.272,4.257V32.462z"/>
</g>
</svg>
