<?xml version="1.0" encoding="utf-8"?>
<!-- Generator: Adobe Illustrator 16.0.0, SVG Export Plug-In . SVG Version: 6.00 Build 0)  -->
<!DOCTYPE svg PUBLIC "-//W3C//DTD SVG 1.1//EN" "http://www.w3.org/Graphics/SVG/1.1/DTD/svg11.dtd">
<svg version="1.1" id="Layer_1" xmlns="http://www.w3.org/2000/svg" xmlns:xlink="http://www.w3.org/1999/xlink" x="0px" y="0px"
	 width="48px" height="48px" viewBox="0 0 48 48" enable-background="new 0 0 48 48" xml:space="preserve">
<path d="M44.152,40.39h-1.41V29.083h-0.008c0.005-0.133,0.009-0.304,0.009-0.461c0-7.312-5.927-13.235-13.239-13.235
	c-7.312,0-13.239,5.921-13.239,13.233c0,0.157,0.003,0.33,0.009,0.463h-0.003V40.39h-1.663V17.844h1.19
	c0.36,0,0.697-0.195,0.897-0.495c0.201-0.301,0.238-0.696,0.101-1.029L11.012,2.355c-0.167-0.404-0.561-0.667-0.998-0.667
	S9.184,1.951,9.016,2.355L3.232,16.32c-0.138,0.333-0.1,0.729,0.101,1.029c0.201,0.299,0.537,0.495,0.898,0.495h1.2V40.39H3.849
	c-1.633,0-2.957,1.327-2.957,2.959c0,1.634,1.324,2.96,2.957,2.96h21.268v-8.642c0-2.43,1.959-4.401,4.39-4.401
	c2.431,0,4.39,1.971,4.39,4.401v8.642h10.256c1.632,0,2.957-1.327,2.957-2.96C47.109,41.717,45.785,40.39,44.152,40.39z"/>
</svg>
