<?xml version="1.0" encoding="utf-8"?>
<!-- Generator: Adobe Illustrator 16.0.0, SVG Export Plug-In . SVG Version: 6.00 Build 0)  -->
<!DOCTYPE svg PUBLIC "-//W3C//DTD SVG 1.1//EN" "http://www.w3.org/Graphics/SVG/1.1/DTD/svg11.dtd">
<svg version="1.1" id="Layer_1" xmlns="http://www.w3.org/2000/svg" xmlns:xlink="http://www.w3.org/1999/xlink" x="0px" y="0px"
	 width="48px" height="48px" viewBox="0 0 48 48" enable-background="new 0 0 48 48" xml:space="preserve">
<g>
	<path d="M41.322,28.157l-15.079-4.148c-1.485-0.408-3.05-0.408-4.534,0L6.628,28.157c-1.617,0.445-2.734,1.917-2.734,3.594v11.517
		C3.894,45.325,5.557,47,7.616,47h12.305v-8.333c0-2.059,1.709-3.73,3.769-3.73h0.581c2.06,0,3.753,1.672,3.753,3.73V47h12.322
		c2.059,0,3.706-1.675,3.706-3.732V31.751C44.052,30.074,42.94,28.603,41.322,28.157z"/>
	<path d="M44.74,20.461l-8.893-2.444c0.013-0.218,0.021-0.437,0.021-0.658c0-6.057-4.526-11.053-10.381-11.794V2.287
		c0-0.833-0.676-1.506-1.508-1.506c-0.833,0-1.508,0.673-1.508,1.506l0.001,3.277c-5.854,0.741-10.381,5.737-10.381,11.794
		c0,0.222,0.008,0.44,0.02,0.658l-8.891,2.444c-1.338,0.369-2.124,1.75-1.755,3.089c0.366,1.336,1.745,2.126,3.086,1.755
		l17.823-4.902c1.051-0.286,2.161-0.286,3.208,0l17.824,4.902c0.223,0.061,0.446,0.092,0.668,0.092c1.102,0,2.113-0.731,2.419-1.847
		C46.863,22.211,46.077,20.83,44.74,20.461z"/>
</g>
</svg>
