<?xml version="1.0" encoding="utf-8"?>
<!-- Generator: Adobe Illustrator 16.0.0, SVG Export Plug-In . SVG Version: 6.00 Build 0)  -->
<!DOCTYPE svg PUBLIC "-//W3C//DTD SVG 1.1//EN" "http://www.w3.org/Graphics/SVG/1.1/DTD/svg11.dtd">
<svg version="1.1" id="Layer_1" xmlns="http://www.w3.org/2000/svg" xmlns:xlink="http://www.w3.org/1999/xlink" x="0px" y="0px"
	 width="48px" height="48px" viewBox="0 0 48 48" enable-background="new 0 0 48 48" xml:space="preserve">
<path d="M46.104,28.312L25.663,7.901V6.592h1.064c0.833,0,1.508-0.644,1.508-1.478c0-0.833-0.675-1.478-1.508-1.478h-1.064V2.625
	c0-0.833-0.644-1.509-1.478-1.509c-0.833,0-1.478,0.676-1.478,1.509v1.012h-1.008c-0.833,0-1.508,0.645-1.508,1.478
	c0,0.833,0.675,1.478,1.508,1.478h1.008v1.309L2.295,28.312c-0.576,0.576-0.748,1.455-0.437,2.207
	c0.312,0.752,1.045,1.256,1.858,1.256h1.699L5.42,45.018c0,0.798,0.647,1.418,1.445,1.418h11.822v-7.152
	c0-3.055,2.502-5.531,5.557-5.531s5.557,2.476,5.557,5.531v7.152h11.766c0.383,0,0.751-0.14,1.022-0.411
	c0.271-0.271,0.423-0.619,0.423-1.002l-0.004-13.248h1.702c0.813,0,1.533-0.504,1.844-1.256S46.679,28.888,46.104,28.312z
	 M27.082,24.095c0,0.334-0.276,0.586-0.61,0.586h-4.518c-0.334,0-0.547-0.252-0.547-0.586v-4.177c0-1.582,1.255-2.864,2.837-2.864
	c1.582,0,2.837,1.282,2.837,2.864V24.095z"/>
</svg>
