<?xml version="1.0" encoding="utf-8"?>
<!-- Generator: Adobe Illustrator 16.0.0, SVG Export Plug-In . SVG Version: 6.00 Build 0)  -->
<!DOCTYPE svg PUBLIC "-//W3C//DTD SVG 1.1//EN" "http://www.w3.org/Graphics/SVG/1.1/DTD/svg11.dtd">
<svg version="1.1" id="Layer_1" xmlns="http://www.w3.org/2000/svg" xmlns:xlink="http://www.w3.org/1999/xlink" x="0px" y="0px"
	 width="48px" height="48px" viewBox="0 0 48 48" enable-background="new 0 0 48 48" xml:space="preserve">
<path d="M43.683,23.767L25.267,7.692V6.565h7.083c0.594,0,1.057-0.477,1.057-1.071V2.27c0-0.593-0.463-1.082-1.057-1.082h-8.502
	c-0.619,0-1.12,0.501-1.12,1.12v5.384L4.315,23.767c-1.032,0.9-1.388,2.329-0.908,3.61c0.481,1.283,1.715,2.115,3.085,2.115h2.271
	v16.08c0,0.853,0.712,1.544,1.565,1.544h4.933c2.378,0,4.449-1.619,5.025-3.926l3.714-14.895l3.714,14.895
	c0.576,2.307,2.648,3.926,5.026,3.926h4.933c0.853,0,1.558-0.691,1.558-1.544v-16.08h2.277c1.37,0,2.602-0.832,3.083-2.115
	C45.073,26.096,44.716,24.667,43.683,23.767z"/>
</svg>
