<?xml version="1.0" encoding="utf-8"?>
<!-- Generator: Adobe Illustrator 16.0.0, SVG Export Plug-In . SVG Version: 6.00 Build 0)  -->
<!DOCTYPE svg PUBLIC "-//W3C//DTD SVG 1.1//EN" "http://www.w3.org/Graphics/SVG/1.1/DTD/svg11.dtd">
<svg version="1.1" id="Layer_1" xmlns="http://www.w3.org/2000/svg" xmlns:xlink="http://www.w3.org/1999/xlink" x="0px" y="0px"
	 width="48px" height="48px" viewBox="0 0 48 48" enable-background="new 0 0 48 48" xml:space="preserve">
<path d="M39.137,24.855l-1.787-1.173c-0.305-4.073-2.365-7.665-5.362-10.045c0,0-0.01-3.816-0.01-3.919
	c0-4.816-3.904-8.72-8.721-8.72c-4.816,0-8.722,3.904-8.722,8.72c0,0.104-0.006,3.92-0.006,3.92
	c-2.998,2.382-5.061,5.979-5.363,10.056l-1.787,1.162c-0.234,0.152-0.374,0.413-0.374,0.692V46.18c0,0.456,0.369,0.82,0.825,0.82
	h9.874v-8.372c0-3.074,2.48-5.566,5.555-5.566s5.555,2.492,5.555,5.566V47h9.871c0.457,0,0.828-0.364,0.828-0.82V25.545
	C39.512,25.267,39.37,25.007,39.137,24.855z M26.11,24.185c0,0.333-0.274,0.595-0.607,0.595h-4.494
	c-0.332,0-0.603-0.262-0.603-0.595v-4.734c0-1.573,1.279-2.848,2.852-2.848s2.852,1.275,2.852,2.848V24.185z"/>
</svg>
