<?xml version="1.0" encoding="utf-8"?>
<!-- Generator: Adobe Illustrator 16.0.0, SVG Export Plug-In . SVG Version: 6.00 Build 0)  -->
<!DOCTYPE svg PUBLIC "-//W3C//DTD SVG 1.1//EN" "http://www.w3.org/Graphics/SVG/1.1/DTD/svg11.dtd">
<svg version="1.1" id="Layer_1" xmlns="http://www.w3.org/2000/svg" xmlns:xlink="http://www.w3.org/1999/xlink" x="0px" y="0px"
	 width="48px" height="48px" viewBox="0 0 48 48" enable-background="new 0 0 48 48" xml:space="preserve">
<g>
	<path d="M44.374,35.596V15.698c0.907-0.027,1.688-0.657,1.902-1.544c0.219-0.906-0.211-1.845-1.04-2.271L25.553,1.678
		c-0.973-0.504-2.129-0.504-3.103-0.001L2.706,11.887c-0.829,0.428-1.255,1.366-1.034,2.271c0.22,0.903,1.027,1.538,1.957,1.542
		v19.896c-1.239,0.132-2.203,1.181-2.203,2.455c0,1.363,1.104,2.469,2.467,2.469h40.217c1.363,0,2.467-1.106,2.467-2.469
		C46.576,36.777,45.612,35.728,44.374,35.596z M12.273,35.563H9.685V15.687h2.589V35.563z M29.616,35.563H18.385V15.687h11.231
		V35.563z M38.316,35.563h-2.589V15.687h2.589V35.563z"/>
	<path d="M44.694,42.005H3.307c-1.09,0-1.974,0.893-1.974,1.982s0.884,1.982,1.974,1.982h41.388c1.091,0,1.974-0.893,1.974-1.982
		S45.785,42.005,44.694,42.005z"/>
</g>
</svg>
