<?xml version="1.0" encoding="utf-8"?>
<!-- Generator: Adobe Illustrator 16.0.0, SVG Export Plug-In . SVG Version: 6.00 Build 0)  -->
<!DOCTYPE svg PUBLIC "-//W3C//DTD SVG 1.1//EN" "http://www.w3.org/Graphics/SVG/1.1/DTD/svg11.dtd">
<svg version="1.1" id="Layer_1" xmlns="http://www.w3.org/2000/svg" xmlns:xlink="http://www.w3.org/1999/xlink" x="0px" y="0px"
	 width="48px" height="48px" viewBox="0 0 48 48" enable-background="new 0 0 48 48" xml:space="preserve">
<path d="M44.566,40.674h-4.194V19.879h2.156c0.549,0,1.04-0.328,1.233-0.841c0.192-0.514,0.046-1.08-0.368-1.441L25.434,2.637
	c-0.785-0.654-1.925-0.654-2.71,0L4.766,17.597c-0.414,0.361-0.561,0.927-0.368,1.441c0.192,0.514,0.684,0.841,1.233,0.841h2.138
	v20.795H3.593C2.161,40.674,1,41.832,1,43.264c0,1.433,1.161,2.59,2.593,2.59h20.411h0.151h20.411c1.432,0,2.593-1.157,2.593-2.59
	C47.159,41.832,45.998,40.674,44.566,40.674z M16.682,34.171c0,1.073-0.87,1.941-1.942,1.941s-1.942-0.869-1.942-1.941v-9.063
	c0-1.072,0.87-1.941,1.942-1.941s1.942,0.869,1.942,1.941V34.171z M26.051,34.171c0,1.073-0.87,1.941-1.942,1.941
	c-1.073,0-1.942-0.869-1.942-1.941v-9.063c0-1.072,0.87-1.941,1.942-1.941c1.072,0,1.942,0.869,1.942,1.941V34.171z M35.345,34.171
	c0,1.073-0.87,1.941-1.943,1.941c-1.072,0-1.942-0.869-1.942-1.941v-9.063c0-1.072,0.87-1.941,1.942-1.941
	c1.073,0,1.943,0.869,1.943,1.941V34.171z"/>
</svg>
