<?xml version="1.0" encoding="utf-8"?>
<!-- Generator: Adobe Illustrator 16.0.0, SVG Export Plug-In . SVG Version: 6.00 Build 0)  -->
<!DOCTYPE svg PUBLIC "-//W3C//DTD SVG 1.1//EN" "http://www.w3.org/Graphics/SVG/1.1/DTD/svg11.dtd">
<svg version="1.1" id="Layer_1" xmlns="http://www.w3.org/2000/svg" xmlns:xlink="http://www.w3.org/1999/xlink" x="0px" y="0px"
	 width="48px" height="48px" viewBox="0 0 48 48" enable-background="new 0 0 48 48" xml:space="preserve">
<g>
	<path d="M15.057,8.095c0.026-0.151,0.141-0.27,0.29-0.301c0.149-0.031,0.302,0.033,0.386,0.16l4.589,7.038l1.184-1.682
		l-5.881-8.667c-0.192-0.283-0.51-0.454-0.853-0.457c-0.341-0.003-0.663,0.162-0.859,0.442L1.19,22.708
		c-0.164,0.232-0.225,0.521-0.171,0.799c0.055,0.278,0.22,0.523,0.459,0.676L10,29.66l1.838-2.613L15.057,8.095z"/>
	<path d="M46.467,34.689L29.687,9.95c-0.244-0.36-0.65-0.575-1.085-0.575c-0.426,0-0.826,0.208-1.072,0.556L10.565,34.028
		c-0.217,0.308-0.298,0.696-0.226,1.065c0.072,0.37,0.292,0.696,0.608,0.899l12.142,7.806c0.225,0.146,0.485,0.221,0.748,0.221
		c0.146,0,0.293-0.023,0.437-0.07l21.487-7.163c0.411-0.136,0.733-0.458,0.872-0.868C46.771,35.507,46.709,35.048,46.467,34.689z
		 M42.661,34.567c-0.075,0.218-0.246,0.389-0.464,0.465l-16.938,5.873c-0.165,0.056-0.346,0.022-0.479-0.09
		c-0.133-0.112-0.197-0.286-0.167-0.458l4.37-25.729c0.034-0.2,0.187-0.358,0.385-0.399s0.401,0.043,0.512,0.213l12.699,19.474
		C42.706,34.109,42.735,34.349,42.661,34.567z"/>
</g>
</svg>
