<?xml version="1.0" encoding="utf-8"?>
<!-- Generator: Adobe Illustrator 16.0.0, SVG Export Plug-In . SVG Version: 6.00 Build 0)  -->
<!DOCTYPE svg PUBLIC "-//W3C//DTD SVG 1.1//EN" "http://www.w3.org/Graphics/SVG/1.1/DTD/svg11.dtd">
<svg version="1.1" xmlns="http://www.w3.org/2000/svg" xmlns:xlink="http://www.w3.org/1999/xlink" x="0px" y="0px" width="48px"
	 height="48px" viewBox="0 0 48 48" enable-background="new 0 0 48 48" xml:space="preserve">
<g id="Layer_2" display="none">
	<g display="inline" opacity="0.5">
		<rect x="-55" y="-1" fill="#00E00B" width="104" height="51"/>
		<polygon fill="#DD5E00" points="49,-1 49,49 -55,49 -55,98 148,98 148,49 451,49 451,-1 		"/>
	</g>
</g>
<g id="Layer_1">
	<path d="M43.925,29.652v-1.781c1.842-1.08,3.018-3.052,3.018-5.307c0-2.85-4.3-6.664-5.726-7.849
		c-0.263-0.217-0.64-0.217-0.903,0.001c-1.426,1.185-5.727,4.999-5.727,7.848c0,2.254,1.231,4.227,3.012,5.307v1.791h-7.001v-4.952
		c2.703-2.025,4.49-5.267,4.49-8.92c0-5.12-7.732-11.974-10.295-14.104c-0.472-0.392-1.154-0.394-1.626-0.001
		c-2.561,2.129-10.309,8.984-10.309,14.105c0,3.654,1.774,6.896,4.476,8.92v4.952h-6.939v-1.791c1.781-1.08,2.995-3.052,2.995-5.307
		c0-2.85-4.313-6.664-5.738-7.849c-0.263-0.218-0.646-0.217-0.909,0.001c-1.426,1.186-5.737,4.999-5.737,7.848
		c0,2.254,1.222,4.227,3.003,5.307v1.781C2.351,29.762,1,31.158,1,32.865v10.538c0,1.779,1.451,3.207,3.229,3.207h4.938v-6.58
		c0-1.854,1.524-3.356,3.378-3.356s3.377,1.503,3.377,3.356v6.58h16.15v-6.58c0-1.854,1.493-3.357,3.347-3.357
		c1.854,0,3.347,1.503,3.347,3.357v6.58h4.966c1.778,0,3.202-1.428,3.202-3.207V32.865C46.934,31.158,45.645,29.762,43.925,29.652z"
		/>
</g>
</svg>
