<?xml version="1.0" encoding="utf-8"?>
<!-- Generator: Adobe Illustrator 16.0.0, SVG Export Plug-In . SVG Version: 6.00 Build 0)  -->
<!DOCTYPE svg PUBLIC "-//W3C//DTD SVG 1.1//EN" "http://www.w3.org/Graphics/SVG/1.1/DTD/svg11.dtd">
<svg version="1.1" id="Layer_1" xmlns="http://www.w3.org/2000/svg" xmlns:xlink="http://www.w3.org/1999/xlink" x="0px" y="0px"
	 width="48px" height="48px" viewBox="0 0 48 48" enable-background="new 0 0 48 48" xml:space="preserve">
<g>
	<path d="M46.457,15.071L40.983,1.857c-0.158-0.382-0.531-0.63-0.943-0.63c-0.413,0-0.786,0.249-0.944,0.63l-5.474,13.214
		c-0.131,0.316-0.096,0.674,0.094,0.958c0.189,0.284,0.508,0.453,0.849,0.453h1.14v9.834c-2.02-4.173-6.322-6.996-11.264-6.996
		c-4.939,0-9.21,2.821-11.261,6.992v-9.83h1.162c0.341,0,0.66-0.169,0.85-0.453c0.19-0.284,0.226-0.642,0.095-0.958L9.813,1.857
		c-0.158-0.382-0.53-0.63-0.944-0.63s-0.786,0.249-0.944,0.63L2.452,15.071c-0.131,0.316-0.096,0.674,0.094,0.958
		c0.189,0.284,0.508,0.453,0.85,0.453h1.163v28.039c0,1.244,1.008,2.252,2.252,2.252h12.971v-7.167c0-2.566,2.093-4.647,4.66-4.647
		c2.566,0,4.66,2.081,4.66,4.647v7.167h13.048c1.244,0,2.252-1.008,2.252-2.252V16.482h1.109c0.34,0,0.659-0.169,0.849-0.453
		C46.552,15.745,46.587,15.387,46.457,15.071z"/>
</g>
</svg>
