<?xml version="1.0" encoding="utf-8"?>
<!-- Generator: Adobe Illustrator 16.0.0, SVG Export Plug-In . SVG Version: 6.00 Build 0)  -->
<!DOCTYPE svg PUBLIC "-//W3C//DTD SVG 1.1//EN" "http://www.w3.org/Graphics/SVG/1.1/DTD/svg11.dtd">
<svg version="1.1" id="Layer_1" xmlns="http://www.w3.org/2000/svg" xmlns:xlink="http://www.w3.org/1999/xlink" x="0px" y="0px"
	 width="48px" height="48px" viewBox="0 0 48 48" enable-background="new 0 0 48 48" xml:space="preserve">
<g>
	<path d="M44.903,22.113c-0.675-0.361-1.482-0.322-2.12,0.104l-11.145,7.437v-5.709c0-0.766-0.428-1.47-1.104-1.831
		c-0.675-0.361-1.497-0.321-2.135,0.104l-11.461,7.638V13.856c0-0.425-0.326-0.802-0.75-0.802H2.777
		c-0.424,0-0.769,0.377-0.769,0.802v32.347c0,0.424,0.345,0.764,0.769,0.764H45.24c0.424,0,0.751-0.34,0.751-0.764v-22.26
		C45.991,23.178,45.579,22.474,44.903,22.113z M26.778,37.398c0,0.299-0.243,0.542-0.543,0.542h-3.776
		c-0.3,0-0.542-0.243-0.542-0.542V33.62c0-0.299,0.242-0.542,0.542-0.542h3.776c0.3,0,0.543,0.243,0.543,0.542V37.398z
		 M40.897,37.398c0,0.299-0.241,0.542-0.541,0.542h-3.777c-0.299,0-0.542-0.243-0.542-0.542V33.62c0-0.299,0.243-0.542,0.542-0.542
		h3.777c0.3,0,0.541,0.243,0.541,0.542V37.398z"/>
	<path d="M2.777,10.045h13.412c0.424,0,0.75-0.292,0.75-0.716V3.205c0-1.147-0.911-2.072-2.059-2.072H4.086
		c-1.147,0-2.077,0.925-2.077,2.072v6.125C2.009,9.753,2.354,10.045,2.777,10.045z"/>
</g>
</svg>
