<?xml version="1.0" encoding="utf-8"?>
<!-- Generator: Adobe Illustrator 16.0.0, SVG Export Plug-In . SVG Version: 6.00 Build 0)  -->
<!DOCTYPE svg PUBLIC "-//W3C//DTD SVG 1.1//EN" "http://www.w3.org/Graphics/SVG/1.1/DTD/svg11.dtd">
<svg version="1.1" xmlns="http://www.w3.org/2000/svg" xmlns:xlink="http://www.w3.org/1999/xlink" x="0px" y="0px" width="48px"
	 height="48px" viewBox="0 0 48 48" enable-background="new 0 0 48 48" xml:space="preserve">
<g id="Layer_2" display="none">
	<g display="inline" opacity="0.5">
		<rect x="-5" y="-1" fill="#00E00B" width="104" height="51"/>
		<polygon fill="#DD5E00" points="99,-1 99,49 -5,49 -5,98 198,98 198,49 501,49 501,-1 		"/>
	</g>
</g>
<g id="Layer_1">
	<path d="M46.362,2.973c0-0.408-0.248-0.775-0.627-0.926c-0.379-0.15-0.812-0.056-1.093,0.241l-6.057,6.414H8.944L2.887,2.288
		C2.606,1.991,2.177,1.896,1.798,2.046C1.418,2.198,1.174,2.565,1.174,2.973v5.73v0.472c0,2.453,1.979,4.436,4.432,4.436h3.42
		l-0.715,7.866H4.032c-0.551,0-1.017,0.446-1.017,0.996v2.92c0,0.55,0.466,0.993,1.017,0.993h3.833L6.177,44.953
		c-0.025,0.279,0.068,0.547,0.257,0.754s0.456,0.316,0.736,0.316h4.876c0.516,0,0.946-0.386,0.993-0.899l1.704-18.738h18.044
		l1.704,18.738c0.046,0.514,0.477,0.899,0.993,0.899h4.876c0.28,0,0.547-0.108,0.736-0.315s0.282-0.481,0.256-0.76l-1.688-18.562
		h3.832c0.551,0,1.024-0.443,1.024-0.993v-2.92c0-0.55-0.473-0.996-1.024-0.996h-4.279l-0.714-7.866h3.42
		c2.453,0,4.438-1.983,4.438-4.436V8.703V2.973z M15.904,13.611h5.911v7.866h-6.626L15.904,13.611z M25.721,21.477v-7.866h5.905
		l0.715,7.866H25.721z"/>
</g>
</svg>
