<?xml version="1.0" encoding="utf-8"?>
<!-- Generator: Adobe Illustrator 16.0.0, SVG Export Plug-In . SVG Version: 6.00 Build 0)  -->
<!DOCTYPE svg PUBLIC "-//W3C//DTD SVG 1.1//EN" "http://www.w3.org/Graphics/SVG/1.1/DTD/svg11.dtd">
<svg version="1.1" id="Layer_1" xmlns="http://www.w3.org/2000/svg" xmlns:xlink="http://www.w3.org/1999/xlink" x="0px" y="0px"
	 width="48px" height="48px" viewBox="0 0 48 48" enable-background="new 0 0 48 48" xml:space="preserve">
<path d="M44.843,27.369l-5.994-5.995c-0.131-0.131-0.311-0.206-0.496-0.206c-0.187,0-0.365,0.074-0.496,0.206l-5.995,5.994
	c-0.61,0.611-0.792,1.545-0.462,2.343c0.331,0.797,1.108,1.334,1.972,1.334h1.021c-0.935,3.011-3.152,5.565-6.029,6.887
	l-1.469-25.716c1.671-1.053,2.783-2.918,2.783-5.04c0-3.286-2.663-5.951-5.949-5.951c-3.284,0-5.949,2.663-5.949,5.948
	c0,2.122,1.112,3.981,2.783,5.034l-1.469,25.725c-2.876-1.322-5.094-3.875-6.029-6.887h1.021c0.863,0,1.642-0.537,1.972-1.334
	c0.331-0.798,0.148-1.724-0.462-2.335l-5.994-5.997c-0.131-0.132-0.311-0.208-0.496-0.208c-0.187,0-0.365,0.072-0.497,0.204
	l-5.995,5.994c-0.61,0.611-0.793,1.545-0.462,2.342c0.331,0.797,1.108,1.334,1.972,1.334h0.806
	c1.549,8.93,9.375,15.853,18.798,15.853c9.423,0,17.25-6.923,18.799-15.853h0.806c0.863,0,1.642-0.537,1.972-1.334
	C45.637,28.914,45.454,27.98,44.843,27.369z"/>
</svg>
