<?xml version="1.0" encoding="utf-8"?>
<!-- Generator: Adobe Illustrator 16.0.0, SVG Export Plug-In . SVG Version: 6.00 Build 0)  -->
<!DOCTYPE svg PUBLIC "-//W3C//DTD SVG 1.1//EN" "http://www.w3.org/Graphics/SVG/1.1/DTD/svg11.dtd">
<svg version="1.1" xmlns="http://www.w3.org/2000/svg" xmlns:xlink="http://www.w3.org/1999/xlink" x="0px" y="0px" width="48px"
	 height="48px" viewBox="0 0 48 48" enable-background="new 0 0 48 48" xml:space="preserve">
<g id="Layer_2" display="none">
	<g display="inline" opacity="0.5">
		<polygon fill="#DD5E00" points="-251,-1 -251,49 -355,49 -355,98 -152,98 -152,49 151,49 151,-1 		"/>
	</g>
</g>
<g id="Layer_1">
	<g>
		<path d="M44,34H15.863c-1.202,0-2.375-0.76-2.983-1.926L6.114,18.976c-0.76-1.472-2.567-2.049-4.042-1.289
			c-1.472,0.761-2.049,2.57-1.288,4.042l6.771,13.108c1.035,1.984,2.723,3.52,4.686,4.383l-3.353,2.884
			c-1.046,0.9-1.165,2.479-0.265,3.525c0.495,0.575,1.193,0.87,1.896,0.87c0.577,0,1.157-0.199,1.63-0.605L19.002,40h15.75
			l6.853,5.895c0.473,0.406,1.053,0.605,1.63,0.605c0.703,0,1.401-0.295,1.896-0.87c0.9-1.046,0.781-2.625-0.265-3.525L42.42,40H44
			c1.657,0,3-1.343,3-3S45.657,34,44,34z"/>
		<path d="M14.146,31.665c0.349,0.647,1.024,1.176,1.759,1.177l25.51,0.002c0.001,0,0.002,0,0.003,0c1.104,0,1.999-0.862,2-1.966
			c0.001-1.104-0.893-2.063-1.997-2.065L17.104,28.75l-4.175-7.775c-0.523-0.973-1.738-1.347-2.709-0.821
			c-0.973,0.523-1.337,1.732-0.814,2.705L14.146,31.665z"/>
		<path d="M43.298,14.186l3.401-1.866c0.273-0.15,0.443-0.438,0.442-0.75c0-0.312-0.171-0.599-0.444-0.749l-3.405-1.857
			c0.313,0.815,0.491,1.695,0.491,2.619C43.783,12.501,43.606,13.375,43.298,14.186z"/>
		<path d="M39.044,4.727l-1.866-3.4c-0.15-0.273-0.438-0.443-0.75-0.443c-0.312,0-0.599,0.171-0.748,0.445l-1.855,3.403
			c0.814-0.313,1.694-0.491,2.617-0.491C37.358,4.242,38.233,4.418,39.044,4.727z"/>
		<path d="M33.839,18.44l1.865,3.4c0.149,0.273,0.437,0.444,0.749,0.443s0.6-0.171,0.749-0.445l1.857-3.405
			c-0.814,0.313-1.694,0.491-2.618,0.491C35.524,18.925,34.649,18.749,33.839,18.44z"/>
		<path d="M26.186,12.344l3.405,1.857c-0.313-0.814-0.491-1.695-0.491-2.618c0-0.917,0.177-1.792,0.484-2.601l-3.4,1.864
			c-0.273,0.15-0.443,0.438-0.443,0.75S25.911,12.195,26.186,12.344z"/>
		<circle cx="36.441" cy="11.583" r="4.89"/>
	</g>
</g>
</svg>
