<?xml version="1.0" encoding="utf-8"?>
<!-- Generator: Adobe Illustrator 16.0.0, SVG Export Plug-In . SVG Version: 6.00 Build 0)  -->
<!DOCTYPE svg PUBLIC "-//W3C//DTD SVG 1.1//EN" "http://www.w3.org/Graphics/SVG/1.1/DTD/svg11.dtd">
<svg version="1.1" id="Layer_1" xmlns="http://www.w3.org/2000/svg" xmlns:xlink="http://www.w3.org/1999/xlink" x="0px" y="0px"
	 width="48px" height="48px" viewBox="0 0 48 48" enable-background="new 0 0 48 48" xml:space="preserve">
<path d="M45.243,33.909h-6.185L28.983,12.937c-0.157-0.326-0.522-0.492-0.875-0.412c-0.353,0.081-0.607,0.403-0.607,0.765v20.62
	h-2.004V2.863c0-0.83-0.64-1.504-1.47-1.504s-1.469,0.674-1.469,1.504v31.046h-2.004V4.402c0-0.556-0.421-1.036-0.965-1.152
	c-0.544-0.115-1.11,0.149-1.337,0.657L4.895,33.909H2.758c-1.004,0-1.817,0.844-1.817,1.847C0.94,41.95,5.963,47,12.157,47h23.686
	c6.195,0,11.217-5.05,11.217-11.244C47.06,34.753,46.246,33.909,45.243,33.909z"/>
</svg>
