<?xml version="1.0" encoding="utf-8"?>
<!-- Generator: Adobe Illustrator 16.0.0, SVG Export Plug-In . SVG Version: 6.00 Build 0)  -->
<!DOCTYPE svg PUBLIC "-//W3C//DTD SVG 1.1//EN" "http://www.w3.org/Graphics/SVG/1.1/DTD/svg11.dtd">
<svg version="1.1" id="Layer_1" xmlns="http://www.w3.org/2000/svg" xmlns:xlink="http://www.w3.org/1999/xlink" x="0px" y="0px"
	 width="48px" height="48px" viewBox="0 0 48 48" enable-background="new 0 0 48 48" xml:space="preserve">
<g>
	<path d="M23.702,12.769c-6.237,0-11.311,5.075-11.311,11.312s5.074,11.311,11.311,11.311s11.311-5.074,11.311-11.311
		S29.938,12.769,23.702,12.769z"/>
	<g>
		<g>
			<path d="M23.702,9.444c-1.219,0-2.207-0.988-2.207-2.206V3.707c0-1.219,0.988-2.207,2.207-2.207s2.207,0.988,2.207,2.207v3.531
				C25.909,8.456,24.92,9.444,23.702,9.444z"/>
		</g>
		<g>
			<path d="M23.702,38.715c-1.219,0-2.207,0.988-2.207,2.207v3.53c0,1.22,0.988,2.208,2.207,2.208s2.207-0.988,2.207-2.208v-3.53
				C25.909,39.703,24.92,38.715,23.702,38.715z"/>
		</g>
		<g>
			<path d="M34.05,13.731c-0.862-0.862-0.862-2.259,0-3.121l2.497-2.497c0.861-0.861,2.259-0.861,3.121,0
				c0.862,0.862,0.862,2.26,0,3.121l-2.497,2.497C36.309,14.593,34.913,14.593,34.05,13.731z"/>
		</g>
		<g>
			<path d="M13.353,34.429c-0.862-0.862-2.259-0.862-3.121,0l-2.497,2.497c-0.861,0.861-0.862,2.259,0,3.121
				c0.862,0.861,2.26,0.861,3.121,0l2.497-2.498C14.215,36.688,14.215,35.29,13.353,34.429z"/>
		</g>
		<g>
			<path d="M38.337,24.08c0-1.219,0.988-2.207,2.207-2.207h3.531c1.219,0,2.207,0.988,2.207,2.207s-0.988,2.206-2.207,2.206h-3.531
				C39.325,26.286,38.337,25.299,38.337,24.08z"/>
		</g>
		<g>
			<path d="M9.066,24.08c0-1.219-0.988-2.207-2.207-2.207H3.329c-1.219,0-2.207,0.988-2.207,2.207s0.988,2.206,2.207,2.206h3.531
				C8.078,26.286,9.066,25.299,9.066,24.08z"/>
		</g>
		<g>
			<path d="M34.05,34.43c0.862-0.862,2.259-0.862,3.121,0l2.497,2.497c0.862,0.86,0.862,2.259,0,3.12s-2.259,0.861-3.121,0
				L34.05,37.55C33.188,36.688,33.188,35.291,34.05,34.43z"/>
		</g>
		<g>
			<path d="M13.353,13.731c0.862-0.862,0.862-2.259,0-3.121l-2.497-2.496c-0.862-0.862-2.259-0.862-3.121,0
				c-0.862,0.861-0.862,2.259,0,3.12l2.497,2.497C11.094,14.594,12.491,14.594,13.353,13.731z"/>
		</g>
	</g>
</g>
</svg>
