<?xml version="1.0" encoding="utf-8"?>
<!-- Generator: Adobe Illustrator 16.0.0, SVG Export Plug-In . SVG Version: 6.00 Build 0)  -->
<!DOCTYPE svg PUBLIC "-//W3C//DTD SVG 1.1//EN" "http://www.w3.org/Graphics/SVG/1.1/DTD/svg11.dtd">
<svg version="1.1" id="Layer_1" xmlns="http://www.w3.org/2000/svg" xmlns:xlink="http://www.w3.org/1999/xlink" x="0px" y="0px"
	 width="48px" height="48px" viewBox="0 0 48 48" enable-background="new 0 0 48 48" xml:space="preserve">
<path d="M31.53,28.779V9.168c0-4.394-3.53-7.959-7.886-8.109h-0.15c-4.356,0.15-7.885,3.716-7.885,8.109v19.424
	c-1.753,1.906-2.823,4.449-2.823,7.242c0,5.908,4.79,10.698,10.699,10.698c5.91,0,10.7-4.79,10.7-10.698
	C34.186,33.13,33.183,30.662,31.53,28.779z M23.569,4.979c2.232,0,3.981,1.937,3.981,4.188v12.018h-7.962v-2.93h3.027
	c0.814,0,1.475-0.65,1.475-1.464c0-0.814-0.66-1.465-1.475-1.465h-3.027v-3.004h3.027c0.814,0,1.475-0.65,1.475-1.464
	c0-0.814-0.66-1.466-1.475-1.466h-3.027V9.168C19.589,6.916,21.338,4.979,23.569,4.979z"/>
</svg>
