<?xml version="1.0" encoding="utf-8"?>
<!-- Generator: Adobe Illustrator 16.0.0, SVG Export Plug-In . SVG Version: 6.00 Build 0)  -->
<!DOCTYPE svg PUBLIC "-//W3C//DTD SVG 1.1//EN" "http://www.w3.org/Graphics/SVG/1.1/DTD/svg11.dtd">
<svg version="1.1" id="Layer_1" xmlns="http://www.w3.org/2000/svg" xmlns:xlink="http://www.w3.org/1999/xlink" x="0px" y="0px"
	 width="48px" height="48px" viewBox="0 0 48 48" enable-background="new 0 0 48 48" xml:space="preserve">
<g>
	<path d="M3.107,13.083h14.036c1.016,1.087,2.397,1.833,3.931,2.08v9.656c0,1.69-1.34,2.461-2.577,2.461
		c-0.747,0-1.439-0.274-1.94-0.772c-0.602-0.597-0.921-1.505-0.921-2.625c0-0.567-0.46-1.025-1.026-1.025
		c-0.566,0-1.026,0.458-1.026,1.025c0,2.121,0.829,3.391,1.524,4.08c0.888,0.883,2.096,1.368,3.387,1.368
		c2.238,0,4.625-1.581,4.625-4.512v-9.633c1.598-0.22,2.996-0.953,4.05-2.104h17.56c1.132,0,2.051-0.913,2.051-2.045
		c0-1.133-0.918-2.046-2.051-2.046h-15.7c0.019-0.191,0.029-0.418,0.029-0.629c0-3.807-3.089-6.895-6.896-6.895
		c-3.807,0-6.884,3.089-6.884,6.896c0,0.211,0.01,0.437,0.028,0.628H3.107c-1.133,0-2.051,0.913-2.051,2.046
		C1.057,12.17,1.975,13.083,3.107,13.083z"/>
	<path d="M44.681,15.575H28.275c-1.133,0-2.051,0.913-2.051,2.046c0,1.132,0.918,2.045,2.051,2.045h16.406
		c1.132,0,2.051-0.913,2.051-2.045C46.732,16.488,45.813,15.575,44.681,15.575z"/>
	<path d="M17.318,17.621c0-1.133-0.918-2.046-2.051-2.046H2.962c-1.133,0-2.051,0.913-2.051,2.046c0,1.132,0.918,2.045,2.051,2.045
		h12.305C16.399,19.666,17.318,18.753,17.318,17.621z"/>
	<path d="M29.642,32.123c-5.228,0-11.423,0.994-15.353,2.507c-1.135,0.437-2.38,0.495-3.553,0.173L7.201,33.83
		c-1.542-0.424-3.063,0.736-3.063,2.335v3.802c0,1.628,1.574,2.792,3.131,2.315l3.809-1.168c1.185-0.362,2.457-0.34,3.622,0.082
		c2.604,0.942,6.083,1.666,9.604,2.05l-0.56,1.603c-0.25,0.719,0.283,1.47,1.044,1.47h1.034c1.051,0,2.035-0.516,2.634-1.379
		l0.964-1.391c0.074,0.001,0.149,0.001,0.223,0.001c8.388,0,13.913-3.384,13.913-5.713C43.554,35.208,38.029,32.123,29.642,32.123z
		 M37.611,38.593c-0.654,0-1.185-0.53-1.185-1.186c0-0.654,0.53-1.185,1.185-1.185c0.655,0,1.185,0.53,1.185,1.185
		C38.796,38.063,38.266,38.593,37.611,38.593z"/>
</g>
</svg>
