<?xml version="1.0" encoding="utf-8"?>
<!-- Generator: Adobe Illustrator 16.0.0, SVG Export Plug-In . SVG Version: 6.00 Build 0)  -->
<!DOCTYPE svg PUBLIC "-//W3C//DTD SVG 1.1//EN" "http://www.w3.org/Graphics/SVG/1.1/DTD/svg11.dtd">
<svg version="1.1" xmlns="http://www.w3.org/2000/svg" xmlns:xlink="http://www.w3.org/1999/xlink" x="0px" y="0px" width="48px"
	 height="48px" viewBox="0 0 48 48" enable-background="new 0 0 48 48" xml:space="preserve">
<g id="Layer_2" display="none">
	<g display="inline" opacity="0.5">
		<rect x="-55" y="-51" fill="#00E00B" width="104" height="51"/>
		<polygon fill="#0034DB" points="148,-1 148,49 -56,49 -56,101 451,101 451,51.5 451,48.5 451,-1 		"/>
		<polygon fill="#DD5E00" points="49,-51 49,-1 -55,-1 -55,48 148,48 148,-1 451,-1 451,-51 		"/>
	</g>
</g>
<g id="Layer_1">
	<g>
		<g>
			<path d="M15.283,2.792c-4.933,0-7.182,3.679-7.784,8.575L1.648,43.454c-0.076,0.623,0.206,1.234,0.729,1.581
				c0.276,0.183,0.594,0.274,0.913,0.274c0.285,0,0.57-0.073,0.826-0.221l1.806-1.042c0.791-0.456,1.671-0.684,2.551-0.683
				c0.952,0,1.903,0.266,2.737,0.795l3.172,2.015c0.271,0.172,0.579,0.258,0.887,0.258c0.316,0,0.631-0.09,0.906-0.27l2.994-1.961
				c0.847-0.556,1.821-0.835,2.798-0.835c0.86,0,1.721,0.217,2.499,0.653l2.007,1.127c0.252,0.142,0.531,0.212,0.809,0.212
				c0.322,0,0.644-0.094,0.921-0.28c0.519-0.347,0.797-0.957,0.72-1.575l-5.857-32.134C22.464,6.471,20.216,2.792,15.283,2.792z
				 M15.293,22.852c-3.496,0-4.419-3.828-4.419-8.55c0-4.722,0.923-8.549,4.419-8.549c3.495,0,4.419,3.827,4.419,8.549
				C19.712,19.024,18.789,22.852,15.293,22.852z"/>
		</g>
		<path d="M40.494,11.366c-0.602-4.896-2.85-8.575-7.782-8.575c-4.35,0-6.611,2.862-7.498,6.895
			c0.083,0.427,0.155,0.865,0.212,1.319l5.866,32.204c0.103,0.833-0.061,1.649-0.432,2.36l0.95,0.604
			c0.271,0.172,0.579,0.258,0.887,0.258c0.315,0,0.631-0.09,0.906-0.27l2.993-1.961c0.847-0.555,1.822-0.835,2.798-0.835
			c0.859,0,1.721,0.217,2.499,0.653l2.006,1.127c0.252,0.142,0.531,0.212,0.81,0.212c0.322,0,0.644-0.094,0.921-0.28
			c0.519-0.347,0.797-0.957,0.72-1.575L40.494,11.366z M32.722,22.851c-3.496,0-4.419-3.828-4.419-8.55
			c0-4.722,0.923-8.549,4.419-8.549c3.495,0,4.419,3.827,4.419,8.549C37.141,19.023,36.217,22.851,32.722,22.851z"/>
	</g>
</g>
</svg>
