<?xml version="1.0" encoding="utf-8"?>
<!-- Generator: Adobe Illustrator 16.0.0, SVG Export Plug-In . SVG Version: 6.00 Build 0)  -->
<!DOCTYPE svg PUBLIC "-//W3C//DTD SVG 1.1//EN" "http://www.w3.org/Graphics/SVG/1.1/DTD/svg11.dtd">
<svg version="1.1" id="Layer_1" xmlns="http://www.w3.org/2000/svg" xmlns:xlink="http://www.w3.org/1999/xlink" x="0px" y="0px"
	 width="48px" height="48px" viewBox="0 0 48 48" enable-background="new 0 0 48 48" xml:space="preserve">
<g>
	<path d="M8.097,33.263v4.772c0,4.943,4.021,8.965,8.965,8.965h6.035c1.657,0,3-1.343,3-3s-1.343-3-3-3h-6.035
		c-1.635,0-2.965-1.33-2.965-2.965v-4.336c-0.693,0.118-1.396,0.199-2.116,0.199C10.623,33.898,9.319,33.67,8.097,33.263z"/>
	<path d="M14.097,9.039V4c0-1.657-1.343-3-3-3s-3,1.343-3,3v5.736c1.262-0.441,2.604-0.693,3.994-0.693L14.097,9.039z"/>
	<path d="M36.02,12l-23.923,0.043c-5,0-9.49,4.234-9.49,9.433c0,5.199,4.176,9.423,9.374,9.423c3.065,0,5.767-1.461,7.483-3.728
		C20.497,25.807,22.097,25,23.809,25h0.022c1.836,0,3.57,0.847,4.701,2.294c1.722,2.201,4.398,3.616,7.409,3.616
		c5.198,0,9.452-4.257,9.452-9.455S41.218,12,36.02,12z"/>
</g>
</svg>
