<?xml version="1.0" encoding="utf-8"?>
<!-- Generator: Adobe Illustrator 16.0.0, SVG Export Plug-In . SVG Version: 6.00 Build 0)  -->
<!DOCTYPE svg PUBLIC "-//W3C//DTD SVG 1.1//EN" "http://www.w3.org/Graphics/SVG/1.1/DTD/svg11.dtd">
<svg version="1.1" xmlns="http://www.w3.org/2000/svg" xmlns:xlink="http://www.w3.org/1999/xlink" x="0px" y="0px" width="48px"
	 height="48px" viewBox="0 0 48 48" enable-background="new 0 0 48 48" xml:space="preserve">
<g id="Layer_2" display="none">
	<g display="inline" opacity="0.5">
		<polygon fill="#0034DB" points="98,-1 98,49 -106,49 -106,101 401,101 401,51.5 401,48.5 401,-1 		"/>
		<polygon fill="#DD5E00" points="-1,-51 -1,-1 -105,-1 -105,48 98,48 98,-1 401,-1 401,-51 		"/>
	</g>
</g>
<g id="Layer_1">
	<g>
		<path d="M46.035,44.597l-0.21-4.832H29.867c-0.08,0.853-0.809,1.522-1.695,1.522h-5.306c-0.888,0-1.616-0.669-1.695-1.522H5.212
			l-0.21,4.824c-0.025,0.592,0.191,1.186,0.602,1.612c0.409,0.428,0.976,0.687,1.568,0.687h36.693c0.592,0,1.159-0.257,1.568-0.685
			C45.843,45.776,46.06,45.189,46.035,44.597z"/>
		<path d="M22.865,34.166h5.306c0.888,0,1.616,0.73,1.695,1.582h15.782l-0.351-8.096H29.867c-0.08,0.851-0.809,1.522-1.695,1.522
			h-5.306c-0.888,0-1.616-0.671-1.695-1.522H5.739l-0.351,8.096H21.17C21.25,34.896,21.978,34.166,22.865,34.166z"/>
		<path d="M22.865,22.05h5.306c0.888,0,1.616,0.669,1.695,1.583h15.255l-0.16-3.7c-0.034-0.804-0.512-1.53-1.239-1.875
			c-4.024-1.909-6.808-6.02-6.808-10.77c0-1.342,0.222-2.633,0.631-3.837c0.226-0.664,0.118-1.404-0.29-1.975
			c-0.409-0.569-1.065-0.917-1.766-0.917h-0.502c-1.012,0-1.892,0.709-2.117,1.697c-0.765,3.361-3.767,5.859-7.353,5.859
			c-3.586,0-6.588-2.501-7.353-5.861c-0.226-0.99-1.103-1.695-2.118-1.695h-0.501c-0.701,0-1.358,0.347-1.767,0.917
			c-0.407,0.57-0.516,1.306-0.29,1.969c0.41,1.205,0.631,2.498,0.631,3.84c0,4.75-2.784,8.859-6.807,10.768
			c-0.728,0.345-1.205,1.075-1.24,1.88l-0.16,3.701H21.17C21.25,22.719,21.978,22.05,22.865,22.05z"/>
	</g>
</g>
</svg>
