<?xml version="1.0" encoding="utf-8"?>
<!-- Generator: Adobe Illustrator 16.0.0, SVG Export Plug-In . SVG Version: 6.00 Build 0)  -->
<!DOCTYPE svg PUBLIC "-//W3C//DTD SVG 1.1//EN" "http://www.w3.org/Graphics/SVG/1.1/DTD/svg11.dtd">
<svg version="1.1" xmlns="http://www.w3.org/2000/svg" xmlns:xlink="http://www.w3.org/1999/xlink" x="0px" y="0px" width="48px"
	 height="48px" viewBox="0 0 48 48" enable-background="new 0 0 48 48" xml:space="preserve">
<g id="Layer_2" display="none">
	<g display="inline" opacity="0.5">
		<polygon fill="#DD5E00" points="-301,-1 -301,49 -405,49 -405,98 -202,98 -202,49 101,49 101,-1 		"/>
	</g>
</g>
<g id="Layer_1">
	<g>
		<path d="M44.668,12.459c0.695-0.858,0.563-2.118-0.294-2.813l-9.766-7.919c-1.055-0.854-2.461-1.146-3.769-0.779
			c-1.307,0.367-2.357,1.305-2.812,2.583L25.355,11H10.994c-1.151,0-2.263,0.525-3.052,1.364c-0.788,0.84-1.198,2.002-1.126,3.149
			l1.727,27.596C8.681,45.31,10.516,47,12.721,47h14.893c2.205,0,4.04-1.679,4.178-3.88l1.727-27.605
			c0.072-1.148-0.338-2.278-1.127-3.118c-0.729-0.776-1.739-1.222-2.798-1.287l2.205-6.199c0.02-0.056,0.066-0.098,0.124-0.114
			c0.056-0.017,0.12-0.002,0.167,0.035l9.766,7.919C42.714,13.448,43.972,13.316,44.668,12.459z M16.292,25.938
			c0-1.137,0.925-2.063,2.063-2.063c0.911,0,1.677,0.598,1.949,1.419L20.053,26h-3.755C16.298,25.979,16.292,25.959,16.292,25.938z
			 M21.126,22.938c-0.728-0.682-1.698-1.086-2.771-1.086c-2.24,0-4.063,1.833-4.063,4.074c0,0.021,0.006,0.052,0.006,0.074h-2.819
			l-0.29-4.638C11.816,21.761,12.557,22,13.354,22c2.24,0,4.063-1.867,4.063-4.107c0-1.109-0.449-1.893-1.172-2.893h7.688
			L21.126,22.938z M15.417,17.938c0,1.137-0.925,2.063-2.063,2.063s-2.063-0.925-2.063-2.063s0.925-2.063,2.063-2.063
			S15.417,16.8,15.417,17.938z M29.34,15c0.052,0,0.102,0.066,0.136,0.103c0.035,0.037,0.053,0.11,0.05,0.162L28.855,26h-4.557
			l3.88-11H29.34z"/>
		<path d="M18.354,10c2.24,0,4.063-1.822,4.063-4.063s-1.822-4.063-4.063-4.063s-4.063,1.822-4.063,4.063S16.114,10,18.354,10z
			 M18.354,3.875c1.138,0,2.063,0.925,2.063,2.063S19.492,8,18.354,8s-2.063-0.925-2.063-2.063S17.217,3.875,18.354,3.875z"/>
	</g>
</g>
</svg>
