<?xml version="1.0" encoding="utf-8"?>
<!-- Generator: Adobe Illustrator 16.0.0, SVG Export Plug-In . SVG Version: 6.00 Build 0)  -->
<!DOCTYPE svg PUBLIC "-//W3C//DTD SVG 1.1//EN" "http://www.w3.org/Graphics/SVG/1.1/DTD/svg11.dtd">
<svg version="1.1" id="Layer_1" xmlns="http://www.w3.org/2000/svg" xmlns:xlink="http://www.w3.org/1999/xlink" x="0px" y="0px"
	 width="48px" height="48px" viewBox="0 0 48 48" enable-background="new 0 0 48 48" xml:space="preserve">
<g>
	<path d="M46.74,32.627L29.596,20.493c-0.358-0.254-0.859-0.059-0.952,0.37l-1.469,6.829l-9.055,4.896
		c-0.559,0.302-0.344,1.15,0.291,1.15h3.929v4.141h-3.579c-1.072,0-1.941,0.869-1.941,1.941V47h2.46v-6.237
		c0-0.201,0.163-0.363,0.363-0.363h2.697V47h22.083V33.738h1.963C46.983,33.738,47.228,32.972,46.74,32.627z M39.458,40.399h-3.81
		c-0.323,0-0.585-0.263-0.585-0.586v-3.029c0-0.323,0.262-0.586,0.585-0.586h3.81c0.323,0,0.585,0.263,0.585,0.586v3.029
		C40.042,40.137,39.781,40.399,39.458,40.399z"/>
	<path d="M5.674,8.146c1.885-0.394,3.968-0.012,5.936,1.552c0.912,0.725,1.582,1.53,2.043,2.378
		c-0.591-0.671-1.412-1.146-2.363-1.288c-1.458-0.219-2.906,0.497-3.783,1.683c-0.352,0.475-0.553,0.949-0.651,1.416
		c-0.067,0.318,0.307,0.561,0.563,0.36c0.879-0.684,2.05-1.046,3.483-0.844c1.177,0.166,2.08,0.648,2.729,1.314
		C13.528,14.806,2.633,27.073,2.078,47h6.697c-0.585-21.974,7.052-30.523,7.058-30.554h0c0.733,0.485,1.353,1.228,1.754,2.27
		c0.522,1.354,0.432,2.581-0.04,3.595c-0.136,0.291,0.182,0.597,0.473,0.462c0.436-0.202,0.856-0.507,1.243-0.96
		c0.956-1.123,1.327-2.695,0.783-4.065c-0.354-0.895-1.001-1.587-1.789-2.011c0.93,0.258,1.866,0.729,2.778,1.453
		c1.937,1.539,2.784,3.444,2.85,5.341c0.013,0.356,0.449,0.514,0.678,0.24c0.63-0.754,1.105-1.712,1.276-2.986
		c0.297-2.212-0.466-4.505-2.225-5.879c-0.569-0.445-1.192-0.774-1.84-0.993c0.065,0.006,0.129,0.013,0.195,0.021
		c2.366,0.276,4.052,1.374,5.117,2.862c0.248,0.347,0.812,0.198,0.853-0.226c0.081-0.827-0.017-1.719-0.401-2.687
		c-0.891-2.24-2.855-3.913-5.257-4.116c-0.863-0.072-1.701,0.036-2.477,0.294c0.076-0.813-0.007-1.653-0.272-2.476
		c-0.739-2.294-2.813-3.831-5.196-4.193c-1.058-0.161-1.969-0.045-2.772,0.237c-0.379,0.133-0.397,0.685-0.025,0.836
		c1.716,0.691,3.192,2.093,4.005,4.361c0.022,0.063,0.043,0.124,0.063,0.186c-0.359-0.582-0.821-1.114-1.383-1.568
		c-1.736-1.402-4.142-1.628-6.229-0.839c-1.24,0.469-2.08,1.176-2.676,1.991C5.129,7.858,5.355,8.213,5.674,8.146z"/>
</g>
</svg>
