<?xml version="1.0" encoding="utf-8"?>
<!-- Generator: Adobe Illustrator 18.0.0, SVG Export Plug-In . SVG Version: 6.00 Build 0)  -->
<!DOCTYPE svg PUBLIC "-//W3C//DTD SVG 1.1//EN" "http://www.w3.org/Graphics/SVG/1.1/DTD/svg11.dtd">
<svg version="1.1" id="Capa_1" xmlns="http://www.w3.org/2000/svg" xmlns:xlink="http://www.w3.org/1999/xlink" x="0px" y="0px"
	 viewBox="0 0 100 100" enable-background="new 0 0 100 100" xml:space="preserve">
<g>
	<path d="M78.8,12.4h-3.2c-1.8,0-3.3,1.4-3.3,3.2v4.6h-7.5v-4.6c0-1.8-1.4-3.2-3.2-3.2h-3.2c-1.8,0-3.3,1.4-3.3,3.2v4.6H47v-4.6
		c0-1.8-1.4-3.2-3.2-3.2h-3.4c-1.8,0-3.3,1.4-3.3,3.2v4.6H29v-4.6c0-1.8-1.4-3.2-3.2-3.2h-3.2c-1.8,0-3.3,1.4-3.3,3.2v4.6h-7.5v-4.6
		c0-1.8-1.4-3.2-3.2-3.2H5.5c-1.8,0-3.3,1.4-3.3,3.2V38c0,1.8,1.5,3.2,3.3,3.2h4.9l0,41.6c0,1.8,1.5,3.2,3.3,3.2H56
		c-0.2-0.7-0.2-1.4,0-2.1l5.8-17.4c2.2-6.5,5.6-10.6,11.9-11.3l0-14h5c1.8,0,3.2-1.4,3.2-3.2V15.6C82,13.8,80.6,12.4,78.8,12.4z
		 M22.7,80c-2.8,0-5.1-2.3-5.1-5.1c0-2.8,2.3-5.1,5.1-5.1s5.1,2.3,5.1,5.1C27.7,77.8,25.5,80,22.7,80z M19.6,65.6
		c-1.9,0-3.4-1.5-3.4-3.4c0-1.9,1.5-3.4,3.4-3.4s3.4,1.5,3.4,3.4C23,64,21.5,65.6,19.6,65.6z"/>
	<path d="M95.5,29.7c-1.7-0.6-3.6,0.4-4.2,2.1L81.9,60c-6.5-0.6-12.7,3.3-14.9,9.7l-4.9,14.7c-0.4,1.2,0,2.5,1,3.2c0,0,0,0,0,0
		c0.3-0.2,13.5-12.9,27.5-3.7c0.6,0.4,1.1,0.7,1.6,1.1l2.1-6.2c2.1-6.4-0.5-13.3-6-16.7L97.6,34C98.2,32.2,97.2,30.3,95.5,29.7z"/>
</g>
</svg>
