<?xml version="1.0" encoding="utf-8"?>
<!-- Generator: Adobe Illustrator 16.0.0, SVG Export Plug-In . SVG Version: 6.00 Build 0)  -->
<!DOCTYPE svg PUBLIC "-//W3C//DTD SVG 1.1//EN" "http://www.w3.org/Graphics/SVG/1.1/DTD/svg11.dtd">
<svg version="1.1" xmlns="http://www.w3.org/2000/svg" xmlns:xlink="http://www.w3.org/1999/xlink" x="0px" y="0px" width="48px"
	 height="48px" viewBox="0 0 48 48" enable-background="new 0 0 48 48" xml:space="preserve">
<g id="Layer_2" display="none">
	<g display="inline" opacity="0.5">
		<polygon fill="#DD5E00" points="-101,-1 -101,49 -205,49 -205,98 -2,98 -2,49 301,49 301,-1 		"/>
	</g>
</g>
<g id="Layer_1">
	<g>
		<path d="M31.206,21.205c0-1.132-0.914-2.078-2.046-2.078H3.183c-1.133,0-2.062,0.946-2.062,2.078v2.734
			c0,1.133,0.929,2.069,2.062,2.069h1.025l2.168,17.335c0.129,1.026,1.001,1.788,2.036,1.788h15.52c1.034,0,1.907-0.761,2.035-1.788
			l2.168-17.335h1.024c1.133,0,2.046-0.936,2.046-2.069V21.205z"/>
		<path d="M12.071,10.42c0.211-0.356,0.585-0.575,0.999-0.593c0.404-0.009,0.805,0.173,1.047,0.51l1.913,2.652
			c1.183,1.639,3.215,2.387,5.179,1.906l0.795-0.195c0.598-0.146,1.22,0.168,1.438,0.746l0.451,1.184h3.965l-0.943-2.494
			c-0.882-2.332-3.373-3.638-5.793-3.045l-0.797,0.198c-0.483,0.119-0.99-0.064-1.284-0.472l-1.914-2.651
			c-0.977-1.353-2.558-2.106-4.223-2.041c-1.667,0.074-3.17,0.965-4.022,2.4l-4.818,8.104h4.314L12.071,10.42z"/>
		<path d="M40.682,25.816V8.105c0-1.096-0.895-1.984-1.991-1.984c-1.095,0-1.99,0.889-1.99,1.984v17.711
			c-3.768,0.894-6.581,4.28-6.581,8.32V43.4c0,0.956,0.79,1.731,1.746,1.731H45.51c0.956,0,1.753-0.775,1.753-1.731v-9.265
			C47.263,30.096,44.451,26.711,40.682,25.816z"/>
	</g>
</g>
</svg>
