<?xml version="1.0" encoding="utf-8"?>
<!-- Generator: Adobe Illustrator 16.0.0, SVG Export Plug-In . SVG Version: 6.00 Build 0)  -->
<!DOCTYPE svg PUBLIC "-//W3C//DTD SVG 1.1//EN" "http://www.w3.org/Graphics/SVG/1.1/DTD/svg11.dtd">
<svg version="1.1" id="Layer_1" xmlns="http://www.w3.org/2000/svg" xmlns:xlink="http://www.w3.org/1999/xlink" x="0px" y="0px"
	 width="48px" height="48px" viewBox="0 0 48 48" enable-background="new 0 0 48 48" xml:space="preserve">
<path d="M45.813,40.5c-0.422-0.372-0.987-0.545-1.545-0.475c-2.085,0.263-5.375,0.566-8.666,0.417
	c-2.252-0.103-4.298-0.548-6.232-1.16l-6.915-19.796c6.59-2.123,12.114-2.978,15.205-3.316c0.644-0.071,1.209-0.453,1.515-1.023
	c0.305-0.57,0.309-1.254,0.01-1.828C34.972,5.206,25.688,0.935,16.732,3.109l-0.166-0.475c-0.172-0.491-0.531-0.894-0.998-1.119
	C15.1,1.29,14.562,1.259,14.07,1.431l-0.032,0.011c-1.021,0.357-1.56,1.474-1.203,2.496L13,4.411
	C4.659,8.272,0.054,17.351,1.764,26.298c0.123,0.641,0.557,1.179,1.156,1.435c0.601,0.256,1.289,0.197,1.836-0.159
	c2.469-1.605,7.044-4.215,13.965-6.789l5.814,16.648c-4.698-1.991-9.192-4.075-15.127-3.17c-3.793,0.579-6.785,3.565-7.916,4.849
	C1.179,39.471,1,39.93,1,40.407v4.253c0,1.082,0.886,1.959,1.968,1.959h41.548c1.082,0,1.968-0.877,1.968-1.959v-2.691
	C46.483,41.407,46.234,40.872,45.813,40.5z"/>
</svg>
