<?xml version="1.0" encoding="utf-8"?>
<!-- Generator: Adobe Illustrator 16.0.0, SVG Export Plug-In . SVG Version: 6.00 Build 0)  -->
<!DOCTYPE svg PUBLIC "-//W3C//DTD SVG 1.1//EN" "http://www.w3.org/Graphics/SVG/1.1/DTD/svg11.dtd">
<svg version="1.1" xmlns="http://www.w3.org/2000/svg" xmlns:xlink="http://www.w3.org/1999/xlink" x="0px" y="0px" width="48px"
	 height="48px" viewBox="0 0 48 48" enable-background="new 0 0 48 48" xml:space="preserve">
<g id="Layer_2" display="none">
	<g display="inline" opacity="0.5">
		<polygon fill="#DD5E00" points="-51,-1 -51,49 -155,49 -155,98 48,98 48,49 351,49 351,-1 		"/>
	</g>
</g>
<g id="Layer_1">
	<path d="M35.778,15.129C35.778,7.52,29.609,1.33,22,1.33S8.222,7.52,8.222,15.129v16.664c0,2.768,2.228,4.997,4.996,4.997h4.939
		v6.061c0,2.109,1.733,3.819,3.843,3.819s3.843-1.71,3.843-3.819V36.79h4.932c2.769,0,5.003-2.229,5.003-4.997V15.129z
		 M30.775,32.892H13.218c-0.594,0-1.098-0.505-1.098-1.099V16.096h1.009c1.293,0,2.347,0.788,3.208,1.754
		c1.638,1.839,3.095,1.15,4.299-0.689c1.416-2.163,2.696-2.418,4.257-1.006c1.725,1.561,5.103,6.653,6.988,3.779v11.859
		C31.88,32.387,31.369,32.892,30.775,32.892z"/>
</g>
</svg>
