<?xml version="1.0" encoding="utf-8"?>
<!-- Generator: Adobe Illustrator 16.0.0, SVG Export Plug-In . SVG Version: 6.00 Build 0)  -->
<!DOCTYPE svg PUBLIC "-//W3C//DTD SVG 1.1//EN" "http://www.w3.org/Graphics/SVG/1.1/DTD/svg11.dtd">
<svg version="1.1" xmlns="http://www.w3.org/2000/svg" xmlns:xlink="http://www.w3.org/1999/xlink" x="0px" y="0px" width="48px"
	 height="48px" viewBox="0 0 48 48" enable-background="new 0 0 48 48" xml:space="preserve">
<g id="Layer_2" display="none">
	<g display="inline" opacity="0.5">
		<polygon fill="#DD5E00" points="-201,-1 -201,49 -305,49 -305,98 -102,98 -102,49 201,49 201,-1 		"/>
	</g>
</g>
<g id="Layer_1">
	<g>
		<path d="M12.076,41.024L11.865,42.6c-0.184,1.369,0.777,2.626,2.146,2.81c0.112,0.015,0.225,0.022,0.335,0.022
			c1.233,0,2.307-0.913,2.475-2.168l0.319-2.381c-0.933,0.229-1.893,0.357-2.868,0.357C13.528,41.24,12.796,41.158,12.076,41.024z"
			/>
		<path d="M44.428,14c-0.007,0-0.016,0-0.022,0l-1.587-0.051c0.099,1.698-0.156,3.374-0.766,4.975l2.397-0.038
			c1.381-0.013,2.49-1.085,2.478-2.466C46.915,15.047,45.798,14,44.428,14z"/>
		<path d="M35.176,5.875c-0.288-0.327-0.631-0.571-0.993-0.769l0.775-0.685c0.49-0.433,0.536-1.182,0.103-1.672
			c-0.432-0.49-1.181-0.538-1.671-0.104L21.944,12.682c-1.42,1.254-1.614,3.369-0.524,4.873l-2.263,1.997l-0.79,0.698
			c-0.694-0.649-1.581-0.999-2.482-0.999c-0.859,0-1.723,0.301-2.415,0.913L1.979,30.313c-0.511,0.451-0.559,1.23-0.107,1.741
			c0.243,0.276,0.582,0.417,0.925,0.417c0.29,0,0.581-0.102,0.815-0.309l0.84-0.741c0.15,0.366,0.347,0.717,0.623,1.03l2.417,2.737
			c1.783,2.02,4.276,3.052,6.78,3.052c2.127,0,4.262-0.744,5.978-2.259c3.483-3.074,4.025-8.254,1.412-11.969l0.833-0.736
			l2.25-1.986c1.706,1.55,3.888,2.339,6.077,2.339c2.127,0,4.262-0.745,5.978-2.259c3.736-3.299,4.092-9.022,0.794-12.758
			L35.176,5.875z M18.034,23.548l0.742,0.841l-2.77,11.122c-0.33,0.09-0.662,0.156-1,0.194L18.034,23.548z M15.887,21.721
			c0.177,0,0.349,0.046,0.51,0.124l-3.435,13.792c-0.297-0.06-0.589-0.145-0.877-0.246l3.385-13.593
			C15.604,21.748,15.745,21.721,15.887,21.721z M9.344,33.552l-2.417-2.737c-0.432-0.489-0.386-1.237,0.104-1.668l5.83-5.148
			l-2.592,10.409C9.94,34.155,9.628,33.874,9.344,33.552z M18.613,34.128c-0.451,0.398-0.951,0.698-1.468,0.951l2.426-9.743
			C21.547,28.042,21.174,31.868,18.613,34.128z M32.293,7.135c0.049-0.006,0.095-0.025,0.144-0.025c0.265,0,0.517,0.111,0.73,0.285
			l-3.404,13.67c-0.3-0.048-0.597-0.112-0.888-0.202L32.293,7.135z M34.787,9.167l0.742,0.841l-2.693,10.815
			c-0.333,0.107-0.67,0.194-1.013,0.247L34.787,9.167z M25.893,18.941l-2.417-2.737c-0.431-0.489-0.385-1.238,0.104-1.669
			l6.165-5.443l-2.706,10.871C26.626,19.672,26.24,19.334,25.893,18.941z M35.163,19.517c-0.365,0.323-0.763,0.582-1.172,0.809
			l2.319-9.317C38.063,13.693,37.637,17.334,35.163,19.517z"/>
	</g>
</g>
</svg>
