<?xml version="1.0" encoding="utf-8"?>
<!-- Generator: Adobe Illustrator 16.0.0, SVG Export Plug-In . SVG Version: 6.00 Build 0)  -->
<!DOCTYPE svg PUBLIC "-//W3C//DTD SVG 1.1//EN" "http://www.w3.org/Graphics/SVG/1.1/DTD/svg11.dtd">
<svg version="1.1" id="Layer_1" xmlns="http://www.w3.org/2000/svg" xmlns:xlink="http://www.w3.org/1999/xlink" x="0px" y="0px"
	 width="48px" height="48px" viewBox="0 0 48 48" enable-background="new 0 0 48 48" xml:space="preserve">
<g>
	<g>
		<path d="M14.795,17.266c-0.717-2.029-1.565-3.99-2.367-5.093V2.661C12.428,1.744,11.685,1,10.767,1S9.105,1.744,9.105,2.661v9.512
			c-0.802,1.104-1.635,3.064-2.353,5.093H14.795z"/>
		<path d="M4.677,42.695c1.432,2.341,3.627,4.123,6.033,4.353h0.113c2.521-0.229,4.616-2.012,6.048-4.353H4.677z"/>
		<path d="M18.269,31.928H3.279c-0.294,2.062-0.453,3.674-0.453,4.63c0,0.685,0.082,1.44,0.237,2.128h15.423
			c0.153-0.688,0.236-1.443,0.236-2.128C18.723,35.602,18.563,33.99,18.269,31.928z"/>
		<path d="M17.59,27.918c-0.418-2.176-0.94-4.467-1.547-6.758H5.507c-0.607,2.292-1.13,4.582-1.549,6.758H17.59z"/>
	</g>
	<path d="M44.694,35.83l-3.784-4.325c-0.348-0.398-0.842-0.643-1.368-0.676c-0.541-0.049-1.051,0.14-1.45,0.491l-4.366,3.825
		c-0.828,0.726-0.913,1.988-0.186,2.817c0.724,0.829,1.985,0.913,2.817,0.185l0.98-0.859c-0.421,2.771-2.607,5.849-4.917,5.849
		c-2.57,0-4.357-3.188-4.99-6.774c-0.998-5.651,1.012-13.003,3.735-17.347h1.737c1.913,0,3.465-1.551,3.465-3.465V4.465
		C36.368,2.551,34.816,1,32.903,1h-0.859c-1.913,0-3.465,1.551-3.465,3.465v11.076c-3.97,4.742-5.682,13.854-5.148,20.822
		c0.48,6.277,3.929,10.767,8.987,10.767c4.516,0,8.13-4.614,8.853-9.146l0.418,0.478c0.396,0.45,0.949,0.681,1.504,0.681
		c0.466,0,0.935-0.164,1.314-0.495C45.336,37.922,45.42,36.66,44.694,35.83z"/>
</g>
</svg>
