<?xml version="1.0" encoding="utf-8"?>
<!-- Generator: Adobe Illustrator 16.0.0, SVG Export Plug-In . SVG Version: 6.00 Build 0)  -->
<!DOCTYPE svg PUBLIC "-//W3C//DTD SVG 1.1//EN" "http://www.w3.org/Graphics/SVG/1.1/DTD/svg11.dtd">
<svg version="1.1" xmlns="http://www.w3.org/2000/svg" xmlns:xlink="http://www.w3.org/1999/xlink" x="0px" y="0px" width="48px"
	 height="48px" viewBox="0 0 48 48" enable-background="new 0 0 48 48" xml:space="preserve">
<g id="Layer_2" display="none">
	<g display="inline" opacity="0.5">
		<polygon fill="#DD5E00" points="-351,-1 -351,49 -455,49 -455,98 -252,98 -252,49 51,49 51,-1 		"/>
	</g>
</g>
<g id="Layer_1">
	<g>
		<ellipse transform="matrix(0.5781 0.816 -0.816 0.5781 30.3629 -24.1204)" cx="38.505" cy="17.3" rx="6.388" ry="6.416"/>
		<path d="M3.774,22.951c0.631,0.536,1.401,0.797,2.169,0.797c0.951,0,1.895-0.402,2.559-1.183l4.68-5.514l4.567,2.081L5.164,27.977
			c-0.226,0.159-0.322,0.45-0.239,0.713c0.083,0.263,0.326,0.447,0.603,0.447h29.616c0.348,0,0.629-0.285,0.632-0.632
			c0.012-1.437-0.406-2.891-1.287-4.135c0,0-3.084-4.376-4.126-5.825c-0.894-1.244-1.828-1.862-2.653-2.245
			c-3.128-1.452-12.555-5.719-12.555-5.719c-2.247-1.016-4.928-0.41-6.524,1.471l-5.241,6.173
			C2.19,19.636,2.363,21.752,3.774,22.951z"/>
		<path d="M43.944,31.652H4.181c-1.059,0-1.916,0.856-1.916,1.915c0,1.058,0.857,1.914,1.916,1.914h39.764
			c1.059,0,1.916-0.856,1.916-1.914C45.86,32.508,45.003,31.652,43.944,31.652z"/>
	</g>
</g>
</svg>
