<?xml version="1.0" encoding="utf-8"?>
<!-- Generator: Adobe Illustrator 16.0.0, SVG Export Plug-In . SVG Version: 6.00 Build 0)  -->
<!DOCTYPE svg PUBLIC "-//W3C//DTD SVG 1.1//EN" "http://www.w3.org/Graphics/SVG/1.1/DTD/svg11.dtd">
<svg version="1.1" xmlns="http://www.w3.org/2000/svg" xmlns:xlink="http://www.w3.org/1999/xlink" x="0px" y="0px" width="48px"
	 height="48px" viewBox="0 0 48 48" enable-background="new 0 0 48 48" xml:space="preserve">
<g id="Layer_2" display="none">
	<g display="inline" opacity="0.5">
		<polygon fill="#DD5E00" points="-1,-1 -1,49 -105,49 -105,98 98,98 98,49 401,49 401,-1 		"/>
	</g>
</g>
<g id="Layer_1">
	<g>
		<path d="M21.619,24.409c0.097-0.097,0.186-0.204,0.267-0.306h4.156c0.081,0.102,0.169,0.208,0.267,0.306
			c2.639,2.639,6.918,2.639,9.558,0c2.64-2.639,2.65-6.919,0.011-9.558c-0.456-0.456-1.042-0.735-1.6-0.838V3.105
			c0-0.609-0.508-1.104-1.118-1.104c-0.609,0-1.117,0.494-1.117,1.104v11.374c-0.153,0.107-0.307,0.23-0.447,0.371l-5.288,5.279
			c-0.222,0.222-0.401,0.469-0.54,0.723H22.16c-0.139-0.254-0.319-0.501-0.541-0.723l-5.286-5.284
			c-0.14-0.141-0.294-0.258-0.446-0.365V3.105c0-0.609-0.508-1.104-1.118-1.104s-1.118,0.494-1.118,1.104v10.907
			c-0.559,0.103-1.145,0.382-1.601,0.837c-2.639,2.64-2.634,6.919,0.005,9.559S18.979,27.048,21.619,24.409z"/>
		<path d="M34.692,31.876H13.26c-1.096,0-1.996,0.885-1.996,1.981v1.16c0,0.961,0.693,1.78,1.639,1.95
			c3.753,0.676,6.721,3.644,7.397,7.396C20.47,45.306,21.294,46,22.253,46h3.46c0.961,0,1.78-0.692,1.95-1.638
			c0.674-3.751,3.626-6.713,7.376-7.391c0.943-0.17,1.626-0.994,1.626-1.953v-1.161C36.666,32.761,35.788,31.876,34.692,31.876z"/>
	</g>
</g>
</svg>
