<?xml version="1.0" encoding="utf-8"?>
<!-- Generator: Adobe Illustrator 16.0.0, SVG Export Plug-In . SVG Version: 6.00 Build 0)  -->
<!DOCTYPE svg PUBLIC "-//W3C//DTD SVG 1.1//EN" "http://www.w3.org/Graphics/SVG/1.1/DTD/svg11.dtd">
<svg version="1.1" id="Layer_1" xmlns="http://www.w3.org/2000/svg" xmlns:xlink="http://www.w3.org/1999/xlink" x="0px" y="0px"
	 width="48px" height="48px" viewBox="0 0 48 48" enable-background="new 0 0 48 48" xml:space="preserve">
<path d="M42.949,45.105c-2.73-3.229-7.619-5.692-13.529-6.697c-0.578-3.461-1.611-5.078-1.637-5.123
	c0.45-0.211,0.993-0.283,1.613-0.145c0.756,0.17,1.273,0.571,1.585,1.079c0.091,0.148,0.323,0.098,0.35-0.074
	c0.039-0.252,0.027-0.528-0.059-0.832c-0.216-0.759-0.806-1.39-1.577-1.556c-0.503-0.107-1.003-0.024-1.425,0.2
	c0.391-0.338,0.878-0.614,1.471-0.806c1.28-0.411,2.395-0.21,3.264,0.343c0.147,0.093,0.327-0.042,0.28-0.21
	c-0.145-0.52-0.432-1.032-0.964-1.501c-0.896-0.788-2.143-1.129-3.276-0.754c-0.366,0.121-0.698,0.3-0.987,0.524
	c0.021-0.027,0.044-0.055,0.066-0.081c0.835-0.982,1.838-1.405,2.827-1.429c0.215-0.005,0.31-0.284,0.146-0.423
	c-0.35-0.292-0.783-0.522-1.343-0.641c-1.262-0.269-2.59,0.109-3.392,1.119c-0.288,0.361-0.488,0.767-0.604,1.188
	c-0.34-0.275-0.739-0.488-1.185-0.614c-1.24-0.351-2.539,0.116-3.407,1.069c-0.375,0.412-0.592,0.84-0.707,1.269
	c-0.06,0.221,0.194,0.4,0.385,0.274c0.813-0.544,1.864-0.776,3.101-0.469c0.034,0.009,0.067,0.018,0.101,0.027
	c-0.365-0.014-0.739,0.034-1.108,0.149c-1.139,0.356-1.953,1.36-2.222,2.523c-0.154,0.67-0.098,1.239,0.076,1.735
	c0.063,0.18,0.311,0.184,0.385,0.008c0.391-0.937,1.174-1.731,2.434-2.136c0.593-0.191,1.15-0.25,1.664-0.204
	c-0.474,0.064-0.929,0.288-1.274,0.669c-0.53,0.584-0.641,1.44-0.374,2.183c0.107,0.3,0.261,0.532,0.441,0.715
	c0.12,0.123,0.336,0.029,0.323-0.142c-0.045-0.597,0.142-1.217,0.658-1.797c0.397-0.445,0.848-0.731,1.306-0.795l0,0
	c-0.001,0,0.725,1.783,0.826,4.357c-1.209-0.124-2.451-0.194-3.719-0.194c-3.105,0-6.058,0.387-8.73,1.088
	c0.554-12.073,7.984-20.071,7.993-20.111v-0.001c0.915,0.605,1.688,1.532,2.189,2.833c0.651,1.69,0.539,3.221-0.05,4.485
	c-0.169,0.363,0.227,0.745,0.591,0.576c0.544-0.252,1.069-0.632,1.551-1.198c1.193-1.401,1.656-3.363,0.979-5.073
	c-0.442-1.116-1.251-1.98-2.232-2.51c1.16,0.322,2.329,0.909,3.467,1.813c2.418,1.921,3.475,4.3,3.558,6.666
	c0.016,0.444,0.561,0.642,0.846,0.3c0.787-0.94,1.38-2.137,1.593-3.728c0.37-2.761-0.581-5.622-2.776-7.337
	c-0.71-0.556-1.487-0.967-2.297-1.239c0.081,0.008,0.161,0.016,0.243,0.025c2.953,0.345,5.058,1.715,6.386,3.572
	c0.31,0.433,1.013,0.248,1.064-0.281c0.102-1.032-0.021-2.146-0.501-3.353c-1.111-2.796-3.563-4.884-6.561-5.138
	c-1.076-0.091-2.123,0.045-3.091,0.366c0.095-1.015-0.01-2.063-0.341-3.089c-0.923-2.864-3.511-4.781-6.485-5.234
	c-1.319-0.2-2.458-0.056-3.46,0.296c-0.474,0.166-0.496,0.855-0.031,1.043c2.142,0.864,3.983,2.612,4.999,5.444
	c0.028,0.077,0.054,0.154,0.079,0.231c-0.448-0.727-1.024-1.392-1.726-1.957c-2.167-1.751-5.169-2.031-7.774-1.047
	c-1.548,0.584-2.596,1.467-3.339,2.484c-0.24,0.328,0.042,0.771,0.439,0.688c2.354-0.492,4.952-0.016,7.408,1.937
	c1.138,0.904,1.975,1.909,2.551,2.968c-0.738-0.838-1.763-1.43-2.95-1.608c-1.819-0.273-3.626,0.621-4.721,2.101
	c-0.439,0.592-0.689,1.185-0.813,1.768c-0.084,0.396,0.383,0.698,0.703,0.449c1.098-0.854,2.559-1.305,4.348-1.053
	c1.469,0.207,2.596,0.81,3.404,1.641c-0.144,0.123-9.108,6.811-14.981,27.292c-0.358,0.34-0.691,0.694-0.997,1.055
	c-0.603,0.709-0.094,1.807,0.837,1.807H42.1C43.017,46.889,43.542,45.807,42.949,45.105z"/>
</svg>
