<?xml version="1.0" encoding="utf-8"?>
<!-- Generator: Adobe Illustrator 16.0.0, SVG Export Plug-In . SVG Version: 6.00 Build 0)  -->
<!DOCTYPE svg PUBLIC "-//W3C//DTD SVG 1.1//EN" "http://www.w3.org/Graphics/SVG/1.1/DTD/svg11.dtd">
<svg version="1.1" id="Layer_1" xmlns="http://www.w3.org/2000/svg" xmlns:xlink="http://www.w3.org/1999/xlink" x="0px" y="0px"
	 width="48px" height="48px" viewBox="0 0 48 48" enable-background="new 0 0 48 48" xml:space="preserve">
<g>
	<path d="M24.162,4.8C21.978,1.038,14.233-2.31,8.016,6.682c-1.352,1.958-2.259,5.19-2.745,8.882l12.683-8.898
		c0.565-0.398,1.29-0.476,1.932-0.211c0.637,0.265,1.095,0.837,1.213,1.517l1.608,9.305c0.057-0.114,0.111-0.227,0.163-0.338
		C23.873,14.777,26.646,9.071,24.162,4.8z"/>
	<path d="M19.635,23.172l-1.821-10.533c-0.032-0.185-0.156-0.34-0.329-0.412c-0.173-0.07-0.369-0.05-0.521,0.058L4.865,20.771
		C4.684,27.16,5.573,33.784,7.427,37.168c2.769,5.057,7.199,5.993,10.273,1.96c1.47-1.927,1.498-4.796,1.299-6.553
		c-0.153-1.347-0.922-3.409-0.428-6.009C18.8,25.37,19.183,24.237,19.635,23.172z"/>
	<path d="M45.524,17.027C43.443,6.295,35.007,6.252,31.494,8.818c-3.99,2.914-3.743,9.254-3.691,11.635
		c0.002,0.123,0.008,0.248,0.013,0.375l5.213-7.875c0.381-0.574,1.029-0.916,1.72-0.901c0.692,0.016,1.326,0.378,1.685,0.97
		l8.038,13.243C45.508,22.688,45.977,19.363,45.524,17.027z"/>
	<path d="M34.626,18.303c-0.188-0.004-0.361,0.088-0.466,0.244l-5.899,8.914c-0.014,1.158-0.118,2.349-0.392,3.536
		c-0.59,2.58-2.122,4.158-2.805,5.332c-0.888,1.528-2.013,4.167-1.442,6.521c1.195,4.93,5.629,5.85,10.196,2.331
		c3.056-2.354,6.532-8.063,8.932-13.985l-7.667-12.632C34.984,18.405,34.813,18.307,34.626,18.303z"/>
</g>
</svg>
