<?xml version="1.0" encoding="utf-8"?>
<!-- Generator: Adobe Illustrator 16.0.0, SVG Export Plug-In . SVG Version: 6.00 Build 0)  -->
<!DOCTYPE svg PUBLIC "-//W3C//DTD SVG 1.1//EN" "http://www.w3.org/Graphics/SVG/1.1/DTD/svg11.dtd">
<svg version="1.1" xmlns="http://www.w3.org/2000/svg" xmlns:xlink="http://www.w3.org/1999/xlink" x="0px" y="0px" width="48px"
	 height="48px" viewBox="0 0 48 48" enable-background="new 0 0 48 48" xml:space="preserve">
<g id="Layer_2" display="none">
	<g display="inline" opacity="0.5">
		<polygon fill="#0034DB" points="48,-1 48,49 -156,49 -156,101 351,101 351,51.5 351,48.5 351,-1 		"/>
		<polygon fill="#DD5E00" points="-51,-51 -51,-1 -155,-1 -155,48 48,48 48,-1 351,-1 351,-51 		"/>
	</g>
</g>
<g id="Layer_1">
	<g>
		<path d="M24.258,29.987c8.82,0,15.982-7.151,15.982-15.972l0,0c0-1.106-0.909-2.016-2.015-2.016H10.289
			c-1.106,0-2.014,0.91-2.014,2.016l0,0C8.275,22.836,15.438,29.987,24.258,29.987z M30.433,14.104
			c0.992-0.622,3.902,2.239,4.524,3.232c0.621,0.992,0.32,2.299-0.672,2.921c-0.991,0.621-2.3,0.32-2.921-0.671
			C30.743,18.593,29.44,14.725,30.433,14.104z M24.258,16.492c1.17,0,2.119,3.97,2.119,5.141c0,1.171-0.949,2.119-2.119,2.119
			c-1.17,0-2.12-0.948-2.12-2.119C22.138,20.462,23.087,16.492,24.258,16.492z M13.558,17.335c0.622-0.993,3.533-3.854,4.524-3.232
			c0.993,0.621-0.311,4.489-0.932,5.481c-0.621,0.992-1.93,1.292-2.921,0.671C13.238,19.634,12.937,18.328,13.558,17.335z"/>
		<path d="M44.905,12.001c-1.112,0-2.014,0.902-2.014,2.014c0,10.275-8.358,18.633-18.633,18.633S5.625,24.291,5.625,14.016
			c0-1.112-0.902-2.014-2.015-2.014s-2.015,0.902-2.015,2.014c0,12.496,10.166,22.662,22.662,22.662
			c12.496,0,22.662-10.166,22.662-22.662C46.919,12.904,46.017,12.001,44.905,12.001z"/>
	</g>
</g>
</svg>
