<?xml version="1.0" encoding="utf-8"?>
<!-- Generator: Adobe Illustrator 16.0.0, SVG Export Plug-In . SVG Version: 6.00 Build 0)  -->
<!DOCTYPE svg PUBLIC "-//W3C//DTD SVG 1.1//EN" "http://www.w3.org/Graphics/SVG/1.1/DTD/svg11.dtd">
<svg version="1.1" id="Layer_1" xmlns="http://www.w3.org/2000/svg" xmlns:xlink="http://www.w3.org/1999/xlink" x="0px" y="0px"
	 width="48px" height="48px" viewBox="0 0 48 48" enable-background="new 0 0 48 48" xml:space="preserve">
<path d="M23.843,1.254C11.227,1.254,1,11.48,1,24.097c0,12.614,10.227,22.842,22.843,22.842s22.843-10.228,22.843-22.842
	C46.686,11.48,36.459,1.254,23.843,1.254z M23.843,4.982c1.675,0,3.032,1.355,3.032,3.03s-1.357,3.032-3.032,3.032
	s-3.032-1.357-3.032-3.032S22.168,4.982,23.843,4.982z M7.761,27.128c-1.674,0-3.031-1.356-3.033-3.031
	c0.002-1.675,1.359-3.033,3.033-3.033c1.675,0.001,3.031,1.358,3.031,3.033C10.792,25.771,9.436,27.128,7.761,27.128z
	 M23.843,43.209c-1.675,0-3.032-1.356-3.032-3.03c0-1.675,1.357-3.032,3.032-3.032s3.032,1.357,3.032,3.032
	C26.875,41.853,25.518,43.209,23.843,43.209z M34.689,14.486l-6.957,12.438c-0.248,0.444-0.615,0.811-1.06,1.06l-12.439,6.955
	c-0.354,0.2-0.798,0.138-1.085-0.149c-0.288-0.287-0.349-0.731-0.151-1.087l6.959-12.437c0.248-0.444,0.616-0.812,1.061-1.058
	l12.437-6.958c0.355-0.199,0.798-0.138,1.085,0.15C34.826,13.688,34.887,14.133,34.689,14.486z M39.926,27.128
	c-1.675,0-3.032-1.356-3.032-3.031s1.356-3.033,3.032-3.033c1.673,0.001,3.032,1.358,3.032,3.033
	C42.956,25.771,41.599,27.128,39.926,27.128z"/>
<circle cx="23.843" cy="24.097" r="3.032"/>
</svg>
