<?xml version="1.0" encoding="utf-8"?>
<!-- Generator: Adobe Illustrator 16.0.0, SVG Export Plug-In . SVG Version: 6.00 Build 0)  -->
<!DOCTYPE svg PUBLIC "-//W3C//DTD SVG 1.1//EN" "http://www.w3.org/Graphics/SVG/1.1/DTD/svg11.dtd">
<svg version="1.1" id="Layer_1" xmlns="http://www.w3.org/2000/svg" xmlns:xlink="http://www.w3.org/1999/xlink" x="0px" y="0px"
	 width="48px" height="48px" viewBox="0 0 48 48" enable-background="new 0 0 48 48" xml:space="preserve">
<g>
	<path d="M37.682,11.89c0.798-0.228,1.349-0.947,1.349-1.779c0-1.019-0.826-1.833-1.845-1.833h-7.91
		c0.75,1.546,1.53,3.388,2.286,5.369L37.682,11.89z"/>
	<path d="M10.051,11.889l6.119,1.76c0.756-1.981,1.537-3.826,2.286-5.372h-7.91c-1.019,0-1.845,0.811-1.845,1.83
		C8.702,10.938,9.253,11.661,10.051,11.889z"/>
	<path d="M46.425,22.422c-0.213-0.209-0.498-0.326-0.795-0.323l-13.258,0.089C30.548,16.099,27.762,8.829,25.88,6.26
		c-0.47-0.642-1.219-1.021-2.014-1.021c-0.795,0-1.544,0.379-2.013,1.021c-1.883,2.569-4.67,9.841-6.494,15.931L2.099,22.097
		c-0.298-0.002-0.57,0.115-0.782,0.324C1.105,22.631,1,22.916,1,23.213v0.678c0,1.098,0.601,2.104,1.578,2.606l11.062,5.684
		c0.738,5.37,5.035,11.289,10.23,11.289c5.204,0,9.506-5.938,10.234-11.313l11.09-5.652c0.96-0.507,1.557-1.505,1.557-2.591v-0.697
		C46.751,22.918,46.637,22.632,46.425,22.422z M29.124,32.7c-0.245,0.371-0.659,0.579-1.104,0.579h-8.299
		c-0.444,0-0.859-0.208-1.104-0.58c-0.244-0.371-0.286-0.833-0.111-1.241l1.175-2.734c0.208-0.486,0.686-0.794,1.215-0.794h5.95
		c0.528,0,1.007,0.312,1.215,0.798l1.175,2.732C29.411,31.869,29.369,32.329,29.124,32.7z"/>
</g>
</svg>
