<?xml version="1.0" encoding="utf-8"?>
<!-- Generator: Adobe Illustrator 16.0.0, SVG Export Plug-In . SVG Version: 6.00 Build 0)  -->
<!DOCTYPE svg PUBLIC "-//W3C//DTD SVG 1.1//EN" "http://www.w3.org/Graphics/SVG/1.1/DTD/svg11.dtd">
<svg version="1.1" id="Layer_1" xmlns="http://www.w3.org/2000/svg" xmlns:xlink="http://www.w3.org/1999/xlink" x="0px" y="0px"
	 width="48px" height="48px" viewBox="0 0 48 48" enable-background="new 0 0 48 48" xml:space="preserve">
<path d="M39.134,34.812c2.184-3.009,3.474-6.706,3.474-10.7s-1.29-7.693-3.474-10.702l1.555-1.556c1.128-1.127,1.128-2.957,0-4.085
	c-1.128-1.127-2.943-1.127-4.07,0l-1.56,1.563c-2.263-1.646-4.916-2.783-7.792-3.248V3.889C27.267,2.293,25.995,1,24.399,1
	c-1.595,0-2.867,1.293-2.867,2.889v2.179c-2.902,0.45-5.58,1.587-7.862,3.238l-1.543-1.537c-1.128-1.127-2.976-1.127-4.104,0
	c-1.128,1.128-1.138,2.958-0.009,4.085l1.549,1.55c-2.186,3.012-3.478,6.712-3.478,10.708c0,3.995,1.291,7.694,3.476,10.703
	l-1.554,1.554c-1.129,1.127-1.129,2.957-0.001,4.085c0.564,0.564,1.303,0.847,2.042,0.847c0.74,0,1.516-0.282,2.08-0.847
	l1.542-1.536c2.283,1.65,4.96,2.787,7.862,3.238v2.179c0,1.597,1.272,2.89,2.867,2.89c1.596,0,2.868-1.293,2.868-2.89v-2.195
	c2.876-0.465,5.529-1.604,7.792-3.247l1.56,1.562c0.563,0.564,1.295,0.847,2.034,0.847c0.74,0,1.476-0.282,2.039-0.847
	c1.128-1.128,1.127-2.958-0.002-4.085L39.134,34.812z M36.83,24.111c0,2.396-0.68,4.638-1.856,6.541l-3.515-3.514
	c0.397-0.931,0.618-1.953,0.618-3.027c0-1.073-0.22-2.097-0.618-3.026l3.515-3.515C36.149,19.473,36.83,21.714,36.83,24.111z
	 M28.224,24.111c0,2.142-1.736,3.879-3.878,3.879c-2.142,0-3.878-1.737-3.878-3.879c0-2.143,1.736-3.878,3.878-3.878
	C26.488,20.233,28.224,21.969,28.224,24.111z M30.903,13.495l-3.508,3.515c-0.042-0.019-0.085-0.037-0.128-0.054v-4.979
	C28.569,12.29,29.794,12.806,30.903,13.495z M21.532,11.952v4.962c-0.054,0.022-0.108,0.042-0.161,0.064l-3.53-3.518
	C18.967,12.772,20.21,12.258,21.532,11.952z M11.863,24.111c0-2.398,0.682-4.641,1.859-6.546l3.514,3.515
	c-0.399,0.932-0.62,1.955-0.62,3.031c0,1.075,0.221,2.1,0.619,3.03l-3.515,3.514C12.544,28.751,11.863,26.51,11.863,24.111z
	 M17.841,34.762l3.529-3.517c0.053,0.022,0.107,0.044,0.161,0.063v4.963C20.21,35.966,18.967,35.451,17.841,34.762z M27.267,36.246
	v-4.979c0.043-0.019,0.086-0.035,0.129-0.054l3.507,3.515C29.794,35.416,28.569,35.934,27.267,36.246z"/>
</svg>
