<?xml version="1.0" encoding="utf-8"?>
<!-- Generator: Adobe Illustrator 16.0.0, SVG Export Plug-In . SVG Version: 6.00 Build 0)  -->
<!DOCTYPE svg PUBLIC "-//W3C//DTD SVG 1.1//EN" "http://www.w3.org/Graphics/SVG/1.1/DTD/svg11.dtd">
<svg version="1.1" xmlns="http://www.w3.org/2000/svg" xmlns:xlink="http://www.w3.org/1999/xlink" x="0px" y="0px" width="48px"
	 height="48px" viewBox="0 0 48 48" enable-background="new 0 0 48 48" xml:space="preserve">
<g id="Layer_2" display="none">
	<g display="inline" opacity="0.5">
		<polygon fill="#00B7E8" points="-51,-3 -51,47 -353,47 -353,98 151,98 151,57.5 151,51.5 151,-3 		"/>
		<polygon fill="#E27600" points="-355,-52 -355,-3.087 -355,47 -51,47 -51,-2 151,-2 151,-52 		"/>
	</g>
</g>
<g id="Layer_1">
	<g>
		<path d="M43.81,5.33H10.494c-1.414,0-2.644,0.981-2.977,2.354L0.837,35.251c-0.221,0.913-0.012,1.891,0.568,2.629
			c0.581,0.737,1.468,1.183,2.407,1.183h1.882c0.069-3.896,3.261-7.044,7.173-7.044c3.911,0,7.103,3.147,7.173,7.044h7.782
			c0.07-3.896,3.262-7.044,7.174-7.044c3.911,0,7.103,3.147,7.173,7.044h1.641c1.69,0,3.087-1.392,3.087-3.082V8.42
			C46.896,6.729,45.5,5.33,43.81,5.33z M9.971,23.359c-0.511,0-0.995-0.218-1.315-0.616c-0.32-0.399-0.443-0.915-0.335-1.415
			l2.351-10.709c0.171-0.775,0.857-1.334,1.649-1.334h3.867v14.074H9.971z M19.212,23.359V9.285h10.062v14.074H19.212z
			 M42.884,21.698c0,0.933-0.731,1.661-1.664,1.661h-8.922V9.285h8.922c0.933,0,1.664,0.776,1.664,1.71V21.698z"/>
		<circle cx="12.867" cy="39.173" r="4.157"/>
		<circle cx="34.996" cy="39.173" r="4.157"/>
	</g>
</g>
</svg>
