<?xml version="1.0" encoding="utf-8"?>
<!-- Generator: Adobe Illustrator 16.0.0, SVG Export Plug-In . SVG Version: 6.00 Build 0)  -->
<!DOCTYPE svg PUBLIC "-//W3C//DTD SVG 1.1//EN" "http://www.w3.org/Graphics/SVG/1.1/DTD/svg11.dtd">
<svg version="1.1" xmlns="http://www.w3.org/2000/svg" xmlns:xlink="http://www.w3.org/1999/xlink" x="0px" y="0px" width="48px"
	 height="48px" viewBox="0 0 48 48" enable-background="new 0 0 48 48" xml:space="preserve">
<g id="Layer_2" display="none">
	<g display="inline" opacity="0.5">
		<polygon fill="#00B7E8" points="-1,-53 -1,-3 -303,-3 -303,48 201,48 201,7.5 201,1.5 201,-53 		"/>
	</g>
</g>
<g id="Layer_1">
	<path d="M40.832,32.482l-1.955-8.855c-0.001-0.005-0.002-0.01-0.003-0.015L35.228,7.098c-0.199-0.9-0.997-1.535-1.919-1.535H27.69
		c-1.085,0-1.965,0.879-1.965,1.964s0.88,1.964,1.965,1.964h4.04l3.156,14.295l-5.942,12.525l-11.461,0.034
		c-0.508-4.853-4.622-8.647-9.607-8.647c-0.813,0-1.474,0.66-1.474,1.474s0.66,1.474,1.474,1.474c3.361,0,6.152,2.481,6.638,5.709
		l-2.069,0.006c-0.814-2.278-2.995-3.913-5.551-3.913C3.645,32.446,1,35.089,1,38.339s2.645,5.894,5.894,5.894
		c2.566,0,4.754-1.648,5.562-3.943l17.74-0.056c0.757-0.002,1.444-0.439,1.769-1.122l4.304-9.074l0.737,3.339
		c-1.634,1.049-2.72,2.881-2.72,4.963c0,3.25,2.645,5.894,5.895,5.894s5.893-2.644,5.893-5.894
		C46.072,35.31,43.775,32.808,40.832,32.482z M6.894,41.285c-1.624,0-2.946-1.322-2.946-2.946s1.322-2.945,2.946-2.945
		c0.868,0,1.649,0.377,2.189,0.977l-1.212,0.004c-1.087,0.004-1.964,0.884-1.96,1.969C5.915,39.426,6.794,40.3,7.876,40.3
		c0.002,0,0.004,0,0.006,0l1.208-0.002C8.55,40.902,7.766,41.285,6.894,41.285z M40.18,41.285c-1.624,0-2.946-1.322-2.946-2.946
		c0-0.609,0.186-1.176,0.504-1.646l0.219,0.992c0.202,0.917,1.015,1.542,1.917,1.542c0.14,0,0.283-0.015,0.425-0.046
		c1.061-0.234,1.729-1.283,1.496-2.343l-0.244-1.106c0.936,0.494,1.575,1.477,1.575,2.606C43.125,39.963,41.804,41.285,40.18,41.285
		z"/>
</g>
</svg>
