<?xml version="1.0" encoding="utf-8"?>
<!-- Generator: Adobe Illustrator 16.0.0, SVG Export Plug-In . SVG Version: 6.00 Build 0)  -->
<!DOCTYPE svg PUBLIC "-//W3C//DTD SVG 1.1//EN" "http://www.w3.org/Graphics/SVG/1.1/DTD/svg11.dtd">
<svg version="1.1" xmlns="http://www.w3.org/2000/svg" xmlns:xlink="http://www.w3.org/1999/xlink" x="0px" y="0px" width="48px"
	 height="48px" viewBox="0 0 48 48" enable-background="new 0 0 48 48" xml:space="preserve">
<g id="Layer_2" display="none">
	<g display="inline" opacity="0.5">
		<polygon fill="#00B7E8" points="-151,-3 -151,47 -453,47 -453,98 51,98 51,57.5 51,51.5 51,-3 		"/>
		<polygon fill="#E27600" points="-455,-52 -455,-3.087 -455,47 -151,47 -151,-2 51,-2 51,-52 		"/>
	</g>
</g>
<g id="Layer_1">
	<path d="M45.803,9.792h-35.13c-0.662,0-1.198,0.54-1.198,1.201s0.536,1.2,1.198,1.2h16.368v3.206
		c-4.764,0.367-8.664,2.631-10.155,5.677l-6.43,0.643c-0.782-1.643-2.46-2.781-4.397-2.781c-2.684,0-4.867,2.183-4.867,4.865
		c0,2.684,2.183,4.867,4.867,4.867c1.938,0,3.615-1.139,4.397-2.782l6.428,0.643c1.264,2.58,4.27,4.594,8.043,5.374l3.342,3.6
		H17.886c-0.882,0-1.597,0.713-1.597,1.595s0.715,1.595,1.597,1.595h19.161c3.303,0,5.988-2.679,5.988-5.98
		c0-0.882-0.715-1.593-1.597-1.593s-1.597,0.711-1.597,1.593c0,1.541-1.254,2.791-2.795,2.791h-5.514l-3.018-3.25
		c6.664-0.043,12.052-3.81,12.052-8.453c0-4.429-4.902-8.059-11.124-8.424v-3.184h16.359c0.661,0,1.197-0.539,1.197-1.2
		S46.464,9.792,45.803,9.792z M6.059,26.274c-1.363,0-2.472-1.108-2.472-2.472c0-1.362,1.108-2.471,2.472-2.471
		c0.646,0,1.236,0.25,1.677,0.659l-0.563,0.056c-0.902,0.091-1.589,0.85-1.589,1.756c0,0.907,0.687,1.666,1.589,1.756l0.564,0.057
		C7.295,26.024,6.706,26.274,6.059,26.274z M38.631,23.504c0.029,0.188-0.025,0.374-0.149,0.518
		c-0.123,0.145-0.304,0.221-0.493,0.221h-7.97c-1.014,0-1.835-0.809-1.835-1.823v-4.792c0-0.178,0.072-0.348,0.201-0.47
		c0.129-0.124,0.302-0.188,0.479-0.18C33.973,17.223,38.082,19.992,38.631,23.504z"/>
</g>
</svg>
