<?xml version="1.0" encoding="utf-8"?>
<!-- Generator: Adobe Illustrator 16.0.0, SVG Export Plug-In . SVG Version: 6.00 Build 0)  -->
<!DOCTYPE svg PUBLIC "-//W3C//DTD SVG 1.1//EN" "http://www.w3.org/Graphics/SVG/1.1/DTD/svg11.dtd">
<svg version="1.1" xmlns="http://www.w3.org/2000/svg" xmlns:xlink="http://www.w3.org/1999/xlink" x="0px" y="0px" width="48px"
	 height="48px" viewBox="0 0 48 48" enable-background="new 0 0 48 48" xml:space="preserve">
<g id="Layer_2" display="none">
	<g display="inline" opacity="0.5">
		<polygon fill="#00B7E8" points="49,-53 49,-3 -253,-3 -253,48 251,48 251,7.5 251,1.5 251,-53 		"/>
	</g>
</g>
<g id="Layer_1">
	<g>
		<path d="M17.682,15.764h-2.671L5.01,14.045c-1.501-0.259-2.873,0.897-2.873,2.421v4.906h17.83v-3.323
			C19.967,16.787,18.943,15.764,17.682,15.764z"/>
		<path d="M1.025,28.039v0.055c0,3.046,2.99,5.5,6.68,5.5h32.521c3.689,0,6.671-2.454,6.671-5.5v-0.055H1.025z"/>
		<path d="M20.644,13.828c0.28,0,0.561-0.104,0.777-0.315l1.989-1.936l1.101,1.132l-2.561,2.279c-0.555,0.493-0.872,1.2-0.872,1.942
			v5.553H3.248v4.444h17.83h7.83h15.556v-2.049c0-5.025-5.189-9.115-11.275-9.115h-0.127l-4.557-4.564
			c-0.648-0.649-1.696-0.664-2.362-0.034l-0.013,0.012l-1.18-1.213c0.176-0.402,0.104-0.89-0.222-1.224
			c-0.338-0.347-0.846-0.427-1.263-0.236c-0.42-0.237-0.962-0.185-1.325,0.17c-0.346,0.337-0.426,0.844-0.236,1.26l-2.037,1.981
			c-0.441,0.429-0.451,1.135-0.022,1.575C20.063,13.715,20.354,13.828,20.644,13.828z"/>
	</g>
</g>
</svg>
