<?xml version="1.0" encoding="utf-8"?>
<!-- Generator: Adobe Illustrator 16.0.0, SVG Export Plug-In . SVG Version: 6.00 Build 0)  -->
<!DOCTYPE svg PUBLIC "-//W3C//DTD SVG 1.1//EN" "http://www.w3.org/Graphics/SVG/1.1/DTD/svg11.dtd">
<svg version="1.1" xmlns="http://www.w3.org/2000/svg" xmlns:xlink="http://www.w3.org/1999/xlink" x="0px" y="0px" width="48px"
	 height="48px" viewBox="0 0 48 48" enable-background="new 0 0 48 48" xml:space="preserve">
<g id="Layer_2" display="none">
	<g display="inline" opacity="0.5">
		<polygon fill="#00B7E8" points="149,-53 149,-3 -153,-3 -153,48 351,48 351,7.5 351,1.5 351,-53 		"/>
	</g>
</g>
<g id="Layer_1">
	<g>
		<path d="M41.162,25.034v-8.219c0-1.322-1.072-2.395-2.395-2.395s-2.395,1.072-2.395,2.395v8.143h-8.621v-4.073
			c0-4.093-3.33-7.422-7.422-7.422H2.847c-0.794,0-1.437,0.644-1.437,1.438c0,0.793,0.643,1.437,1.437,1.437H5.72v8.621l0,0v10.537
			H2.847c-0.794,0-1.437,0.644-1.437,1.437s0.643,1.437,1.437,1.437h2.829h34.529c3.703,0,6.705-3.002,6.705-6.705
			C46.91,28.286,44.411,25.5,41.162,25.034z M8.594,16.337H20.33c2.508,0,4.548,2.04,4.548,4.548v4.073H8.594V16.337z"/>
		<path d="M22.124,7.477c0.181,0,0.356-0.021,0.527-0.054c-0.022,0.156-0.048,0.313-0.048,0.475c0,1.819,1.475,3.294,3.295,3.294
			c0.936,0,1.775-0.394,2.375-1.02c-0.018,0.139-0.042,0.274-0.042,0.418c0,1.851,1.501,3.353,3.353,3.353
			c1.216,0,2.27-0.653,2.857-1.621c0.393,0.307,0.88,0.496,1.417,0.496c1.277,0,2.312-1.034,2.312-2.312
			c0-0.326-0.069-0.636-0.191-0.918c0.774-0.701,1.269-1.703,1.269-2.83c0-2.116-1.716-3.831-3.832-3.831
			c-0.87,0-1.663,0.301-2.306,0.789c-0.576-1.037-1.669-1.747-2.939-1.747c-0.868,0-1.652,0.337-2.25,0.875
			c-0.342-0.525-0.932-0.875-1.605-0.875c-0.865,0-1.587,0.577-1.826,1.364c-0.479-0.813-1.354-1.364-2.365-1.364
			c-1.521,0-2.754,1.232-2.754,2.754C19.37,6.243,20.603,7.477,22.124,7.477z"/>
		<circle cx="12.964" cy="42.858" r="3.173"/>
		<circle cx="21.585" cy="42.858" r="3.173"/>
		<circle cx="30.207" cy="42.858" r="3.173"/>
		<circle cx="38.827" cy="42.858" r="3.173"/>
	</g>
</g>
</svg>
