<?xml version="1.0" encoding="utf-8"?>
<!-- Generator: Adobe Illustrator 16.0.0, SVG Export Plug-In . SVG Version: 6.00 Build 0)  -->
<!DOCTYPE svg PUBLIC "-//W3C//DTD SVG 1.1//EN" "http://www.w3.org/Graphics/SVG/1.1/DTD/svg11.dtd">
<svg version="1.1" xmlns="http://www.w3.org/2000/svg" xmlns:xlink="http://www.w3.org/1999/xlink" x="0px" y="0px" width="48px"
	 height="48px" viewBox="0 0 48 48" enable-background="new 0 0 48 48" xml:space="preserve">
<g id="Layer_2" display="none">
	<g display="inline" opacity="0.5">
		<polygon fill="#00B7E8" points="-101,-53 -101,-3 -403,-3 -403,48 101,48 101,7.5 101,1.5 101,-53 		"/>
	</g>
</g>
<g id="Layer_1">
	<path d="M41.824,43.836l-6.653-12.208c1.878-0.333,3.29-1.96,3.29-3.938V9.735C38.461,4.906,34.568,1,29.74,1H18.296
		c-4.848,0-8.798,3.923-8.798,8.771v17.918c0,1.979,1.446,3.606,3.332,3.938L6.176,43.836c-0.524,0.961-0.17,2.165,0.791,2.688
		c0.302,0.165,0.627,0.242,0.947,0.242c0.702,0,1.383-0.383,1.742-1.043l0.561-1.037h27.566l0.561,1.037
		c0.359,0.66,1.04,1.038,1.742,1.038c0.32,0,0.646-0.075,0.946-0.239C41.994,45.999,42.349,44.797,41.824,43.836z M32.382,34.802
		H15.618l1.693-3.11h13.377L32.382,34.802z M32.117,28.057c-1.616,0-2.926-1.311-2.926-2.926c0-1.617,1.31-2.926,2.926-2.926
		s2.926,1.309,2.926,2.926C35.043,26.746,33.733,28.057,32.117,28.057z M13.023,10.904c0-3.05,2.479-5.55,5.528-5.55h10.897
		c3.05,0,5.556,2.5,5.556,5.55v4.828c0,1.069-0.901,1.927-1.972,1.927H14.968c-1.069,0-1.944-0.857-1.944-1.927V10.904z
		 M15.882,22.205c1.616,0,2.926,1.309,2.926,2.926c0,1.615-1.31,2.926-2.926,2.926s-2.926-1.311-2.926-2.926
		C12.956,23.514,14.266,22.205,15.882,22.205z M11.838,41.714l2.16-3.939h20.004l2.16,3.939H11.838z"/>
</g>
</svg>
