<?xml version="1.0" encoding="utf-8"?>
<!-- Generator: Adobe Illustrator 16.0.0, SVG Export Plug-In . SVG Version: 6.00 Build 0)  -->
<!DOCTYPE svg PUBLIC "-//W3C//DTD SVG 1.1//EN" "http://www.w3.org/Graphics/SVG/1.1/DTD/svg11.dtd">
<svg version="1.1" id="Layer_1" xmlns="http://www.w3.org/2000/svg" xmlns:xlink="http://www.w3.org/1999/xlink" x="0px" y="0px"
	 width="48px" height="48px" viewBox="0 0 48 48" enable-background="new 0 0 48 48" xml:space="preserve">
<path d="M37.114,26.959C39.32,23.545,41.2,19.9,41.2,16.285c0-8.466-8.734-15.329-17.199-15.329C15.536,0.956,6.8,7.819,6.8,16.285
	c0,3.615,1.895,7.257,4.097,10.674c2.101,3.257,7.635,12.408,7.635,12.408v3.916c0,2.049,1.628,3.695,3.676,3.695h3.592
	c2.048,0,3.684-1.646,3.684-3.695v-3.915C29.483,39.368,35.161,29.981,37.114,26.959z M20.819,39.272l-4.505-7.315
	c2.41,1.544,5.063,2.492,7.691,2.492s5.28-0.954,7.69-2.497l-4.505,7.32H20.819z"/>
</svg>
