<?xml version="1.0" encoding="utf-8"?>
<!-- Generator: Adobe Illustrator 16.0.0, SVG Export Plug-In . SVG Version: 6.00 Build 0)  -->
<!DOCTYPE svg PUBLIC "-//W3C//DTD SVG 1.1//EN" "http://www.w3.org/Graphics/SVG/1.1/DTD/svg11.dtd">
<svg version="1.1" id="Layer_1" xmlns="http://www.w3.org/2000/svg" xmlns:xlink="http://www.w3.org/1999/xlink" x="0px" y="0px"
	 width="48px" height="48px" viewBox="0 0 48 48" enable-background="new 0 0 48 48" xml:space="preserve">
<path d="M47.085,32.811l-1.951-11.076c-0.198-1.125-1.176-1.961-2.318-1.961h-1.312l-0.497-5.177
	c-0.533-5.549-5.139-9.733-10.713-9.733H17.861c-5.574,0-10.18,4.185-10.713,9.733l-0.497,5.177H5.34
	c-1.142,0-2.12,0.836-2.318,1.961L1.071,32.803c-0.242,1.37,0.144,2.782,1.039,3.849c0.86,1.025,2.112,1.637,3.455,1.683v1.837
	c0,2.602,2.09,4.687,4.691,4.687h1.481c2.601,0,4.709-2.085,4.709-4.687v-1.814h15.263v1.813c0,2.601,2.109,4.688,4.71,4.688h1.482
	c2.601,0,4.69-2.088,4.69-4.688v-1.835c1.342-0.046,2.594-0.652,3.454-1.678C46.941,35.59,47.328,34.182,47.085,32.811z
	 M9.695,34.098c-2.196,0-3.976-1.781-3.976-3.978s1.78-3.976,3.976-3.976s3.977,1.779,3.977,3.976S11.891,34.098,9.695,34.098z
	 M10.685,19.773l0.46-4.786c0.334-3.479,3.222-6.097,6.717-6.097h0.706v1.51c0,1.304,1.048,2.377,2.352,2.377h6.318
	c1.304,0,2.352-1.073,2.352-2.377v-1.51h0.706c3.495,0,6.383,2.618,6.717,6.097l0.46,4.786H10.685z M38.461,34.098
	c-2.196,0-3.976-1.781-3.976-3.978s1.78-3.976,3.976-3.976s3.976,1.779,3.976,3.976S40.657,34.098,38.461,34.098z"/>
</svg>
