<?xml version="1.0" encoding="utf-8"?>
<!-- Generator: Adobe Illustrator 16.0.0, SVG Export Plug-In . SVG Version: 6.00 Build 0)  -->
<!DOCTYPE svg PUBLIC "-//W3C//DTD SVG 1.1//EN" "http://www.w3.org/Graphics/SVG/1.1/DTD/svg11.dtd">
<svg version="1.1" id="Layer_1" xmlns="http://www.w3.org/2000/svg" xmlns:xlink="http://www.w3.org/1999/xlink" x="0px" y="0px"
	 width="48px" height="48px" viewBox="0 0 48 48" enable-background="new 0 0 48 48" xml:space="preserve">
<g>
	<path d="M7.796,44.043c-0.387,0.996,0.107,2.116,1.102,2.504c0.23,0.089,0.467,0.132,0.7,0.132c0.774,0,1.506-0.47,1.803-1.234
		l1.947-5.011l-3.784-0.941L7.796,44.043z"/>
	<path d="M14.544,7.846c0-0.405,0.294-0.769,0.684-0.882l6.554-1.903V9.64l0.808-0.231c0.57-0.16,1.179-0.161,1.75-0.002
		l0.842,0.233V5.061l6.554,1.903c0.39,0.113,0.683,0.477,0.683,0.882v3.805l2.852,0.811V7.846c0-1.688-1.139-3.195-2.759-3.668
		l-8.199-2.391c-0.261-0.076-0.638-0.145-0.852-0.145c-0.232,0-0.594,0.068-0.854,0.145L14.42,4.178
		c-1.621,0.473-2.728,1.98-2.728,3.668v4.615l2.851-0.811V7.846z"/>
	<path d="M10.306,32.346l13.157,2.176l13.168-2.176c0.974-0.161,1.709-1.004,1.709-1.991V17.112c0-1.063-0.729-1.996-1.753-2.281
		L24.39,11.428c-0.607-0.169-1.25-0.169-1.857,0l-12.18,3.403c-1.024,0.285-1.73,1.219-1.73,2.281v13.242
		C8.623,31.342,9.333,32.185,10.306,32.346z M23.448,15.605c4.057,0,7.345,3.288,7.345,7.344c0,4.058-3.288,7.346-7.345,7.346
		c-4.056,0-7.344-3.288-7.344-7.346C16.104,18.894,19.392,15.605,23.448,15.605z"/>
	<path d="M39.101,44.043l-1.768-4.551l-3.785,0.941l1.947,5.011c0.297,0.765,1.029,1.234,1.803,1.234c0.233,0,0.47-0.043,0.7-0.132
		C38.994,46.159,39.487,45.039,39.101,44.043z"/>
	<path d="M38.953,35.066l-0.342-1.528c-0.488,0.358-1.064,0.61-1.699,0.715l-12.969,2.156c-0.165,0.027-0.33,0.049-0.494,0.049
		c-0.164,0-0.329-0.021-0.494-0.049L9.986,34.253c-0.635-0.104-1.211-0.356-1.699-0.715l-0.342,1.528
		c-0.24,1.068,0.418,2.134,1.482,2.398l13.205,3.255c0.542,0.134,1.108,0.134,1.651,0l13.188-3.255
		C38.534,37.2,39.191,36.135,38.953,35.066z"/>
	<circle cx="23.448" cy="22.95" r="4.197"/>
</g>
</svg>
