<?xml version="1.0" encoding="utf-8"?>
<!-- Generator: Adobe Illustrator 16.0.0, SVG Export Plug-In . SVG Version: 6.00 Build 0)  -->
<!DOCTYPE svg PUBLIC "-//W3C//DTD SVG 1.1//EN" "http://www.w3.org/Graphics/SVG/1.1/DTD/svg11.dtd">
<svg version="1.1" xmlns="http://www.w3.org/2000/svg" xmlns:xlink="http://www.w3.org/1999/xlink" x="0px" y="0px" width="48px"
	 height="48px" viewBox="0 0 48 48" enable-background="new 0 0 48 48" xml:space="preserve">
<g id="Layer_2" display="none">
	<g display="inline" opacity="0.5">
		<polygon fill="#00B7E8" points="-151,-53 -151,-3 -453,-3 -453,48 51,48 51,7.5 51,1.5 51,-53 		"/>
	</g>
</g>
<g id="Layer_1">
	<g>
		<path d="M35.976,33.68l-4.178-2.435l1.979-12.467c0.681-4.288-0.021-8.785-1.907-12.229c-1.885-3.442-4.748-5.449-7.775-5.449
			c-3.028,0-5.892,2.007-7.776,5.449c-1.885,3.443-2.587,7.94-1.905,12.229l1.977,12.442l-4.176,2.434
			c-0.48,0.279-0.78,0.793-0.78,1.35v6.799c0,0.56,0.305,1.077,0.79,1.355c0.484,0.279,1.084,0.276,1.568-0.005l4.704-2.743h11.15
			l4.747,2.769c0.484,0.282,1.088,0.284,1.573,0.006s0.791-0.796,0.791-1.355v-6.8C36.758,34.474,36.456,33.96,35.976,33.68z
			 M24.095,9.692c1.244,0,2.253,1.009,2.253,2.253s-1.009,2.254-2.253,2.254s-2.254-1.01-2.254-2.254S22.851,9.692,24.095,9.692z
			 M24.095,25.214c-1.93,0-3.493-1.564-3.493-3.494c0-1.929,1.563-3.492,3.493-3.492c1.929,0,3.493,1.563,3.493,3.492
			C27.588,23.649,26.023,25.214,24.095,25.214z"/>
		<path d="M19.072,44.624c0,1.17,0.928,2.143,2.098,2.143h5.848c1.17,0,2.102-0.973,2.102-2.143v-1.907H19.072V44.624z"/>
	</g>
</g>
</svg>
