<?xml version="1.0" encoding="utf-8"?>
<!-- Generator: Adobe Illustrator 16.0.0, SVG Export Plug-In . SVG Version: 6.00 Build 0)  -->
<!DOCTYPE svg PUBLIC "-//W3C//DTD SVG 1.1//EN" "http://www.w3.org/Graphics/SVG/1.1/DTD/svg11.dtd">
<svg version="1.1" xmlns="http://www.w3.org/2000/svg" xmlns:xlink="http://www.w3.org/1999/xlink" x="0px" y="0px" width="48px"
	 height="48px" viewBox="0 0 48 48" enable-background="new 0 0 48 48" xml:space="preserve">
<g id="Layer_2" display="none">
	<g display="inline" opacity="0.5">
		<polygon fill="#00B7E8" points="249,-53 249,-3 -53,-3 -53,48 451,48 451,7.5 451,1.5 451,-53 		"/>
	</g>
</g>
<g id="Layer_1">
	<g>
		<path d="M23.4,30.534c-2.235,0-4.031,1.812-4.031,4.047v8.095c0,2.235,1.796,4.047,4.031,4.047c2.235,0,4.03-1.812,4.03-4.047
			v-8.095C27.431,32.346,25.635,30.534,23.4,30.534z"/>
		<path d="M37.886,6.014h-7.687C29.322,3.116,26.628,1,23.448,1s-5.875,2.116-6.751,5.014H9.01c-1.106,0-2.004,0.908-2.004,2.015
			c0,1.107,0.898,2.016,2.004,2.016h7.671c0.001,0.005,0.002,0.01,0.004,0.014c0.506,1.704,1.639,3.14,3.13,4.039
			c-5.447,1.57-9.438,6.589-9.438,12.539v10.369c0,1.805,1.454,3.271,3.258,3.271h2.71v-5.695c0-3.89,3.165-7.054,7.054-7.054
			c3.889,0,7.054,3.164,7.054,7.054v5.695h2.743c1.805,0,3.304-1.467,3.304-3.271V26.636c0-5.945-3.985-10.961-9.426-12.535
			c1.494-0.9,2.63-2.337,3.136-4.043c0.001-0.004,0.002-0.009,0.004-0.014h7.671c1.107,0,2.004-0.908,2.004-2.016
			C39.89,6.922,38.993,6.014,37.886,6.014z M23.448,12.102c-2.235,0-4.047-1.813-4.047-4.048c0-2.234,1.812-4.047,4.047-4.047
			s4.047,1.813,4.047,4.047C27.495,10.289,25.683,12.102,23.448,12.102z"/>
	</g>
</g>
</svg>
