<?xml version="1.0" encoding="utf-8"?>
<!-- Generator: Adobe Illustrator 16.0.0, SVG Export Plug-In . SVG Version: 6.00 Build 0)  -->
<!DOCTYPE svg PUBLIC "-//W3C//DTD SVG 1.1//EN" "http://www.w3.org/Graphics/SVG/1.1/DTD/svg11.dtd">
<svg version="1.1" id="Layer_1" xmlns="http://www.w3.org/2000/svg" xmlns:xlink="http://www.w3.org/1999/xlink" x="0px" y="0px"
	 width="48px" height="48px" viewBox="0 0 48 48" enable-background="new 0 0 48 48" xml:space="preserve">
<g>
	<path d="M36.793,22.07H24.86c-3.641,0-6.558,2.982-6.558,6.626v15.572c0,1.632,1.287,2.952,2.917,2.952h19.215
		c1.63,0,2.939-1.32,2.939-2.952V28.696C43.374,25.053,40.435,22.07,36.793,22.07z M38.844,33.119c0,1.146-0.928,2.072-2.073,2.072
		H24.827c-1.146,0-2.074-0.927-2.074-2.072v-4.603c0-1.144,0.929-2.072,2.074-2.072h11.943c1.145,0,2.073,0.929,2.073,2.072V33.119z
		"/>
	<path d="M29.159,17.072h-6.872c-1.109,0-2.009,0.921-2.009,2.03c0,1.11,0.9,2.03,2.009,2.03h17.081c1.11,0,2.009-0.92,2.009-2.03
		c0-1.109-0.899-2.03-2.009-2.03h-6.226V7.891l5.209-2.264c1.271-0.554,1.855-2.033,1.301-3.305
		C39.1,1.05,37.622,0.468,36.348,1.019L2.384,15.777c-1.272,0.555-1.855,2.034-1.303,3.306c0.412,0.946,1.335,1.513,2.306,1.513
		c0.334,0,0.674-0.066,1-0.209L29.159,9.621V17.072z"/>
</g>
</svg>
