<?xml version="1.0" encoding="utf-8"?>
<!-- Generator: Adobe Illustrator 16.0.0, SVG Export Plug-In . SVG Version: 6.00 Build 0)  -->
<!DOCTYPE svg PUBLIC "-//W3C//DTD SVG 1.1//EN" "http://www.w3.org/Graphics/SVG/1.1/DTD/svg11.dtd">
<svg version="1.1" xmlns="http://www.w3.org/2000/svg" xmlns:xlink="http://www.w3.org/1999/xlink" x="0px" y="0px" width="48px"
	 height="48px" viewBox="0 0 48 48" enable-background="new 0 0 48 48" xml:space="preserve">
<g id="Layer_2" display="none">
	<g display="inline" opacity="0.5">
		<polygon fill="#00B7E8" points="99,-53 99,-3 -203,-3 -203,48 301,48 301,7.5 301,1.5 301,-53 		"/>
	</g>
</g>
<g id="Layer_1">
	<g>
		<path d="M42.966,4.729l-0.135-0.134c-4.307-4.308-11.291-4.308-15.599,0L4.875,26.952c-4.308,4.308-4.308,11.291,0,15.599
			l0.134,0.135c4.308,4.307,11.292,4.307,15.599,0l22.358-22.358C47.273,16.021,47.273,9.036,42.966,4.729z M41.117,18.479
			L18.759,40.837c-3.28,3.279-8.6,3.301-11.879,0.021L6.741,40.72c-3.279-3.28-3.258-8.6,0.022-11.88L29.121,6.482
			C32.4,3.202,37.72,3.181,41,6.46l0.139,0.14C44.418,9.879,44.397,15.199,41.117,18.479z"/>
		<path d="M37.62,16.06c-0.408-0.408-1.07-0.408-1.478,0l-0.638,0.638l-1.849-1.849l0.472-0.472l-0.904-0.904l-0.472,0.472
			l-1.849-1.849l0.638-0.638c0.408-0.408,0.408-1.07,0-1.479l-1.315-1.314c-0.408-0.408-1.07-0.408-1.478,0l-3.164,3.163
			c-0.408,0.408-0.408,1.07,0,1.479l1.315,1.314c0.408,0.408,1.069,0.408,1.478,0l0.677-0.677l1.849,1.849l-0.472,0.472l0.905,0.905
			l0.472-0.473l1.849,1.849l-0.677,0.678c-0.408,0.407-0.408,1.069,0,1.478l1.315,1.314c0.408,0.408,1.07,0.408,1.478,0l3.163-3.163
			c0.408-0.408,0.408-1.07,0-1.479L37.62,16.06z"/>
		<path d="M20.981,32.697c-0.408-0.407-1.07-0.407-1.478,0l-0.677,0.678l-1.849-1.849l0.472-0.473l-0.905-0.904l-0.472,0.472
			l-1.849-1.849l0.677-0.677c0.408-0.408,0.408-1.07,0-1.478l-1.314-1.315c-0.408-0.408-1.07-0.408-1.478,0l-3.163,3.164
			c-0.408,0.408-0.408,1.069,0,1.478l1.314,1.314c0.408,0.408,1.07,0.408,1.478,0l0.638-0.638l1.849,1.849l-0.472,0.473l0.905,0.904
			l0.472-0.472l1.849,1.849l-0.638,0.638c-0.408,0.408-0.408,1.069,0,1.478l1.314,1.314c0.408,0.408,1.07,0.408,1.478,0l3.164-3.163
			c0.408-0.408,0.408-1.069,0-1.478L20.981,32.697z"/>
	</g>
</g>
</svg>
