<?xml version="1.0" encoding="utf-8"?>
<!-- Generator: Adobe Illustrator 16.0.0, SVG Export Plug-In . SVG Version: 6.00 Build 0)  -->
<!DOCTYPE svg PUBLIC "-//W3C//DTD SVG 1.1//EN" "http://www.w3.org/Graphics/SVG/1.1/DTD/svg11.dtd">
<svg version="1.1" id="Layer_1" xmlns="http://www.w3.org/2000/svg" xmlns:xlink="http://www.w3.org/1999/xlink" x="0px" y="0px"
	 width="48px" height="48px" viewBox="0 0 48 48" enable-background="new 0 0 48 48" xml:space="preserve">
<path d="M46.002,25.573c-0.221-0.375-0.581-0.644-1.003-0.748l-4.302-1.052l-3.208-11.007c-1.107-3.795-4.522-6.484-8.473-6.657
	V3.773c0-1.494-1.237-2.72-2.729-2.72h-3.559c-1.492,0-2.729,1.226-2.729,2.72v2.336c-3.95,0.173-7.365,2.862-8.474,6.657
	L8.323,23.773l-4.306,1.052c-0.422,0.104-0.783,0.373-1.003,0.748c-0.223,0.373-0.281,0.822-0.167,1.24l3.239,11.9
	c0.833,3.063,3.32,5.394,6.43,6.028l10.242,2.089C23.335,46.949,23.922,47,24.507,47c0.587,0,1.174-0.051,1.75-0.168l10.242-2.089
	c3.109-0.635,5.597-2.966,6.431-6.028l3.238-11.9C46.282,26.395,46.224,25.946,46.002,25.573z M15.402,13.909
	c0.647-2.218,2.714-3.753,5.025-3.753h8.16c2.312,0,4.378,1.535,5.025,3.753l0.561,1.917l-8.492-2.589
	c-0.384-0.117-0.779-0.183-1.175-0.183c-0.394,0-0.789,0.064-1.173,0.18l-8.492,2.591L15.402,13.909z M15.883,37.712
	c-1.773,0-3.211-2.177-3.211-4.863c0-2.686,1.438-4.864,3.211-4.864c1.774,0,3.213,2.178,3.213,4.864
	C19.096,35.535,17.657,37.712,15.883,37.712z M24.507,20.058c-0.654,0-1.309,0.083-1.95,0.239l-9.715,2.374l0.988-3.388l10.38-3.161
	c0.098-0.03,0.197-0.051,0.297-0.051c0.101,0,0.201,0.021,0.299,0.051l10.38,3.161l0.987,3.388l-9.715-2.374
	C25.817,20.141,25.162,20.058,24.507,20.058z M33.133,37.712c-1.774,0-3.213-2.177-3.213-4.863c0-2.686,1.438-4.864,3.213-4.864
	c1.773,0,3.211,2.178,3.211,4.864C36.344,35.535,34.906,37.712,33.133,37.712z"/>
</svg>
