<?xml version="1.0" encoding="utf-8"?>
<!-- Generator: Adobe Illustrator 16.0.0, SVG Export Plug-In . SVG Version: 6.00 Build 0)  -->
<!DOCTYPE svg PUBLIC "-//W3C//DTD SVG 1.1//EN" "http://www.w3.org/Graphics/SVG/1.1/DTD/svg11.dtd">
<svg version="1.1" xmlns="http://www.w3.org/2000/svg" xmlns:xlink="http://www.w3.org/1999/xlink" x="0px" y="0px" width="48px"
	 height="48px" viewBox="0 0 48 48" enable-background="new 0 0 48 48" xml:space="preserve">
<g id="Layer_2" display="none">
	<g display="inline" opacity="0.5">
		<polygon fill="#00B7E8" points="-101,-3 -101,47 -403,47 -403,98 101,98 101,57.5 101,51.5 101,-3 		"/>
		<polygon fill="#E27600" points="-405,-52 -405,-3.087 -405,47 -101,47 -101,-2 101,-2 101,-52 		"/>
	</g>
</g>
<g id="Layer_1">
	<path d="M36.842,18.919c-0.197,0-0.383,0.007-0.578,0.018l-0.723-3.916v-4.396c0-1.748-1.441-3.163-3.189-3.163h-0.817
		c-0.826,0-1.496,0.66-1.496,1.485c0,0.826,0.67,1.485,1.496,1.485h0.817c0.099,0,0.174,0.094,0.174,0.192v3.829H16.12l0.504-2.011
		h4.441c1.102,0,1.994-0.887,1.994-1.988c0-1.101-0.893-1.987-1.994-1.987H10.099c-1.102,0-1.994,0.887-1.994,1.987
		c0,1.102,0.893,1.988,1.994,1.988h3.442l-1.636,6.524c-0.324-0.031-0.652-0.048-0.985-0.048c-5.583,0-10.126,4.543-10.126,10.127
		S5.337,39.173,10.92,39.173c5.584,0,10.127-4.543,10.127-10.127c0-4.208-2.58-7.824-6.241-9.351l0.569-2.272h17.536
		c0.009,0.01,0.018,0.019,0.026,0.028l0.392,2.097c-3.857,1.432-6.613,5.149-6.613,9.498c0,5.584,4.543,10.127,10.126,10.127
		c5.584,0,10.127-4.543,10.127-10.127S42.426,18.919,36.842,18.919z M18.056,29.046c0,3.935-3.201,7.136-7.136,7.136
		s-7.136-3.201-7.136-7.136s3.201-7.136,7.136-7.136c0.083,0,0.164,0.002,0.246,0.005l-1.27,5.065
		c-0.76,0.377-1.282,1.16-1.282,2.065c0,1.272,1.032,2.306,2.306,2.306s2.306-1.033,2.306-2.306c0-0.499-0.159-0.96-0.429-1.338
		l1.271-5.065C16.428,23.808,18.056,26.24,18.056,29.046z M36.842,36.182c-3.935,0-7.136-3.201-7.136-7.136
		c0-2.882,1.719-5.371,4.184-6.496l0.988,5.288c-0.216,0.352-0.342,0.766-0.342,1.208c0,1.272,1.032,2.306,2.306,2.306
		s2.306-1.033,2.306-2.306c0-0.951-0.576-1.768-1.399-2.12l-0.938-5.016c0.011,0,0.021,0,0.031,0c3.935,0,7.136,3.201,7.136,7.136
		S40.776,36.182,36.842,36.182z"/>
</g>
</svg>
