<?xml version="1.0" encoding="utf-8"?>
<!-- Generator: Adobe Illustrator 16.0.0, SVG Export Plug-In . SVG Version: 6.00 Build 0)  -->
<!DOCTYPE svg PUBLIC "-//W3C//DTD SVG 1.1//EN" "http://www.w3.org/Graphics/SVG/1.1/DTD/svg11.dtd">
<svg version="1.1" xmlns="http://www.w3.org/2000/svg" xmlns:xlink="http://www.w3.org/1999/xlink" x="0px" y="0px" width="48px"
	 height="48px" viewBox="0 0 48 48" enable-background="new 0 0 48 48" xml:space="preserve">
<g id="Layer_2" display="none">
	<g display="inline" opacity="0.5">
		<polygon fill="#00B7E8" points="-1,-3 -1,47 -303,47 -303,98 201,98 201,57.5 201,51.5 201,-3 		"/>
		<polygon fill="#E27600" points="-305,-52 -305,-3.087 -305,47 -1,47 -1,-2 201,-2 201,-52 		"/>
	</g>
</g>
<g id="Layer_1">
	<g>
		<path d="M37.52,20.312v-8.25c1.039-0.666,1.704-1.83,1.704-3.156V8.302c0-2.072-1.696-3.769-3.769-3.769H11.763
			c-2.071,0-3.766,1.695-3.766,3.767v0.605c0,1.848,1.348,3.385,3.107,3.692L7.216,24.93H7.193c-1.347,0-2.563,0.805-3.092,2.044
			l-2.466,5.787c1.285-1.261,3.045-2.039,4.983-2.039c3.854,0,7.003,3.079,7.115,6.908h11.86c0.112-3.829,3.261-6.908,7.115-6.908
			c3.039,0,5.639,1.913,6.658,4.599h4.998c1.35,0,2.444-1.094,2.444-2.443V22.756c0-1.35-1.095-2.444-2.444-2.444H37.52z
			 M34.056,20.312h-4.618v4.618h-2.309v5.282c0,0.908-0.737,1.645-1.646,1.645h-5.946c-0.908,0-1.645-0.736-1.645-1.645V24.93
			h-5.768l3.061-3.063l1.227,1.226l0.818-0.819l-3.271-3.271l-0.818,0.817l1.228,1.227l-3.342,3.351l3.71-11.726h19.319V20.312z"/>
		<path d="M6.619,31.878c-3.293,0-5.962,2.67-5.962,5.962c0,3.293,2.669,5.963,5.962,5.963s5.962-2.67,5.962-5.963
			C12.581,34.548,9.912,31.878,6.619,31.878z M6.619,40.332c-1.374,0-2.492-1.118-2.492-2.492s1.118-2.491,2.492-2.491
			S9.11,36.466,9.11,37.84S7.993,40.332,6.619,40.332z"/>
		<path d="M32.71,31.878c-3.292,0-5.962,2.67-5.962,5.962c0,3.293,2.67,5.963,5.962,5.963c3.293,0,5.963-2.67,5.963-5.963
			C38.673,34.548,36.003,31.878,32.71,31.878z M32.71,40.332c-1.374,0-2.491-1.118-2.491-2.492s1.117-2.491,2.491-2.491
			s2.492,1.117,2.492,2.491S34.084,40.332,32.71,40.332z"/>
	</g>
</g>
</svg>
