<?xml version="1.0" encoding="utf-8"?>
<!-- Generator: Adobe Illustrator 16.0.0, SVG Export Plug-In . SVG Version: 6.00 Build 0)  -->
<!DOCTYPE svg PUBLIC "-//W3C//DTD SVG 1.1//EN" "http://www.w3.org/Graphics/SVG/1.1/DTD/svg11.dtd">
<svg version="1.1" xmlns="http://www.w3.org/2000/svg" xmlns:xlink="http://www.w3.org/1999/xlink" x="0px" y="0px" width="48px"
	 height="48px" viewBox="0 0 48 48" enable-background="new 0 0 48 48" xml:space="preserve">
<g id="Layer_2" display="none">
	<g display="inline" opacity="0.5">
		<polygon fill="#00B7E8" points="199,-53 199,-3 -103,-3 -103,48 401,48 401,7.5 401,1.5 401,-53 		"/>
	</g>
</g>
<g id="Layer_1">
	<path d="M28.686,7.854h-4.271V3.938h9.467c0.55,0,0.998,0.461,0.998,1.012c0,0.826,0.67,1.503,1.497,1.503s1.497-0.652,1.497-1.479
		C37.874,2.772,36.083,1,33.882,1H11.93C9.729,1,7.939,2.775,7.939,4.977c0,0.826,0.67,1.49,1.497,1.49
		c0.827,0,1.497-0.688,1.497-1.515c0-0.55,0.448-1.015,0.998-1.015h9.49v3.917h-4.257c-4.88,0-8.817,3.955-8.817,8.836v18.04
		c0,2.005,1.443,3.672,3.354,3.995l-2.858,5.476c-0.51,0.977-0.131,2.183,0.846,2.693c0.294,0.153,0.61,0.226,0.921,0.226
		c0.72,0,1.415-0.39,1.771-1.071l0.605-1.16h19.842l0.604,1.159c0.356,0.683,1.051,1.072,1.771,1.072
		c0.312,0,0.627-0.072,0.922-0.226c0.977-0.511,1.356-1.717,0.846-2.692l-2.857-5.477c1.915-0.322,3.376-1.989,3.376-3.995V16.654
		C37.49,11.793,33.546,7.854,28.686,7.854z M31.079,35.1c-1.627,0-2.946-1.319-2.946-2.945c0-1.628,1.318-2.946,2.946-2.946
		c1.626,0,2.945,1.318,2.945,2.946C34.024,33.78,32.705,35.1,31.079,35.1z M11.859,17.832c0-3.07,2.492-5.543,5.562-5.543h10.971
		c3.07,0,5.584,2.473,5.584,5.543v4.86c0,1.076-0.899,1.922-1.977,1.922H13.813c-1.078,0-1.954-0.846-1.954-1.922V17.832z
		 M14.733,29.208c1.627,0,2.946,1.318,2.946,2.946c0,1.626-1.318,2.945-2.946,2.945c-1.626,0-2.945-1.319-2.945-2.945
		C11.788,30.526,13.106,29.208,14.733,29.208z M14.549,41.894l1.623-3.11h13.47l1.623,3.11H14.549z"/>
</g>
</svg>
