<?xml version="1.0" encoding="utf-8"?>
<!-- Generator: Adobe Illustrator 16.0.0, SVG Export Plug-In . SVG Version: 6.00 Build 0)  -->
<!DOCTYPE svg PUBLIC "-//W3C//DTD SVG 1.1//EN" "http://www.w3.org/Graphics/SVG/1.1/DTD/svg11.dtd">
<svg version="1.1" xmlns="http://www.w3.org/2000/svg" xmlns:xlink="http://www.w3.org/1999/xlink" x="0px" y="0px" width="48px"
	 height="48px" viewBox="0 0 48 48" enable-background="new 0 0 48 48" xml:space="preserve">
<g id="Layer_2" display="none">
	<g display="inline" opacity="0.5">
		<polygon fill="#00B7E8" points="-51,-53 -51,-3 -353,-3 -353,48 151,48 151,7.5 151,1.5 151,-53 		"/>
	</g>
</g>
<g id="Layer_1">
	<g>
		<path d="M41.209,34.092c-2.546,0-4.694,1.735-5.339,4.076h-0.922c-0.645-2.341-2.793-4.07-5.338-4.07
			c-2.546,0-4.695,1.729-5.339,4.07h-0.718c-0.645-2.341-2.793-4.07-5.338-4.07c-2.546,0-4.695,1.729-5.339,4.07h-0.718
			c-0.645-2.341-2.794-4.076-5.339-4.076c-3.053,0-5.536,2.479-5.536,5.533c0,3.052,2.483,5.529,5.536,5.529
			c2.545,0,4.694-1.732,5.339-4.074h0.718c0.645,2.342,2.793,4.069,5.339,4.069c2.545,0,4.693-1.728,5.338-4.069h0.718
			c0.645,2.342,2.793,4.069,5.339,4.069c2.545,0,4.693-1.728,5.338-4.069h0.922c0.645,2.342,2.794,4.073,5.339,4.073
			c3.053,0,5.536-2.479,5.536-5.53C46.745,36.569,44.262,34.092,41.209,34.092z M8.128,41.08H8.97
			c-0.47,0.686-1.258,1.141-2.149,1.141c-1.436,0-2.604-1.166-2.604-2.602s1.168-2.596,2.604-2.596c0.893,0,1.681,0.459,2.149,1.145
			H8.128c-0.81,0-1.467,0.646-1.467,1.456S7.318,41.08,8.128,41.08z M18.216,42.217c-0.893,0-1.681-0.451-2.149-1.137h4.298
			C19.895,41.766,19.106,42.217,18.216,42.217z M16.065,38.168c0.47-0.686,1.258-1.137,2.15-1.137c0.892,0,1.68,0.451,2.148,1.137
			H16.065z M29.61,42.217c-0.893,0-1.681-0.451-2.149-1.137h4.298C31.29,41.766,30.502,42.217,29.61,42.217z M27.46,38.168
			c0.47-0.686,1.258-1.137,2.15-1.137c0.892,0,1.68,0.451,2.149,1.137H27.46z M41.209,42.221c-0.892,0-1.68-0.455-2.149-1.141h0.353
			c0.81,0,1.467-0.646,1.467-1.456s-0.657-1.456-1.467-1.456h-0.354c0.47-0.686,1.258-1.144,2.15-1.144
			c1.436,0,2.603,1.162,2.603,2.599C43.812,41.058,42.645,42.221,41.209,42.221z"/>
		<path d="M14.246,26.303c-1.369,0-2.712-0.467-3.786-1.315l-5.489-4.621v8.516c0,1.758,1.42,3.176,3.178,3.176h30.779
			c1.758,0,3.16-1.418,3.16-3.176v-1.26c0-5.362-3.805-9.967-9.073-10.964l-6.554-1.24c-0.015,1.864-0.857,3.595-2.323,4.75
			l-6.104,4.819C16.96,25.836,15.615,26.303,14.246,26.303z"/>
		<path d="M23.529,4.939c0-1.758-1.419-3.203-3.177-3.203H8.142c-1.758,0-3.171,1.445-3.171,3.203v1.708h18.559V4.939z"/>
		<path d="M6.176,17.866l6.103,4.819c0.577,0.456,1.272,0.685,1.97,0.685s1.394-0.229,1.971-0.685l6.103-4.819
			c0.765-0.604,1.208-1.524,1.208-2.498V9.56H4.971v5.809C4.971,16.342,5.411,17.263,6.176,17.866z"/>
	</g>
</g>
</svg>
